<svg width="20" height="20" viewBox="0 0 20 20" fill="none" xmlns="http://www.w3.org/2000/svg">
<path fill-rule="evenodd" clip-rule="evenodd" d="M9.9998 1.5C10.2759 1.5 10.4998 1.72386 10.4998 2V9.49999H18C18.2761 9.49999 18.5 9.72385 18.5 9.99999C18.5 10.2761 18.2761 10.5 18 10.5H10.4998V18C10.4998 18.2761 10.2759 18.5 9.9998 18.5C9.72366 18.5 9.4998 18.2761 9.4998 18V10.5H2C1.72386 10.5 1.5 10.2761 1.5 9.99999C1.5 9.72385 1.72386 9.49999 2 9.49999H9.4998V2C9.4998 1.72386 9.72366 1.5 9.9998 1.5Z" fill="#BABABA"/>
</svg>
