<svg width="20" height="20" viewBox="0 0 20 20" fill="none" xmlns="http://www.w3.org/2000/svg">
<path fill-rule="evenodd" clip-rule="evenodd" d="M10 14.98C10.2761 14.98 10.5 15.2039 10.5 15.48V17.4C10.5 17.6761 10.2761 17.9 10 17.9C9.72386 17.9 9.5 17.6761 9.5 17.4V15.48C9.5 15.2039 9.72386 14.98 10 14.98Z" fill="#BABABA"/>
<path fill-rule="evenodd" clip-rule="evenodd" d="M10 8.26C10.2761 8.26 10.5 8.48386 10.5 8.76V11.64C10.5 11.9161 10.2761 12.14 10 12.14C9.72386 12.14 9.5 11.9161 9.5 11.64V8.76C9.5 8.48386 9.72386 8.26 10 8.26Z" fill="#BABABA"/>
<path fill-rule="evenodd" clip-rule="evenodd" d="M10 2.5C10.2761 2.5 10.5 2.72386 10.5 3V4.92C10.5 5.19614 10.2761 5.42 10 5.42C9.72386 5.42 9.5 5.19614 9.5 4.92V3C9.5 2.72386 9.72386 2.5 10 2.5Z" fill="#BABABA"/>
<path fill-rule="evenodd" clip-rule="evenodd" d="M4.61538 12.14C4.56996 12.14 4.5 12.184 4.5 12.28V14.84C4.5 14.936 4.56996 14.98 4.61538 14.98H15.3846C15.43 14.98 15.5 14.936 15.5 14.84V12.28C15.5 12.184 15.43 12.14 15.3846 12.14H4.61538ZM3.5 12.28C3.5 11.6691 3.98107 11.14 4.61538 11.14H15.3846C16.0189 11.14 16.5 11.6691 16.5 12.28V14.84C16.5 15.4509 16.0189 15.98 15.3846 15.98H4.61538C3.98107 15.98 3.5 15.4509 3.5 14.84V12.28Z" fill="#BABABA"/>
<path fill-rule="evenodd" clip-rule="evenodd" d="M6.46144 5.42C6.41602 5.42 6.34605 5.46402 6.34605 5.56V8.12C6.34605 8.21598 6.41602 8.26 6.46144 8.26H13.5384C13.5838 8.26 13.6537 8.21598 13.6537 8.12V5.56C13.6537 5.46402 13.5838 5.42 13.5384 5.42H6.46144ZM5.34605 5.56C5.34605 4.94906 5.82713 4.42 6.46144 4.42H13.5384C14.1727 4.42 14.6537 4.94906 14.6537 5.56V8.12C14.6537 8.73094 14.1727 9.26 13.5384 9.26H6.46144C5.82713 9.26 5.34605 8.73094 5.34605 8.12V5.56Z" fill="#BABABA"/>
</svg>
