<svg width="20" height="20" viewBox="0 0 20 20" fill="none" xmlns="http://www.w3.org/2000/svg">
  <path fill-rule="evenodd" clip-rule="evenodd" d="M2.86788 9.83919C2.77907 9.928 2.77907 10.072 2.86788 10.1608L9.83915 17.1321C9.92796 17.2209 10.072 17.2209 10.1608 17.1321L17.132 10.1608C17.2209 10.072 17.2209 9.928 17.132 9.83919L10.1608 2.86792C10.072 2.7791 9.92796 2.7791 9.83915 2.86792L2.86788 9.83919ZM2.16077 10.8679C1.68143 10.3886 1.68143 9.61142 2.16077 9.13208L9.13204 2.16081C9.61138 1.68147 10.3885 1.68147 10.8679 2.16081L17.8391 9.13208C18.3185 9.61142 18.3185 10.3886 17.8391 10.8679L10.8679 17.8392C10.3885 18.3185 9.61138 18.3185 9.13204 17.8392L2.16077 10.8679Z" fill="#BABABA" />
  <path fill-rule="evenodd" clip-rule="evenodd" d="M7.7608 7.76083C7.95606 7.56557 8.27264 7.56557 8.4679 7.76083L12.2391 11.5321C12.4344 11.7273 12.4344 12.0439 12.2391 12.2392C12.0439 12.4344 11.7273 12.4344 11.532 12.2392L7.7608 8.46794C7.56553 8.27268 7.56553 7.9561 7.7608 7.76083Z" fill="#BABABA" />
  <path fill-rule="evenodd" clip-rule="evenodd" d="M7.7608 12.2392C7.56553 12.0439 7.56553 11.7273 7.7608 11.5321L11.532 7.76084C11.7273 7.56558 12.0439 7.56558 12.2391 7.76084C12.4344 7.9561 12.4344 8.27268 12.2391 8.46795L8.4679 12.2392C8.27264 12.4344 7.95606 12.4344 7.7608 12.2392Z" fill="#BABABA" />
</svg>
