<svg width="20" height="20" viewBox="0 0 20 20" fill="none" xmlns="http://www.w3.org/2000/svg">
<path fill-rule="evenodd" clip-rule="evenodd" d="M10 1.5C10.2761 1.5 10.5 1.72386 10.5 2V4.16667H15.3333C15.6095 4.16667 15.8333 4.39052 15.8333 4.66667V9.5H18C18.2761 9.5 18.5 9.72386 18.5 10C18.5 10.2761 18.2761 10.5 18 10.5H15.8333V15.3333C15.8333 15.6095 15.6095 15.8333 15.3333 15.8333H10.5V18C10.5 18.2761 10.2761 18.5 10 18.5C9.72386 18.5 9.5 18.2761 9.5 18V15.8333H4.66667C4.39052 15.8333 4.16667 15.6095 4.16667 15.3333V10.5H2C1.72386 10.5 1.5 10.2761 1.5 10C1.5 9.72386 1.72386 9.5 2 9.5H4.16667V4.66667C4.16667 4.39052 4.39052 4.16667 4.66667 4.16667H9.5V2C9.5 1.72386 9.72386 1.5 10 1.5ZM5.16667 5.16667V14.8333H9.99901C9.99934 14.8333 9.99868 14.8333 9.99901 14.8333C9.99934 14.8333 10.0007 14.8333 10.001 14.8333H14.8333V10.001C14.8333 10.0007 14.8333 10.0013 14.8333 10.001C14.8333 10.0007 14.8333 9.99934 14.8333 9.99901V5.16667H5.16667ZM10 8.16667C10.2761 8.16667 10.5 8.39052 10.5 8.66667V9.5H11.3333C11.6095 9.5 11.8333 9.72386 11.8333 10C11.8333 10.2761 11.6095 10.5 11.3333 10.5H10.5V11.3333C10.5 11.6095 10.2761 11.8333 10 11.8333C9.72386 11.8333 9.5 11.6095 9.5 11.3333V10.5H8.66667C8.39052 10.5 8.16667 10.2761 8.16667 10C8.16667 9.72386 8.39052 9.5 8.66667 9.5H9.5V8.66667C9.5 8.39052 9.72386 8.16667 10 8.16667Z" fill="#BABABA"/>
</svg>
