<svg width="20" height="20" viewBox="0 0 20 20" fill="none" xmlns="http://www.w3.org/2000/svg">
<path d="M18.06 10.94C17.78 10.66 17.4 10.5 17 10.5H10C9.87 10.5 9.74 10.45 9.65 10.35C9.56 10.25 9.5 10.13 9.5 10V3C9.5 2.6 9.34 2.22 9.06 1.94C8.78 1.66 8.4 1.5 8 1.5H3C2.61 1.5 2.22 1.66 1.94 1.94C1.66 2.22 1.5 2.6 1.5 3V17C1.5 17.4 1.66 17.78 1.94 18.06C2.22 18.34 2.61 18.5 3 18.5H17C17.4 18.5 17.78 18.34 18.06 18.06C18.34 17.78 18.5 17.4 18.5 17V12C18.5 11.6 18.34 11.22 18.06 10.94V10.94ZM17.5 17C17.5 17.13 17.45 17.26 17.35 17.35C17.25 17.44 17.13 17.5 17 17.5H14.5V16C14.5 15.72 14.28 15.5 14 15.5C13.72 15.5 13.5 15.72 13.5 16V17.5H10.5V15C10.5 14.72 10.28 14.5 10 14.5C9.72 14.5 9.5 14.72 9.5 15V17.5H6.5V16C6.5 15.72 6.28 15.5 6 15.5C5.72 15.5 5.5 15.72 5.5 16V17.5H3C2.87 17.5 2.74 17.45 2.65 17.35C2.56 17.25 2.5 17.13 2.5 17V14.5H4C4.28 14.5 4.5 14.28 4.5 14C4.5 13.72 4.28 13.5 4 13.5H2.5V10.5H5C5.28 10.5 5.5 10.28 5.5 10C5.5 9.72 5.28 9.5 5 9.5H2.5V6.5H4C4.28 6.5 4.5 6.28 4.5 6C4.5 5.72 4.28 5.5 4 5.5H2.5V3C2.5 2.87 2.55 2.74 2.65 2.65C2.75 2.56 2.87 2.5 3 2.5H8C8.13 2.5 8.26 2.55 8.35 2.65C8.44 2.75 8.5 2.87 8.5 3V10C8.5 10.4 8.66 10.78 8.94 11.06C9.22 11.34 9.61 11.5 10 11.5H17C17.13 11.5 17.26 11.55 17.35 11.65C17.44 11.75 17.5 11.87 17.5 12V17V17Z" fill="#BABABA"/>
</svg>
