<svg width="20" height="20" viewBox="0 0 20 20" fill="none" xmlns="http://www.w3.org/2000/svg">
<path fill-rule="evenodd" clip-rule="evenodd" d="M10.0001 3.95454C6.66124 3.95454 3.95459 6.66118 3.95459 10C3.95459 13.3388 6.66124 16.0455 10.0001 16.0455C13.3389 16.0455 16.0455 13.3388 16.0455 10C16.0455 6.66118 13.3389 3.95454 10.0001 3.95454ZM2.95459 10C2.95459 6.1089 6.10895 2.95454 10.0001 2.95454C13.8912 2.95454 17.0455 6.1089 17.0455 10C17.0455 13.8911 13.8912 17.0455 10.0001 17.0455C6.10895 17.0455 2.95459 13.8911 2.95459 10Z" fill="#BABABA"/>
<path fill-rule="evenodd" clip-rule="evenodd" d="M15.0912 10.2273C15.0912 9.95113 15.315 9.72727 15.5912 9.72727H17.5002C17.7764 9.72727 18.0002 9.95113 18.0002 10.2273C18.0002 10.5034 17.7764 10.7273 17.5002 10.7273H15.5912C15.315 10.7273 15.0912 10.5034 15.0912 10.2273Z" fill="#BABABA"/>
<path fill-rule="evenodd" clip-rule="evenodd" d="M2 10.2273C2 9.95113 2.22386 9.72727 2.5 9.72727H4.40909C4.68524 9.72727 4.90909 9.95113 4.90909 10.2273C4.90909 10.5034 4.68524 10.7273 4.40909 10.7273H2.5C2.22386 10.7273 2 10.5034 2 10.2273Z" fill="#BABABA"/>
<path fill-rule="evenodd" clip-rule="evenodd" d="M10.2271 4.90909C9.95091 4.90909 9.72706 4.68524 9.72706 4.40909V2.5C9.72706 2.22386 9.95091 2 10.2271 2C10.5032 2 10.7271 2.22386 10.7271 2.5V4.40909C10.7271 4.68524 10.5032 4.90909 10.2271 4.90909Z" fill="#BABABA"/>
<path fill-rule="evenodd" clip-rule="evenodd" d="M10.2271 18C9.95091 18 9.72706 17.7761 9.72706 17.5V15.5909C9.72706 15.3148 9.95091 15.0909 10.2271 15.0909C10.5032 15.0909 10.7271 15.3148 10.7271 15.5909V17.5C10.7271 17.7761 10.5032 18 10.2271 18Z" fill="#BABABA"/>
<path fill-rule="evenodd" clip-rule="evenodd" d="M10 8.16666C10.2761 8.16666 10.5 8.39052 10.5 8.66666V11.3333C10.5 11.6095 10.2761 11.8333 10 11.8333C9.72386 11.8333 9.50001 11.6095 9.50001 11.3333V8.66666C9.50001 8.39052 9.72386 8.16666 10 8.16666Z" fill="#BABABA"/>
<path fill-rule="evenodd" clip-rule="evenodd" d="M8.16667 9.99999C8.16667 9.72385 8.39053 9.49999 8.66667 9.49999H11.3333C11.6095 9.49999 11.8333 9.72385 11.8333 9.99999C11.8333 10.2761 11.6095 10.5 11.3333 10.5H8.66667C8.39053 10.5 8.16667 10.2761 8.16667 9.99999Z" fill="#BABABA"/>
</svg>
