<svg width="20" height="20" viewBox="0 0 20 20" fill="none" xmlns="http://www.w3.org/2000/svg">
  <path fill-rule="evenodd" clip-rule="evenodd" d="M3.02873 2.5C2.73672 2.5 2.5 2.73672 2.5 3.02873V16.9713C2.5 17.2633 2.73672 17.5 3.02873 17.5H16.9713C17.2633 17.5 17.5 17.2633 17.5 16.9713V3.02873C17.5 2.73672 17.2633 2.5 16.9713 2.5H3.02873ZM1.5 3.02873C1.5 2.18444 2.18444 1.5 3.02873 1.5H16.9713C17.8156 1.5 18.5 2.18444 18.5 3.02873V16.9713C18.5 17.8156 17.8156 18.5 16.9713 18.5H3.02873C2.18444 18.5 1.5 17.8156 1.5 16.9713V3.02873Z" fill="#BABABA" />
  <path fill-rule="evenodd" clip-rule="evenodd" d="M7 7.5C7 7.22386 7.22386 7 7.5 7H12.5C12.7761 7 13 7.22386 13 7.5C13 7.77614 12.7761 8 12.5 8H7.5C7.22386 8 7 7.77614 7 7.5Z" fill="#BABABA" />
  <path fill-rule="evenodd" clip-rule="evenodd" d="M7 10C7 9.72386 7.22386 9.5 7.5 9.5H12.5C12.7761 9.5 13 9.72386 13 10C13 10.2761 12.7761 10.5 12.5 10.5H7.5C7.22386 10.5 7 10.2761 7 10Z" fill="#BABABA" />
  <path fill-rule="evenodd" clip-rule="evenodd" d="M7 12.5C7 12.2239 7.22386 12 7.5 12H12.5C12.7761 12 13 12.2239 13 12.5C13 12.7761 12.7761 13 12.5 13H7.5C7.22386 13 7 12.7761 7 12.5Z" fill="#BABABA" />
</svg>
  