<svg width="20" height="20" viewBox="0 0 20 20" fill="none" xmlns="http://www.w3.org/2000/svg">
<path fill-rule="evenodd" clip-rule="evenodd" d="M9.64807 1.5C9.81733 1.50002 9.97509 1.58568 10.0673 1.72762L14.9586 9.25703C14.9634 9.26445 14.968 9.27201 14.9725 9.27968C15.5112 10.2142 15.7946 11.2741 15.7941 12.3528C15.7936 13.4315 15.5093 14.4911 14.9696 15.4251C14.43 16.3591 13.654 17.1347 12.7198 17.6739C11.7855 18.2131 10.7258 18.497 9.64706 18.497C8.56835 18.497 7.50863 18.2131 6.57435 17.6739C5.64007 17.1347 4.86414 16.3591 4.3245 15.4251C3.78485 14.4911 3.5005 13.4315 3.5 12.3528C3.49951 11.2842 3.77757 10.2342 4.30652 9.30609C4.3149 9.2893 4.32428 9.27288 4.33466 9.25692L9.22878 1.72751C9.32102 1.58559 9.4788 1.49998 9.64807 1.5ZM5.18869 9.77793C5.18846 9.77834 5.18822 9.77874 5.18799 9.77915C4.73686 10.5616 4.49958 11.4491 4.5 12.3523C4.50042 13.2555 4.73851 14.1427 5.19037 14.9248C5.64222 15.7069 6.29193 16.3563 7.07422 16.8078C7.8565 17.2593 8.74383 17.497 9.64706 17.497C10.5503 17.497 11.4376 17.2593 12.2199 16.8078C13.0022 16.3563 13.6519 15.7069 14.1037 14.9248C14.5556 14.1427 14.7937 13.2555 14.7941 12.3523C14.7945 11.4534 14.5595 10.5701 14.1126 9.7904L9.64788 2.91764L5.18869 9.77793Z" fill="#AAAAAA"/>
<path fill-rule="evenodd" clip-rule="evenodd" d="M9.64807 1.5C9.92421 1.5 10.149 1.72386 10.149 2V18C10.149 18.2761 9.9251 18.5 9.64896 18.5C9.37282 18.5 9.14896 18.2761 9.14896 18V2C9.14896 1.72386 9.37192 1.5 9.64807 1.5Z" fill="#AAAAAA"/>
<path fill-rule="evenodd" clip-rule="evenodd" d="M13.338 6.78151C13.5333 6.97677 13.5333 7.29335 13.338 7.48861L10.0025 10.8241C9.80725 11.0194 9.49067 11.0194 9.2954 10.8241C9.10014 10.6289 9.10014 10.3123 9.2954 10.117L12.6309 6.78151C12.8262 6.58624 13.1428 6.58624 13.338 6.78151Z" fill="#AAAAAA"/>
<path fill-rule="evenodd" clip-rule="evenodd" d="M15.2336 9.87421C15.4288 10.0695 15.4288 10.3861 15.2336 10.5813L10.0025 15.8124C9.80725 16.0076 9.49067 16.0076 9.2954 15.8124C9.10014 15.6171 9.10014 15.3005 9.2954 15.1053L14.5265 9.87421C14.7217 9.67895 15.0383 9.67895 15.2336 9.87421Z" fill="#AAAAAA"/>
</svg>
