<svg width="20" height="20" viewBox="0 0 20 20" fill="none" xmlns="http://www.w3.org/2000/svg">
<path fill-rule="evenodd" clip-rule="evenodd" d="M10 2.5C5.85786 2.5 2.5 5.85786 2.5 10C2.5 14.1421 5.85786 17.5 10 17.5C14.1421 17.5 17.5 14.1421 17.5 10C17.5 5.85786 14.1421 2.5 10 2.5ZM1.5 10C1.5 5.30558 5.30558 1.5 10 1.5C14.6944 1.5 18.5 5.30558 18.5 10C18.5 14.6944 14.6944 18.5 10 18.5C5.30558 18.5 1.5 14.6944 1.5 10Z" fill="#BABABA"/>
<path fill-rule="evenodd" clip-rule="evenodd" d="M10 1.5C10.2761 1.5 10.5 1.72386 10.5 2V18C10.5 18.2761 10.2761 18.5 10 18.5C9.72386 18.5 9.5 18.2761 9.5 18V2C9.5 1.72386 9.72386 1.5 10 1.5Z" fill="#BABABA"/>
<path fill-rule="evenodd" clip-rule="evenodd" d="M14.4869 2.84645C14.6821 3.04171 14.6821 3.35829 14.4869 3.55355L10.3536 7.68689C10.1583 7.88215 9.84171 7.88215 9.64645 7.68689C9.45118 7.49162 9.45118 7.17504 9.64645 6.97978L13.7798 2.84645C13.975 2.65118 14.2916 2.65118 14.4869 2.84645Z" fill="#BABABA"/>
<path fill-rule="evenodd" clip-rule="evenodd" d="M16.9047 5.13977C17.0999 5.33504 17.0999 5.65162 16.9047 5.84688L10.3536 12.398C10.1583 12.5933 9.84171 12.5933 9.64645 12.398C9.45118 12.2027 9.45118 11.8861 9.64645 11.6909L16.1976 5.13977C16.3928 4.94451 16.7094 4.94451 16.9047 5.13977Z" fill="#BABABA"/>
<path fill-rule="evenodd" clip-rule="evenodd" d="M18.2202 8.53535C18.4155 8.73061 18.4155 9.04719 18.2202 9.24245L10.3536 17.1091C10.1583 17.3044 9.84171 17.3044 9.64645 17.1091C9.45118 16.9139 9.45118 16.5973 9.64645 16.402L17.5131 8.53535C17.7084 8.34008 18.025 8.34008 18.2202 8.53535Z" fill="#BABABA"/>
</svg>
