<svg width="20" height="20" viewBox="0 0 20 20" fill="none" xmlns="http://www.w3.org/2000/svg">
<path fill-rule="evenodd" clip-rule="evenodd" d="M10 2.5C7.99474 2.5 6.01477 2.80714 4.52887 3.4015C3.78572 3.69876 3.26467 4.02853 2.93694 4.3518C2.61172 4.6726 2.50003 4.96122 2.50003 5.2C2.50003 5.43878 2.61172 5.7274 2.93694 6.0482C3.26467 6.37147 3.78572 6.70125 4.52887 6.99851C6.01477 7.59286 7.99474 7.9 10 7.9C12.0053 7.9 13.9853 7.59286 15.4712 6.99851C16.2143 6.70125 16.7354 6.37147 17.0631 6.0482C17.3883 5.7274 17.5 5.43878 17.5 5.2C17.5 4.96122 17.3883 4.6726 17.0631 4.3518C16.7354 4.02853 16.2143 3.69876 15.4712 3.4015C13.9853 2.80714 12.0053 2.5 10 2.5ZM10 1.5C12.0895 1.5 14.2043 1.8177 15.8426 2.47302C16.6615 2.8006 17.312 3.19272 17.7654 3.63987C18.2212 4.0895 18.5 4.61983 18.5 5.2C18.5 5.78017 18.2212 6.3105 17.7654 6.76013C17.312 7.20728 16.6615 7.5994 15.8426 7.92698C14.2043 8.5823 12.0895 8.9 10 8.9C7.91056 8.9 5.79578 8.5823 4.15748 7.92698C3.33852 7.5994 2.68801 7.20728 2.23469 6.76013C1.77886 6.3105 1.50003 5.78017 1.50003 5.2C1.50003 4.61983 1.77886 4.0895 2.23469 3.63987C2.68801 3.19272 3.33852 2.8006 4.15748 2.47302C5.79578 1.8177 7.91056 1.5 10 1.5Z" fill="#BABABA"/>
<path fill-rule="evenodd" clip-rule="evenodd" d="M2 4.7C2.27614 4.7 2.50003 4.92386 2.50003 5.2L2.5 9.46667C2.5 9.8777 2.83937 10.3924 3.74181 10.8949C4.61451 11.3808 5.88114 11.7735 7.39433 11.9882C7.66773 12.0269 7.85792 12.28 7.81913 12.5534C7.78034 12.8268 7.52726 13.017 7.25386 12.9782C5.66446 12.7527 4.26904 12.333 3.25535 11.7686C2.27138 11.2207 1.5 10.4473 1.5 9.46667L1.50003 5.2C1.50003 4.92386 1.72386 4.7 2 4.7Z" fill="#BABABA"/>
<path fill-rule="evenodd" clip-rule="evenodd" d="M2 8.96667C2.27614 8.96667 2.5 9.19053 2.5 9.46667V13.7333C2.5 14.1922 2.92724 14.7753 4.03684 15.3145C5.10148 15.8318 6.62693 16.218 8.40187 16.3639C8.67708 16.3865 8.88184 16.628 8.85921 16.9032C8.83658 17.1784 8.59513 17.3832 8.31992 17.3605C6.46249 17.2078 4.8075 16.8007 3.59979 16.2139C2.43702 15.6489 1.5 14.8169 1.5 13.7333V9.46667C1.5 9.19053 1.72386 8.96667 2 8.96667Z" fill="#BABABA"/>
<path fill-rule="evenodd" clip-rule="evenodd" d="M11.8438 13.4888C11.4143 13.0593 10.7178 13.0593 10.2882 13.4888C9.85862 13.9184 9.85862 14.6149 10.2882 15.0445C10.7178 15.4741 11.4143 15.4741 11.8438 15.0445C12.2734 14.6149 12.2734 13.9184 11.8438 13.4888ZM9.58109 12.7817C10.4012 11.9616 11.7308 11.9616 12.5509 12.7817C13.371 13.6018 13.371 14.9315 12.5509 15.7516C11.7308 16.5717 10.4012 16.5717 9.58109 15.7516C8.76099 14.9315 8.76099 13.6018 9.58109 12.7817Z" fill="#BABABA"/>
<path fill-rule="evenodd" clip-rule="evenodd" d="M17.1772 15.6222C16.7476 15.1926 16.0511 15.1926 15.6215 15.6222C15.192 16.0518 15.192 16.7482 15.6215 17.1778C16.0511 17.6074 16.7476 17.6074 17.1772 17.1778C17.6067 16.7482 17.6067 16.0518 17.1772 15.6222ZM14.9144 14.9151C15.7345 14.095 17.0642 14.095 17.8843 14.9151C18.7044 15.7352 18.7044 17.0648 17.8843 17.8849C17.0642 18.705 15.7345 18.705 14.9144 17.8849C14.0943 17.0648 14.0943 15.7352 14.9144 14.9151Z" fill="#BABABA"/>
<path fill-rule="evenodd" clip-rule="evenodd" d="M17.1772 10.2888C16.7476 9.85927 16.0511 9.85927 15.6215 10.2888C15.192 10.7184 15.192 11.4149 15.6215 11.8445C16.0511 12.2741 16.7476 12.2741 17.1772 11.8445C17.6067 11.4149 17.6067 10.7184 17.1772 10.2888ZM14.9144 9.58174C15.7345 8.76164 17.0642 8.76164 17.8843 9.58174C18.7044 10.4018 18.7044 11.7315 17.8843 12.5516C17.0642 13.3717 15.7345 13.3717 14.9144 12.5516C14.0943 11.7315 14.0943 10.4018 14.9144 9.58174Z" fill="#BABABA"/>
<path fill-rule="evenodd" clip-rule="evenodd" d="M15.4562 11.6336C15.5983 11.8704 15.5215 12.1775 15.2847 12.3196L12.6891 13.8769C12.4524 14.019 12.1452 13.9422 12.0032 13.7054C11.8611 13.4686 11.9379 13.1615 12.1747 13.0194L14.7702 11.4621C15.007 11.32 15.3141 11.3968 15.4562 11.6336Z" fill="#BABABA"/>
<path fill-rule="evenodd" clip-rule="evenodd" d="M12.0889 14.6774C12.1915 14.421 12.4826 14.2965 12.7389 14.3992L15.0998 15.3449C15.3562 15.4476 15.4807 15.7387 15.378 15.995C15.2753 16.2514 14.9843 16.3759 14.7279 16.2732L12.3671 15.3274C12.1107 15.2247 11.9862 14.9337 12.0889 14.6774Z" fill="#BABABA"/>
</svg>
