<svg width="20" height="20" viewBox="0 0 20 20" fill="none" xmlns="http://www.w3.org/2000/svg">
<path fill-rule="evenodd" clip-rule="evenodd" d="M16.97 1.5H3.03C2.18 1.5 1.5 2.18 1.5 3.03V16.97C1.5 17.81 2.18 18.5 3.03 18.5H16.97C17.81 18.5 18.5 17.82 18.5 16.97V3.03C18.5 2.19 17.82 1.5 16.97 1.5ZM17.5 16.97C17.5 17.26 17.26 17.5 16.97 17.5H3.03C2.74 17.5 2.5 17.26 2.5 16.97V3.03C2.5 2.74 2.74 2.5 3.03 2.5H16.97C17.26 2.5 17.5 2.74 17.5 3.03V16.97Z" fill="#BABABA"/>
<path fill-rule="evenodd" clip-rule="evenodd" d="M14 6.42C13.73 6.21 13.38 6.04 12.99 5.91C12.2 5.65 11.15 5.49 10 5.49C8.85 5.49 7.8 5.64 7.01 5.91C6.62 6.04 6.27 6.21 6 6.42C5.74 6.62 5.5 6.93 5.5 7.33V12.66C5.5 13.05 5.73 13.35 5.99 13.56C6.25 13.77 6.61 13.94 7.01 14.08C7.83 14.35 8.9 14.5 10 14.5C11.1 14.5 12.17 14.36 12.99 14.08C13.4 13.94 13.75 13.77 14.01 13.56C14.27 13.35 14.5 13.05 14.5 12.66V7.33C14.5 6.93 14.25 6.62 14 6.42ZM6.5 8.54C6.66 8.62 6.83 8.69 7.01 8.75C7.8 9.01 8.85 9.17 10 9.17C11.15 9.17 12.2 9.02 12.99 8.75C13.17 8.69 13.34 8.62 13.5 8.54V9.99C13.5 9.99 13.47 10.05 13.38 10.12C13.24 10.23 13.01 10.35 12.67 10.47C11.98 10.7 11.02 10.83 10 10.83C8.98 10.83 8.01 10.69 7.33 10.47C6.99 10.36 6.75 10.23 6.62 10.12C6.53 10.05 6.51 10 6.5 9.99V8.54ZM6.62 7.2C6.76 7.09 6.99 6.97 7.33 6.86C7.99 6.64 8.93 6.5 10 6.5C11.07 6.5 12.01 6.64 12.67 6.86C13 6.97 13.24 7.09 13.38 7.2C13.46 7.26 13.49 7.31 13.5 7.33C13.5 7.35 13.46 7.39 13.38 7.46C13.24 7.57 13.01 7.69 12.67 7.8C12.01 8.02 11.07 8.16 10 8.16C8.93 8.16 7.99 8.02 7.33 7.8C7 7.69 6.76 7.57 6.62 7.46C6.54 7.4 6.51 7.35 6.5 7.33C6.5 7.31 6.54 7.27 6.62 7.2ZM13.38 12.78C13.24 12.89 13.01 13.01 12.67 13.13C11.98 13.36 11.02 13.49 10 13.49C8.98 13.49 8.01 13.35 7.33 13.13C6.99 13.02 6.75 12.89 6.62 12.78C6.53 12.71 6.51 12.66 6.5 12.65V11.2C6.66 11.28 6.83 11.35 7.01 11.41C7.83 11.68 8.9 11.83 10 11.83C11.1 11.83 12.17 11.69 12.99 11.41C13.17 11.35 13.34 11.28 13.5 11.2V12.65C13.5 12.65 13.47 12.71 13.38 12.78Z" fill="#BABABA"/>
</svg>
