<svg width="20" height="20" viewBox="0 0 20 20" fill="none" xmlns="http://www.w3.org/2000/svg">
<path fill-rule="evenodd" clip-rule="evenodd" d="M16.8572 2.5C17.178 2.5 17.5 2.79162 17.5 3.23077V16.7692C17.5 17.2084 17.178 17.5 16.8572 17.5H3.14359C2.82285 17.5 2.50078 17.2084 2.50078 16.7692V3.23077C2.50078 2.79162 2.82285 2.5 3.14359 2.5H16.8572ZM18.5 3.23077C18.5 2.31046 17.7988 1.5 16.8572 1.5H3.14359C2.20203 1.5 1.50078 2.31046 1.50078 3.23077V16.7692C1.50078 17.6895 2.20203 18.5 3.14359 18.5H16.8572C17.7988 18.5 18.5 17.6895 18.5 16.7692V3.23077Z" fill="#BABABA"/>
<path fill-rule="evenodd" clip-rule="evenodd" d="M18.4993 5.69231C18.4993 5.41617 18.2754 5.19231 17.9993 5.19231H2C1.72386 5.19231 1.5 5.41617 1.5 5.69231C1.5 5.96845 1.72386 6.19231 2 6.19231H17.9993C18.2754 6.19231 18.4993 5.96845 18.4993 5.69231Z" fill="#BABABA"/>
<path fill-rule="evenodd" clip-rule="evenodd" d="M15.1806 8.67431C15.1982 8.69322 15.2144 8.72554 15.2144 8.76923V12.4615C15.2144 12.5052 15.1982 12.5376 15.1806 12.5565C15.1636 12.5747 15.1501 12.5769 15.143 12.5769H11.7145C11.7074 12.5769 11.6939 12.5747 11.6769 12.5565C11.6594 12.5376 11.6431 12.5052 11.6431 12.4615V8.76923C11.6431 8.72554 11.6594 8.69322 11.6769 8.67431C11.6939 8.65603 11.7074 8.65385 11.7145 8.65385H15.143C15.1501 8.65385 15.1636 8.65603 15.1806 8.67431ZM16.2144 8.76923C16.2144 8.18879 15.7689 7.65385 15.143 7.65385H11.7145C11.0886 7.65385 10.6431 8.18879 10.6431 8.76923V12.4615C10.6431 13.042 11.0886 13.5769 11.7145 13.5769H15.143C15.7689 13.5769 16.2144 13.042 16.2144 12.4615V8.76923Z" fill="#BABABA"/>
<path fill-rule="evenodd" clip-rule="evenodd" d="M16.2138 15.5385C16.2138 15.2623 15.99 15.0385 15.7138 15.0385H11.1426C10.8665 15.0385 10.6426 15.2623 10.6426 15.5385C10.6426 15.8146 10.8665 16.0385 11.1426 16.0385H15.7138C15.99 16.0385 16.2138 15.8146 16.2138 15.5385Z" fill="#BABABA"/>
<path fill-rule="evenodd" clip-rule="evenodd" d="M8.32395 8.67431C8.34151 8.69322 8.35772 8.72554 8.35772 8.76923V14.9231C8.35772 14.9668 8.34151 14.9991 8.32395 15.018C8.30698 15.0363 8.29349 15.0385 8.28632 15.0385H4.8579C4.85073 15.0385 4.83724 15.0363 4.82027 15.018C4.80271 14.9991 4.7865 14.9668 4.7865 14.9231V8.76923C4.7865 8.72554 4.80271 8.69322 4.82027 8.67431C4.83724 8.65603 4.85073 8.65385 4.8579 8.65385H8.28632C8.29349 8.65385 8.30698 8.65603 8.32395 8.67431ZM9.35772 8.76923C9.35772 8.18879 8.9123 7.65385 8.28632 7.65385H4.8579C4.23192 7.65385 3.7865 8.18879 3.7865 8.76923V14.9231C3.7865 15.5035 4.23192 16.0385 4.8579 16.0385H8.28632C8.9123 16.0385 9.35772 15.5035 9.35772 14.9231V8.76923Z" fill="#BABABA"/>
<path fill-rule="evenodd" clip-rule="evenodd" d="M9.35694 11.8462C9.35694 11.57 9.13308 11.3462 8.85694 11.3462H4.28572C4.00958 11.3462 3.78572 11.57 3.78572 11.8462C3.78572 12.1223 4.00958 12.3462 4.28572 12.3462H8.85694C9.13308 12.3462 9.35694 12.1223 9.35694 11.8462Z" fill="#BABABA"/>
</svg>
