<svg width="20" height="20" viewBox="0 0 20 20" fill="none" xmlns="http://www.w3.org/2000/svg">
<path fill-rule="evenodd" clip-rule="evenodd" d="M3.02873 2.5C2.73672 2.5 2.5 2.73672 2.5 3.02873V16.9713C2.5 17.2633 2.73672 17.5 3.02873 17.5H16.9713C17.2633 17.5 17.5 17.2633 17.5 16.9713V3.02873C17.5 2.73672 17.2633 2.5 16.9713 2.5H3.02873ZM1.5 3.02873C1.5 2.18444 2.18444 1.5 3.02873 1.5H16.9713C17.8156 1.5 18.5 2.18444 18.5 3.02873V16.9713C18.5 17.8156 17.8156 18.5 16.9713 18.5H3.02873C2.18444 18.5 1.5 17.8156 1.5 16.9713V3.02873Z" fill="#BABABA"/>
<path fill-rule="evenodd" clip-rule="evenodd" d="M6.11114 6.75C5.77363 6.75 5.50003 7.0236 5.50003 7.36111V12.9167C5.50003 13.2542 5.77363 13.5278 6.11114 13.5278H13.8889C14.2264 13.5278 14.5 13.2542 14.5 12.9167V7.36111C14.5 7.0236 14.2264 6.75 13.8889 6.75H6.11114ZM4.50003 7.36111C4.50003 6.47132 5.22135 5.75 6.11114 5.75H13.8889C14.7787 5.75 15.5 6.47132 15.5 7.36111V12.9167C15.5 13.8065 14.7787 14.5278 13.8889 14.5278H6.11114C5.22135 14.5278 4.50003 13.8065 4.50003 12.9167V7.36111Z" fill="#BABABA"/>
<path fill-rule="evenodd" clip-rule="evenodd" d="M4.584 7.08376C4.73718 6.854 5.04761 6.79191 5.27738 6.94509L10 10.0935L14.7227 6.94509C14.9524 6.79191 15.2629 6.854 15.4161 7.08376C15.5692 7.31353 15.5071 7.62396 15.2774 7.77714L10.2774 11.1105C10.1094 11.2224 9.89063 11.2224 9.72268 11.1105L4.72268 7.77714C4.49291 7.62396 4.43082 7.31353 4.584 7.08376Z" fill="#BABABA"/>
</svg>
