<svg width="20" height="20" viewBox="0 0 20 20" fill="none" xmlns="http://www.w3.org/2000/svg">
<path d="M18.5 4.52501C18.5 3.71501 18.18 2.95501 17.61 2.37501C16.47 1.22501 14.47 1.22501 13.31 2.37501L1.65 14.045C1.56 14.135 1.5 14.265 1.5 14.395V17.985C1.5 18.265 1.72 18.485 2 18.485H5.59C5.72 18.485 5.85 18.435 5.94 18.335L16.26 8.02501L17.6 6.68501C18.17 6.11501 18.49 5.34501 18.49 4.53501L18.5 4.52501ZM5.38 17.485H2.5V14.605L12.32 4.78501L15.2 7.66501L5.38 17.485ZM16.9 5.96501L15.91 6.95501L13.03 4.07501L14.02 3.08501C14.79 2.31501 16.13 2.31501 16.9 3.08501C17.29 3.47501 17.5 3.98501 17.5 4.52501C17.5 5.06501 17.29 5.58501 16.9 5.96501V5.96501Z" fill="#BABABA"/>
</svg>
