<svg width="21" height="20" viewBox="0 0 21 20" fill="none" xmlns="http://www.w3.org/2000/svg">
<path fill-rule="evenodd" clip-rule="evenodd" d="M10.0038 1.95906C10.2954 1.66743 10.6921 1.5 11.1104 1.5C11.5287 1.5 11.9254 1.66742 12.2171 1.95906L13.7162 3.45817C13.8335 3.57549 13.885 3.74336 13.8536 3.90628C13.8222 4.06919 13.7121 4.20594 13.5596 4.2713C13.2336 4.411 12.9448 4.62539 12.7205 4.90144C12.497 5.17656 12.3457 5.50614 12.2757 5.85649C12.2066 6.20173 12.2238 6.5584 12.3276 6.8985C12.4309 7.23723 12.6216 7.5501 12.8707 7.7992C13.1262 8.05472 13.4318 8.23875 13.7714 8.34237L13.7737 8.34307C14.1043 8.44568 14.4672 8.4635 14.8134 8.39426L14.815 8.39395C15.1696 8.32419 15.492 8.17403 15.7685 7.94942L15.7734 7.94542L15.7734 7.94545C16.0446 7.73076 16.2576 7.44522 16.3974 7.11325C16.462 6.95982 16.5987 6.84861 16.7621 6.81661C16.9255 6.78461 17.094 6.83601 17.2118 6.95373L18.7109 8.45284C19.0025 8.74447 19.1699 9.1412 19.1699 9.5595C19.1699 9.97781 19.0025 10.3745 18.7109 10.6662L17.0386 12.3384C17.2914 12.4259 17.5334 12.5455 17.7592 12.6948C18.2824 13.0408 18.6896 13.5321 18.9272 14.1175C19.163 14.6987 19.2215 15.3297 19.1041 15.9414L19.1029 15.9479L19.1029 15.9479C18.977 16.5605 18.675 17.1241 18.2366 17.5632C17.7971 18.0105 17.2313 18.3146 16.6146 18.4336C15.9951 18.5602 15.3632 18.4909 14.7874 18.2573L14.7851 18.2563C14.2114 18.0201 13.7131 17.6153 13.3659 17.0909C13.2152 16.8666 13.0952 16.6236 13.0076 16.3695L11.3361 18.0409C11.0445 18.3326 10.6477 18.5 10.2294 18.5C9.81112 18.5 9.41439 18.3326 9.12276 18.0409L7.62365 16.5418C7.50633 16.4245 7.45485 16.2566 7.48623 16.0937C7.5176 15.9308 7.62775 15.7941 7.78024 15.7287C8.10622 15.589 8.39505 15.3746 8.61934 15.0986C8.84288 14.8234 8.99411 14.4939 9.06418 14.1435C9.13323 13.7983 9.11605 13.4416 9.01229 13.1015C8.90895 12.7628 8.71822 12.4499 8.46912 12.2008C8.2136 11.9453 7.90806 11.7613 7.56842 11.6576L7.56613 11.6569C7.2355 11.5543 6.87262 11.5365 6.52642 11.6057L6.52487 11.606C6.17024 11.6758 5.84781 11.826 5.57136 12.0506L5.56644 12.0546L5.56642 12.0545C5.29523 12.2692 5.08224 12.5548 4.94246 12.8867C4.87786 13.0402 4.74113 13.1514 4.57776 13.1834C4.41439 13.2154 4.24581 13.164 4.12809 13.0463L2.62898 11.5472C2.33735 11.2555 2.16992 10.8588 2.16992 10.4405C2.16992 10.0222 2.33735 9.62547 2.62898 9.33384L4.30121 7.6616C4.04847 7.57405 3.80643 7.45448 3.58063 7.30516C3.05746 6.95919 2.65022 6.46794 2.41265 5.8825C2.17681 5.30131 2.11838 4.67035 2.23571 4.05858L2.23695 4.05211L2.23699 4.05212C2.36289 3.43944 2.66489 2.87586 3.10332 2.43676C3.5428 1.98951 4.10854 1.68537 4.72526 1.56641C5.3447 1.43982 5.97665 1.50909 6.55242 1.74273L6.55479 1.74369L6.55479 1.7437C7.12851 1.97994 7.62681 2.38473 7.97407 2.90917C8.12465 3.13352 8.24467 3.37645 8.33229 3.63053L10.0038 1.95906ZM11.1104 2.5C10.9603 2.5 10.8171 2.55993 10.7109 2.66616L8.35918 5.01785C8.21618 5.16085 8.00112 5.20363 7.81428 5.12624C7.62744 5.04885 7.50562 4.86653 7.50562 4.6643C7.50562 4.2364 7.37809 3.81511 7.14305 3.46542L7.14095 3.4623L7.14096 3.4623C6.90591 3.10684 6.56669 2.83033 6.17521 2.66886C5.77186 2.50544 5.33973 2.46104 4.92331 2.54661L4.91686 2.54793L4.91685 2.54789C4.49831 2.62816 4.11387 2.83465 3.81546 3.1388L3.81212 3.1422L3.81211 3.14219C3.51331 3.44099 3.30468 3.82759 3.21719 4.25017C3.13641 4.67467 3.17765 5.10823 3.33927 5.50648C3.49957 5.90151 3.77439 6.23441 4.13222 6.47104C4.49242 6.70924 4.90834 6.8357 5.33422 6.8357C5.53645 6.8357 5.71877 6.95752 5.79616 7.14436C5.87355 7.3312 5.83077 7.54626 5.68777 7.68926L3.33609 10.0409C3.22985 10.1472 3.16992 10.2904 3.16992 10.4405C3.16992 10.5906 3.22985 10.7338 3.33609 10.8401L4.37025 11.8742C4.53173 11.6498 4.72342 11.4469 4.94325 11.2725C5.34832 10.944 5.82074 10.7254 6.33185 10.6249C6.83737 10.524 7.36868 10.5488 7.86138 10.7015C8.35965 10.8537 8.80681 11.1243 9.17623 11.4937C9.53814 11.8556 9.81633 12.3101 9.96876 12.8097C10.1208 13.308 10.1462 13.8323 10.0448 14.3396C9.94432 14.8418 9.72609 15.3222 9.39546 15.7292C9.21887 15.9465 9.01598 16.1367 8.79349 16.2975L9.82987 17.3338C9.93611 17.4401 10.0793 17.5 10.2294 17.5C10.3795 17.5 10.5227 17.4401 10.629 17.3338L12.9807 14.9821C13.1237 14.8391 13.3387 14.7964 13.5256 14.8738C13.7124 14.9512 13.8342 15.1335 13.8342 15.3357C13.8342 15.7636 13.9618 16.1849 14.1968 16.5346L14.1989 16.5377L14.1989 16.5377C14.434 16.8932 14.7732 17.1697 15.1647 17.3312C15.568 17.4946 16.0001 17.539 16.4165 17.4534L16.423 17.4521L16.423 17.4521C16.8415 17.3718 17.226 17.1653 17.5244 16.8612L17.5277 16.8578L17.5277 16.8578C17.8265 16.559 18.0352 16.1724 18.1227 15.7498C18.2034 15.3253 18.1622 14.8918 18.0006 14.4935C17.8403 14.0985 17.5655 13.7656 17.2076 13.529C16.8474 13.2908 16.4315 13.1643 16.0056 13.1643C15.8034 13.1643 15.6211 13.0425 15.5437 12.8556C15.4663 12.6688 15.5091 12.4537 15.6521 12.3107L18.0038 9.95906C18.11 9.85282 18.1699 9.70958 18.1699 9.5595C18.1699 9.40943 18.11 9.26618 18.0038 9.15995L16.9696 8.12579C16.8081 8.35015 16.6164 8.55311 16.3966 8.72752C15.9916 9.05598 15.5191 9.2746 15.008 9.37514C14.5025 9.47598 13.9712 9.45118 13.4785 9.29849C12.9802 9.14627 12.533 8.87572 12.1636 8.50631C11.8017 8.14439 11.5235 7.68994 11.3711 7.19031C11.2191 6.69204 11.1936 6.16772 11.2951 5.66038C11.3955 5.15816 11.6138 4.67779 11.9444 4.27085C12.121 4.05351 12.3239 3.86328 12.5464 3.70255L11.51 2.66616C11.4037 2.55993 11.2605 2.5 11.1104 2.5Z" fill="#BABABA"/>
</svg>
