<svg width="20" height="20" viewBox="0 0 20 20" fill="none" xmlns="http://www.w3.org/2000/svg">
<path fill-rule="evenodd" clip-rule="evenodd" d="M7.8331 7.8331V12.1662H12.1662V7.8331H7.8331ZM6.8331 7.81793C6.8331 7.27403 7.27403 6.8331 7.81793 6.8331H12.1814C12.7253 6.8331 13.1662 7.27403 13.1662 7.81793V12.1814C13.1662 12.7253 12.7253 13.1662 12.1814 13.1662H7.81793C7.27403 13.1662 6.8331 12.7253 6.8331 12.1814V7.81793Z" fill="#BABABA"/>
<path fill-rule="evenodd" clip-rule="evenodd" d="M18.3529 1.64715C18.5482 1.84241 18.5482 2.15899 18.3529 2.35425L15.5704 5.13674C15.3752 5.332 15.0586 5.332 14.8633 5.13674C14.6681 4.94148 14.6681 4.6249 14.8633 4.42963L17.6458 1.64715C17.8411 1.45188 18.1577 1.45188 18.3529 1.64715Z" fill="#BABABA"/>
<path fill-rule="evenodd" clip-rule="evenodd" d="M5.13604 14.864C5.3313 15.0592 5.3313 15.3758 5.13604 15.5711L2.35355 18.3536C2.15829 18.5488 1.84171 18.5488 1.64645 18.3536C1.45118 18.1583 1.45118 17.8417 1.64645 17.6465L4.42893 14.864C4.6242 14.6687 4.94078 14.6687 5.13604 14.864Z" fill="#BABABA"/>
<path fill-rule="evenodd" clip-rule="evenodd" d="M2 14.0212C2.27614 14.0212 2.5 14.245 2.5 14.5212V17.4993H5.47811C5.75425 17.4993 5.97811 17.7232 5.97811 17.9993C5.97811 18.2754 5.75425 18.4993 5.47811 18.4993H2C1.72386 18.4993 1.5 18.2754 1.5 17.9993V14.5212C1.5 14.245 1.72386 14.0212 2 14.0212Z" fill="#BABABA"/>
<path fill-rule="evenodd" clip-rule="evenodd" d="M14.0212 2C14.0212 1.72386 14.2451 1.5 14.5212 1.5H17.9993C18.2755 1.5 18.4993 1.72386 18.4993 2V5.47811C18.4993 5.75425 18.2755 5.97811 17.9993 5.97811C17.7232 5.97811 17.4993 5.75425 17.4993 5.47811V2.5H14.5212C14.2451 2.5 14.0212 2.27614 14.0212 2Z" fill="#BABABA"/>
<path fill-rule="evenodd" clip-rule="evenodd" d="M14.8633 14.864C15.0586 14.6687 15.3752 14.6687 15.5704 14.864L18.3529 17.6465C18.5482 17.8417 18.5482 18.1583 18.3529 18.3536C18.1577 18.5488 17.8411 18.5488 17.6458 18.3536L14.8633 15.5711C14.6681 15.3758 14.6681 15.0592 14.8633 14.864Z" fill="#BABABA"/>
<path fill-rule="evenodd" clip-rule="evenodd" d="M1.64645 1.64711C1.84171 1.45185 2.15829 1.45185 2.35355 1.64711L5.13604 4.4296C5.3313 4.62486 5.3313 4.94145 5.13604 5.13671C4.94078 5.33197 4.6242 5.33197 4.42893 5.13671L1.64645 2.35422C1.45118 2.15896 1.45118 1.84238 1.64645 1.64711Z" fill="#BABABA"/>
<path fill-rule="evenodd" clip-rule="evenodd" d="M1.5 2C1.5 1.72386 1.72386 1.5 2 1.5H5.47811C5.75425 1.5 5.97811 1.72386 5.97811 2C5.97811 2.27614 5.75425 2.5 5.47811 2.5H2.5V5.47811C2.5 5.75425 2.27614 5.97811 2 5.97811C1.72386 5.97811 1.5 5.75425 1.5 5.47811V2Z" fill="#BABABA"/>
<path fill-rule="evenodd" clip-rule="evenodd" d="M17.9993 14.0212C18.2755 14.0212 18.4993 14.245 18.4993 14.5212V17.9993C18.4993 18.2754 18.2755 18.4993 17.9993 18.4993H14.5212C14.2451 18.4993 14.0212 18.2754 14.0212 17.9993C14.0212 17.7232 14.2451 17.4993 14.5212 17.4993H17.4993V14.5212C17.4993 14.245 17.7232 14.0212 17.9993 14.0212Z" fill="#BABABA"/>
</svg>
