<svg width="20" height="20" viewBox="0 0 20 20" fill="none" xmlns="http://www.w3.org/2000/svg">
<path fill-rule="evenodd" clip-rule="evenodd" d="M10 2.5C5.85786 2.5 2.5 5.85786 2.5 10C2.5 14.1421 5.85786 17.5 10 17.5C14.1421 17.5 17.5 14.1421 17.5 10C17.5 5.85786 14.1421 2.5 10 2.5ZM1.5 10C1.5 5.30558 5.30558 1.5 10 1.5C14.6944 1.5 18.5 5.30558 18.5 10C18.5 14.6944 14.6944 18.5 10 18.5C5.30558 18.5 1.5 14.6944 1.5 10Z" fill="#BABABA"/>
<path fill-rule="evenodd" clip-rule="evenodd" d="M9.25 6.44447C9.25 6.03025 9.58579 5.69447 10 5.69447H10.0083C10.4225 5.69447 10.7583 6.03025 10.7583 6.44447C10.7583 6.85868 10.4225 7.19447 10.0083 7.19447H10C9.58579 7.19447 9.25 6.85868 9.25 6.44447Z" fill="#BABABA"/>
<path fill-rule="evenodd" clip-rule="evenodd" d="M8.61107 9.33333C8.61107 9.05719 8.83493 8.83333 9.11107 8.83333H9.99996C10.2761 8.83333 10.5 9.05719 10.5 9.33333V13.0556H10.8888C11.165 13.0556 11.3888 13.2794 11.3888 13.5556C11.3888 13.8317 11.165 14.0556 10.8888 14.0556H9.99996C9.72381 14.0556 9.49996 13.8317 9.49996 13.5556V9.83333H9.11107C8.83493 9.83333 8.61107 9.60948 8.61107 9.33333Z" fill="#BABABA"/>
</svg>
