<svg width="20" height="20" viewBox="0 0 20 20" fill="none" xmlns="http://www.w3.org/2000/svg">
<path fill-rule="evenodd" clip-rule="evenodd" d="M2.86788 9.83919C2.77907 9.928 2.77907 10.072 2.86788 10.1608L9.83915 17.1321C9.92796 17.2209 10.072 17.2209 10.1608 17.1321L17.132 10.1608C17.2209 10.072 17.2209 9.928 17.132 9.83919L10.1608 2.86792C10.072 2.7791 9.92796 2.7791 9.83915 2.86792L2.86788 9.83919ZM2.16077 10.8679C1.68143 10.3886 1.68143 9.61142 2.16077 9.13208L9.13204 2.16081C9.61138 1.68147 10.3885 1.68147 10.8679 2.16081L17.8391 9.13208C18.3185 9.61142 18.3185 10.3886 17.8391 10.8679L10.8679 17.8392C10.3885 18.3185 9.61138 18.3185 9.13204 17.8392L2.16077 10.8679Z" fill="#BABABA"/>
<path fill-rule="evenodd" clip-rule="evenodd" d="M9.99996 6.83335C10.2761 6.83335 10.5 7.05721 10.5 7.33335V12.6667C10.5 12.9428 10.2761 13.1667 9.99996 13.1667C9.72382 13.1667 9.49996 12.9428 9.49996 12.6667L9.49996 7.33335C9.49996 7.05721 9.72382 6.83335 9.99996 6.83335Z" fill="#BABABA"/>
<path fill-rule="evenodd" clip-rule="evenodd" d="M6.83329 10C6.83329 9.72387 7.05715 9.50002 7.33329 9.50002L12.6666 9.50002C12.9428 9.50002 13.1666 9.72387 13.1666 10C13.1666 10.2762 12.9428 10.5 12.6666 10.5H7.33329C7.05715 10.5 6.83329 10.2762 6.83329 10Z" fill="#BABABA"/>
</svg>
