<svg width="20" height="20" viewBox="0 0 20 20" fill="none" xmlns="http://www.w3.org/2000/svg">
<path fill-rule="evenodd" clip-rule="evenodd" d="M15.3536 13.9131C15.1583 13.7179 14.8418 13.7179 14.6465 13.9131L11.2667 17.2929L7.88693 13.9131C7.69167 13.7179 7.37509 13.7179 7.17983 13.9131C6.98457 14.1084 6.98457 14.425 7.17983 14.6202L10.9132 18.3536C11.1084 18.5488 11.425 18.5488 11.6203 18.3536L15.3536 14.6202C15.5489 14.425 15.5489 14.1084 15.3536 13.9131Z" fill="#BABABA"/>
<path fill-rule="evenodd" clip-rule="evenodd" d="M11.2667 18.5C11.5429 18.5 11.7667 18.2761 11.7667 18V3.06667C11.7667 2.20142 11.0653 1.5 10.2 1.5L3.80005 1.5C3.52391 1.5 3.30005 1.72386 3.30005 2C3.30005 2.27614 3.52391 2.5 3.80005 2.5L10.2 2.5C10.513 2.5 10.7667 2.75371 10.7667 3.06667V18C10.7667 18.2761 10.9906 18.5 11.2667 18.5Z" fill="#BABABA"/>
</svg>
