<svg width="20" height="20" viewBox="0 0 20 20" fill="none" xmlns="http://www.w3.org/2000/svg">
<path fill-rule="evenodd" clip-rule="evenodd" d="M5.68198 2.5C4.83806 2.5 4.02872 2.83524 3.43198 3.43198C2.83524 4.02872 2.5 4.83806 2.5 5.68198V9.15685L10.6271 17.2839C10.7872 17.4232 10.9924 17.5 11.2049 17.5C11.4175 17.5 11.6227 17.4232 11.7828 17.2839L17.2839 11.7828C17.4232 11.6227 17.5 11.4175 17.5 11.2049C17.5 10.9924 17.4232 10.7872 17.2839 10.6271L9.15685 2.5H5.68198ZM2.72487 2.72487C3.50915 1.9406 4.57285 1.5 5.68198 1.5H9.36395C9.49656 1.5 9.62374 1.55268 9.71751 1.64645L18.002 9.93089C18.0085 9.93746 18.0149 9.9442 18.0211 9.95111C18.3295 10.2959 18.5 10.7423 18.5 11.2049C18.5 11.6676 18.3295 12.114 18.0211 12.4588C18.0149 12.4657 18.0085 12.4724 18.002 12.479L12.479 18.002C12.4724 18.0085 12.4657 18.0149 12.4588 18.0211C12.114 18.3295 11.6676 18.5 11.2049 18.5C10.7423 18.5 10.2959 18.3295 9.95111 18.0211C9.9442 18.0149 9.93746 18.0085 9.93089 18.002L1.64645 9.71751C1.55268 9.62374 1.5 9.49656 1.5 9.36395V5.68198C1.5 4.57285 1.9406 3.50915 2.72487 2.72487Z" fill="#BABABA"/>
<path fill-rule="evenodd" clip-rule="evenodd" d="M7.52302 6.18198C6.78241 6.18198 6.18203 6.78236 6.18203 7.52297C6.18203 8.26358 6.78241 8.86396 7.52302 8.86396C8.26363 8.86396 8.86401 8.26358 8.86401 7.52297C8.86401 6.78236 8.26363 6.18198 7.52302 6.18198ZM5.18203 7.52297C5.18203 6.23008 6.23013 5.18198 7.52302 5.18198C8.81591 5.18198 9.86401 6.23008 9.86401 7.52297C9.86401 8.81586 8.81591 9.86396 7.52302 9.86396C6.23013 9.86396 5.18203 8.81586 5.18203 7.52297Z" fill="#BABABA"/>
</svg>
