<svg width="20" height="20" viewBox="0 0 20 20" fill="none" xmlns="http://www.w3.org/2000/svg">
<path fill-rule="evenodd" clip-rule="evenodd" d="M4.77778 14.9444C4.07208 14.9444 3.5 15.5165 3.5 16.2222C3.5 16.9279 4.07208 17.5 4.77778 17.5C5.48348 17.5 6.05556 16.9279 6.05556 16.2222C6.05556 15.5165 5.48348 14.9444 4.77778 14.9444ZM2.5 16.2222C2.5 14.9642 3.5198 13.9444 4.77778 13.9444C6.03576 13.9444 7.05556 14.9642 7.05556 16.2222C7.05556 17.4802 6.03576 18.5 4.77778 18.5C3.5198 18.5 2.5 17.4802 2.5 16.2222Z" fill="#BABABA"/>
<path fill-rule="evenodd" clip-rule="evenodd" d="M14.5555 14.9444C13.8498 14.9444 13.2777 15.5165 13.2777 16.2222C13.2777 16.9279 13.8498 17.5 14.5555 17.5C15.2612 17.5 15.8333 16.9279 15.8333 16.2222C15.8333 15.5165 15.2612 14.9444 14.5555 14.9444ZM12.2777 16.2222C12.2777 14.9642 13.2975 13.9444 14.5555 13.9444C15.8135 13.9444 16.8333 14.9642 16.8333 16.2222C16.8333 17.4802 15.8135 18.5 14.5555 18.5C13.2975 18.5 12.2777 17.4802 12.2777 16.2222Z" fill="#BABABA"/>
<path fill-rule="evenodd" clip-rule="evenodd" d="M2.5 2C2.5 1.72386 2.72386 1.5 3 1.5H4.77778C5.05392 1.5 5.27778 1.72386 5.27778 2V13.9444L14.5555 13.9444C14.8317 13.9444 15.0556 14.1683 15.0556 14.4444C15.0556 14.7206 14.8317 14.9444 14.5555 14.9444H4.77778C4.50164 14.9444 4.27778 14.7206 4.27778 14.4444V2.5H3C2.72386 2.5 2.5 2.27614 2.5 2Z" fill="#BABABA"/>
<path fill-rule="evenodd" clip-rule="evenodd" d="M4.27901 3.74214C4.29868 3.4667 4.53792 3.25936 4.81336 3.27904L17.2578 4.16793C17.3962 4.17781 17.5242 4.24475 17.6113 4.35273C17.6984 4.46071 17.7368 4.60003 17.7172 4.73737L16.8283 10.9596C16.7931 11.2059 16.5821 11.3889 16.3333 11.3889H4.77773C4.50159 11.3889 4.27773 11.165 4.27773 10.8889C4.27773 10.6127 4.50159 10.3889 4.77773 10.3889H15.8996L16.6513 5.12715L4.74211 4.2765C4.46667 4.25682 4.25933 4.01758 4.27901 3.74214Z" fill="#BABABA"/>
</svg>
