<svg width="20" height="20" viewBox="0 0 20 20" fill="none" xmlns="http://www.w3.org/2000/svg">
<path fill-rule="evenodd" clip-rule="evenodd" d="M10 2.5C5.85786 2.5 2.5 5.85786 2.5 10C2.5 14.1421 5.85786 17.5 10 17.5C14.1421 17.5 17.5 14.1421 17.5 10C17.5 5.85786 14.1421 2.5 10 2.5ZM1.5 10C1.5 5.30558 5.30558 1.5 10 1.5C14.6944 1.5 18.5 5.30558 18.5 10C18.5 14.6944 14.6944 18.5 10 18.5C5.30558 18.5 1.5 14.6944 1.5 10ZM5.5 7C5.5 6.17157 6.17157 5.5 7 5.5H13C13.8284 5.5 14.5 6.17157 14.5 7V13C14.5 13.8284 13.8284 14.5 13 14.5H7C6.17157 14.5 5.5 13.8284 5.5 13V12C5.5 11.7239 5.72386 11.5 6 11.5C6.27614 11.5 6.5 11.7239 6.5 12V13C6.5 13.2761 6.72386 13.5 7 13.5H13C13.2761 13.5 13.5 13.2761 13.5 13V7C13.5 6.72386 13.2761 6.5 13 6.5H7C6.72386 6.5 6.5 6.72386 6.5 7V8C6.5 8.27614 6.27614 8.5 6 8.5C5.72386 8.5 5.5 8.27614 5.5 8V7ZM9.20203 7.86878C9.39729 7.67352 9.71387 7.67352 9.90914 7.86878L11.6869 9.64656C11.8822 9.84182 11.8822 10.1584 11.6869 10.3537L9.90914 12.1314C9.71387 12.3267 9.39729 12.3267 9.20203 12.1314C9.00677 11.9362 9.00677 11.6196 9.20203 11.4243L10.1263 10.5001L6 10.5001C5.72386 10.5001 5.5 10.2762 5.5 10.0001C5.5 9.72395 5.72386 9.5001 6 9.5001L10.1263 9.50011L9.20203 8.57589C9.00677 8.38062 9.00677 8.06404 9.20203 7.86878Z" fill="#BABABA"/>
</svg>
