<svg width="20" height="20" viewBox="0 0 20 20" fill="none" xmlns="http://www.w3.org/2000/svg">
<path fill-rule="evenodd" clip-rule="evenodd" d="M3.02873 2.5C2.73672 2.5 2.5 2.73672 2.5 3.02873V16.9713C2.5 17.2633 2.73672 17.5 3.02873 17.5H16.9713C17.2633 17.5 17.5 17.2633 17.5 16.9713V3.02873C17.5 2.73672 17.2633 2.5 16.9713 2.5H3.02873ZM1.5 3.02873C1.5 2.18444 2.18444 1.5 3.02873 1.5H16.9713C17.8156 1.5 18.5 2.18444 18.5 3.02873V16.9713C18.5 17.8156 17.8156 18.5 16.9713 18.5H3.02873C2.18444 18.5 1.5 17.8156 1.5 16.9713V3.02873Z" fill="#BABABA"/>
<path fill-rule="evenodd" clip-rule="evenodd" d="M11.25 4.5C11.5262 4.5 11.75 4.72386 11.75 5V7.22222C11.75 7.23696 11.7559 7.25109 11.7663 7.26151C11.7767 7.27193 11.7908 7.27778 11.8056 7.27778H14.0278C14.3039 7.27778 14.5278 7.50164 14.5278 7.77778C14.5278 8.05392 14.3039 8.27778 14.0278 8.27778H11.8056C11.5256 8.27778 11.2571 8.16657 11.0592 7.96861C10.8612 7.77066 10.75 7.50217 10.75 7.22222V5C10.75 4.72386 10.9739 4.5 11.25 4.5Z" fill="#BABABA"/>
<path fill-rule="evenodd" clip-rule="evenodd" d="M7.36114 5.5C7.19906 5.5 7.04362 5.56439 6.92902 5.67899C6.81441 5.7936 6.75003 5.94903 6.75003 6.11111V13.8889C6.75003 14.051 6.81441 14.2064 6.92902 14.321C7.04362 14.4356 7.19906 14.5 7.36114 14.5H12.9167C13.0788 14.5 13.2342 14.4356 13.3488 14.321C13.4634 14.2064 13.5278 14.051 13.5278 13.8889V7.98489L11.0429 5.5H7.36114ZM6.22191 4.97188C6.52405 4.66974 6.93384 4.5 7.36114 4.5H11.25C11.3826 4.5 11.5098 4.55268 11.6036 4.64645L14.3814 7.42422C14.4751 7.51799 14.5278 7.64517 14.5278 7.77778V13.8889C14.5278 14.3162 14.3581 14.726 14.0559 15.0281C13.7538 15.3303 13.344 15.5 12.9167 15.5H7.36114C6.93384 15.5 6.52405 15.3303 6.22191 15.0281C5.91977 14.726 5.75003 14.3162 5.75003 13.8889V6.11111C5.75003 5.68382 5.91977 5.27403 6.22191 4.97188Z" fill="#BABABA"/>
<path fill-rule="evenodd" clip-rule="evenodd" d="M7.97225 8.33333C7.97225 8.05719 8.19611 7.83333 8.47225 7.83333H9.0278C9.30395 7.83333 9.5278 8.05719 9.5278 8.33333C9.5278 8.60948 9.30395 8.83333 9.0278 8.83333H8.47225C8.19611 8.83333 7.97225 8.60948 7.97225 8.33333Z" fill="#BABABA"/>
<path fill-rule="evenodd" clip-rule="evenodd" d="M7.97225 10.5556C7.97225 10.2794 8.19611 10.0556 8.47225 10.0556H11.8056C12.0817 10.0556 12.3056 10.2794 12.3056 10.5556C12.3056 10.8317 12.0817 11.0556 11.8056 11.0556H8.47225C8.19611 11.0556 7.97225 10.8317 7.97225 10.5556Z" fill="#BABABA"/>
<path fill-rule="evenodd" clip-rule="evenodd" d="M7.97225 12.7778C7.97225 12.5016 8.19611 12.2778 8.47225 12.2778H11.8056C12.0817 12.2778 12.3056 12.5016 12.3056 12.7778C12.3056 13.0539 12.0817 13.2778 11.8056 13.2778H8.47225C8.19611 13.2778 7.97225 13.0539 7.97225 12.7778Z" fill="#BABABA"/>
</svg>
