<svg width="20" height="20" viewBox="0 0 20 20" fill="none" xmlns="http://www.w3.org/2000/svg">
<path fill-rule="evenodd" clip-rule="evenodd" d="M2.19387 6.04528C2.63814 5.60101 3.24071 5.35142 3.86901 5.35142H6.67253C6.94867 5.35142 7.17253 5.57527 7.17253 5.85142C7.17253 6.12756 6.94867 6.35142 6.67253 6.35142H3.86901C3.50593 6.35142 3.15771 6.49565 2.90097 6.75239C2.64423 7.00913 2.5 7.35734 2.5 7.72043V16.131C2.5 16.4941 2.64423 16.8423 2.90097 17.099C3.15771 17.3558 3.50593 17.5 3.86901 17.5H12.2796C12.6427 17.5 12.9909 17.3558 13.2476 17.099C13.5043 16.8423 13.6486 16.4941 13.6486 16.131V13.3275C13.6486 13.0513 13.8724 12.8275 14.1486 12.8275C14.4247 12.8275 14.6486 13.0513 14.6486 13.3275V16.131C14.6486 16.7593 14.399 17.3619 13.9547 17.8061C13.5104 18.2504 12.9079 18.5 12.2796 18.5H3.86901C3.24071 18.5 2.63814 18.2504 2.19387 17.8061C1.74959 17.3619 1.5 16.7593 1.5 16.131V7.72043C1.5 7.09213 1.74959 6.48956 2.19387 6.04528Z" fill="#BABABA"/>
<path fill-rule="evenodd" clip-rule="evenodd" d="M14.2623 2.22707C14.7278 1.76154 15.3592 1.5 16.0176 1.5C16.676 1.5 17.3074 1.76154 17.7729 2.22707C18.2384 2.69261 18.5 3.32402 18.5 3.98239C18.5 4.64076 18.2384 5.27216 17.7729 5.7377L9.8296 13.681C9.73583 13.7748 9.60865 13.8275 9.47605 13.8275H6.67253C6.39638 13.8275 6.17253 13.6036 6.17253 13.3275V10.5239C6.17253 10.3913 6.2252 10.2641 6.31897 10.1704L14.2623 2.22707ZM16.0176 2.5C15.6244 2.5 15.2474 2.65618 14.9694 2.93418L7.17253 10.731V12.8275H9.26894L17.0658 5.03059C17.3438 4.75259 17.5 4.37554 17.5 3.98239C17.5 3.58923 17.3438 3.21218 17.0658 2.93418C16.7878 2.65618 16.4107 2.5 16.0176 2.5Z" fill="#BABABA"/>
<path fill-rule="evenodd" clip-rule="evenodd" d="M12.8605 3.62885C13.0558 3.43359 13.3724 3.43359 13.5676 3.62885L16.3711 6.43237C16.5664 6.62763 16.5664 6.94422 16.3711 7.13948C16.1759 7.33474 15.8593 7.33474 15.664 7.13948L12.8605 4.33596C12.6652 4.1407 12.6652 3.82411 12.8605 3.62885Z" fill="#BABABA"/>
</svg>
