<svg width="20" height="20" viewBox="0 0 20 20" fill="none" xmlns="http://www.w3.org/2000/svg">
<path fill-rule="evenodd" clip-rule="evenodd" d="M5.39747 15.2741C6.69334 16.405 8.36018 17.0192 10.08 16.9995C10.3561 16.9964 10.5825 17.2177 10.5857 17.4938C10.5888 17.7699 10.3675 17.9963 10.0914 17.9995C8.12592 18.0219 6.22095 17.32 4.73996 16.0276C3.25897 14.7351 2.30563 12.9427 2.06183 10.9923C1.81802 9.04184 2.30082 7.0699 3.4181 5.4527C4.53539 3.8355 6.20896 2.68624 8.1195 2.22418C10.03 1.76213 12.0438 2.01962 13.7766 2.94754C15.119 3.66636 16.2199 4.74851 16.9614 6.05801L16.9614 3.26005C16.9614 2.9839 17.1853 2.76005 17.4614 2.76005C17.7376 2.76005 17.9614 2.9839 17.9614 3.26005L17.9614 7.42671C17.9614 7.70285 17.7376 7.92671 17.4614 7.92671L17.0564 7.92671C17.0487 7.92689 17.0409 7.92689 17.0332 7.92671L13.2948 7.92671C13.0186 7.92671 12.7948 7.70285 12.7948 7.42671C12.7948 7.15057 13.0186 6.92671 13.2948 6.92671L16.2893 6.92671C15.6469 5.61203 14.6053 4.52563 13.3046 3.8291C11.7884 3.01717 10.0263 2.79186 8.35457 3.19616C6.68284 3.60046 5.21847 4.60606 4.24085 6.02111C3.26322 7.43617 2.84077 9.16161 3.0541 10.8682C3.26743 12.5749 4.10161 14.1433 5.39747 15.2741Z" fill="#BABABA"/>
</svg>
