<svg width="20" height="20" viewBox="0 0 20 20" fill="none" xmlns="http://www.w3.org/2000/svg">
<path fill-rule="evenodd" clip-rule="evenodd" d="M3.02873 2.5C2.73672 2.5 2.5 2.73672 2.5 3.02873V16.9713C2.5 17.2633 2.73672 17.5 3.02873 17.5H16.9713C17.2633 17.5 17.5 17.2633 17.5 16.9713V3.02873C17.5 2.73672 17.2633 2.5 16.9713 2.5H3.02873ZM1.5 3.02873C1.5 2.18444 2.18444 1.5 3.02873 1.5H16.9713C17.8156 1.5 18.5 2.18444 18.5 3.02873V16.9713C18.5 17.8156 17.8156 18.5 16.9713 18.5H3.02873C2.18444 18.5 1.5 17.8156 1.5 16.9713V3.02873Z" fill="#BABABA"/>
<path fill-rule="evenodd" clip-rule="evenodd" d="M5.5052 13.0054C5.79809 12.7125 6.27296 12.7125 6.56586 13.0054L6.5721 13.0116C6.865 13.3045 6.865 13.7794 6.5721 14.0723C6.27921 14.3652 5.80434 14.3652 5.51145 14.0723L5.5052 14.066C5.2123 13.7731 5.2123 13.2983 5.5052 13.0054Z" fill="#BABABA"/>
<path fill-rule="evenodd" clip-rule="evenodd" d="M8.1813 11.3899C7.61215 10.8208 6.84026 10.501 6.03537 10.5009C5.75923 10.5008 5.53541 10.2769 5.53545 10.0008C5.53549 9.72465 5.75938 9.50082 6.03552 9.50087C7.10558 9.50103 8.13176 9.92618 8.8884 10.6828C9.64504 11.4395 10.0702 12.4656 10.0704 13.5357C10.0704 13.8118 9.84657 14.0357 9.57043 14.0358C9.29429 14.0358 9.0704 13.812 9.07036 13.5359C9.07023 12.731 8.75044 11.9591 8.1813 11.3899Z" fill="#BABABA"/>
<path fill-rule="evenodd" clip-rule="evenodd" d="M10.6822 8.88909C10.072 8.2789 9.34758 7.79489 8.55033 7.46467C7.75309 7.13445 6.8986 6.9645 6.03567 6.96452C5.75953 6.96453 5.53567 6.74068 5.53566 6.46453C5.53565 6.18839 5.7595 5.96453 6.03565 5.96452C7.0299 5.9645 8.01443 6.16031 8.933 6.54078C9.85158 6.92126 10.6862 7.47894 11.3893 8.18198C12.0923 8.88503 12.65 9.71967 13.0305 10.6382C13.4109 11.5568 13.6068 12.5413 13.6067 13.5356C13.6067 13.8117 13.3829 14.0356 13.1067 14.0356C12.8306 14.0356 12.6067 13.8117 12.6067 13.5356C12.6067 12.6726 12.4368 11.8182 12.1066 11.0209C11.7764 10.2237 11.2923 9.49927 10.6822 8.88909Z" fill="#BABABA"/>
</svg>
