<svg width="20" height="20" viewBox="0 0 20 20" fill="none" xmlns="http://www.w3.org/2000/svg">
<path fill-rule="evenodd" clip-rule="evenodd" d="M3.02873 2.5C2.73672 2.5 2.5 2.73672 2.5 3.02873V16.9713C2.5 17.2633 2.73672 17.5 3.02873 17.5H16.9713C17.2633 17.5 17.5 17.2633 17.5 16.9713V3.02873C17.5 2.73672 17.2633 2.5 16.9713 2.5H3.02873ZM1.5 3.02873C1.5 2.18444 2.18444 1.5 3.02873 1.5H16.9713C17.8156 1.5 18.5 2.18444 18.5 3.02873V16.9713C18.5 17.8156 17.8156 18.5 16.9713 18.5H3.02873C2.18444 18.5 1.5 17.8156 1.5 16.9713V3.02873Z" fill="#BABABA"/>
<path fill-rule="evenodd" clip-rule="evenodd" d="M11.25 4.5C11.5261 4.5 11.75 4.72386 11.75 5V7.22222C11.75 7.23696 11.7558 7.25109 11.7663 7.26151C11.7767 7.27193 11.7908 7.27778 11.8055 7.27778H14.0278C14.3039 7.27778 14.5278 7.50164 14.5278 7.77778C14.5278 8.05392 14.3039 8.27778 14.0278 8.27778H11.8055C11.5256 8.27778 11.2571 8.16657 11.0592 7.96861C10.8612 7.77066 10.75 7.50217 10.75 7.22222V5C10.75 4.72386 10.9738 4.5 11.25 4.5Z" fill="#BABABA"/>
<path fill-rule="evenodd" clip-rule="evenodd" d="M7.36114 5.5C7.19906 5.5 7.04362 5.56439 6.92902 5.67899C6.81441 5.7936 6.75003 5.94903 6.75003 6.11111V13.8889C6.75003 14.051 6.81441 14.2064 6.92902 14.321C7.04362 14.4356 7.19906 14.5 7.36114 14.5H12.9167C13.0788 14.5 13.2342 14.4356 13.3488 14.321C13.4634 14.2064 13.5278 14.051 13.5278 13.8889V7.98489L11.0429 5.5H7.36114ZM6.22191 4.97188C6.52405 4.66974 6.93384 4.5 7.36114 4.5H11.25C11.3826 4.5 11.5098 4.55268 11.6036 4.64645L14.3814 7.42422C14.4751 7.51799 14.5278 7.64517 14.5278 7.77778L14.5278 13.8889C14.5278 14.3162 14.3581 14.726 14.0559 15.0281C13.7538 15.3303 13.344 15.5 12.9167 15.5H7.36114C6.93384 15.5 6.52405 15.3303 6.22191 15.0281C5.91977 14.726 5.75003 14.3162 5.75003 13.8889V6.11111C5.75003 5.68382 5.91977 5.27403 6.22191 4.97188Z" fill="#BABABA"/>
<path fill-rule="evenodd" clip-rule="evenodd" d="M9.25146 10.1083C9.49845 10.2318 9.59856 10.5322 9.47507 10.7792L9.03132 11.6667L9.47507 12.5542C9.59856 12.8012 9.49845 13.1015 9.25146 13.225C9.00447 13.3485 8.70414 13.2484 8.58064 13.0014L8.02509 11.8903C7.9547 11.7495 7.9547 11.5838 8.02509 11.4431L8.58064 10.332C8.70414 10.085 9.00447 9.98485 9.25146 10.1083Z" fill="#BABABA"/>
<path fill-rule="evenodd" clip-rule="evenodd" d="M11.0264 10.1083C11.2734 9.98485 11.5737 10.085 11.6972 10.332L12.2528 11.4431C12.3231 11.5838 12.3231 11.7495 12.2528 11.8903L11.6972 13.0014C11.5737 13.2484 11.2734 13.3485 11.0264 13.225C10.7794 13.1015 10.6793 12.8012 10.8028 12.5542L11.2465 11.6667L10.8028 10.7792C10.6793 10.5322 10.7794 10.2318 11.0264 10.1083Z" fill="#BABABA"/>
</svg>
