<svg width="20" height="20" viewBox="0 0 20 20" fill="none" xmlns="http://www.w3.org/2000/svg">
<path fill-rule="evenodd" clip-rule="evenodd" d="M3.02873 2.5C2.73672 2.5 2.5 2.73672 2.5 3.02873V16.9713C2.5 17.2633 2.73672 17.5 3.02873 17.5H16.9713C17.2633 17.5 17.5 17.2633 17.5 16.9713V3.02873C17.5 2.73672 17.2633 2.5 16.9713 2.5H3.02873ZM1.5 3.02873C1.5 2.18444 2.18444 1.5 3.02873 1.5H16.9713C17.8156 1.5 18.5 2.18444 18.5 3.02873V16.9713C18.5 17.8156 17.8156 18.5 16.9713 18.5H3.02873C2.18444 18.5 1.5 17.8156 1.5 16.9713V3.02873Z" fill="#BABABA"/>
<path fill-rule="evenodd" clip-rule="evenodd" d="M6.11114 6.5C5.94906 6.5 5.79362 6.56439 5.67902 6.67899C5.56441 6.7936 5.50003 6.94903 5.50003 7.11111V12.6667C5.50003 12.8287 5.56441 12.9842 5.67902 13.0988C5.79362 13.2134 5.94906 13.2778 6.11114 13.2778H10C10.2762 13.2778 10.5 13.5016 10.5 13.7778C10.5 14.0539 10.2762 14.2778 10 14.2778H6.11114C5.68384 14.2778 5.27405 14.108 4.97191 13.8059C4.66977 13.5038 4.50003 13.094 4.50003 12.6667V7.11111C4.50003 6.68382 4.66977 6.27403 4.97191 5.97188C5.27405 5.66974 5.68384 5.5 6.11114 5.5H13.8889C14.3162 5.5 14.726 5.66974 15.0281 5.97188C15.3303 6.27403 15.5 6.68382 15.5 7.11111V11.2778C15.5 11.5539 15.2762 11.7778 15 11.7778C14.7239 11.7778 14.5 11.5539 14.5 11.2778V7.11111C14.5 6.94904 14.4356 6.7936 14.321 6.67899C14.2064 6.56439 14.051 6.5 13.8889 6.5H6.11114Z" fill="#BABABA"/>
<path fill-rule="evenodd" clip-rule="evenodd" d="M4.584 6.83376C4.73718 6.604 5.04761 6.54191 5.27738 6.69509L10 9.84352L14.7227 6.69509C14.9524 6.54191 15.2629 6.604 15.4161 6.83376C15.5692 7.06353 15.5071 7.37396 15.2774 7.52714L10.2774 10.8605C10.1094 10.9724 9.89063 10.9724 9.72268 10.8605L4.72268 7.52714C4.49291 7.37396 4.43082 7.06353 4.584 6.83376Z" fill="#BABABA"/>
<path fill-rule="evenodd" clip-rule="evenodd" d="M11.1667 13.7778C11.1667 13.5016 11.3906 13.2778 11.6667 13.2778H15C15.2762 13.2778 15.5 13.5016 15.5 13.7778C15.5 14.0539 15.2762 14.2778 15 14.2778H11.6667C11.3906 14.2778 11.1667 14.0539 11.1667 13.7778Z" fill="#BABABA"/>
<path fill-rule="evenodd" clip-rule="evenodd" d="M12.9798 11.7576C13.1751 11.5623 13.4917 11.5623 13.6869 11.7576L15.3536 13.4242C15.5488 13.6195 15.5488 13.9361 15.3536 14.1313L13.6869 15.798C13.4917 15.9933 13.1751 15.9933 12.9798 15.798C12.7845 15.6027 12.7845 15.2862 12.9798 15.0909L14.2929 13.7778L12.9798 12.4647C12.7845 12.2694 12.7845 11.9528 12.9798 11.7576Z" fill="#BABABA"/>
</svg>
