<svg width="20" height="20" viewBox="0 0 20 20" fill="none" xmlns="http://www.w3.org/2000/svg">
<path fill-rule="evenodd" clip-rule="evenodd" d="M11.9747 3.05279C11.4725 0.982492 8.52766 0.982404 8.0252 3.05252C7.85984 3.73254 7.08447 4.05484 6.48458 3.6901C4.66461 2.5824 2.58296 4.66505 3.69115 6.48413C3.77577 6.62292 3.82652 6.77989 3.83909 6.94195C3.85165 7.10402 3.82577 7.26676 3.76356 7.41693C3.70134 7.56711 3.60454 7.70047 3.48105 7.80616C3.35755 7.91185 3.21084 7.98689 3.05286 8.02517C0.982563 8.52742 0.982335 11.4723 3.05245 11.9747C3.21029 12.0131 3.35685 12.0882 3.4802 12.1939C3.60356 12.2996 3.70024 12.4329 3.76239 12.5829C3.82453 12.733 3.85039 12.8957 3.83785 13.0576C3.82532 13.2196 3.77474 13.3763 3.69024 13.515C2.5822 15.335 4.6649 17.417 6.48406 16.3088C6.62285 16.2242 6.77982 16.1734 6.94188 16.1608C7.10395 16.1483 7.26669 16.1742 7.41686 16.2364C7.56704 16.2986 7.7004 16.3954 7.80609 16.5189C7.91178 16.6424 7.98682 16.7891 8.0251 16.9471C8.52735 19.0174 11.4722 19.0176 11.9747 16.9475C12.013 16.7896 12.0881 16.6431 12.1938 16.5197C12.2995 16.3964 12.4328 16.2997 12.5829 16.2375C12.733 16.1754 12.8956 16.1495 13.0575 16.1621C13.2195 16.1746 13.3762 16.2252 13.5149 16.3097C15.335 17.4177 17.417 15.335 16.3087 13.5159C16.2241 13.3771 16.1733 13.2201 16.1608 13.058C16.1482 12.896 16.1741 12.7332 16.2363 12.5831C16.2985 12.4329 16.3953 12.2995 16.5188 12.1938C16.6423 12.0881 16.789 12.0131 16.947 11.9748C19.0173 11.4726 19.0173 8.52766 16.9471 8.02521C16.7894 7.9868 16.6429 7.91174 16.5197 7.80612C16.3963 7.70043 16.2996 7.56713 16.2375 7.41705C16.1753 7.26697 16.1495 7.10434 16.162 6.94239C16.1745 6.78043 16.2252 6.62363 16.3097 6.4849C17.4177 4.66487 15.3348 2.58308 13.5156 3.69132C13.3769 3.77594 13.22 3.82659 13.058 3.83916C12.8959 3.85172 12.7332 3.82584 12.583 3.76363C12.4328 3.70141 12.2995 3.60461 12.1938 3.48111C12.0881 3.35762 12.013 3.21077 11.9747 3.05279ZM8.99695 3.28855C9.252 2.2372 10.7477 2.23715 11.0029 3.28841C11.0782 3.59935 11.226 3.88825 11.434 4.13133C11.6421 4.37445 11.9046 4.565 12.2002 4.68748C12.4959 4.80996 12.8162 4.8609 13.1353 4.83617C13.4543 4.81143 13.7629 4.71175 14.0361 4.54523C14.96 3.98236 16.0186 5.04001 15.4555 5.96488C15.2892 6.23796 15.1897 6.54643 15.165 6.86521C15.1403 7.18403 15.1912 7.50418 15.3135 7.79962C15.4359 8.09507 15.6262 8.35748 15.8691 8.56553C16.1119 8.77358 16.4004 8.92139 16.7111 8.99695C17.7625 9.25201 17.7628 10.7478 16.7115 11.0029C16.4006 11.0783 16.1117 11.2261 15.8686 11.4341C15.6255 11.6422 15.4349 11.9047 15.3125 12.2003C15.19 12.4959 15.139 12.8163 15.1638 13.1353C15.1885 13.4544 15.2882 13.7631 15.4548 14.0363C16.0175 14.9602 14.9599 16.0186 14.0351 15.4556C13.762 15.2893 13.4535 15.1897 13.1347 15.1651C12.9885 15.1537 12.842 15.1583 12.6978 15.1784C12.5275 15.2021 12.3603 15.2474 12.2003 15.3136C12.0402 15.3799 11.8897 15.4662 11.7524 15.57C11.6364 15.6577 11.5297 15.7579 11.4344 15.8691C11.2264 16.112 11.0785 16.4005 11.003 16.7112C10.7479 17.7625 9.25211 17.7627 8.99695 16.7115C8.92159 16.4005 8.77388 16.1118 8.56584 15.8687C8.35778 15.6256 8.09524 15.435 7.79962 15.3125C7.50399 15.19 7.18362 15.1391 6.86458 15.1638C6.54554 15.1886 6.23686 15.2883 5.96364 15.4549C5.03973 16.0175 3.98131 14.9599 4.54434 14.0351C4.71066 13.762 4.81019 13.4536 4.83487 13.1348C4.85955 12.816 4.80865 12.4958 4.68631 12.2004C4.56398 11.9049 4.37365 11.6425 4.13081 11.4345C3.88797 11.2264 3.5992 11.0785 3.28848 11.003C2.23713 10.7479 2.23722 9.25218 3.28848 8.99702C3.59942 8.92165 3.88818 8.77395 4.13126 8.56591C4.37438 8.35784 4.56493 8.09531 4.68741 7.79969C4.80989 7.50406 4.86083 7.18369 4.8361 6.86465C4.81137 6.54568 4.71168 6.23704 4.54516 5.96387C3.98229 5.03992 5.0402 3.9815 5.96506 4.54456C7.14295 5.26072 8.67164 4.62631 8.99695 3.28855ZM6.83327 9.99992C6.83327 8.25102 8.25104 6.83325 9.99994 6.83325C11.7488 6.83325 13.1666 8.25102 13.1666 9.99992C13.1666 11.7488 11.7488 13.1666 9.99994 13.1666C8.25104 13.1666 6.83327 11.7488 6.83327 9.99992ZM9.99994 7.83325C8.80332 7.83325 7.83327 8.8033 7.83327 9.99992C7.83327 11.1965 8.80332 12.1666 9.99994 12.1666C11.1966 12.1666 12.1666 11.1965 12.1666 9.99992C12.1666 8.8033 11.1966 7.83325 9.99994 7.83325Z" fill="#BABABA"/>
</svg>
