<svg width="20" height="20" viewBox="0 0 20 20" fill="none" xmlns="http://www.w3.org/2000/svg">
<path fill-rule="evenodd" clip-rule="evenodd" d="M10 2.5C5.85786 2.5 2.5 5.85786 2.5 10C2.5 14.1421 5.85786 17.5 10 17.5C14.1421 17.5 17.5 14.1421 17.5 10C17.5 5.85786 14.1421 2.5 10 2.5ZM1.5 10C1.5 5.30558 5.30558 1.5 10 1.5C14.6944 1.5 18.5 5.30558 18.5 10C18.5 14.6944 14.6944 18.5 10 18.5C5.30558 18.5 1.5 14.6944 1.5 10Z" fill="#BABABA"/>
<path fill-rule="evenodd" clip-rule="evenodd" d="M10 7C9.83282 7 9.67671 7.08355 9.58397 7.22265L7.08398 10.9727C6.98169 11.1261 6.97215 11.3234 7.05916 11.4859C7.14617 11.6485 7.3156 11.75 7.5 11.75L12.5 11.75C12.6844 11.75 12.8538 11.6485 12.9408 11.4859C13.0278 11.3234 13.0183 11.1261 12.916 10.9726L10.416 7.22265C10.3233 7.08355 10.1672 7 10 7ZM11.5657 10.75H8.43426L10 8.40139L11.5657 10.75Z" fill="#BABABA"/>
</svg>
