<svg width="20" height="20" viewBox="0 0 20 20" fill="none" xmlns="http://www.w3.org/2000/svg">
<path fill-rule="evenodd" clip-rule="evenodd" d="M10 2.5C5.85786 2.5 2.5 5.85786 2.5 10C2.5 14.1421 5.85786 17.5 10 17.5C14.1421 17.5 17.5 14.1421 17.5 10C17.5 5.85786 14.1421 2.5 10 2.5ZM1.5 10C1.5 5.30558 5.30558 1.5 10 1.5C14.6944 1.5 18.5 5.30558 18.5 10C18.5 14.6944 14.6944 18.5 10 18.5C5.30558 18.5 1.5 14.6944 1.5 10ZM10 5C10.1326 5 10.2598 5.05268 10.3536 5.14645L13.3536 8.14645C13.5488 8.34171 13.5488 8.65829 13.3536 8.85355C13.1583 9.04882 12.8417 9.04882 12.6464 8.85355L10.5 6.70711L10.5 13C10.5 13.2761 10.7239 13.5 11 13.5H13C13.2761 13.5 13.5 13.7239 13.5 14C13.5 14.2761 13.2761 14.5 13 14.5H11C10.1716 14.5 9.5 13.8284 9.5 13L9.5 6.70711L7.35355 8.85355C7.15829 9.04882 6.84171 9.04882 6.64645 8.85355C6.45118 8.65829 6.45118 8.34171 6.64645 8.14645L9.64645 5.14645C9.74022 5.05268 9.86739 5 10 5Z" fill="#BABABA"/>
</svg>
