<svg width="20" height="20" viewBox="0 0 20 20" fill="none" xmlns="http://www.w3.org/2000/svg">
<path fill-rule="evenodd" clip-rule="evenodd" d="M3.02873 2.5C2.73672 2.5 2.5 2.73672 2.5 3.02873V16.9713C2.5 17.2633 2.73672 17.5 3.02873 17.5H16.9713C17.2633 17.5 17.5 17.2633 17.5 16.9713V3.02873C17.5 2.73672 17.2633 2.5 16.9713 2.5H3.02873ZM1.5 3.02873C1.5 2.18444 2.18444 1.5 3.02873 1.5H16.9713C17.8156 1.5 18.5 2.18444 18.5 3.02873V16.9713C18.5 17.8156 17.8156 18.5 16.9713 18.5H3.02873C2.18444 18.5 1.5 17.8156 1.5 16.9713V3.02873ZM4.50003 5C4.50003 4.72386 4.72388 4.5 5.00003 4.5H15C15.2762 4.5 15.5 4.72386 15.5 5V15C15.5 15.2761 15.2762 15.5 15 15.5H5.00003C4.72388 15.5 4.50003 15.2761 4.50003 15V5ZM5.50003 5.5V14.5H14.5V5.5H5.50003ZM10 7C10.2762 7 10.5 7.22386 10.5 7.5V9.5H12.5C12.7762 9.5 13 9.72386 13 10C13 10.2761 12.7762 10.5 12.5 10.5H10.5V12.5C10.5 12.7761 10.2762 13 10 13C9.72388 13 9.50003 12.7761 9.50003 12.5V10.5H7.50003C7.22388 10.5 7.00003 10.2761 7.00003 10C7.00003 9.72386 7.22388 9.5 7.50003 9.5H9.50003V7.5C9.50003 7.22386 9.72388 7 10 7Z" fill="#BABABA"/>
</svg>
