<svg width="20" height="20" viewBox="0 0 20 20" fill="none" xmlns="http://www.w3.org/2000/svg">
<path fill-rule="evenodd" clip-rule="evenodd" d="M2.86788 9.83919C2.77907 9.928 2.77907 10.072 2.86788 10.1608L9.83915 17.1321C9.92796 17.2209 10.072 17.2209 10.1608 17.1321L17.132 10.1608C17.2209 10.072 17.2209 9.928 17.132 9.83919L10.1608 2.86792C10.072 2.7791 9.92796 2.7791 9.83915 2.86792L2.86788 9.83919ZM2.16077 10.8679C1.68143 10.3886 1.68143 9.61142 2.16077 9.13208L9.13204 2.16081C9.61138 1.68147 10.3885 1.68147 10.8679 2.16081L17.8391 9.13208C18.3185 9.61142 18.3185 10.3886 17.8391 10.8679L10.8679 17.8392C10.3885 18.3185 9.61138 18.3185 9.13204 17.8392L2.16077 10.8679Z" fill="#BABABA"/>
<path fill-rule="evenodd" clip-rule="evenodd" d="M9.99996 6.50002C8.06696 6.50002 6.49996 8.06702 6.49996 10C6.49996 11.933 8.06696 13.5 9.99996 13.5C11.933 13.5 13.5 11.933 13.5 10C13.5 8.06702 11.933 6.50002 9.99996 6.50002ZM5.49996 10C5.49996 7.51473 7.51468 5.50002 9.99996 5.50002C12.4852 5.50002 14.5 7.51473 14.5 10C14.5 12.4853 12.4852 14.5 9.99996 14.5C7.51468 14.5 5.49996 12.4853 5.49996 10Z" fill="#BABABA"/>
<path d="M9.99983 8.24287C10.276 8.24287 10.4998 8.46673 10.4998 8.74287V9.50002H11.2571C11.5333 9.50002 11.7571 9.72387 11.7571 10C11.7571 10.2762 11.5333 10.5 11.2571 10.5H10.4998V11.2572C10.4998 11.5333 10.276 11.7572 9.99983 11.7572C9.72369 11.7572 9.49983 11.5333 9.49983 11.2572V10.5H8.7428C8.46666 10.5 8.2428 10.2762 8.2428 10C8.2428 9.72387 8.46666 9.50002 8.7428 9.50002H9.49983V8.74287C9.49983 8.46673 9.72369 8.24287 9.99983 8.24287Z" fill="#BABABA"/>
</svg>
