<svg width="20" height="20" viewBox="0 0 20 20" fill="none" xmlns="http://www.w3.org/2000/svg">
<path fill-rule="evenodd" clip-rule="evenodd" d="M16.97 1.5H3.03C2.18 1.5 1.5 2.18 1.5 3.03V16.97C1.5 17.81 2.18 18.5 3.03 18.5H16.97C17.81 18.5 18.5 17.82 18.5 16.97V3.03C18.5 2.19 17.82 1.5 16.97 1.5ZM17.5 16.97C17.5 17.26 17.26 17.5 16.97 17.5H3.03C2.74 17.5 2.5 17.26 2.5 16.97V3.03C2.5 2.74 2.74 2.5 3.03 2.5H16.97C17.26 2.5 17.5 2.74 17.5 3.03V16.97Z" fill="#BABABA"/>
<path fill-rule="evenodd" clip-rule="evenodd" d="M15.46 9.81C15.43 9.75 15.4 9.69 15.35 9.65L12.85 7.15C12.65 6.95 12.34 6.95 12.14 7.15C11.94 7.35 11.94 7.66 12.14 7.86L13.79 9.51H8.75C8.47 9.51 8.25 9.73 8.25 10.01C8.25 10.29 8.47 10.51 8.75 10.51H13.79L12.14 12.16C11.94 12.36 11.94 12.67 12.14 12.87C12.34 13.07 12.65 13.07 12.85 12.87L15.35 10.37C15.35 10.37 15.43 10.27 15.46 10.21C15.51 10.09 15.51 9.95 15.46 9.83V9.81Z" fill="#BABABA"/>
<path d="M5.62 11.12C6.23856 11.12 6.74 10.6186 6.74 10C6.74 9.38144 6.23856 8.88 5.62 8.88C5.00144 8.88 4.5 9.38144 4.5 10C4.5 10.6186 5.00144 11.12 5.62 11.12Z" fill="#BABABA"/>
</svg>
