<svg width="20" height="20" viewBox="0 0 20 20" fill="none" xmlns="http://www.w3.org/2000/svg">
<path d="M10 10.96C10.69 10.96 11.25 10.4 11.25 9.71C11.25 9.02 10.69 8.46 10 8.46C9.31 8.46 8.75 9.02 8.75 9.71C8.75 10.4 9.31 10.96 10 10.96ZM10 9.46C10.14 9.46 10.25 9.57 10.25 9.71C10.25 9.85 10.14 9.96 10 9.96C9.86 9.96 9.75 9.85 9.75 9.71C9.75 9.57 9.86 9.46 10 9.46Z" fill="#BABABA"/>
<path d="M8.69 13.72C8.97 13.72 9.19 13.5 9.19 13.22V12.78C9.19 12.68 9.23 12.58 9.3 12.51C9.37 12.44 9.47 12.4 9.57 12.4H10.45C10.55 12.4 10.65 12.44 10.72 12.51C10.79 12.58 10.83 12.68 10.83 12.78V13.22C10.83 13.5 11.05 13.72 11.33 13.72C11.61 13.72 11.83 13.5 11.83 13.22V12.78C11.83 12.42 11.69 12.07 11.43 11.81C11.17 11.55 10.82 11.41 10.46 11.41H9.58C9.22 11.41 8.87 11.55 8.61 11.81C8.35 12.07 8.21 12.42 8.21 12.78V13.22C8.21 13.5 8.43 13.72 8.71 13.72H8.69Z" fill="#BABABA"/>
<path d="M14.29 4.5H5.71C5.01 4.5 4.5 5.1 4.5 5.77V14.23C4.5 14.9 5.01 15.5 5.71 15.5H14.29C14.99 15.5 15.5 14.9 15.5 14.23V5.77C15.5 5.1 14.99 4.5 14.29 4.5ZM14.5 14.23C14.5 14.41 14.37 14.5 14.29 14.5H5.71C5.63 14.5 5.5 14.41 5.5 14.23V7.81H14.5V14.23ZM14.5 6.81H5.5V5.77C5.5 5.59 5.63 5.5 5.71 5.5H14.29C14.37 5.5 14.5 5.58 14.5 5.77V6.81Z" fill="#BABABA"/>
<path d="M16.97 1.5H3.03C2.18 1.5 1.5 2.18 1.5 3.03V16.97C1.5 17.81 2.18 18.5 3.03 18.5H16.97C17.81 18.5 18.5 17.82 18.5 16.97V3.03C18.5 2.19 17.82 1.5 16.97 1.5ZM17.5 16.97C17.5 17.26 17.26 17.5 16.97 17.5H3.03C2.74 17.5 2.5 17.26 2.5 16.97V3.03C2.5 2.74 2.74 2.5 3.03 2.5H16.97C17.26 2.5 17.5 2.74 17.5 3.03V16.97Z" fill="#BABABA"/>
</svg>
