<svg width="20" height="20" viewBox="0 0 20 20" fill="none" xmlns="http://www.w3.org/2000/svg">
<path fill-rule="evenodd" clip-rule="evenodd" d="M10.0094 7.86367C10.2855 7.86367 10.5094 8.08753 10.5094 8.36367V11.6667C10.5094 11.9428 10.2855 12.1667 10.0094 12.1667C9.73323 12.1667 9.50937 11.9428 9.50937 11.6667V8.36367C9.50937 8.08753 9.73323 7.86367 10.0094 7.86367ZM10.0094 13.1991C10.2855 13.1991 10.5094 13.4229 10.5094 13.6991V13.708C10.5094 13.9841 10.2855 14.208 10.0094 14.208C9.73323 14.208 9.50937 13.9841 9.50937 13.708V13.6991C9.50937 13.4229 9.73323 13.1991 10.0094 13.1991Z" fill="#FF9F46"/>
<path fill-rule="evenodd" clip-rule="evenodd" d="M8.84329 2.81573C9.19389 2.60902 9.59347 2.5 10.0005 2.5C10.4075 2.5 10.807 2.60902 11.1576 2.81573C11.5067 3.02154 11.7946 3.31671 11.9916 3.67078L18.3028 14.5599C18.3146 14.5802 18.3249 14.6013 18.3337 14.6231C18.4731 14.9677 18.5261 15.3412 18.488 15.711C18.4499 16.0808 18.3219 16.4356 18.1152 16.7446C17.9085 17.0536 17.6293 17.3073 17.302 17.4836C16.9747 17.6598 16.6093 17.7534 16.2375 17.756L16.234 17.756H3.78472C3.76827 17.756 3.75201 17.7552 3.73598 17.7536C3.71147 17.756 3.68649 17.7566 3.66116 17.7553C3.29819 17.7366 2.94497 17.6313 2.63098 17.4483C2.31699 17.2653 2.05134 17.0098 1.85621 16.7031C1.66109 16.3965 1.54214 16.0477 1.50931 15.6857C1.47649 15.3237 1.53072 14.9592 1.6675 14.6224C1.67625 14.6009 1.68649 14.58 1.69815 14.5599L8.00937 3.6708C8.20634 3.31672 8.4942 3.02154 8.84329 2.81573ZM3.73568 16.7584C3.75181 16.7568 3.76817 16.756 3.78472 16.756H16.2321C16.4402 16.7543 16.6446 16.7018 16.8278 16.6031C17.0114 16.5042 17.1681 16.3619 17.2841 16.1885C17.4001 16.0152 17.4719 15.816 17.4933 15.6085C17.5135 15.4118 17.4879 15.2132 17.4185 15.0283L11.119 4.15958C11.0085 3.95976 10.8465 3.79314 10.6498 3.67716C10.453 3.56117 10.2288 3.5 10.0005 3.5C9.7721 3.5 9.54789 3.56117 9.35116 3.67716C9.15444 3.79314 8.99237 3.95971 8.88181 4.15953L8.87699 4.16825L2.58229 15.0286C2.51418 15.2092 2.48777 15.4029 2.50523 15.5954C2.52365 15.7985 2.59039 15.9942 2.69987 16.1663C2.80936 16.3383 2.95842 16.4817 3.1346 16.5844C3.31078 16.6871 3.50898 16.7462 3.71265 16.7567C3.72037 16.7571 3.72805 16.7576 3.73568 16.7584Z" fill="#FF9F46"/>
</svg>
