<svg width="20" height="20" viewBox="0 0 20 20" fill="none" xmlns="http://www.w3.org/2000/svg">
<path fill-rule="evenodd" clip-rule="evenodd" d="M3.02873 2.5C2.73672 2.5 2.5 2.73672 2.5 3.02873V16.9713C2.5 17.2633 2.73672 17.5 3.02873 17.5H16.9713C17.2633 17.5 17.5 17.2633 17.5 16.9713V3.02873C17.5 2.73672 17.2633 2.5 16.9713 2.5H3.02873ZM1.5 3.02873C1.5 2.18444 2.18444 1.5 3.02873 1.5H16.9713C17.8156 1.5 18.5 2.18444 18.5 3.02873V16.9713C18.5 17.8156 17.8156 18.5 16.9713 18.5H3.02873C2.18444 18.5 1.5 17.8156 1.5 16.9713V3.02873Z" fill="#BABABA"/>
<path fill-rule="evenodd" clip-rule="evenodd" d="M10 5.5C7.51472 5.5 5.5 7.51472 5.5 10C5.5 12.4853 7.51472 14.5 10 14.5C12.4853 14.5 14.5 12.4853 14.5 10C14.5 7.51472 12.4853 5.5 10 5.5ZM4.5 10C4.5 6.96243 6.96243 4.5 10 4.5C13.0376 4.5 15.5 6.96243 15.5 10C15.5 13.0376 13.0376 15.5 10 15.5C6.96243 15.5 4.5 13.0376 4.5 10Z" fill="#BABABA"/>
<path fill-rule="evenodd" clip-rule="evenodd" d="M4.83332 8.33333C4.83332 8.05719 5.05718 7.83333 5.33332 7.83333H14.6667C14.9428 7.83333 15.1667 8.05719 15.1667 8.33333C15.1667 8.60948 14.9428 8.83333 14.6667 8.83333H5.33332C5.05718 8.83333 4.83332 8.60948 4.83332 8.33333Z" fill="#BABABA"/>
<path fill-rule="evenodd" clip-rule="evenodd" d="M4.83332 11.6667C4.83332 11.3905 5.05718 11.1667 5.33332 11.1667H14.6667C14.9428 11.1667 15.1667 11.3905 15.1667 11.6667C15.1667 11.9428 14.9428 12.1667 14.6667 12.1667H5.33332C5.05718 12.1667 4.83332 11.9428 4.83332 11.6667Z" fill="#BABABA"/>
<path fill-rule="evenodd" clip-rule="evenodd" d="M9.98692 4.57582C10.2212 4.72201 10.2926 5.03044 10.1464 5.26471C9.26002 6.68509 8.7901 8.32574 8.7901 10C8.7901 11.6743 9.26002 13.3149 10.1464 14.7353C10.2926 14.9696 10.2212 15.278 9.98692 15.4242C9.75265 15.5704 9.44422 15.499 9.29803 15.2647C8.31256 13.6855 7.7901 11.8614 7.7901 10C7.7901 8.13856 8.31256 6.31448 9.29803 4.73529C9.44422 4.50103 9.75265 4.42963 9.98692 4.57582Z" fill="#BABABA"/>
<path fill-rule="evenodd" clip-rule="evenodd" d="M10.0131 4.57582C10.2473 4.42963 10.5558 4.50103 10.702 4.73529C11.6874 6.31448 12.2099 8.13856 12.2099 10C12.2099 11.8614 11.6874 13.6855 10.702 15.2647C10.5558 15.499 10.2473 15.5704 10.0131 15.4242C9.7788 15.278 9.7074 14.9696 9.8536 14.7353C10.74 13.3149 11.2099 11.6743 11.2099 10C11.2099 8.32574 10.74 6.68509 9.8536 5.26471C9.7074 5.03044 9.7788 4.72201 10.0131 4.57582Z" fill="#BABABA"/>
</svg>
