<svg width="20" height="20" viewBox="0 0 20 20" fill="none" xmlns="http://www.w3.org/2000/svg">
<path fill-rule="evenodd" clip-rule="evenodd" d="M7.33342 3.27778C7.60956 3.27778 7.83342 3.50164 7.83342 3.77778V7.33334C7.83342 7.60948 7.60956 7.83334 7.33342 7.83334H3.77786C3.50172 7.83334 3.27786 7.60948 3.27786 7.33334C3.27786 7.0572 3.50172 6.83334 3.77786 6.83334H6.83342V3.77778C6.83342 3.50164 7.05728 3.27778 7.33342 3.27778Z" fill="#BABABA"/>
<path fill-rule="evenodd" clip-rule="evenodd" d="M1.64645 1.64645C1.84171 1.45118 2.15829 1.45118 2.35355 1.64645L7.68689 6.97978C7.88215 7.17504 7.88215 7.49162 7.68689 7.68689C7.49162 7.88215 7.17504 7.88215 6.97978 7.68689L1.64645 2.35355C1.45118 2.15829 1.45118 1.84171 1.64645 1.64645Z" fill="#BABABA"/>
<path fill-rule="evenodd" clip-rule="evenodd" d="M3.27786 12.6667C3.27786 12.3905 3.50172 12.1667 3.77786 12.1667H7.33342C7.60956 12.1667 7.83342 12.3905 7.83342 12.6667V16.2222C7.83342 16.4984 7.60956 16.7222 7.33342 16.7222C7.05728 16.7222 6.83342 16.4984 6.83342 16.2222V13.1667H3.77786C3.50172 13.1667 3.27786 12.9428 3.27786 12.6667Z" fill="#BABABA"/>
<path fill-rule="evenodd" clip-rule="evenodd" d="M7.68689 12.3131C7.88215 12.5084 7.88215 12.825 7.68689 13.0202L2.35355 18.3536C2.15829 18.5488 1.84171 18.5488 1.64645 18.3536C1.45118 18.1583 1.45118 17.8417 1.64645 17.6464L6.97978 12.3131C7.17504 12.1179 7.49162 12.1179 7.68689 12.3131Z" fill="#BABABA"/>
<path fill-rule="evenodd" clip-rule="evenodd" d="M12.6667 3.27778C12.9428 3.27778 13.1667 3.50164 13.1667 3.77778V6.83334H16.2222C16.4984 6.83334 16.7222 7.0572 16.7222 7.33334C16.7222 7.60948 16.4984 7.83334 16.2222 7.83334H12.6667C12.3905 7.83334 12.1667 7.60948 12.1667 7.33334V3.77778C12.1667 3.50164 12.3905 3.27778 12.6667 3.27778Z" fill="#BABABA"/>
<path fill-rule="evenodd" clip-rule="evenodd" d="M18.3536 1.64645C18.5488 1.84171 18.5488 2.15829 18.3536 2.35355L13.0202 7.68689C12.825 7.88215 12.5084 7.88215 12.3131 7.68689C12.1179 7.49162 12.1179 7.17504 12.3131 6.97978L17.6464 1.64645C17.8417 1.45118 18.1583 1.45118 18.3536 1.64645Z" fill="#BABABA"/>
<path fill-rule="evenodd" clip-rule="evenodd" d="M12.1667 12.6667C12.1667 12.3905 12.3905 12.1667 12.6667 12.1667H16.2222C16.4984 12.1667 16.7222 12.3905 16.7222 12.6667C16.7222 12.9428 16.4984 13.1667 16.2222 13.1667H13.1667V16.2222C13.1667 16.4984 12.9428 16.7222 12.6667 16.7222C12.3905 16.7222 12.1667 16.4984 12.1667 16.2222V12.6667Z" fill="#BABABA"/>
<path fill-rule="evenodd" clip-rule="evenodd" d="M12.3131 12.3131C12.5084 12.1179 12.825 12.1179 13.0202 12.3131L18.3536 17.6464C18.5488 17.8417 18.5488 18.1583 18.3536 18.3536C18.1583 18.5488 17.8417 18.5488 17.6464 18.3536L12.3131 13.0202C12.1179 12.825 12.1179 12.5084 12.3131 12.3131Z" fill="#BABABA"/>
</svg>
