<?xml version="1.0" standalone="no"?>
<!DOCTYPE svg PUBLIC "-//W3C//DTD SVG 1.1//EN" "http://www.w3.org/Graphics/SVG/1.1/DTD/svg11.dtd" >
<svg xmlns="http://www.w3.org/2000/svg">
<metadata>Licence by Streamline Icons (https://streamlinehq.com/), Provided by Axon Ivy AG</metadata>
<defs>
  <font id="StreamlineIcons" horiz-adv-x="300">
    <font-face font-family="StreamlineIcons"
      units-per-em="300" ascent="300"
      descent="0" />
    <missing-glyph horiz-adv-x="0" />
    <glyph glyph-name="activities-group"
      unicode="&#xF101;"
      horiz-adv-x="250" d="M37.859125 218.75C34.209 218.75 31.25 215.791 31.25 212.140875V37.85875C31.25 34.20875 34.209 31.25 37.859125 31.25H212.14125C215.79125 31.25 218.75 34.20875 218.75 37.85875V212.140875C218.75 215.791 215.79125 218.75 212.14125 218.75H37.859125zM18.75 212.140875C18.75 222.6945 27.3055 231.25 37.859125 231.25H212.14125C222.695 231.25 231.25 222.6945 231.25 212.140875V37.85875C231.25 27.305 222.695 18.75 212.14125 18.75H37.859125C27.3055 18.75 18.75 27.305 18.75 37.85875V212.140875z" />
    <glyph glyph-name="align-horizontal"
      unicode="&#xF102;"
      horiz-adv-x="250" d="M65.250625 122.5C65.250625 119.04875 62.452375 116.25 59.000625 116.25H35.000625C31.548875 116.25 28.750625 119.04875 28.750625 122.5C28.750625 125.951875 31.548875 128.75 35.000625 128.75H59.000625C62.452375 128.75 65.250625 125.951875 65.250625 122.5zM149.25 122.5C149.25 119.04875 146.4525 116.25 143 116.25L107.000625 116.25C103.548875 116.25 100.750625 119.04875 100.750625 122.5C100.750625 125.951875 103.548875 128.75 107.000625 128.75L143 128.75C146.4525 128.75 149.25 125.95175 149.25 122.5zM221.25 122.5C221.25 119.04875 218.4525 116.25 215 116.25H191C187.54875 116.25 184.75 119.04875 184.75 122.5C184.75 125.95175 187.54875 128.75 191 128.75H215C218.4525 128.75 221.25 125.95175 221.25 122.5zM100.750625 189.80775C100.750625 190.3755 100.200375 191.25 99.000625 191.25L67.000625 191.25C65.80075 191.25 65.250625 190.3755 65.250625 189.80775L65.250625 55.1925C65.250625 54.625 65.80075 53.75 67.000625 53.75H99.000625C100.200375 53.75 100.750625 54.625 100.750625 55.1925V189.80775zM99.000625 203.75C106.637375 203.75 113.250625 197.736625 113.250625 189.80775V55.1925C113.250625 47.26375 106.637375 41.25 99.000625 41.25H67.000625C59.363875 41.25 52.750625 47.26375 52.750625 55.1925L52.750625 189.80775C52.750625 197.736625 59.363875 203.75 67.000625 203.75L99.000625 203.75zM184.75 166.732C184.75 167.299875 184.2 168.174375 183 168.174375H151C149.80125 168.174375 149.25 167.299875 149.25 166.732L149.25 78.27C149.25 77.7025 149.80125 76.82875 151 76.82875H183C184.2 76.82875 184.75 77.7025 184.75 78.27V166.732zM183 180.674375C190.6375 180.674375 197.25 174.661 197.25 166.732V78.27C197.25 70.34125 190.6375 64.32875 183 64.32875H151C143.36375 64.32875 136.75 70.34125 136.75 78.27V166.732C136.75 174.661 143.36375 180.674375 151 180.674375L183 180.674375z" />
    <glyph glyph-name="align-vertical"
      unicode="&#xF103;"
      horiz-adv-x="250" d="M125 62.75C128.45125 62.75 131.25 59.95125 131.25 56.5V32.5C131.25 29.04875 128.45125 26.25 125 26.25C121.54825 26.25 118.75 29.04875 118.75 32.5V56.5C118.75 59.95125 121.54825 62.75 125 62.75zM125 146.75C128.45125 146.75 131.25 143.95175 131.25 140.5V104.5C131.25 101.04875 128.45125 98.25 125 98.25C121.54825 98.25 118.75 101.04875 118.75 104.5V140.5C118.75 143.95175 121.54825 146.75 125 146.75zM125 218.75C128.45125 218.75 131.25 215.95175 131.25 212.5V188.5C131.25 185.04825 128.45125 182.25 125 182.25C121.54825 182.25 118.75 185.04825 118.75 188.5V212.5C118.75 215.95175 121.54825 218.75 125 218.75zM57.69225 98.25C57.1245 98.25 56.25 97.7 56.25 96.5V64.5C56.25 63.3 57.1245 62.75 57.69225 62.75H192.3075C192.875 62.75 193.75 63.3 193.75 64.5V96.5C193.75 97.7 192.875 98.25 192.3075 98.25H57.69225zM43.75 96.5C43.75 104.13625 49.763375 110.75 57.69225 110.75H192.3075C200.23625 110.75 206.25 104.13625 206.25 96.5V64.5C206.25 56.86375 200.23625 50.25 192.3075 50.25H57.69225C49.763375 50.25 43.75 56.86375 43.75 64.5V96.5zM80.768 182.25C80.20025 182.25 79.325625 181.69975 79.325625 180.5V148.5C79.325625 147.30025 80.20025 146.75 80.768 146.75H169.23C169.7975 146.75 170.67125 147.30025 170.67125 148.5V180.5C170.67125 181.69975 169.7975 182.25 169.23 182.25H80.768zM66.825625 180.5C66.825625 188.13675 72.839125 194.75 80.768 194.75H169.23C177.15875 194.75 183.17125 188.13675 183.17125 180.5V148.5C183.17125 140.86325 177.15875 134.25 169.23 134.25H80.768C72.839125 134.25 66.825625 140.86325 66.825625 148.5V180.5z" />
    <glyph glyph-name="aternative"
      unicode="&#xF104;"
      horiz-adv-x="250" d="M35.8485 127.010125C34.738375 125.9 34.738375 124.1 35.8485 122.99L122.989375 35.84875C124.0995 34.73875 125.9 34.73875 127.01 35.84875L214.15 122.99C215.26125 124.1 215.26125 125.9 214.15 127.010125L127.01 214.151C125.9 215.26125 124.0995 215.26125 122.989375 214.151L35.8485 127.010125zM27.009625 114.15125C21.017875 120.1425 21.017875 129.85725 27.009625 135.849L114.1505 222.989875C120.14225 228.981625 129.85625 228.981625 135.84875 222.989875L222.98875 135.849C228.98125 129.85725 228.98125 120.1425 222.98875 114.15125L135.84875 27.01C129.85625 21.01875 120.14225 21.01875 114.1505 27.01L27.009625 114.15125zM97.01 152.989625C99.45075 155.430375 103.408 155.430375 105.84875 152.989625L152.98875 105.84875C155.43 103.40875 155.43 99.45125 152.98875 97.01C150.54875 94.57 146.59125 94.57 144.15 97.01L97.01 144.15075C94.569125 146.5915 94.569125 150.54875 97.01 152.989625zM97.01 97.01C94.569125 99.45125 94.569125 103.40875 97.01 105.84875L144.15 152.9895C146.59125 155.43025 150.54875 155.43025 152.98875 152.9895C155.43 150.54875 155.43 146.5915 152.98875 144.150625L105.84875 97.01C103.408 94.57 99.45075 94.57 97.01 97.01z" />
    <glyph glyph-name="bend"
      unicode="&#xF105;"
      horiz-adv-x="300" d="M34.75 6.625C19.2375 6.625 6.625 19.2375 6.625 34.75V274.6125C6.625 279.625 8.575 284.325 12.1125 287.875C15.65 291.4125 20.3625 293.375 25.3625 293.375C30.375 293.375 35.075 291.425 38.625 287.8875L287.875 38.6375C291.4125 35.1 293.3625 30.3875 293.3625 25.3749999999999C293.3625 20.3625 291.4000000000001 15.6625 287.8625 12.1125C284.3375 8.5875 279.6375 6.6375 274.6375 6.6375C274.6375 6.625 34.75 6.625 34.75 6.625zM25.375 34.75C25.375 29.575 29.575 25.375 34.75 25.375H274.6250000000001L222.25 77.7375L210.125 65.6125C208.35 63.8375 206.0000000000001 62.8625 203.5 62.8625S198.6375 63.8375 196.875 65.6125C193.225 69.2625000000001 193.225 75.2125 196.875 78.875L209 91L175.375 124.625L163.2625 112.5C161.4875 110.725 159.1375 109.75 156.6375 109.75S151.775 110.725 150 112.5C146.35 116.15 146.35 122.1 150 125.7625L162.125 137.8875L128.5 171.5L116.375 159.375C114.6 157.6 112.25 156.625 109.75 156.625S104.8875 157.6 103.125 159.375C101.35 161.1375 100.375 163.5 100.375 166S101.35 170.8625 103.125 172.625L115.25 184.75L81.625 218.375L69.5125 206.25C67.7375 204.475 65.3875 203.5 62.8875 203.5S58.025 204.475 56.25 206.25C54.475 208.0125 53.5 210.375 53.5 212.875S54.475 217.7375 56.25 219.5L68.375 231.625L25.375 274.625L25.375 34.75zM72.25 62.875C67.075 62.875 62.875 67.075 62.875 72.25V156.625C62.875 160.4375 65.15 163.8375 68.6625 165.2875C69.8 165.7625 71.0125 166 72.25 166C74.75 166 77.1125 165.025 78.8875 163.25L163.2625 78.875C165.95 76.1875 166.75 72.175 165.3 68.6625S160.4375 62.875 156.6375 62.875H72.25zM134 81.625L81.625 134V81.6375H134z" />
    <glyph glyph-name="bug"
      unicode="&#xF106;"
      horiz-adv-x="250" d="M125 206.25C117.918125 206.25 111.060875 203.298875 105.955625 197.938375C100.8405 192.5675 97.916625 185.22075 97.916625 177.5V165.833375C97.916625 162.3815 95.1185 159.583375 91.666625 159.583375C88.214875 159.583375 85.416625 162.3815 85.416625 165.833375V177.5C85.416625 188.3445 89.516625 198.802375 96.903875 206.559125C104.301125 214.326125 114.40075 218.75 125 218.75C135.59875 218.75 145.69875 214.326125 153.09625 206.559125C160.48375 198.802375 164.58375 188.3445 164.58375 177.5V165.833375C164.58375 162.3815 161.785 159.583375 158.33375 159.583375C154.88125 159.583375 152.08375 162.3815 152.08375 165.833375V177.5C152.08375 185.22075 149.16 192.5675 144.045 197.938375C138.93875 203.298875 132.08125 206.25 125 206.25zM75.221375 169.0925C68.054 157.778375 63.912875 144.68225 63.202875 131.161125C63.197125 131.051875 63.19425 130.942625 63.19425 130.833375V95.83375C63.19425 78.8 69.6355 62.4075 81.19025 50.275C92.754875 38.1325 108.506875 31.25 124.999875 31.25C141.4925 31.25 157.245 38.1325 168.81 50.275C180.36375 62.4075 186.805 78.8 186.805 95.83375V130.833375C186.805 130.942625 186.8025 131.051875 186.79625 131.161125C186.085 144.719375 181.9225 157.85025 174.71875 169.185625C173.5725 170.99025 171.5825 172.083375 169.44375 172.083375H80.660875C80.452875 172.086625 80.245125 172.079625 80.038625 172.06225C79.140375 171.98875 78.296 171.725375 77.545625 171.31225C76.794375 170.9005 76.119125 170.329125 75.575375 169.6105C75.449 169.444125 75.330875 169.27125 75.221375 169.0925zM84.094 159.583375C79.14975 150.819 76.256375 140.90475 75.69425 130.66575V95.83375C75.69425 81.92375 80.959375 68.6425 90.242 58.89625C99.51475 49.16 112.02425 43.75 124.999875 43.75C137.975 43.75 150.485 49.16 159.7575 58.89625C169.04 68.6425 174.305 81.92375 174.305 95.83375V130.665625C173.74375 140.904625 170.85 150.819 165.90625 159.583375H84.094zM18.75 119.16625C18.75 122.61875 21.54825 125.416625 25 125.416625H69.4445C72.89625 125.416625 75.6945 122.61875 75.6945 119.16625C75.6945 115.715 72.89625 112.91625 69.4445 112.91625H25C21.54825 112.91625 18.75 115.715 18.75 119.16625zM174.30625 119.16625C174.30625 122.61875 177.10375 125.416625 180.55625 125.416625H225C228.4525 125.416625 231.25 122.61875 231.25 119.16625C231.25 115.715 228.4525 112.91625 225 112.91625H180.55625C177.10375 112.91625 174.30625 115.715 174.30625 119.16625zM125 113.75C128.45125 113.75 131.25 110.95125 131.25 107.5V37.5C131.25 34.04875 128.45125 31.25 124.999875 31.25C121.548 31.25 118.75 34.04875 118.75 37.5V107.5C118.75 110.95125 121.54825 113.75 125 113.75zM78.62925 75.82C80.462625 72.895 79.577875 69.0375 76.65325 67.205L39.431 43.87125C36.506375 42.0375 32.64925 42.9225 30.815875 45.8475C28.9825 48.77125 29.86725 52.62875 32.791875 54.4625L70.014125 77.795C72.93875 79.62875 76.795875 78.74375 78.62925 75.82zM171.37125 75.82C173.20375 78.74375 177.06125 79.62875 179.98625 77.795L217.2075 54.4625C220.1325 52.62875 221.0175 48.77125 219.18375 45.8475C217.35125 42.9225 213.49375 42.0375 210.56875 43.87125L173.34625 67.205C170.4225 69.0375 169.5375 72.895 171.37125 75.82zM30.924 192.652625C32.84925 195.517625 36.7325 196.279375 39.5975 194.354125L81.264125 166.354125C84.129125 164.428875 84.890875 160.545625 82.965625 157.680625C81.040375 154.815625 77.157125 154.053875 74.292125 155.979125L32.6255 183.979125C29.7605 185.904375 28.998625 189.787625 30.924 192.652625zM219.075 192.652625C221.00125 189.787625 220.23875 185.904375 217.37375 183.979125L175.7075 155.979125C172.8425 154.053875 168.95875 154.815625 167.03375 157.680625C165.10875 160.545625 165.87 164.428875 168.735 166.354125L210.4025 194.354125C213.2675 196.279375 217.15 195.517625 219.075 192.652625z" />
    <glyph glyph-name="call"
      unicode="&#xF107;"
      horiz-adv-x="250" d="M37.859125 218.75C34.209 218.75 31.25 215.791 31.25 212.140875V37.85875C31.25 34.20875 34.209 31.25 37.859125 31.25H212.14125C215.79125 31.25 218.75 34.20875 218.75 37.85875V212.140875C218.75 215.791 215.79125 218.75 212.14125 218.75H37.859125zM18.75 212.140875C18.75 222.6945 27.3055 231.25 37.859125 231.25H212.14125C222.695 231.25 231.25 222.6945 231.25 212.140875V37.85875C231.25 27.305 222.695 18.75 212.14125 18.75H37.859125C27.3055 18.75 18.75 27.305 18.75 37.85875V212.140875zM152.08375 126.736375C152.08375 123.285 149.285 120.48625 145.83375 120.48625H104.167C100.71525 120.48625 97.917 123.285 97.917 126.736375C97.917 130.188125 100.71525 132.986375 104.167 132.986375H145.83375C149.285 132.986375 152.08375 130.188125 152.08375 126.736375zM150.2525 131.1555C152.69375 128.71475 152.69375 124.7575 150.2525 122.31625L136.36375 108.4275C133.92375 105.9875 129.96625 105.9875 127.525 108.4275C125.085 110.86875 125.085 114.82625 127.525 117.26625L141.41375 131.1555C143.855 133.59625 147.8125 133.59625 150.2525 131.1555zM150.2525 122.31625C147.8125 119.87625 143.855 119.87625 141.41375 122.31625L127.525 136.205625C125.085 138.646375 125.085 142.603625 127.525 145.044375C129.96625 147.48525 133.92375 147.48525 136.36375 145.044375L150.2525 131.1555C152.69375 128.71475 152.69375 124.7575 150.2525 122.31625zM62.500375 126.736125C62.500375 122.90125 65.6095 119.79125 69.44475 119.79125C73.280125 119.79125 76.38925 122.90125 76.38925 126.736125C76.38925 130.571375 73.280125 133.6805 69.44475 133.6805C65.6095 133.6805 62.500375 130.571375 62.500375 126.736125zM70.13925 126.736125C70.13925 127.119625 69.82825 127.4305 69.44475 127.4305C69.06125 127.4305 68.750375 127.119625 68.750375 126.736125C68.750375 126.352625 69.06125 126.041625 69.44475 126.041625C69.82825 126.041625 70.13925 126.352625 70.13925 126.736125zM69.44475 139.9305C76.731875 139.9305 82.63925 134.02325 82.63925 126.736125C82.63925 119.44875 76.731875 113.54125 69.44475 113.54125C62.157625 113.54125 56.250375 119.44875 56.250375 126.736125C56.250375 134.02325 62.157625 139.9305 69.44475 139.9305zM173.61125 126.736125C173.61125 122.90125 176.72 119.79125 180.55625 119.79125C184.39125 119.79125 187.5 122.90125 187.5 126.736125C187.5 130.571375 184.39125 133.6805 180.55625 133.6805C176.72 133.6805 173.61125 130.571375 173.61125 126.736125zM181.25 126.736125C181.25 127.119625 180.94 127.4305 180.55625 127.4305C180.1725 127.4305 179.86125 127.119625 179.86125 126.736125C179.86125 126.352625 180.1725 126.041625 180.55625 126.041625C180.94 126.041625 181.25 126.352625 181.25 126.736125zM180.55625 139.9305C187.8425 139.9305 193.75 134.02325 193.75 126.736125C193.75 119.44875 187.8425 113.54125 180.55625 113.54125C173.26875 113.54125 167.36125 119.44875 167.36125 126.736125C167.36125 134.02325 173.26875 139.9305 180.55625 139.9305z" />
    <glyph glyph-name="caution"
      unicode="&#xF108;"
      horiz-adv-x="250" d="M125.1175 151.704125C128.56875 151.704125 131.3675 148.905875 131.3675 145.454125V104.16625C131.3675 100.715 128.56875 97.91625 125.1175 97.91625C121.665375 97.91625 118.867125 100.715 118.867125 104.16625V145.454125C118.867125 148.905875 121.665375 151.704125 125.1175 151.704125zM125.1175 85.01125C128.56875 85.01125 131.3675 82.21375 131.3675 78.76125V78.65C131.3675 75.19875 128.56875 72.4 125.1175 72.4C121.665375 72.4 118.867125 75.19875 118.867125 78.65V78.76125C118.867125 82.21375 121.665375 85.01125 125.1175 85.01125zM110.541125 214.803375C114.923625 217.38725 119.918375 218.75 125.00625 218.75C130.09375 218.75 135.0875 217.38725 139.47 214.803375C143.83375 212.23075 147.4325 208.541125 149.895 204.11525L228.7850000000001 68.00125C228.9325 67.7475 229.06125 67.48375 229.17125 67.21125C230.91375 62.90375 231.57625 58.235 231.1 53.6125C230.62375 48.99 229.02375 44.555 226.4400000000001 40.6925C223.85625 36.83 220.36625 33.65875 216.275 31.455C212.18375 29.2525 207.61625 28.0825 202.96875 28.05L202.925 28.05H47.309C47.103375 28.05 46.900125 28.06 46.69975 28.08C46.393375 28.05 46.081125 28.0425 45.7645 28.05875C41.227375 28.2925 36.812125 29.60875 32.88725 31.89625C28.962375 34.18375 25.64175 37.3775 23.202625 41.21125C20.763625 45.04375 19.27675 49.40375 18.866375 53.92875C18.456125 58.45375 19.134 63.01 20.84375 67.22C20.953125 67.48875 21.081125 67.75 21.226875 68.00125L100.117125 204.115C102.57925 208.541 106.1775 212.23075 110.541125 214.803375zM46.696 40.52C46.897625 40.54 47.102125 40.55 47.309 40.55H202.90125C205.5025 40.57125 208.0575 41.2275 210.3475 42.46125C212.6425 43.6975 214.60125 45.47625 216.05125 47.64375C217.50125 49.81 218.39875 52.3 218.66625 54.89375C218.91875 57.3525 218.59875 59.835 217.73125 62.14625L138.9875 198.00525C137.60625 200.503 135.58125 202.58575 133.1225 204.0355C130.6625 205.485375 127.86 206.25 125.00625 206.25C122.15125 206.25 119.348625 205.485375 116.8895 204.0355C114.4305 202.58575 112.404625 200.503625 111.022625 198.005875L110.962375 197.896875L32.278625 62.1425C31.42725 59.885 31.097125 57.46375 31.315375 55.0575C31.545625 52.51875 32.379875 50.0725 33.748375 47.92125C35.117 45.77125 36.98025 43.97875 39.1825 42.695C41.38475 41.41125 43.86225 40.6725 46.408125 40.54125C46.504625 40.53625 46.600625 40.53 46.696 40.52z" />
    <glyph glyph-name="center"
      unicode="&#xF109;"
      horiz-adv-x="250" d="M125.00125 200.56825C83.2655 200.56825 49.432375 166.73525 49.432375 125C49.432375 83.265 83.2655 49.43125 125.00125 49.43125C166.73625 49.43125 200.56875 83.265 200.56875 125C200.56875 166.73525 166.73625 200.56825 125.00125 200.56825zM36.932375 125C36.932375 173.63875 76.361875 213.06825 125.00125 213.06825C173.64 213.06825 213.06875 173.63875 213.06875 125C213.06875 76.36125 173.64 36.93125 125.00125 36.93125C76.361875 36.93125 36.932375 76.36125 36.932375 125zM188.64 122.15875C188.64 125.610875 191.4375 128.409125 194.89 128.409125H218.7525C222.205 128.409125 225.0025 125.610875 225.0025 122.15875C225.0025 118.7075 222.205 115.90875 218.7525 115.90875H194.89C191.4375 115.90875 188.64 118.7075 188.64 122.15875zM25 122.15875C25 125.610875 27.79825 128.409125 31.25 128.409125H55.113625C58.5655 128.409125 61.363625 125.610875 61.363625 122.15875C61.363625 118.7075 58.5655 115.90875 55.113625 115.90875H31.25C27.79825 115.90875 25 118.7075 25 122.15875zM127.83875 188.636375C124.386375 188.636375 121.58825 191.4345 121.58825 194.886375V218.75C121.58825 222.20175 124.386375 225 127.83875 225C131.29 225 134.08875 222.20175 134.08875 218.75V194.886375C134.08875 191.4345 131.29 188.636375 127.83875 188.636375zM127.83875 25C124.386375 25 121.58825 27.79875 121.58825 31.25V55.11375C121.58825 58.565 124.386375 61.36375 127.83875 61.36375C131.29 61.36375 134.08875 58.565 134.08875 55.11375V31.25C134.08875 27.79875 131.29 25 127.83875 25zM125 147.91675C128.45125 147.91675 131.25 145.1185 131.25 141.66675V108.33375C131.25 104.88125 128.45125 102.08375 125 102.08375C121.54825 102.08375 118.750125 104.88125 118.750125 108.33375V141.66675C118.750125 145.1185 121.54825 147.91675 125 147.91675zM102.083375 125.000125C102.083375 128.451875 104.881625 131.250125 108.333375 131.250125H141.66625C145.11875 131.250125 147.91625 128.451875 147.91625 125.000125C147.91625 121.54875 145.11875 118.75 141.66625 118.75H108.333375C104.881625 118.75 102.083375 121.54875 102.083375 125.000125z" />
    <glyph glyph-name="color"
      unicode="&#xF10A;"
      horiz-adv-x="250" d="M120.600875 231.25C122.716625 231.24975 124.688625 230.179 125.84125 228.40475L186.9825 134.287125C187.0425 134.194375 187.1 134.099875 187.15625 134.004C193.89 122.3225 197.4325 109.07375 197.42625 95.59C197.42 82.10625 193.86625 68.86125 187.12 57.18625C180.375 45.51125 170.675 35.81625 158.9975 29.07625C147.31875 22.33625 134.0725 18.7875 120.58825 18.7875C107.104375 18.7875 93.857875 22.33625 82.179375 29.07625C70.500875 35.81625 60.80175 45.51125 54.05625 57.18625C47.310625 68.86125 43.75625 82.10625 43.75 95.59C43.743875 108.9475 47.219625 122.0725 53.8315 133.673875C53.93625 133.88375 54.0535 134.089 54.18325 134.2885L115.35975 228.406125C116.51275 230.180125 118.485 231.25025 120.600875 231.25zM64.858625 127.775875C64.85575 127.77075 64.85275 127.76575 64.849875 127.760625C59.21075 117.98 56.24475 106.88625 56.25 95.59625C56.25525 84.30625 59.231375 73.21625 64.879625 63.44C70.52775 53.66375 78.649125 45.54625 88.42775 39.9025C98.20625 34.25875 109.297875 31.2875 120.58825 31.2875C131.87875 31.2875 142.97 34.25875 152.74875 39.9025C162.5275 45.54625 170.64875 53.66375 176.29625 63.44C181.945 73.21625 184.92125 84.30625 184.92625 95.59625C184.93125 106.8325 181.99375 117.87375 176.4075 127.62L120.5985 213.5295L64.858625 127.775875zM120.600875 231.25C124.052625 231.25 126.8625 228.45175 126.8625 225V25C126.8625 21.54875 124.06375 18.75 120.612 18.75C117.16025 18.75 114.362 21.54875 114.362 25V225C114.362 228.45175 117.149 231.25 120.600875 231.25zM166.725 165.231125C169.16625 162.790375 169.16625 158.833125 166.725 156.392375L125.03125 114.69875C122.590625 112.2575 118.633375 112.2575 116.1925 114.69875C113.75175 117.13875 113.75175 121.09625 116.1925 123.5375L157.88625 165.231125C160.3275 167.672 164.285 167.672 166.725 165.231125zM190.42 126.572375C192.86 124.13125 192.86 120.17375 190.42 117.73375L125.03125 52.345C122.590625 49.905 118.633375 49.905 116.1925 52.345C113.75175 54.78625 113.75175 58.74375 116.1925 61.18375L181.58125 126.572375C184.02125 129.013125 187.97875 129.013125 190.42 126.572375z" />
    <glyph glyph-name="comment"
      unicode="&#xF10B;"
      horiz-adv-x="250" d="M62.5 218.75C54.212 218.75 46.263375 215.457625 40.402875 209.597125C34.542375 203.736625 31.25 195.788 31.25 187.5V40.08875L70.580625 79.42C71.752625 80.59125 73.342375 81.25 75 81.25H187.5C195.7875 81.25 203.73625 84.5425 209.5975 90.4025C215.4575 96.26375 218.75 104.2125 218.75 112.5V187.5C218.75 195.788 215.4575 203.736625 209.5975 209.597125C203.73625 215.457625 195.7875 218.75 187.5 218.75H62.5zM31.564125 218.435875C39.76875 226.640625 50.89675 231.25 62.5 231.25H187.5C199.10375 231.25 210.23125 226.640625 218.43625 218.435875C226.64125 210.23125 231.25 199.10325 231.25 187.5V112.5C231.25 100.89625 226.64125 89.76875 218.43625 81.56375C210.23125 73.35875 199.10375 68.75 187.5 68.75H77.588875L29.419375 20.58C27.631875 18.7925 24.94375 18.25875 22.60825 19.22625C20.27275 20.1925 18.75 22.4725 18.75 25V187.5C18.75 199.10325 23.359375 210.23125 31.564125 218.435875zM125 162.5C131.90375 162.5 137.5 156.9035 137.5 150V149.875C137.5 142.971375 131.90375 137.375 125 137.375C118.0965 137.375 112.5 142.971375 112.5 149.875V150C112.5 156.9035 118.0965 162.5 125 162.5zM75 162.5C81.9035 162.5 87.5 156.9035 87.5 150V149.875C87.5 142.971375 81.9035 137.375 75 137.375C68.0965 137.375 62.5 142.971375 62.5 149.875V150C62.5 156.9035 68.0965 162.5 75 162.5zM175 162.5C181.90375 162.5 187.5 156.9035 187.5 150V149.875C187.5 142.971375 181.90375 137.375 175 137.375C168.09625 137.375 162.5 142.971375 162.5 149.875V150C162.5 156.9035 168.09625 162.5 175 162.5z" />
    <glyph glyph-name="connector"
      unicode="&#xF10C;"
      horiz-adv-x="250" d="M50 68.75C39.644625 68.75 31.25 60.355 31.25 50C31.25 39.645 39.644625 31.25 50 31.25C60.355375 31.25 68.75 39.645 68.75 50C68.75 60.355 60.355375 68.75 50 68.75zM18.75 50C18.75 67.25875 32.741125 81.25 50 81.25C67.258875 81.25 81.25 67.25875 81.25 50C81.25 32.74125 67.258875 18.75 50 18.75C32.741125 18.75 18.75 32.74125 18.75 50zM200 218.75C189.645 218.75 181.25 210.355375 181.25 200C181.25 189.644625 189.645 181.25 200 181.25C210.355 181.25 218.75 189.644625 218.75 200C218.75 210.355375 210.355 218.75 200 218.75zM168.75 200C168.75 217.258875 182.74125 231.25 200 231.25C217.25875 231.25 231.25 217.258875 231.25 200C231.25 182.741125 217.25875 168.75 200 168.75C182.74125 168.75 168.75 182.741125 168.75 200zM185.67 185.669375C188.11 183.228625 188.11 179.271375 185.67 176.830625L73.169375 64.33C70.728625 61.89 66.771375 61.89 64.330625 64.33C61.88975 66.77125 61.88975 70.72875 64.330625 73.17L176.83 185.669375C179.27125 188.11025 183.22875 188.11025 185.67 185.669375z" />
    <glyph glyph-name="cursor-select"
      unicode="&#xF10D;"
      horiz-adv-x="300" d="M9.3875 243.7875C4.2125 243.7875 0.0125 247.9875 0.0125 253.1625C0.0125 279.0125 21.0375 300.0375 46.8875 300.0375C52.0625 300.0375 56.2625 295.8375 56.2625 290.6625S52.0625 281.2875 46.8875 281.2875C31.375 281.2875 18.7625 268.675 18.7625 253.1625C18.7625 247.9875 14.5625 243.7875 9.3875 243.7875zM46.8875 37.5375C21.0375 37.5375 0.0125 58.5625 0.0125 84.4125C0.0125 89.5875 4.2125 93.7875 9.3875 93.7875S18.7625 89.5875 18.7625 84.4125C18.7625 68.9 31.375 56.2875 46.8875 56.2875C52.0625 56.2875 56.2625 52.0875 56.2625 46.9125S52.0625 37.5375 46.8875 37.5375zM253.1375 243.7875C247.9625 243.7875 243.7625 247.9875 243.7625 253.1625C243.7625 268.675 231.15 281.2875 215.6375 281.2875C210.4625 281.2875 206.2625 285.4875 206.2625 290.6625S210.4625 300.0375 215.6375 300.0375C241.4875000000001 300.0375 262.5125 279.0125 262.5125 253.1625C262.5125 247.9875 258.3125 243.7875 253.1375 243.7875zM253.1375 131.2875C247.9625 131.2875 243.7625 135.4875 243.7625 140.6625V196.9125C243.7625 202.0875 247.9625 206.2875 253.1375 206.2875S262.5125 202.0875 262.5125 196.9125V140.6625C262.5125 135.4875 258.3125 131.2875 253.1375 131.2875zM9.3875 131.2875C4.2125 131.2875 0.0125 135.4875 0.0125 140.6625V196.9125C0.0125 202.0875 4.2125 206.2875 9.3875 206.2875S18.7625 202.0875 18.7625 196.9125V140.6625C18.7625 135.4875 14.5625 131.2875 9.3875 131.2875zM103.1375 281.2875C97.9625 281.2875 93.7625 285.4875 93.7625 290.6625S97.9625 300.0375 103.1375 300.0375H159.3875C164.5625 300.0375 168.7625 295.8375 168.7625 290.6625S164.5625 281.2875 159.3875 281.2875H103.1375zM103.1375 37.5375C97.9625 37.5375 93.7625 41.7375 93.7625 46.9125S97.9625 56.2875 103.1375 56.2875H159.3875C164.5625 56.2875 168.7625 52.0875 168.7625 46.9125S164.5625 37.5375 159.3875 37.5375H103.1375zM224.2375 0.0375C220.275 0.1375 216.9125 2.5125 215.5625 6.125L175.7875 112.1875C174.5 115.6125 175.3375 119.5125 177.9375 122.1C179.6875 123.85 182.1 124.85 184.575 124.85C185.7 124.85 186.8125 124.65 187.8625 124.25L293.925 84.475C297.5250000000001 83.125 299.9125 79.775 300.0125 75.9125C300.1 72.05 297.8625 68.5875 294.3250000000001 67.075L251.3625 48.6625L232.9500000000001 5.7125C231.4625000000001 2.2625 228.0875000000001 0.025 224.3375 0.025H224.2375zM224.925 34.5625L235.6125 59.5C236.5625 61.725 238.3125000000001 63.475 240.5375 64.425L265.4875 75.1125L200.5875 99.45L224.925 34.5625z" />
    <glyph glyph-name="cursor"
      unicode="&#xF10E;"
      horiz-adv-x="300" d="M136.65 11.6375C134.3375 11.6375 132.0625 12.0625 129.875 12.9125C125.2125 14.7125 121.525 18.225 119.4875 22.8125000000001L14.15 261.2125C12.0375 266.0375 12.05 271.525 14.1625 276.3125C16.175 280.8875 19.8625 284.4125 24.5375 286.225C26.7125 287.075 29 287.5 31.3125 287.5C33.925 287.5 36.4625 286.9625 38.875 285.9L277.2875 180.6C282.5375 178.275 286.375 173.7625 287.825 168.225C289.1 163.3875 288.4125 158.3375 285.8875 154C283.3625 149.675 279.3 146.5875 274.4625 145.3125L185 121.775C181.75 120.9125 179.1875 118.35 178.3375 115.0875L154.7875 25.6125C153.325 20.0625 149.475 15.5625 144.2375 13.2375C141.8125 12.175 139.2625 11.6375 136.65 11.6375zM136.65 30.3875L160.2 119.8625000000001C162.775 129.6375 170.4375 137.325 180.225 139.9L269.7 163.45L31.325 268.75L136.65 30.3875z" />
    <glyph glyph-name="custom-icon"
      unicode="&#xF10F;"
      horiz-adv-x="250" d="M153.125 175C153.125 180.177625 157.3225 184.375 162.5 184.375H162.6175C167.795 184.375 171.9925 180.177625 171.9925 175C171.9925 169.822375 167.795 165.625 162.6175 165.625H162.5C157.3225 165.625 153.125 169.822375 153.125 175zM62.5 218.75C45.241125 218.75 31.25 204.758875 31.25 187.5V62.5C31.25 45.24125 45.241125 31.25 62.5 31.25H187.5C204.75875 31.25 218.75 45.24125 218.75 62.5V187.5C218.75 204.758875 204.75875 218.75 187.5 218.75H62.5zM18.75 187.5C18.75 211.6625 38.3375 231.25 62.5 231.25H187.5C211.6625 231.25 231.25 211.6625 231.25 187.5V62.5C231.25 38.3375 211.6625 18.75 187.5 18.75H62.5C38.3375 18.75 18.75 38.3375 18.75 62.5V187.5zM79.375 133.036L29.419375 83.08C26.978625 80.64 23.021375 80.64 20.580625 83.08C18.13975 85.52125 18.13975 89.47875 20.580625 91.91875L70.665625 142.00425C77.28075 148.36975 85.234875 152.12325 93.75 152.12325C102.265125 152.12325 110.218375 148.368875 116.833625 142.003375L116.92025 141.92L179.42 79.41875C181.86 76.97875 181.86 73.02125 179.42 70.58C176.97875 68.14 173.02125 68.14 170.58 70.58L108.125 133.036C103.3515 137.613375 98.38675 139.62325 93.75 139.62325C89.11325 139.62325 84.1485 137.613375 79.375 133.036zM166.875 108.03625L154.42 95.58C151.97875 93.14 148.02125 93.14 145.58 95.58C143.14 98.02125 143.14 101.97875 145.58 104.41875L158.165 117.00375C164.78125 123.37 172.735 127.12325 181.25 127.12325C189.765 127.12325 197.71875 123.36875 204.33375 117.00375L204.42 116.92L229.42 91.91875C231.86 89.47875 231.86 85.52125 229.42 83.08C226.97875 80.64 223.02125 80.64 220.58 83.08L195.625 108.03625C190.85125 112.61375 185.88625 114.62375 181.25 114.62375C176.61375 114.62375 171.64875 112.61375 166.875 108.03625z" />
    <glyph glyph-name="darkmode"
      unicode="&#xF110;"
      horiz-adv-x="250" d="M125 218.75C73.22325 218.75 31.25 176.77675 31.25 125C31.25 73.22375 73.22325 31.25 125 31.25C176.77625 31.25 218.75 73.22375 218.75 125C218.75 176.77675 176.77625 218.75 125 218.75zM18.75 125C18.75 183.68025 66.31975 231.25 125 231.25C183.68 231.25 231.25 183.68025 231.25 125C231.25 66.32 183.68 18.75 125 18.75C66.31975 18.75 18.75 66.32 18.75 125zM125 231.25C128.45125 231.25 131.25 228.45175 131.25 225V25C131.25 21.54875 128.45125 18.75 125 18.75C121.54825 18.75 118.75 21.54875 118.75 25V225C118.75 228.45175 121.54825 231.25 125 231.25zM181.08625 214.419375C183.52625 211.978625 183.52625 208.021375 181.08625 205.580625L129.42 153.913875C126.97875 151.473125 123.021375 151.473125 120.580625 153.913875C118.13975 156.35475 118.13975 160.312 120.580625 162.75275L172.2475 214.419375C174.6875 216.86025 178.645 216.86025 181.08625 214.419375zM211.30875 185.752875C213.74875 183.312 213.74875 179.35475 211.30875 176.914L129.42 95.025C126.97875 92.58375 123.021375 92.58375 120.580625 95.025C118.13975 97.46625 118.13975 101.42375 120.580625 103.86375L202.47 185.752875C204.91 188.193625 208.8675 188.193625 211.30875 185.752875zM227.7525 143.308125C230.19375 140.867375 230.19375 136.910125 227.7525 134.469375L129.42 36.13625C126.97875 33.695 123.021375 33.695 120.580625 36.13625C118.13975 38.57625 118.13975 42.53375 120.580625 44.975L218.91375 143.308125C221.355 145.749 225.3125 145.749 227.7525 143.308125z" />
    <glyph glyph-name="data-models"
      unicode="&#xF111;"
      horiz-adv-x="250" d="M125 218.75C99.93425 218.75 75.184625 214.91075 56.610875 207.48125C47.3215 203.7655 40.808375 199.643375 36.71175 195.6025C32.6465 191.5925 31.250375 187.98475 31.250375 185C31.250375 182.01525 32.6465 178.4075 36.71175 174.3975C40.808375 170.356625 47.3215 166.234375 56.610875 162.518625C75.184625 155.08925 99.93425 151.25 125 151.25C150.06625 151.25 174.81625 155.08925 193.39 162.518625C202.67875 166.234375 209.1925 170.356625 213.28875 174.3975C217.35375 178.4075 218.75 182.01525 218.75 185C218.75 187.98475 217.35375 191.5925 213.28875 195.6025C209.1925 199.643375 202.67875 203.7655 193.39 207.48125C174.81625 214.91075 150.06625 218.75 125 218.75zM125 231.25C151.11875 231.25 177.55375 227.27875 198.0325 219.08725C208.26875 214.9925 216.4 210.091 222.0675 204.501625C227.765 198.88125 231.25 192.252125 231.25 185C231.25 177.747875 227.765 171.11875 222.0675 165.498375C216.4 159.909 208.26875 155.0075 198.0325 150.91275C177.55375 142.72125 151.11875 138.75 125 138.75C98.882 138.75 72.44725 142.72125 51.9685 150.91275C41.7315 155.0075 33.600125 159.909 27.933625 165.498375C22.23575 171.11875 18.750375 177.747875 18.750375 185C18.750375 192.252125 22.23575 198.88125 27.933625 204.501625C33.600125 210.091 41.7315 214.9925 51.9685 219.08725C72.44725 227.27875 98.882 231.25 125 231.25zM25 191.25C28.45175 191.25 31.250375 188.45175 31.250375 185L31.25 131.666625C31.25 126.52875 35.492125 120.095 46.772625 113.81375C57.681375 107.74 73.51425 102.83125 92.429125 100.1475C95.846625 99.66375 98.224 96.5 97.739125 93.0825C97.25425 89.665 94.09075 87.2875 90.67325 87.7725C70.80575 90.59125 53.363 95.8375 40.691875 102.8925C28.39225 109.74125 18.75 119.40875 18.75 131.666625L18.750375 185C18.750375 188.45175 21.54825 191.25 25 191.25zM25 137.916625C28.45175 137.916625 31.25 135.118375 31.25 131.666625V78.33375C31.25 72.5975 36.5905 65.30875 50.4605 58.56875C63.7685 52.1025 82.836625 47.275 105.023375 45.45125C108.4635 45.16875 111.023 42.15 110.740125 38.71C110.45725 35.27 107.439125 32.71 103.999 32.99375C80.781125 34.9025 60.09375 39.99125 44.997375 47.32625C30.46275 54.38875 18.75 64.78875 18.75 78.33375V131.666625C18.75 135.118375 21.54825 137.916625 25 137.916625zM148.0475 81.39C142.67875 86.75875 133.9725 86.75875 128.6025 81.39C123.23275 76.02 123.23275 67.31375 128.6025 61.94375C133.9725 56.57375 142.67875 56.57375 148.0475 61.94375C153.4175 67.31375 153.4175 76.02 148.0475 81.39zM119.763625 90.22875C130.015 100.48 146.635 100.48 156.88625 90.22875C167.1375 79.9775 167.1375 63.35625 156.88625 53.105C146.635 42.85375 130.015 42.85375 119.763625 53.105C109.512375 63.35625 109.512375 79.9775 119.763625 90.22875zM214.715 54.7225C209.345 60.0925 200.63875 60.0925 195.26875 54.7225C189.9 49.3525 189.9 40.6475 195.26875 35.2775C200.63875 29.9075 209.345 29.9075 214.715 35.2775C220.08375 40.6475 220.08375 49.3525 214.715 54.7225zM186.43 63.56125C196.68125 73.8125 213.3025 73.8125 223.55375 63.56125C233.805 53.31 233.805 36.69 223.55375 26.43875C213.3025 16.1875 196.68125 16.1875 186.43 26.43875C176.17875 36.69 176.17875 53.31 186.43 63.56125zM214.715 121.39C209.345 126.759125 200.63875 126.759125 195.26875 121.39C189.9 116.02 189.9 107.31375 195.26875 101.94375C200.63875 96.57375 209.345 96.57375 214.715 101.94375C220.08375 107.31375 220.08375 116.02 214.715 121.39zM186.43 130.22825C196.68125 140.4795 213.3025 140.4795 223.55375 130.22825C233.805 119.9775 233.805 103.35625 223.55375 93.105C213.3025 82.85375 196.68125 82.85375 186.43 93.105C176.17875 103.35625 176.17875 119.9775 186.43 130.22825zM193.2025 104.58C194.97875 101.62 194.01875 97.78125 191.05875 96.005L158.61375 76.53875C155.655 74.7625 151.815 75.7225 150.04 78.6825C148.26375 81.6425 149.22375 85.48125 152.18375 87.2575L184.6275 106.72375C187.5875 108.5 191.42625 107.54 193.2025 104.58zM151.11125 66.5325C152.39375 69.7375 156.0325 71.29375 159.23625 70.01L188.7475 58.18875C191.9525 56.905 193.50875 53.26625 192.225 50.0625C190.94125 46.8575 187.30375 45.30125 184.09875 46.585L154.58875 58.4075C151.38375 59.69125 149.8275 63.32875 151.11125 66.5325z" />
    <glyph glyph-name="database"
      unicode="&#xF112;"
      horiz-adv-x="250" d="M37.859125 218.75C34.209 218.75 31.25 215.791 31.25 212.140875V37.85875C31.25 34.20875 34.209 31.25 37.859125 31.25H212.14125C215.79125 31.25 218.75 34.20875 218.75 37.85875V212.140875C218.75 215.791 215.79125 218.75 212.14125 218.75H37.859125zM18.75 212.140875C18.75 222.6945 27.3055 231.25 37.859125 231.25H212.14125C222.695 231.25 231.25 222.6945 231.25 212.140875V37.85875C231.25 27.305 222.695 18.75 212.14125 18.75H37.859125C27.3055 18.75 18.75 27.305 18.75 37.85875V212.140875zM81.23625 158.192125C81.23575 158.192125 81.237 158.19925 81.2415 158.213125zM81.293375 158.333375C81.414875 158.5715 81.77725 159.107375 82.798125 159.911875C84.5455 161.289 87.46125 162.8025 91.621375 164.189125C99.876375 166.940875 111.678 168.75 125 168.75C138.3225 168.75 150.12375 166.940875 158.37875 164.189125C162.54 162.8025 165.455 161.289 167.2025 159.911875C168.22375 159.107375 168.58625 158.5715 168.7075 158.333375C168.58625 158.095125 168.22375 157.55925 167.2025 156.75475C165.455 155.377625 162.54 153.86425 158.37875 152.4775C150.12375 149.725875 138.3225 147.916625 125 147.916625C111.678 147.916625 99.876375 149.725875 91.621375 152.4775C87.46125 153.86425 84.5455 155.377625 82.798125 156.75475C81.77725 157.55925 81.414875 158.095125 81.293375 158.333375zM168.765 158.192125C168.76375 158.192125 168.76125 158.199125 168.75875 158.213125zM168.75875 158.4535C168.76125 158.467625 168.76375 158.4745 168.765 158.4745zM81.2415 158.4535C81.237 158.4675 81.23575 158.4745 81.23625 158.4745zM87.6685 176.04775C97.51 179.32825 110.708375 181.25 125 181.25C139.2925 181.25 152.49 179.32825 162.3325 176.04775C167.22 174.418375 171.62625 172.3405 174.94 169.729625C178.1825 167.17425 181.25 163.370375 181.25 158.333375C181.25 153.296375 178.1825 149.492375 174.94 146.937125C171.62625 144.32625 167.22 142.24825 162.3325 140.619C152.49 137.3385 139.2925 135.416625 125 135.416625C110.708375 135.416625 97.51 137.3385 87.6685 140.619C82.7805 142.24825 78.373875 144.32625 75.061 146.937125C71.8185 149.492375 68.750375 153.296375 68.750375 158.333375C68.750375 163.370375 71.8185 167.17425 75.061 169.729625C78.373875 172.3405 82.7805 174.418375 87.6685 176.04775zM75.000375 164.583375C78.452125 164.583375 81.250375 161.785125 81.250375 158.333375V125.10775C81.31475 124.945 81.60625 124.39125 82.72475 123.49125C84.420375 122.12625 87.318875 120.57875 91.621375 119.14375C100.18525 116.29 112.196875 114.58375 125 114.58375C137.80375 114.58375 149.815 116.29 158.37875 119.14375C162.68125 120.57875 165.58 122.12625 167.27625 123.49125C168.395 124.39125 168.68625 124.945 168.75 125.10775V158.333375C168.75 161.785125 171.54875 164.583375 175 164.583375C178.4525 164.583375 181.25 161.785125 181.25 158.333375V125C181.25 120.11875 178.3375 116.3475 175.1125 113.7525C171.83 111.11125 167.40625 108.9775 162.3325 107.285C152.1425 103.88875 138.71875 102.08375 125 102.08375C111.282125 102.08375 97.858375 103.88875 87.6685 107.285C82.59425 108.9775 78.1705 111.11125 74.888 113.7525C71.663125 116.3475 68.750375 120.11875 68.750375 125V158.333375C68.750375 161.785125 71.5485 164.583375 75.000375 164.583375zM168.76625 125.158375C168.7675 125.158375 168.765 125.151 168.76125 125.1365zM81.234125 125.158375C81.234625 125.158375 81.237 125.151125 81.23975 125.136625zM75.000375 131.25C78.452125 131.25 81.250375 128.45175 81.250375 125V91.775C81.31475 91.61125 81.60625 91.0575 82.72475 90.1575C84.420375 88.79375 87.318875 87.245 91.621375 85.81125C100.18525 82.95625 112.196875 81.25 125 81.25C137.80375 81.25 149.815 82.95625 158.37875 85.81125C162.68125 87.245 165.58 88.79375 167.27625 90.1575C168.395 91.0575 168.68625 91.61125 168.75 91.775V125C168.75 128.45175 171.54875 131.25 175 131.25C178.4525 131.25 181.25 128.45175 181.25 125V91.66625C181.25 86.785 178.3375 83.015 175.1125 80.42C171.83 77.7775 167.40625 75.64375 162.3325 73.9525C152.1425 70.55625 138.71875 68.75 125 68.75C111.282125 68.75 97.858375 70.55625 87.6685 73.9525C82.59425 75.64375 78.1705 77.7775 74.888 80.42C71.663125 83.015 68.750375 86.785 68.750375 91.66625V125C68.750375 128.45175 71.5485 131.25 75.000375 131.25zM168.76625 91.825C168.7675 91.825 168.765 91.8175 168.76125 91.8025zM81.234125 91.825C81.234625 91.825 81.237 91.8175 81.23975 91.80375z" />
    <glyph glyph-name="delete"
      unicode="&#xF113;"
      horiz-adv-x="250" d="M43.75 180.555625C43.75 184.007375 46.54825 186.805625 50 186.805625H200C203.45125 186.805625 206.25 184.007375 206.25 180.555625C206.25 177.103875 203.45125 174.305625 200 174.305625H50C46.54825 174.305625 43.75 177.103875 43.75 180.555625zM106.25 142.36125C109.70175 142.36125 112.5 139.563 112.5 136.11125V69.445C112.5 65.9925 109.70175 63.195 106.25 63.195C102.79825 63.195 100 65.9925 100 69.445V136.11125C100 139.563 102.79825 142.36125 106.25 142.36125zM143.75 142.36125C147.20125 142.36125 150 139.563 150 136.11125V69.445C150 65.9925 147.20125 63.195 143.75 63.195C140.29875 63.195 137.5 65.9925 137.5 69.445V136.11125C137.5 139.563 140.29875 142.36125 143.75 142.36125zM58.936625 186.79C62.379875 187.032 65.3675 184.437 65.609625 180.99375L74.984625 47.66C74.994875 47.515 75 47.36875 75 47.2225C75 42.675 76.53325 38.485 79.018625 35.53875C81.477 32.625 84.560625 31.25 87.5 31.25H162.5C165.43875 31.25 168.5225 32.625 170.98125 35.53875C173.46625 38.485 175 42.675 175 47.2225C175 47.36875 175.005 47.515 175.015 47.66L184.39 180.99375C184.6325 184.437 187.62 187.032 191.06375 186.79C194.50625 186.547875 197.10125 183.56025 196.86 180.117L187.49875 46.99125C187.44875 39.83 185.03375 32.81 180.535 27.4775C175.96125 22.05625 169.50625 18.75 162.5 18.75H87.5C80.49375 18.75 74.039125 22.05625 69.464875 27.4775C64.966 32.81 62.55175 39.83 62.500875 46.99125L53.140375 180.117C52.89825 183.56025 55.493375 186.547875 58.936625 186.79zM106.25 218.75C105.797125 218.75 105.098 218.545125 104.39775 217.71525C103.670625 216.853375 103.125 215.489 103.125 213.888875V180.5555C103.125 177.10375 100.32675 174.3055 96.875 174.3055C93.42325 174.3055 90.625 177.10375 90.625 180.5555V213.888875C90.625 218.1825 92.054875 222.470375 94.844 225.776125C97.660125 229.113625 101.730125 231.25 106.25 231.25H143.75C148.27 231.25 152.34 229.113625 155.15625 225.776125C157.945 222.470375 159.375 218.1825 159.375 213.888875V180.5555C159.375 177.10375 156.57625 174.3055 153.125 174.3055C149.67375 174.3055 146.875 177.10375 146.875 180.5555V213.888875C146.875 215.489 146.33 216.853375 145.6025 217.71525C144.9025 218.545125 144.2025 218.75 143.75 218.75H106.25z" />
    <glyph glyph-name="dialogs"
      unicode="&#xF114;"
      horiz-adv-x="250" d="M210.715 218.75C214.725 218.75 218.75 215.10475 218.75 209.615375V40.385C218.75 34.895 214.725 31.25 210.715 31.25H39.294875C35.285625 31.25 31.25975 34.895 31.25975 40.385V209.615375C31.25975 215.10475 35.285625 218.75 39.294875 218.75H210.715zM231.25 209.615375C231.25 221.11925 222.485 231.25 210.715 231.25H39.294875C27.525375 231.25 18.75975 221.11925 18.75975 209.615375V40.385C18.75975 28.88125 27.525375 18.75 39.294875 18.75H210.715C222.485 18.75 231.25 28.88125 231.25 40.385V209.615375zM231.24125 178.846125C231.24125 182.297875 228.4425 185.096125 224.99125 185.096125H25C21.54825 185.096125 18.75 182.297875 18.75 178.846125C18.75 175.394375 21.54825 172.596125 25 172.596125H224.99125C228.4425 172.596125 231.24125 175.394375 231.24125 178.846125zM189.7575 141.571125C189.9775 141.33475 190.18 140.93075 190.18 140.384625V94.23125C190.18 93.685 189.9775 93.28 189.7575 93.04375C189.545 92.81625 189.37625 92.78875 189.2875 92.78875H146.43125C146.3425 92.78875 146.17375 92.81625 145.96125 93.04375C145.7425 93.28 145.53875 93.685 145.53875 94.23125V140.384625C145.53875 140.93075 145.7425 141.33475 145.96125 141.571125C146.17375 141.799625 146.3425 141.826875 146.43125 141.826875H189.2875C189.37625 141.826875 189.545 141.799625 189.7575 141.571125zM202.68 140.384625C202.68 147.640125 197.11125 154.326875 189.2875 154.326875H146.43125C138.6075 154.326875 133.03875 147.640125 133.03875 140.384625V94.23125C133.03875 86.975 138.6075 80.28875 146.43125 80.28875H189.2875C197.11125 80.28875 202.68 86.975 202.68 94.23125V140.384625zM202.6725 55.76875C202.6725 59.22125 199.875 62.01875 196.4225 62.01875H139.2825C135.83125 62.01875 133.0325 59.22125 133.0325 55.76875C133.0325 52.3175 135.83125 49.51875 139.2825 49.51875H196.4225C199.875 49.51875 202.6725 52.3175 202.6725 55.76875zM104.049375 141.571125C104.268875 141.33475 104.4715 140.93075 104.4715 140.384625V63.46125C104.4715 62.915 104.268875 62.51125 104.049375 62.275C103.83725 62.04625 103.668625 62.01875 103.579 62.01875H60.72375C60.634125 62.01875 60.4655 62.04625 60.253375 62.275C60.033875 62.51125 59.83125 62.915 59.83125 63.46125V140.384625C59.83125 140.93075 60.033875 141.33475 60.253375 141.571125C60.4655 141.799625 60.634125 141.826875 60.72375 141.826875H103.579C103.668625 141.826875 103.83725 141.799625 104.049375 141.571125zM116.9715 140.384625C116.9715 147.640125 111.40375 154.326875 103.579 154.326875H60.72375C52.899 154.326875 47.33125 147.640125 47.33125 140.384625V63.46125C47.33125 56.20625 52.899 49.51875 60.72375 49.51875H103.579C111.40375 49.51875 116.9715 56.20625 116.9715 63.46125V140.384625zM116.96175 101.9225C116.96175 105.375 114.1635 108.1725 110.71175 108.1725H53.5715C50.11975 108.1725 47.3215 105.375 47.3215 101.9225C47.3215 98.47125 50.11975 95.6725 53.5715 95.6725H110.71175C114.1635 95.6725 116.96175 98.47125 116.96175 101.9225z" />
    <glyph glyph-name="e-mail-icon"
      unicode="&#xF115;"
      horiz-adv-x="250" d="M76.38925 165.625C72.170375 165.625 68.750375 162.205 68.750375 157.986125V88.54125C68.750375 84.3225 72.170375 80.9025 76.38925 80.9025H173.61125C177.83 80.9025 181.25 84.3225 181.25 88.54125V157.986125C181.25 162.205 177.83 165.625 173.61125 165.625H76.38925zM56.250375 157.986125C56.250375 169.1085 65.266875 178.125 76.38925 178.125H173.61125C184.73375 178.125 193.75 169.1085 193.75 157.986125V88.54125C193.75 77.41875 184.73375 68.4025 173.61125 68.4025H76.38925C65.266875 68.4025 56.250375 77.41875 56.250375 88.54125V157.986125zM57.3 161.453C59.21475 164.325 63.095125 165.101125 65.96725 163.186375L125 123.83125L184.03375 163.186375C186.905 165.101125 190.78625 164.325 192.70125 161.453C194.615 158.580875 193.83875 154.7005 190.9675 152.78575L128.4675 111.11875C126.3675 109.72 123.632875 109.72 121.5335 111.11875L59.0335 152.78575C56.161375 154.7005 55.38525 158.580875 57.3 161.453z" />
    <glyph glyph-name="e-mail"
      unicode="&#xF116;"
      horiz-adv-x="250" d="M37.859125 218.75C34.209 218.75 31.25 215.791 31.25 212.140875V37.85875C31.25 34.20875 34.209 31.25 37.859125 31.25H212.14125C215.79125 31.25 218.75 34.20875 218.75 37.85875V212.140875C218.75 215.791 215.79125 218.75 212.14125 218.75H37.859125zM18.75 212.140875C18.75 222.6945 27.3055 231.25 37.859125 231.25H212.14125C222.695 231.25 231.25 222.6945 231.25 212.140875V37.85875C231.25 27.305 222.695 18.75 212.14125 18.75H37.859125C27.3055 18.75 18.75 27.305 18.75 37.85875V212.140875zM76.38925 165.625C72.170375 165.625 68.750375 162.205 68.750375 157.986125V88.54125C68.750375 84.3225 72.170375 80.9025 76.38925 80.9025H173.61125C177.83 80.9025 181.25 84.3225 181.25 88.54125V157.986125C181.25 162.205 177.83 165.625 173.61125 165.625H76.38925zM56.250375 157.986125C56.250375 169.1085 65.266875 178.125 76.38925 178.125H173.61125C184.73375 178.125 193.75 169.1085 193.75 157.986125V88.54125C193.75 77.41875 184.73375 68.4025 173.61125 68.4025H76.38925C65.266875 68.4025 56.250375 77.41875 56.250375 88.54125V157.986125zM57.3 161.453C59.21475 164.325 63.095125 165.101125 65.96725 163.186375L125 123.83125L184.03375 163.186375C186.905 165.101125 190.78625 164.325 192.70125 161.453C194.615 158.580875 193.83875 154.7005 190.9675 152.78575L128.4675 111.11875C126.3675 109.72 123.632875 109.72 121.5335 111.11875L59.0335 152.78575C56.161375 154.7005 55.38525 158.580875 57.3 161.453z" />
    <glyph glyph-name="end-page"
      unicode="&#xF117;"
      horiz-adv-x="250" d="M125 218.75C73.22325 218.75 31.25 176.77675 31.25 125C31.25 73.22375 73.22325 31.25 125 31.25C176.77625 31.25 218.75 73.22375 218.75 125C218.75 176.77675 176.77625 218.75 125 218.75zM18.75 125C18.75 183.68025 66.31975 231.25 125 231.25C183.68 231.25 231.25 183.68025 231.25 125C231.25 66.32 183.68 18.75 125 18.75C66.31975 18.75 18.75 66.32 18.75 125zM84.375 165.625V84.375H165.625V165.625H84.375zM71.875 166.015625C71.875 172.7035 77.2965 178.125 83.984375 178.125H166.015C172.70375 178.125 178.125 172.7035 178.125 166.015625V83.985C178.125 77.29625 172.70375 71.875 166.015 71.875H83.984375C77.2965 71.875 71.875 77.29625 71.875 83.985V166.015625zM71.875 140.625C71.875 144.07675 74.67325 146.875 78.125 146.875H171.875C175.32625 146.875 178.125 144.07675 178.125 140.625C178.125 137.17325 175.32625 134.375 171.875 134.375H78.125C74.67325 134.375 71.875 137.17325 71.875 140.625zM109.375 178.125C112.82675 178.125 115.625 175.32675 115.625 171.875V140.625C115.625 137.17325 112.82675 134.375 109.375 134.375C105.92325 134.375 103.125 137.17325 103.125 140.625V171.875C103.125 175.32675 105.92325 178.125 109.375 178.125z" />
    <glyph glyph-name="end"
      unicode="&#xF118;"
      horiz-adv-x="250" d="M125 218.75C73.22325 218.75 31.25 176.77675 31.25 125C31.25 73.22375 73.22325 31.25 125 31.25C176.77625 31.25 218.75 73.22375 218.75 125C218.75 176.77675 176.77625 218.75 125 218.75zM18.75 125C18.75 183.68025 66.31975 231.25 125 231.25C183.68 231.25 231.25 183.68025 231.25 125C231.25 66.32 183.68 18.75 125 18.75C66.31975 18.75 18.75 66.32 18.75 125z" />
    <glyph glyph-name="error"
      unicode="&#xF119;"
      horiz-adv-x="250" d="M125 218.75C73.22325 218.75 31.25 176.77675 31.25 125C31.25 73.22375 73.22325 31.25 125 31.25C176.77625 31.25 218.75 73.22375 218.75 125C218.75 176.77675 176.77625 218.75 125 218.75zM18.75 125C18.75 183.68025 66.31975 231.25 125 231.25C183.68 231.25 231.25 183.68025 231.25 125C231.25 66.32 183.68 18.75 125 18.75C66.31975 18.75 18.75 66.32 18.75 125zM98.358875 151.641875C100.799625 154.08275 104.757 154.08275 107.19775 151.641875L125 133.839125L142.80375 151.641875C145.24375 154.08275 149.20125 154.08275 151.6425 151.641875C154.0825 149.201125 154.0825 145.243875 151.6425 142.803125L133.84 125.00025L151.6425 107.1975C154.0825 104.75625 154.0825 100.8 151.6425 98.35875C149.20125 95.9175 145.24375 95.9175 142.80375 98.35875L125 116.16125L107.19775 98.35875C104.757 95.9175 100.799625 95.9175 98.358875 98.35875C95.918125 100.8 95.918125 104.75625 98.358875 107.1975L116.16175 125.00025L98.358875 142.803125C95.918125 145.243875 95.918125 149.201125 98.358875 151.641875z" />
    <glyph glyph-name="events-group"
      unicode="&#xF11A;"
      horiz-adv-x="250" d="M125 218.75C73.22325 218.75 31.25 176.77675 31.25 125C31.25 73.22375 73.22325 31.25 125 31.25C176.77625 31.25 218.75 73.22375 218.75 125C218.75 176.77675 176.77625 218.75 125 218.75zM18.75 125C18.75 183.68025 66.31975 231.25 125 231.25C183.68 231.25 231.25 183.68025 231.25 125C231.25 66.32 183.68 18.75 125 18.75C66.31975 18.75 18.75 66.32 18.75 125z" />
    <glyph glyph-name="fit-to-screen"
      unicode="&#xF11B;"
      horiz-adv-x="250" d="M97.91375 152.08625V97.9225H152.0775V152.08625H97.91375zM85.41375 152.275875C85.41375 159.074625 90.925375 164.58625 97.724125 164.58625H152.2675C159.06625 164.58625 164.5775 159.074625 164.5775 152.275875V97.7325C164.5775 90.93375 159.06625 85.4225 152.2675 85.4225H97.724125C90.925375 85.4225 85.41375 90.93375 85.41375 97.7325V152.275875zM229.41125 229.410625C231.8525 226.969875 231.8525 223.012625 229.41125 220.571875L194.63 185.79075C192.19 183.35 188.2325 183.35 185.79125 185.79075C183.35125 188.2315 183.35125 192.18875 185.79125 194.629625L220.5725 229.410625C223.01375 231.8515 226.97125 231.8515 229.41125 229.410625zM64.2005 64.2C66.64125 61.76 66.64125 57.8025 64.2005 55.36125L29.419375 20.58C26.978625 18.14 23.021375 18.14 20.580625 20.58C18.13975 23.02125 18.13975 26.97875 20.580625 29.41875L55.361625 64.2C57.8025 66.64125 61.75975 66.64125 64.2005 64.2zM25 74.735C28.45175 74.735 31.25 71.9375 31.25 68.485V31.25875H68.476375C71.928125 31.25875 74.726375 28.46 74.726375 25.00875C74.726375 21.5575 71.928125 18.75875 68.476375 18.75875H25C21.54825 18.75875 18.75 21.5575 18.75 25.00875V68.485C18.75 71.9375 21.54825 74.735 25 74.735zM175.265 225C175.265 228.45175 178.06375 231.25 181.515 231.25H224.99125C228.44375 231.25 231.24125 228.45175 231.24125 225V181.523625C231.24125 178.071875 228.44375 175.273625 224.99125 175.273625C221.54 175.273625 218.74125 178.071875 218.74125 181.523625V218.75H181.515C178.06375 218.75 175.265 221.54825 175.265 225zM185.79125 64.2C188.2325 66.64125 192.19 66.64125 194.63 64.2L229.41125 29.41875C231.8525 26.97875 231.8525 23.02125 229.41125 20.58C226.97125 18.14 223.01375 18.14 220.5725 20.58L185.79125 55.36125C183.35125 57.8025 183.35125 61.76 185.79125 64.2zM20.580625 229.411125C23.021375 231.851875 26.978625 231.851875 29.419375 229.411125L64.2005 194.63C66.64125 192.18925 66.64125 188.231875 64.2005 185.791125C61.75975 183.350375 57.8025 183.350375 55.361625 185.791125L20.580625 220.57225C18.13975 223.013 18.13975 226.97025 20.580625 229.411125zM18.75 225C18.75 228.45175 21.54825 231.25 25 231.25H68.476375C71.928125 231.25 74.726375 228.45175 74.726375 225C74.726375 221.54825 71.928125 218.75 68.476375 218.75H31.25V181.523625C31.25 178.071875 28.45175 175.273625 25 175.273625C21.54825 175.273625 18.75 178.071875 18.75 181.523625V225zM224.99125 74.735C228.44375 74.735 231.24125 71.9375 231.24125 68.485V25.00875C231.24125 21.5575 228.44375 18.75875 224.99125 18.75875H181.515C178.06375 18.75875 175.265 21.5575 175.265 25.00875C175.265 28.46 178.06375 31.25875 181.515 31.25875H218.74125V68.485C218.74125 71.9375 221.54 74.735 224.99125 74.735z" />
    <glyph glyph-name="gateways-group-2"
      unicode="&#xF11C;"
      horiz-adv-x="250" d="M32.57267125 127.08387125C31.42170875 125.93294625 31.42170875 124.0668 32.57267125 122.916L122.91601375 32.5721625C124.06686375 31.4214125 125.9335875 31.4214125 127.0844375 32.5721625L217.426875 122.916C218.57875 124.06675 218.57875 125.93294625 217.426875 127.08387125L127.0844375 217.427315C125.9338125 218.578365 124.066965 218.578365 122.91601375 217.427315zM23.40896625 113.7524125C17.19701125 119.96385 17.19701125 130.0356325 23.40896625 136.24758875L113.75233 226.5910325C119.96427 232.80298875 130.035325 232.80298875 136.247975 226.5910325L226.590425 136.24758875C232.8031875 130.0356325 232.8031875 119.96385 226.590425 113.7524125L136.247975 23.408575C130.035325 17.1971375 119.96427 17.1971375 113.75233 23.408575z" />
    <glyph glyph-name="gateways-group"
      unicode="&#xF11D;"
      horiz-adv-x="250" d="M32.57267125 127.08387125C31.42170875 125.93294625 31.42170875 124.0668 32.57267125 122.916L122.91601375 32.5721625C124.06686375 31.4214125 125.9335875 31.4214125 127.0844375 32.5721625L217.426875 122.916C218.57875 124.06675 218.57875 125.93294625 217.426875 127.08387125L127.0844375 217.427315C125.9338125 218.578365 124.066965 218.578365 122.91601375 217.427315zM23.40896625 113.7524125C17.19701125 119.96385 17.19701125 130.0356325 23.40896625 136.24758875L113.75233 226.5910325C119.96427 232.80298875 130.035325 232.80298875 136.247975 226.5910325L226.590425 136.24758875C232.8031875 130.0356325 232.8031875 119.96385 226.590425 113.7524125L136.247975 23.408575C130.035325 17.1971375 119.96427 17.1971375 113.75233 23.408575z" />
    <glyph glyph-name="generic"
      unicode="&#xF11E;"
      horiz-adv-x="250" d="M37.859125 218.75C34.209 218.75 31.25 215.791 31.25 212.140875V37.85875C31.25 34.20875 34.209 31.25 37.859125 31.25H212.14125C215.79125 31.25 218.75 34.20875 218.75 37.85875V212.140875C218.75 215.791 215.79125 218.75 212.14125 218.75H37.859125zM18.75 212.140875C18.75 222.6945 27.3055 231.25 37.859125 231.25H212.14125C222.695 231.25 231.25 222.6945 231.25 212.140875V37.85875C231.25 27.305 222.695 18.75 212.14125 18.75H37.859125C27.3055 18.75 18.75 27.305 18.75 37.85875V212.140875zM147.09625 102.90375C159.3 115.1075 159.3 134.89425 147.09625 147.098125C134.8925 159.302 115.106 159.302 102.902125 147.098125C90.69825 134.89425 90.69825 115.1075 102.902125 102.90375C115.106 90.7 134.8925 90.7 147.09625 102.90375zM155.935 155.937C173.02 138.8515 173.02 111.15 155.935 94.065C138.85 76.98 111.14875 76.98 94.06325 94.065C76.977875 111.15 76.977875 138.8515 94.06325 155.937C111.14875 173.022375 138.85 173.022375 155.935 155.937zM173.61375 173.6135C176.055 171.17275 176.055 167.2155 173.61375 164.77475L155.93625 147.097125C153.495 144.656375 149.5375 144.657375 147.09625 147.098125C144.655 149.538875 144.65625 153.49525 147.0975 155.936L164.775 173.613625C167.21625 176.054375 171.17375 176.054375 173.61375 173.6135zM76.38675 173.6135C78.8275 176.054375 82.78475 176.054375 85.2255 173.613625L102.90325 155.936C105.344 153.49525 105.342875 149.539 102.902125 147.098125C100.461375 144.657375 96.50525 144.65625 94.0645 147.097L76.38675 164.774625C73.946 167.2155 73.946 171.17275 76.38675 173.6135zM102.902125 102.90375C105.342875 100.46375 105.344 96.505 102.90325 94.06375L85.2255 76.38625C82.784625 73.94625 78.827375 73.94625 76.386625 76.38625C73.945875 78.8275 73.945875 82.785 76.386625 85.225L94.064375 102.9025C96.50525 105.34375 100.461375 105.345 102.902125 102.90375zM147.09625 102.90375C149.5375 105.345 153.495 105.345 155.935 102.90375L173.6125 85.22625C176.05375 82.785 176.05375 78.82875 173.6125 76.3875C171.1725 73.94625 167.215 73.94625 164.77375 76.3875L147.09625 94.065C144.655 96.50625 144.655 100.46375 147.09625 102.90375z" />
    <glyph glyph-name="grid"
      unicode="&#xF11F;"
      horiz-adv-x="250" d="M37.5 200C44.4035 200 50 205.5965 50 212.5C50 219.4035 44.4035 225 37.5 225C30.5965 225 25 219.4035 25 212.5C25 205.5965 30.5965 200 37.5 200zM37.5 218.75C34.04825 218.75 31.25 215.95175 31.25 212.5C31.25 209.04825 34.04825 206.25 37.5 206.25C40.95175 206.25 43.75 209.04825 43.75 212.5C43.75 215.95175 40.95175 218.75 37.5 218.75zM18.75 212.5C18.75 222.855375 27.144625 231.25 37.5 231.25C47.855375 231.25 56.25 222.855375 56.25 212.5C56.25 202.144625 47.855375 193.75 37.5 193.75C27.144625 193.75 18.75 202.144625 18.75 212.5zM125 200C131.90375 200 137.5 205.5965 137.5 212.5C137.5 219.4035 131.90375 225 125 225C118.0965 225 112.5 219.4035 112.5 212.5C112.5 205.5965 118.0965 200 125 200zM125 218.75C121.54825 218.75 118.75 215.95175 118.75 212.5C118.75 209.04825 121.54825 206.25 125 206.25C128.45125 206.25 131.25 209.04825 131.25 212.5C131.25 215.95175 128.45125 218.75 125 218.75zM106.25 212.5C106.25 222.855375 114.644625 231.25 125 231.25C135.355 231.25 143.75 222.855375 143.75 212.5C143.75 202.144625 135.355 193.75 125 193.75C114.644625 193.75 106.25 202.144625 106.25 212.5zM212.5 200C219.40375 200 225 205.5965 225 212.5C225 219.4035 219.40375 225 212.5 225C205.59625 225 200 219.4035 200 212.5C200 205.5965 205.59625 200 212.5 200zM212.5 218.75C209.04875 218.75 206.25 215.95175 206.25 212.5C206.25 209.04825 209.04875 206.25 212.5 206.25C215.95125 206.25 218.75 209.04825 218.75 212.5C218.75 215.95175 215.95125 218.75 212.5 218.75zM193.75 212.5C193.75 222.855375 202.145 231.25 212.5 231.25C222.855 231.25 231.25 222.855375 231.25 212.5C231.25 202.144625 222.855 193.75 212.5 193.75C202.145 193.75 193.75 202.144625 193.75 212.5zM37.5 112.5C44.4035 112.5 50 118.09625 50 125C50 131.9035 44.4035 137.5 37.5 137.5C30.5965 137.5 25 131.9035 25 125C25 118.09625 30.5965 112.5 37.5 112.5zM37.5 131.25C34.04825 131.25 31.25 128.45175 31.25 125C31.25 121.54875 34.04825 118.75 37.5 118.75C40.95175 118.75 43.75 121.54875 43.75 125C43.75 128.45175 40.95175 131.25 37.5 131.25zM18.75 125C18.75 135.355375 27.144625 143.75 37.5 143.75C47.855375 143.75 56.25 135.355375 56.25 125C56.25 114.645 47.855375 106.25 37.5 106.25C27.144625 106.25 18.75 114.645 18.75 125zM125 112.5C131.90375 112.5 137.5 118.09625 137.5 125C137.5 131.9035 131.90375 137.5 125 137.5C118.0965 137.5 112.5 131.9035 112.5 125C112.5 118.09625 118.0965 112.5 125 112.5zM125 131.25C121.54825 131.25 118.75 128.45175 118.75 125C118.75 121.54875 121.54825 118.75 125 118.75C128.45125 118.75 131.25 121.54875 131.25 125C131.25 128.45175 128.45125 131.25 125 131.25zM106.25 125C106.25 135.355375 114.644625 143.75 125 143.75C135.355 143.75 143.75 135.355375 143.75 125C143.75 114.645 135.355 106.25 125 106.25C114.644625 106.25 106.25 114.645 106.25 125zM212.5 112.5C219.40375 112.5 225 118.09625 225 125C225 131.9035 219.40375 137.5 212.5 137.5C205.59625 137.5 200 131.9035 200 125C200 118.09625 205.59625 112.5 212.5 112.5zM212.5 131.25C209.04875 131.25 206.25 128.45175 206.25 125C206.25 121.54875 209.04875 118.75 212.5 118.75C215.95125 118.75 218.75 121.54875 218.75 125C218.75 128.45175 215.95125 131.25 212.5 131.25zM193.75 125C193.75 135.355375 202.145 143.75 212.5 143.75C222.855 143.75 231.25 135.355375 231.25 125C231.25 114.645 222.855 106.25 212.5 106.25C202.145 106.25 193.75 114.645 193.75 125zM37.5 25C44.4035 25 50 30.59625 50 37.5C50 44.40375 44.4035 50 37.5 50C30.5965 50 25 44.40375 25 37.5C25 30.59625 30.5965 25 37.5 25zM37.5 43.75C34.04825 43.75 31.25 40.95125 31.25 37.5C31.25 34.04875 34.04825 31.25 37.5 31.25C40.95175 31.25 43.75 34.04875 43.75 37.5C43.75 40.95125 40.95175 43.75 37.5 43.75zM18.75 37.5C18.75 47.855 27.144625 56.25 37.5 56.25C47.855375 56.25 56.25 47.855 56.25 37.5C56.25 27.145 47.855375 18.75 37.5 18.75C27.144625 18.75 18.75 27.145 18.75 37.5zM125 25C131.90375 25 137.5 30.59625 137.5 37.5C137.5 44.40375 131.90375 50 125 50C118.0965 50 112.5 44.40375 112.5 37.5C112.5 30.59625 118.0965 25 125 25zM125 43.75C121.54825 43.75 118.75 40.95125 118.75 37.5C118.75 34.04875 121.54825 31.25 125 31.25C128.45125 31.25 131.25 34.04875 131.25 37.5C131.25 40.95125 128.45125 43.75 125 43.75zM106.25 37.5C106.25 47.855 114.644625 56.25 125 56.25C135.355 56.25 143.75 47.855 143.75 37.5C143.75 27.145 135.355 18.75 125 18.75C114.644625 18.75 106.25 27.145 106.25 37.5zM212.5 25C219.40375 25 225 30.59625 225 37.5C225 44.40375 219.40375 50 212.5 50C205.59625 50 200 44.40375 200 37.5C200 30.59625 205.59625 25 212.5 25zM212.5 43.75C209.04875 43.75 206.25 40.95125 206.25 37.5C206.25 34.04875 209.04875 31.25 212.5 31.25C215.95125 31.25 218.75 34.04875 218.75 37.5C218.75 40.95125 215.95125 43.75 212.5 43.75zM193.75 37.5C193.75 47.855 202.145 56.25 212.5 56.25C222.855 56.25 231.25 47.855 231.25 37.5C231.25 27.145 222.855 18.75 212.5 18.75C202.145 18.75 193.75 27.145 193.75 37.5z" />
    <glyph glyph-name="helplines"
      unicode="&#xF120;"
      horiz-adv-x="250" d="M18.75 187.5C18.75 190.95175 21.54825 193.75 25 193.75H225C228.45125 193.75 231.25 190.95175 231.25 187.5C231.25 184.04825 228.45125 181.25 225 181.25H25C21.54825 181.25 18.75 184.04825 18.75 187.5zM18.75 62.5C18.75 65.95125 21.54825 68.75 25 68.75H225C228.45125 68.75 231.25 65.95125 231.25 62.5C231.25 59.04875 228.45125 56.25 225 56.25H25C21.54825 56.25 18.75 59.04875 18.75 62.5zM62.5 231.25C65.95175 231.25 68.75 228.45175 68.75 225V25C68.75 21.54875 65.95175 18.75 62.5 18.75C59.04825 18.75 56.25 21.54875 56.25 25V225C56.25 228.45175 59.04825 231.25 62.5 231.25zM187.5 231.25C190.95125 231.25 193.75 228.45175 193.75 225V25C193.75 21.54875 190.95125 18.75 187.5 18.75C184.04875 18.75 181.25 21.54875 181.25 25V225C181.25 228.45175 184.04875 231.25 187.5 231.25z" />
    <glyph glyph-name="information"
      unicode="&#xF121;"
      horiz-adv-x="250" d="M125 218.75C73.22325 218.75 31.25 176.77675 31.25 125C31.25 73.22375 73.22325 31.25 125 31.25C176.77625 31.25 218.75 73.22375 218.75 125C218.75 176.77675 176.77625 218.75 125 218.75zM18.75 125C18.75 183.68025 66.31975 231.25 125 231.25C183.68 231.25 231.25 183.68025 231.25 125C231.25 66.32 183.68 18.75 125 18.75C66.31975 18.75 18.75 66.32 18.75 125zM115.625 169.444125C115.625 174.621875 119.822375 178.819125 125 178.819125H125.10375C130.28125 178.819125 134.47875 174.621875 134.47875 169.444125C134.47875 164.2665 130.28125 160.069125 125.10375 160.069125H125C119.822375 160.069125 115.625 164.2665 115.625 169.444125zM107.638375 133.333375C107.638375 136.785125 110.436625 139.583375 113.888375 139.583375H124.9995C128.45125 139.583375 131.25 136.785125 131.25 133.333375V86.805H136.11C139.5625 86.805 142.36 84.0075 142.36 80.555C142.36 77.10375 139.5625 74.305 136.11 74.305H124.9995C121.547625 74.305 118.7495 77.10375 118.7495 80.555V127.083375H113.888375C110.436625 127.083375 107.638375 129.8815 107.638375 133.333375z" />
    <glyph glyph-name="join"
      unicode="&#xF122;"
      horiz-adv-x="250" d="M35.8485 127.010125C34.738375 125.9 34.738375 124.1 35.8485 122.99L122.989375 35.84875C124.0995 34.73875 125.9 34.73875 127.01 35.84875L214.15 122.99C215.26125 124.1 215.26125 125.9 214.15 127.010125L127.01 214.151C125.9 215.26125 124.0995 215.26125 122.989375 214.151L35.8485 127.010125zM27.009625 114.15125C21.017875 120.1425 21.017875 129.85725 27.009625 135.849L114.1505 222.989875C120.14225 228.981625 129.85625 228.981625 135.84875 222.989875L222.98875 135.849C228.98125 129.85725 228.98125 120.1425 222.98875 114.15125L135.84875 27.01C129.85625 21.01875 120.14225 21.01875 114.1505 27.01L27.009625 114.15125zM124.9995 164.583125C128.45125 164.583125 131.25 161.784875 131.25 158.333125V91.66625C131.25 88.215 128.45125 85.41625 124.9995 85.41625C121.54775 85.41625 118.7495 88.215 118.7495 91.66625L118.7495 158.333125C118.7495 161.784875 121.54775 164.583125 124.9995 164.583125zM85.416125 125C85.416125 128.451625 88.214375 131.24975 91.666125 131.24975L158.3325 131.24975C161.785 131.24975 164.5825 128.451625 164.5825 125C164.5825 121.5475 161.785 118.75 158.3325 118.75H91.666125C88.214375 118.75 85.416125 121.5475 85.416125 125z" />
    <glyph glyph-name="jump-out"
      unicode="&#xF123;"
      horiz-adv-x="250" d="M76.086125 204.419375C78.526875 201.978625 78.526875 198.021375 76.086125 195.580625L33.838875 153.333375L76.086125 111.08625C78.526875 108.645 78.526875 104.6875 76.086125 102.2475C73.64525 99.80625 69.688 99.80625 67.24725 102.2475L20.580625 148.913875C18.13975 151.35475 18.13975 155.312 20.580625 157.75275L67.24725 204.419375C69.688 206.86025 73.64525 206.86025 76.086125 204.419375zM18.75 153.333375C18.75 156.785125 21.54825 159.583375 25 159.583375H211.66625C222.4825 159.583375 231.25 150.815625 231.25 140V60C231.25 56.54875 228.45125 53.75 225 53.75C221.54875 53.75 218.75 56.54875 218.75 60V140C218.75 143.912 215.57875 147.083375 211.66625 147.083375H25C21.54825 147.083375 18.75 149.8815 18.75 153.333375z" />
    <glyph glyph-name="jump"
      unicode="&#xF124;"
      horiz-adv-x="250" d="M191.92 76.08625C189.47875 78.52625 185.5225 78.52625 183.08125 76.08625L140.83375 33.83875L98.586625 76.08625C96.145875 78.52625 92.188625 78.52625 89.747875 76.08625C87.307125 73.645 87.307125 69.6875 89.747875 67.2475L136.415 20.58C138.855 18.14 142.8125 18.14 145.25375 20.58L191.92 67.2475C194.36125 69.6875 194.36125 73.645 191.92 76.08625zM140.83375 18.75C144.28625 18.75 147.08375 21.54875 147.08375 25V211.666625C147.08375 222.48225 138.31625 231.25 127.5 231.25L47.500625 231.25C44.048875 231.25 41.250625 228.45175 41.250625 225C41.250625 221.54825 44.048875 218.75 47.500625 218.75L127.5 218.75C131.4125 218.75 134.58375 215.578625 134.58375 211.666625V25C134.58375 21.54875 137.3825 18.75 140.83375 18.75z" />
    <glyph glyph-name="label"
      unicode="&#xF125;"
      horiz-adv-x="250" d="M71.02475 218.75C60.47575 218.75 50.359 214.5595 42.89975 207.10025C35.4405 199.641 31.25 189.52425 31.25 178.97525V135.539375L132.83875 33.95125C134.84 32.21 137.405 31.25 140.06125 31.25C142.71875 31.25 145.28375 32.21 147.285 33.95125L216.04875 102.715C217.79 104.71625 218.75 107.28125 218.75 109.93875C218.75 112.595 217.79 115.16 216.04875 117.16125L114.460625 218.75H71.02475zM34.060875 215.939125C43.864375 225.7425 57.160625 231.25 71.02475 231.25H117.049375C118.707 231.25 120.29675 230.5915 121.468875 229.419375L225.025 125.863875C225.10625 125.78175 225.18625 125.6975 225.26375 125.611125C229.11875 121.30125 231.25 115.72125 231.25 109.93875C231.25 104.155 229.11875 98.575 225.26375 94.265C225.18625 94.17875 225.10625 94.095 225.025 94.0125L155.9875 24.975C155.905 24.89375 155.82125 24.81375 155.735 24.73625C151.425 20.88125 145.845 18.75 140.06125 18.75C134.27875 18.75 128.69875 20.88125 124.388875 24.73625C124.3025 24.81375 124.21825 24.89375 124.136125 24.975L20.580625 128.531125C19.4085 129.70325 18.75 131.293 18.75 132.950625V178.97525C18.75 192.839375 24.2575 206.135625 34.060875 215.939125zM94.03775 172.72525C84.780125 172.72525 77.275375 165.2205 77.275375 155.962875C77.275375 146.70525 84.780125 139.2005 94.03775 139.2005C103.295375 139.2005 110.800125 146.70525 110.800125 155.962875C110.800125 165.2205 103.295375 172.72525 94.03775 172.72525zM64.775375 155.962875C64.775375 172.124 77.876625 185.22525 94.03775 185.22525C110.198875 185.22525 123.300125 172.124 123.300125 155.962875C123.300125 139.80175 110.198875 126.7005 94.03775 126.7005C77.876625 126.7005 64.775375 139.80175 64.775375 155.962875z" />
    <glyph glyph-name="lane-swimlanes"
      unicode="&#xF126;"
      horiz-adv-x="250" d="M37.859125 218.75C34.209 218.75 31.25 215.791 31.25 212.140875V37.85875C31.25 34.20875 34.209 31.25 37.859125 31.25H212.14125C215.79125 31.25 218.75 34.20875 218.75 37.85875V212.140875C218.75 215.791 215.79125 218.75 212.14125 218.75H37.859125zM18.75 212.140875C18.75 222.6945 27.3055 231.25 37.859125 231.25H212.14125C222.695 231.25 231.25 222.6945 231.25 212.140875V37.85875C231.25 27.305 222.695 18.75 212.14125 18.75H37.859125C27.3055 18.75 18.75 27.305 18.75 37.85875V212.140875zM18.750375 125C18.750375 128.45175 21.5485 131.25 25.000375 131.25L225 131.25C228.4525 131.25 231.25 128.45175 231.25 125C231.25 121.54875 228.4525 118.75 225 118.75H25.000375C21.5485 118.75 18.750375 121.54875 18.750375 125z" />
    <glyph glyph-name="manual"
      unicode="&#xF127;"
      horiz-adv-x="250" d="M37.859125 218.75C34.209 218.75 31.25 215.791 31.25 212.140875V37.85875C31.25 34.20875 34.209 31.25 37.859125 31.25H212.14125C215.79125 31.25 218.75 34.20875 218.75 37.85875V212.140875C218.75 215.791 215.79125 218.75 212.14125 218.75H37.859125zM18.75 212.140875C18.75 222.6945 27.3055 231.25 37.859125 231.25H212.14125C222.695 231.25 231.25 222.6945 231.25 212.140875V37.85875C231.25 27.305 222.695 18.75 212.14125 18.75H37.859125C27.3055 18.75 18.75 27.305 18.75 37.85875V212.140875zM75.956875 177.73675C78.409875 178.64425 81.1685 177.92825 82.870625 175.9425L125 126.79125L167.13 175.9425C168.8325 177.92825 171.59125 178.64425 174.04375 177.73675C176.49625 176.829375 178.125 174.4905 178.125 171.875V78.125C178.125 74.67375 175.3275 71.875 171.875 71.875C168.42375 71.875 165.625 74.67375 165.625 78.125V154.979625L129.74625 113.12C128.55875 111.735 126.825 110.9375 125 110.9375C123.17575 110.9375 121.442375 111.735 120.255 113.12L84.375375 154.979625V78.125C84.375375 74.67375 81.577125 71.875 78.125375 71.875C74.6735 71.875 71.875375 74.67375 71.875375 78.125V171.875C71.875375 174.4905 73.503875 176.829375 75.956875 177.73675z" />
    <glyph glyph-name="market"
      unicode="&#xF128;"
      horiz-adv-x="250" d="M59.72225 63.195C50.901 63.195 43.75 56.04375 43.75 47.2225C43.75 38.40125 50.901 31.25 59.72225 31.25C68.5435 31.25 75.6945 38.40125 75.6945 47.2225C75.6945 56.04375 68.5435 63.195 59.72225 63.195zM31.25 47.2225C31.25 62.9475 43.9975 75.695 59.72225 75.695C75.447 75.695 88.1945 62.9475 88.1945 47.2225C88.1945 31.4975 75.447 18.75 59.72225 18.75C43.9975 18.75 31.25 31.4975 31.25 47.2225zM181.94375 63.195C173.1225 63.195 165.97125 56.04375 165.97125 47.2225C165.97125 38.40125 173.1225 31.25 181.94375 31.25C190.765 31.25 197.91625 38.40125 197.91625 47.2225C197.91625 56.04375 190.765 63.195 181.94375 63.195zM153.47125 47.2225C153.47125 62.9475 166.21875 75.695 181.94375 75.695C197.66875 75.695 210.41625 62.9475 210.41625 47.2225C210.41625 31.4975 197.66875 18.75 181.94375 18.75C166.21875 18.75 153.47125 31.4975 153.47125 47.2225zM31.25 225C31.25 228.45175 34.04825 231.25 37.5 231.25H59.72225C63.174 231.25 65.97225 228.45175 65.97225 225V75.695L181.94375 75.695C185.39625 75.695 188.195 72.89625 188.195 69.445C188.195 65.9925 185.39625 63.195 181.94375 63.195H59.72225C56.2705 63.195 53.47225 65.9925 53.47225 69.445V218.75H37.5C34.04825 218.75 31.25 221.54825 31.25 225zM53.487625 203.22325C53.7335 206.66625 56.724 209.258 60.167 209.012L215.7225 197.900875C217.4525 197.777375 219.0525 196.940625 220.14125 195.590875C221.23 194.241125 221.71 192.499625 221.465 190.782875L210.35375 113.005C209.91375 109.92625 207.27625 107.63875 204.16625 107.63875H59.721625C56.269875 107.63875 53.471625 110.4375 53.471625 113.88875C53.471625 117.34125 56.269875 120.13875 59.721625 120.13875H198.745L208.14125 185.910625L59.276375 196.54375C55.833375 196.78975 53.241625 199.78025 53.487625 203.22325z" />
    <glyph glyph-name="menu"
      unicode="&#xF129;"
      horiz-adv-x="300" d="M28.125 65.5875C22.95 65.5875 18.75 69.7875 18.75 74.9625S22.95 84.3375 28.125 84.3375H271.875C277.05 84.3375 281.25 80.1375 281.25 74.9625S277.05 65.5875 271.875 65.5875H28.125zM28.125 140.5875C22.95 140.5875 18.75 144.7875 18.75 149.9625S22.95 159.3375 28.125 159.3375H271.875C277.05 159.3375 281.25 155.1375 281.25 149.9625S277.05 140.5875 271.875 140.5875H28.125zM28.125 215.5875C22.95 215.5875 18.75 219.7875 18.75 224.9625S22.95 234.3375 28.125 234.3375H271.875C277.05 234.3375 281.25 230.1375 281.25 224.9625S277.05 215.5875 271.875 215.5875H28.125z" />
    <glyph glyph-name="note"
      unicode="&#xF12A;"
      horiz-adv-x="250" d="M37.859125 218.75C34.209 218.75 31.25 215.791 31.25 212.140875V37.85875C31.25 34.20875 34.209 31.25 37.859125 31.25H212.14125C215.79125 31.25 218.75 34.20875 218.75 37.85875V212.140875C218.75 215.791 215.79125 218.75 212.14125 218.75H37.859125zM18.75 212.140875C18.75 222.6945 27.3055 231.25 37.859125 231.25H212.14125C222.695 231.25 231.25 222.6945 231.25 212.140875V37.85875C231.25 27.305 222.695 18.75 212.14125 18.75H37.859125C27.3055 18.75 18.75 27.305 18.75 37.85875V212.140875zM140.625 193.75C144.0775 193.75 146.875 190.95175 146.875 187.5V159.72225C146.875 159.538 146.94875 159.361375 147.07875 159.231125C147.20875 159.100875 147.385 159.02775 147.57 159.02775H175.3475C178.79875 159.02775 181.5975 156.2295 181.5975 152.77775C181.5975 149.326 178.79875 146.52775 175.3475 146.52775H147.57C144.07 146.52775 140.71375 147.917875 138.24 150.392375C135.765 152.86675 134.375 156.222875 134.375 159.72225V187.5C134.375 190.95175 137.17375 193.75 140.625 193.75zM92.01425 181.25C89.98825 181.25 88.04525 180.445125 86.61275 179.012625C85.180125 177.58 84.375375 175.637125 84.375375 173.611125V76.38875C84.375375 74.3625 85.180125 72.42 86.61275 70.9875C88.04525 69.555 89.98825 68.75 92.01425 68.75H161.45875C163.485 68.75 165.4275 69.555 166.86 70.9875C168.2925 72.42 169.0975 74.3625 169.0975 76.38875V150.188875L138.03625 181.25H92.01425zM77.773875 187.8515C81.550625 191.62825 86.673 193.75 92.01425 193.75H140.625C142.2825 193.75 143.8725 193.0915 145.045 191.919375L179.7675 157.19725C180.93875 156.025125 181.5975 154.435375 181.5975 152.77775V76.38875C181.5975 71.0475 179.47625 65.925 175.69875 62.14875C171.9225 58.37125 166.8 56.25 161.45875 56.25H92.01425C86.673 56.25 81.550625 58.37125 77.773875 62.14875C73.997125 65.925 71.875375 71.0475 71.875375 76.38875V173.611125C71.875375 178.95225 73.997125 184.074625 77.773875 187.8515zM99.653125 145.833375C99.653125 149.285125 102.451375 152.083375 105.903125 152.083375H112.8475C116.299375 152.083375 119.0975 149.285125 119.0975 145.833375C119.0975 142.3815 116.299375 139.583375 112.8475 139.583375H105.903125C102.451375 139.583375 99.653125 142.3815 99.653125 145.833375zM99.653125 118.055C99.653125 121.5075 102.451375 124.305 105.903125 124.305H147.57C151.02125 124.305 153.82 121.5075 153.82 118.055C153.82 114.60375 151.02125 111.805 147.57 111.805H105.903125C102.451375 111.805 99.653125 114.60375 99.653125 118.055zM99.653125 90.2775C99.653125 93.73 102.451375 96.5275 105.903125 96.5275H147.57C151.02125 96.5275 153.82 93.73 153.82 90.2775C153.82 86.82625 151.02125 84.0275 147.57 84.0275H105.903125C102.451375 84.0275 99.653125 86.82625 99.653125 90.2775z" />
    <glyph glyph-name="origin-screen"
      unicode="&#xF12B;"
      horiz-adv-x="250" d="M34.134875 215.76925C34.134875 224.319 41.065875 231.25 49.61575 231.25H215.77C224.31875 231.25 231.25 224.319 231.25 215.76925V49.615C231.25 41.065 224.31875 34.135 215.77 34.135H123.461875C120.010125 34.135 117.211875 36.9325 117.211875 40.385C117.211875 43.83625 120.010125 46.635 123.461875 46.635H215.77C217.41625 46.635 218.75 47.96875 218.75 49.615V215.76925C218.75 217.4155 217.41625 218.75 215.77 218.75H49.61575C47.9695 218.75 46.634875 217.4155 46.634875 215.76925V123.46125C46.634875 120.01 43.83675 117.21125 40.384875 117.21125C36.933125 117.21125 34.134875 120.01 34.134875 123.46125V215.76925zM198.65 198.65025C201.09125 196.209375 201.09125 192.252125 198.65 189.811375L121.727 112.88875C119.286125 110.4475 115.328875 110.4475 112.888125 112.88875C110.447375 115.32875 110.447375 119.28625 112.888125 121.7275L189.81125 198.65025C192.2525 201.091 196.20875 201.091 198.65 198.65025zM117.3075 169.7115C120.759375 169.7115 123.5575 166.913375 123.5575 163.4615V123.5575H163.46125C166.91375 123.5575 169.71125 120.76 169.71125 117.3075C169.71125 113.85625 166.91375 111.0575 163.46125 111.0575H117.3075C113.85575 111.0575 111.0575 113.85625 111.0575 117.3075V163.4615C111.0575 166.913375 113.85575 169.7115 117.3075 169.7115zM18.75 86.53875C18.75 89.99 21.54825 92.78875 25 92.78875H86.5385C89.99025 92.78875 92.7885 89.99 92.7885 86.53875V25C92.7885 21.54875 89.99025 18.75 86.5385 18.75H25C21.54825 18.75 18.75 21.54875 18.75 25V86.53875zM31.25 80.28875V31.25H80.2885V80.28875H31.25z" />
    <glyph glyph-name="pen-edit"
      unicode="&#xF12C;"
      horiz-adv-x="250" d="M27.423375 174.434C32.97675 179.987375 40.508875 183.10725 48.362625 183.10725H83.406625C86.858375 183.10725 89.656625 180.309125 89.656625 176.85725C89.656625 173.4055 86.858375 170.60725 83.406625 170.60725H48.362625C43.824125 170.60725 39.471375 168.804375 36.262125 165.595125C33.052875 162.385875 31.25 158.03325 31.25 153.494625V48.3625C31.25 43.82375 33.052875 39.47125 36.262125 36.2625C39.471375 33.0525 43.824125 31.25 48.362625 31.25H153.495C158.03375 31.25 162.38625 33.0525 165.595 36.2625C168.80375 39.47125 170.6075 43.82375 170.6075 48.3625V83.40625C170.6075 86.85875 173.405 89.65625 176.8575 89.65625C180.30875 89.65625 183.1075 86.85875 183.1075 83.40625V48.3625C183.1075 40.50875 179.9875 32.97625 174.43375 27.42375C168.88 21.87 161.34875 18.75 153.495 18.75H48.362625C40.508875 18.75 32.97675 21.87 27.423375 27.42375C21.869875 32.97625 18.75 40.50875 18.75 48.3625V153.494625C18.75 161.348375 21.869875 168.8805 27.423375 174.434zM178.27875 222.161625C184.0975 227.98075 191.99 231.25 200.22 231.25C208.45 231.25 216.3425 227.98075 222.16125 222.161625C227.98 216.342375 231.25 208.44975 231.25 200.220125C231.25 191.9905 227.98 184.098 222.16125 178.27875L122.87 78.9875C121.697875 77.815 120.108125 77.15625 118.450625 77.15625H83.406625C79.95475 77.15625 77.156625 79.955 77.156625 83.40625V118.45125C77.156625 120.10875 77.815 121.69875 78.987125 122.87L178.27875 222.161625zM200.22 218.75C195.305 218.75 190.5925 216.79775 187.1175 213.32275L89.656625 115.8625V89.65625H115.86175L213.3225 187.117625C216.7975 190.592625 218.75 195.30575 218.75 200.220125C218.75 205.134625 216.7975 209.84775 213.3225 213.32275C209.8475 216.79775 205.13375 218.75 200.22 218.75zM160.75625 204.639375C163.1975 207.080125 167.155 207.080125 169.595 204.639375L204.63875 169.595375C207.08 167.154625 207.08 163.19725 204.63875 160.7565C202.19875 158.31575 198.24125 158.31575 195.8 160.7565L160.75625 195.8005C158.315 198.24125 158.315 202.198625 160.75625 204.639375z" />
    <glyph glyph-name="play"
      unicode="&#xF12D;"
      horiz-adv-x="300" d="M47.9875 12.5625C32.4875 12.5625 19.8625 25.1875 19.8625 40.6875V259.325C19.8625 263.95 21.0125 268.55 23.2 272.625C26.75 279.2375 32.6625 284.075 39.8625 286.25C42.525 287.05 45.2625 287.4625 48.0125 287.4625C52.6 287.4625 57.1875 286.3 61.275 284.1125L265.3125 174.8C270.2125000000001 172.175 274.1875 168.2 276.8125000000001 163.3C280.3625 156.675 281.1125000000001 149.075 278.9500000000001 141.875C276.7750000000001 134.6875 271.9375000000001 128.7625 265.3125 125.2125L61.275 15.9C57.2 13.725 52.6 12.5625 47.9875 12.5625C47.9875 12.5625 47.9875 12.5625 47.9875 12.5625zM48 268.7C47.0875 268.7 46.175 268.5625 45.275 268.2875C42.875 267.575 40.9125 265.9625 39.725 263.75C39 262.4 38.6125 260.8625 38.6125 259.325V40.7C38.6125 35.525 42.825 31.325 47.9875 31.325C49.525 31.325 51.0625 31.7125 52.4125 32.4375L256.4625000000001 141.75C258.675 142.925 260.2750000000001 144.9 261.0000000000001 147.3C261.725 149.7 261.475 152.2375 260.2875 154.45C259.4125 156.0875 258.0875000000001 157.4125 256.4625000000001 158.2875L52.425 267.575C51.0375 268.325 49.55 268.7 48 268.7z" />
    <glyph glyph-name="pool-swimlanes"
      unicode="&#xF12E;"
      horiz-adv-x="250" d="M37.859125 218.75C34.209 218.75 31.25 215.791 31.25 212.140875V37.85875C31.25 34.20875 34.209 31.25 37.859125 31.25H212.14125C215.79125 31.25 218.75 34.20875 218.75 37.85875V212.140875C218.75 215.791 215.79125 218.75 212.14125 218.75H37.859125zM18.75 212.140875C18.75 222.6945 27.3055 231.25 37.859125 231.25H212.14125C222.695 231.25 231.25 222.6945 231.25 212.140875V37.85875C231.25 27.305 222.695 18.75 212.14125 18.75H37.859125C27.3055 18.75 18.75 27.305 18.75 37.85875V212.140875zM78.125375 231.25C81.577125 231.25 84.375375 228.45175 84.375375 225V25C84.375375 21.54875 81.577125 18.75 78.125375 18.75C74.6735 18.75 71.875375 21.54875 71.875375 25V225C71.875375 228.45175 74.6735 231.25 78.125375 231.25z" />
    <glyph glyph-name="program"
      unicode="&#xF12F;"
      horiz-adv-x="250" d="M43.305375 212.5C40.099125 212.5 37.5 209.900875 37.5 206.694625V43.305C37.5 40.09875 40.099125 37.5 43.305375 37.5H206.695C209.90125 37.5 212.5 40.09875 212.5 43.305V206.694625C212.5 209.900875 209.90125 212.5 206.695 212.5H43.305375zM25 206.694625C25 216.804375 33.195625 225 43.305375 225H206.695C216.80375 225 225 216.804375 225 206.694625V43.305C225 33.19625 216.80375 25 206.695 25H43.305375C33.195625 25 25 33.19625 25 43.305V206.694625zM94.430375 160.921375C97.01025 158.628125 97.242625 154.67775 94.949375 152.097875L70.8625 125.000125L94.949375 97.9025C97.242625 95.3225 97.01025 91.3725 94.430375 89.07875C91.8505 86.785 87.9 87.0175 85.60675 89.5975L57.829 120.8475C55.724125 123.21625 55.724125 126.784375 57.829 129.152375L85.60675 160.402375C87.9 162.98225 91.8505 163.214625 94.430375 160.921375zM155.57 160.921375C158.15 163.214625 162.10125 162.98225 164.39375 160.402375L192.17125 129.152375C194.27625 126.784375 194.27625 123.21625 192.17125 120.8475L164.39375 89.5975C162.10125 87.0175 158.15 86.785 155.57 89.07875C152.99 91.3725 152.7575 95.3225 155.05125 97.9025L179.13875 125.000125L155.05125 152.097875C152.7575 154.67775 152.99 158.628125 155.57 160.921375zM134.5525 179.835C137.9525 179.242625 140.22875 176.005625 139.6375 172.605125L122.67825 75.25C122.085875 71.85 118.848875 69.5725 115.448375 70.165C112.04775 70.7575 109.77125 73.995 110.363625 77.395L127.3225 174.75025C127.915 178.150875 131.15125 180.427375 134.5525 179.835z" />
    <glyph glyph-name="receive"
      unicode="&#xF130;"
      horiz-adv-x="250" d="M37.859125 218.75C34.209 218.75 31.25 215.791 31.25 212.140875V37.85875C31.25 34.20875 34.209 31.25 37.859125 31.25H212.14125C215.79125 31.25 218.75 34.20875 218.75 37.85875V212.140875C218.75 215.791 215.79125 218.75 212.14125 218.75H37.859125zM18.75 212.140875C18.75 222.6945 27.3055 231.25 37.859125 231.25H212.14125C222.695 231.25 231.25 222.6945 231.25 212.140875V37.85875C231.25 27.305 222.695 18.75 212.14125 18.75H37.859125C27.3055 18.75 18.75 27.305 18.75 37.85875V212.140875zM76.38925 168.75C74.36325 168.75 72.42025 167.945125 70.98775 166.512625C69.555125 165.08 68.750375 163.137125 68.750375 161.111125V91.66625C68.750375 89.64125 69.555125 87.6975 70.98775 86.265C72.42025 84.8325 74.36325 84.0275 76.38925 84.0275H125C128.4525 84.0275 131.25 81.23 131.25 77.7775C131.25 74.32625 128.4525 71.5275 125 71.5275H76.38925C71.048 71.5275 65.925625 73.65 62.148875 77.42625C58.372125 81.2025 56.250375 86.325 56.250375 91.66625V161.111125C56.250375 166.45225 58.372125 171.574625 62.148875 175.3515C65.925625 179.12825 71.048 181.25 76.38925 181.25H173.61125C178.9525 181.25 184.075 179.12825 187.85125 175.3515C191.62875 171.574625 193.75 166.45225 193.75 161.111125V109.0275C193.75 105.57625 190.9525 102.7775 187.5 102.7775C184.04875 102.7775 181.25 105.57625 181.25 109.0275V161.111125C181.25 163.137 180.445 165.08 179.0125 166.512625C177.58 167.945125 175.6375 168.75 173.61125 168.75H76.38925zM57.3 164.578C59.21475 167.45 63.095125 168.226125 65.96725 166.311375L125 126.956L184.03375 166.311375C186.905 168.226125 190.78625 167.45 192.70125 164.578C194.615 161.705875 193.83875 157.8255 190.9675 155.91075L128.4675 114.24375C126.3675 112.845 123.632875 112.845 121.5335 114.24375L59.0335 155.91075C56.161375 157.8255 55.38525 161.705875 57.3 164.578zM193.75 77.7775C193.75 74.32625 190.9525 71.5275 187.5 71.5275H145.83375C142.3825 71.5275 139.58375 74.32625 139.58375 77.7775C139.58375 81.22875 142.3825 84.0275 145.83375 84.0275H187.5C190.9525 84.0275 193.75 81.22875 193.75 77.7775zM171.0875 52.525C168.64625 50.08375 164.68875 50.08375 162.2475 52.525L141.415 73.35875C138.97375 75.79875 138.97375 79.75625 141.415 82.1975L162.2475 103.03C164.68875 105.47125 168.64625 105.47125 171.0875 103.03C173.5275 100.59 173.5275 96.6325 171.0875 94.19125L154.6725 77.7775L171.0875 61.36375C173.5275 58.9225 173.5275 54.96625 171.0875 52.525z" />
    <glyph glyph-name="redo"
      unicode="&#xF131;"
      horiz-adv-x="300" d="M149.9125 0.025C67.25 0.025 -0.0375 67.275 -0.0875 149.9375C-0.1125 189.9375 15.4875 227.6 43.8375 255.9875C72.1875 284.3625 109.825 300 149.825 300.025C204.6875 300.025 255.15 269.55 281.25 222.4V290.65C281.25 295.825 285.45 300.025 290.625 300.025S300 295.825 300 290.65V196.9C300 191.725 295.8 187.525 290.625 187.525H196.875C191.7 187.525 187.5 191.725 187.5 196.9S191.7 206.275 196.875 206.275H268.4875C246.8125 252.0625 201.025 281.2750000000001 149.9125 281.2750000000001C114.8375 281.25 81.9 267.5625 57.1 242.7375C32.3 217.9 18.65 184.95 18.6625 149.95C18.7 77.625 77.5875 18.775 149.9125 18.775C155.1625 18.775 159.375 14.575 159.375 9.4C159.375 4.2375 155.1375 0.025 149.9125 0.025C149.9125 0.025 149.9125 0.025 149.9125 0.025z" />
    <glyph glyph-name="rest-client"
      unicode="&#xF132;"
      horiz-adv-x="250" d="M37.859125 218.75C34.209 218.75 31.25 215.791 31.25 212.140875V37.85875C31.25 34.20875 34.209 31.25 37.859125 31.25H212.14125C215.79125 31.25 218.75 34.20875 218.75 37.85875V212.140875C218.75 215.791 215.79125 218.75 212.14125 218.75H37.859125zM18.75 212.140875C18.75 222.6945 27.3055 231.25 37.859125 231.25H212.14125C222.695 231.25 231.25 222.6945 231.25 212.140875V37.85875C231.25 27.305 222.695 18.75 212.14125 18.75H37.859125C27.3055 18.75 18.75 27.305 18.75 37.85875V212.140875zM68.815 87.4325C72.476125 91.09375 78.412 91.09375 82.07325 87.4325L82.15125 87.355C85.8125 83.69375 85.8125 77.7575 82.15125 74.09625C78.490125 70.435 72.55425 70.435 68.893125 74.09625L68.815 74.175C65.15375 77.83625 65.15375 83.77125 68.815 87.4325zM102.26625 107.62625C95.151875 114.74 85.50325 118.7375 75.442125 118.73875C71.990375 118.74 69.192625 121.53875 69.193125 124.99C69.193625 128.441875 71.99225 131.23975 75.444 131.239125C88.81975 131.237125 101.647 125.92275 111.105 116.465C120.563 107.00625 125.8775 94.18 125.88 80.80375C125.88 77.3525 123.082125 74.55375 119.630375 74.5525C116.178625 74.5525 113.38 77.35 113.3795 80.80125C113.377875 90.8625 109.3805 100.51125 102.26625 107.62625zM133.5275 138.886375C125.9 146.51375 116.84475 152.563875 106.879125 156.691625C96.913625 160.819375 86.2325 162.94375 75.445875 162.9435C71.994125 162.943375 69.195875 165.7415 69.19575 169.193375C69.195625 172.645125 71.99375 175.443375 75.445625 175.4435C87.87375 175.44375 100.180375 172.996125 111.6625 168.24025C123.14475 163.48425 133.5775 156.51325 142.36625 147.72525C151.15375 138.937125 158.125 128.504125 162.88125 117.0225C167.63625 105.54 170.085 93.23375 170.08375 80.805C170.08375 77.35375 167.28625 74.555 163.83375 74.555C160.3825 74.555 157.58375 77.35375 157.58375 80.805C157.58375 91.5925 155.46 102.2725 151.3325 112.23875C147.205 122.20375 141.15375 131.259125 133.5275 138.886375z" />
    <glyph glyph-name="rule"
      unicode="&#xF133;"
      horiz-adv-x="250" d="M37.859125 218.75C34.209 218.75 31.25 215.791 31.25 212.140875V37.85875C31.25 34.20875 34.209 31.25 37.859125 31.25H212.14125C215.79125 31.25 218.75 34.20875 218.75 37.85875V212.140875C218.75 215.791 215.79125 218.75 212.14125 218.75H37.859125zM18.75 212.140875C18.75 222.6945 27.3055 231.25 37.859125 231.25H212.14125C222.695 231.25 231.25 222.6945 231.25 212.140875V37.85875C231.25 27.305 222.695 18.75 212.14125 18.75H37.859125C27.3055 18.75 18.75 27.305 18.75 37.85875V212.140875zM125 56.25C121.5485 56.25 118.750375 59.04875 118.750375 62.5V97.65625C118.750375 99.69625 119.745375 101.6075 121.416125 102.77625L157.8125 128.254125V187.5C157.8125 190.95175 160.61125 193.75 164.0625 193.75C167.515 193.75 170.3125 190.95175 170.3125 187.5V125C170.3125 122.96 169.3175 121.04875 167.6475 119.88L131.25 94.4025V62.5C131.25 59.04875 128.4525 56.25 125 56.25zM82.357125 119.8775C80.684375 121.04625 79.687875 122.95875 79.687875 125V187.5C79.687875 190.951875 82.486 193.75 85.937875 193.75C89.389625 193.75 92.187875 190.951875 92.187875 187.5V128.25675L128.58125 102.8175C131.41 100.84 132.1 96.94375 130.1225 94.115C128.145 91.285 124.24875 90.595 121.419625 92.5725L82.357125 119.8775zM58.080875 159.643125C55.640125 162.083875 55.640125 166.041125 58.080875 168.481875L81.518375 191.919375C83.959125 194.36025 87.9165 194.36025 90.35725 191.919375L113.79475 168.481875C116.2355 166.041125 116.2355 162.083875 113.79475 159.643125C111.354 157.20225 107.396625 157.20225 104.955875 159.643125L85.937875 178.661125L66.91975 159.643125C64.479 157.20225 60.521625 157.20225 58.080875 159.643125zM136.20625 159.643125C133.765 162.083875 133.765 166.041125 136.20625 168.481875L159.64375 191.919375C162.08375 194.36025 166.04125 194.36025 168.4825 191.919375L191.92 168.481875C194.36 166.041125 194.36 162.083875 191.92 159.643125C189.47875 157.20225 185.52125 157.20225 183.08125 159.643125L164.0625 178.661125L145.045 159.643125C142.60375 157.20225 138.64625 157.20225 136.20625 159.643125z" />
    <glyph glyph-name="script"
      unicode="&#xF134;"
      horiz-adv-x="250" d="M37.859125 218.75C34.209 218.75 31.25 215.791 31.25 212.140875V37.85875C31.25 34.20875 34.209 31.25 37.859125 31.25H212.14125C215.79125 31.25 218.75 34.20875 218.75 37.85875V212.140875C218.75 215.791 215.79125 218.75 212.14125 218.75H37.859125zM18.75 212.140875C18.75 222.6945 27.3055 231.25 37.859125 231.25H212.14125C222.695 231.25 231.25 222.6945 231.25 212.140875V37.85875C231.25 27.305 222.695 18.75 212.14125 18.75H37.859125C27.3055 18.75 18.75 27.305 18.75 37.85875V212.140875zM140.625 193.75C144.07625 193.75 146.875 190.95175 146.875 187.5V159.72225C146.875 159.538 146.9475 159.361375 147.07875 159.231125C147.20875 159.100875 147.385 159.02775 147.56875 159.02775H175.3475C178.79875 159.02775 181.5975 156.2295 181.5975 152.77775C181.5975 149.326 178.79875 146.52775 175.3475 146.52775H147.56875C144.07 146.52775 140.71375 147.917875 138.24 150.392375C135.765 152.86675 134.375 156.222875 134.375 159.72225V187.5C134.375 190.95175 137.1725 193.75 140.625 193.75zM92.01425 181.25C89.98825 181.25 88.04525 180.445125 86.61275 179.012625C85.180125 177.58 84.375375 175.637125 84.375375 173.611125V76.38875C84.375375 74.3625 85.180125 72.42 86.61275 70.9875C88.04525 69.555 89.98825 68.75 92.01425 68.75H161.45875C163.485 68.75 165.4275 69.555 166.86 70.9875C168.2925 72.42 169.0975 74.3625 169.0975 76.38875V150.188875L138.03625 181.25H92.01425zM77.773875 187.8515C81.550625 191.62825 86.673 193.75 92.01425 193.75H140.625C142.2825 193.75 143.8725 193.0915 145.045 191.919375L179.7675 157.19725C180.93875 156.025125 181.5975 154.435375 181.5975 152.77775L181.5975 76.38875C181.5975 71.0475 179.47625 65.925 175.69875 62.14875C171.9225 58.37125 166.8 56.25 161.45875 56.25H92.01425C86.673 56.25 81.550625 58.37125 77.773875 62.14875C73.997125 65.925 71.875375 71.0475 71.875375 76.38875V173.611125C71.875375 178.95225 73.997125 184.074625 77.773875 187.8515zM115.64325 123.64625C118.730625 122.1025 119.982 118.3475 118.438375 115.26L112.8915 104.16625L118.438375 93.0725C119.982 89.985 118.730625 86.23125 115.64325 84.6875C112.555875 83.14375 108.80175 84.395 107.258 87.4825L100.313625 101.37125C99.43375 103.13125 99.43375 105.2025 100.313625 106.96125L107.258 120.85C108.80175 123.9375 112.555875 125.189375 115.64325 123.64625zM137.83 123.64625C140.9175 125.189375 144.67125 123.9375 146.215 120.85L153.16 106.96125C154.03875 105.2025 154.03875 103.13125 153.16 101.37125L146.215 87.4825C144.67125 84.395 140.9175 83.14375 137.83 84.6875C134.7425 86.23125 133.49125 89.985 135.035 93.0725L140.58125 104.16625L135.035 115.26C133.49125 118.3475 134.7425 122.1025 137.83 123.64625z" />
    <glyph glyph-name="search"
      unicode="&#xF135;"
      horiz-adv-x="300" d="M290.5625 0.05C288.0625 0.05 285.7000000000001 1.025 283.9375 2.8L202.5 84.25C192.9875 76.1125 182.275 69.475 170.5875 64.5125C155.225 57.9875 139.0875 54.675 122.625 54.675C106.9125 54.675 91.475 57.6875 76.7125 63.65C46.325 75.9125 22.5375 99.2625 9.725 129.425C-3.0875 159.575 -3.4 192.925 8.8625 223.3S44.475 277.475 74.625 290.2875C89.9875 296.825 106.1125 300.125 122.5875 300.125C138.3 300.125 153.7375 297.1 168.5 291.15C198.8875 278.8875 222.675 255.5375 235.4875 225.375C248.3 195.2125 248.6125 161.875 236.35 131.5C231.325 119.05 224.4 107.6375 215.7375 97.525L297.2 16.05C300.85 12.4 300.85 6.45 297.2 2.7875C295.425 1.025 293.0625 0.05 290.5625 0.05zM122.5875 281.375C108.65 281.375 94.975 278.575 81.9625 273.0375C56.4125 262.175 36.625 242.025 26.2375 216.2875C15.85 190.55 16.1125 162.3125 26.9625 136.7625C37.825 111.2125 57.975 91.425 83.7125 81.0375C96.225 75.9875 109.3125 73.4374999999999 122.6125 73.4374999999999C136.55 73.4374999999999 150.225 76.2375 163.2375 81.775C175.4125 86.95 186.325 94.25 195.6625 103.475C195.7875 103.65 195.925 103.8 196.0625 103.9375C196.2625 104.1375 196.45 104.3 196.625 104.425C206.1625 114.0625 213.7375 125.5875 218.95 138.525C229.3375 164.2625 229.075 192.5 218.2125 218.05C207.3625000000001 243.6 187.2 263.3875 161.4625 273.775C148.975 278.8125 135.8875 281.375 122.5875 281.375z" />
    <glyph glyph-name="send"
      unicode="&#xF136;"
      horiz-adv-x="250" d="M37.859125 218.75C34.209 218.75 31.25 215.791 31.25 212.140875V37.85875C31.25 34.20875 34.209 31.25 37.859125 31.25H212.14125C215.79125 31.25 218.75 34.20875 218.75 37.85875V212.140875C218.75 215.791 215.79125 218.75 212.14125 218.75H37.859125zM18.75 212.140875C18.75 222.6945 27.3055 231.25 37.859125 231.25H212.14125C222.695 231.25 231.25 222.6945 231.25 212.140875V37.85875C231.25 27.305 222.695 18.75 212.14125 18.75H37.859125C27.3055 18.75 18.75 27.305 18.75 37.85875V212.140875zM76.38925 168.75C74.36325 168.75 72.42025 167.945125 70.98775 166.512625C69.555125 165.08 68.750375 163.137125 68.750375 161.111125V91.66625C68.750375 89.64125 69.555125 87.6975 70.98775 86.265C72.42025 84.8325 74.36325 84.0275 76.38925 84.0275H125C128.4525 84.0275 131.25 81.23 131.25 77.7775C131.25 74.32625 128.4525 71.5275 125 71.5275H76.38925C71.048 71.5275 65.925625 73.65 62.148875 77.42625C58.372125 81.2025 56.250375 86.325 56.250375 91.66625V161.111125C56.250375 166.45225 58.372125 171.574625 62.148875 175.3515C65.925625 179.12825 71.048 181.25 76.38925 181.25H173.61125C178.9525 181.25 184.075 179.12825 187.85125 175.3515C191.62875 171.574625 193.75 166.45225 193.75 161.111125V109.0275C193.75 105.57625 190.9525 102.7775 187.5 102.7775C184.04875 102.7775 181.25 105.57625 181.25 109.0275V161.111125C181.25 163.137 180.445 165.08 179.0125 166.512625C177.58 167.945125 175.6375 168.75 173.61125 168.75H76.38925zM57.3 164.578C59.21475 167.45 63.095125 168.226125 65.96725 166.311375L125 126.956L184.03375 166.311375C186.905 168.226125 190.78625 167.45 192.70125 164.578C194.615 161.705875 193.83875 157.8255 190.9675 155.91075L128.4675 114.24375C126.3675 112.845 123.632875 112.845 121.5335 114.24375L59.0335 155.91075C56.161375 157.8255 55.38525 161.705875 57.3 164.578zM139.58375 77.7775C139.58375 81.23 142.3825 84.0275 145.83375 84.0275H187.5C190.9525 84.0275 193.75 81.23 193.75 77.7775C193.75 74.32625 190.9525 71.5275 187.5 71.5275H145.83375C142.3825 71.5275 139.58375 74.32625 139.58375 77.7775zM162.2475 103.03C164.68875 105.47125 168.64625 105.47125 171.08625 103.03L191.92 82.1975C194.36 79.75625 194.36 75.79875 191.92 73.35875L171.08625 52.525C168.64625 50.08375 164.68875 50.08375 162.2475 52.525C159.80625 54.96625 159.80625 58.9225 162.2475 61.36375L178.66125 77.7775L162.2475 94.19125C159.80625 96.6325 159.80625 100.59 162.2475 103.03z" />
    <glyph glyph-name="service"
      unicode="&#xF137;"
      horiz-adv-x="250" d="M37.859125 218.75C34.209 218.75 31.25 215.791 31.25 212.140875V37.85875C31.25 34.20875 34.209 31.25 37.859125 31.25H212.14125C215.79125 31.25 218.75 34.20875 218.75 37.85875V212.140875C218.75 215.791 215.79125 218.75 212.14125 218.75H37.859125zM18.75 212.140875C18.75 222.6945 27.3055 231.25 37.859125 231.25H212.14125C222.695 231.25 231.25 222.6945 231.25 212.140875V37.85875C231.25 27.305 222.695 18.75 212.14125 18.75H37.859125C27.3055 18.75 18.75 27.305 18.75 37.85875V212.140875zM98.7295 180.706L115.566875 163.868625C116.739 162.6965 117.3975 161.10675 117.3975 159.44925V138.852875C117.3975 135.401125 114.59925 132.602875 111.1475 132.602875H90.551125C88.8935 132.602875 87.30375 133.261375 86.13175 134.433375L69.29425 151.270875C68.587125 147.309625 68.56525 143.23275 69.253625 139.2205C70.4755 132.098625 73.875375 125.530625 78.984875 120.42125C84.094375 115.31125 90.66225 111.91125 97.784125 110.69C104.906125 109.4675 112.231625 110.48375 118.752125 113.59875C121.142125 114.74 123.992125 114.25 125.865 112.3775L167.0575 71.185C168.6175 69.62625 170.73125 68.75 172.93625 68.75C175.14125 68.75 177.25625 69.62625 178.815 71.185C180.375 72.74375 181.25 74.85875 181.25 77.06375C181.25 79.26875 180.375 81.38375 178.815 82.9425L137.6225 124.135C135.75 126.008125 135.26125 128.858125 136.4025 131.24825C139.51625 137.76875 140.5325 145.09425 139.31 152.216125C138.08875 159.338 134.68875 165.906 129.57875 171.0155C124.469625 176.125 117.90175 179.52475 110.779875 180.74675C106.767625 181.435125 102.690625 181.41325 98.7295 180.706zM84.424875 189.118125C93.277875 193.34625 103.224 194.72575 112.893625 193.06675C122.56325 191.407625 131.48125 186.791625 138.4175 179.854375C145.355 172.917 149.97125 163.9995 151.63 154.329875C153.035 146.14425 152.26125 137.76025 149.42625 130.009125L187.65375 91.78125C191.5575 87.8775 193.75 82.58375 193.75 77.06375C193.75 71.54375 191.5575 66.25 187.65375 62.34625C183.75125 58.4425 178.45625 56.25 172.93625 56.25C167.41625 56.25 162.1225 58.4425 158.21875 62.34625L119.99125 100.57375C112.24 97.73875 103.856125 96.965 95.670375 98.37C86.00075 100.02875 77.083375 104.645 70.146 111.5825C63.208625 118.52 58.592625 127.437125 56.933625 137.106625C55.2745 146.77625 56.654125 156.722375 60.88225 165.5755C61.756625 167.406375 63.465375 168.69875 65.465125 169.041875C67.464875 169.385 69.50675 168.736 70.9415 167.301375L93.14 145.102875H104.8975V156.860375L82.699 179.058875C81.26425 180.4935 80.61525 182.535375 80.958375 184.535125C81.3015 186.534875 82.594 188.243625 84.424875 189.118125z" />
    </font>
</defs>
</svg>
