<?xml version="1.0" encoding="UTF-8"?>
<svg id="Outlines" xmlns="http://www.w3.org/2000/svg" viewBox="0 0 24 24">
  <defs>
    <style>
      .cls-1 {
        fill: #1b1b1b;
        stroke-width: 0px;
      }
    </style>
  </defs>
  <g id="align-vertical">
    <path class="cls-1" d="m12,8.25c-.41,0-.75-.34-.75-.75v-3c0-.41.34-.75.75-.75s.75.34.75.75v3c0,.41-.34.75-.75.75Z"/>
    <path class="cls-1" d="m12,14.25c-.41,0-.75-.34-.75-.75v-3c0-.41.34-.75.75-.75s.75.34.75.75v3c0,.41-.34.75-.75.75Z"/>
    <path class="cls-1" d="m12,20.25c-.41,0-.75-.34-.75-.75v-3c0-.41.34-.75.75-.75s.75.34.75.75v3c0,.41-.34.75-.75.75Z"/>
    <path class="cls-1" d="m14,11.25h-4c-.46,0-.91-.19-1.24-.51-.33-.33-.51-.77-.51-1.24v-1c0-.46.19-.91.51-1.24s.78-.51,1.24-.51h4c.47,0,.91.18,1.24.51.33.33.51.78.51,1.24v1c0,.47-.18.91-.51,1.24-.33.33-.77.51-1.24.51Zm-4-3c-.07,0-.13.03-.18.07s-.07.11-.07.18v1c0,.07.03.13.07.18s.11.07.18.07h4c.07,0,.13-.03.18-.07s.07-.11.07-.18v-1c0-.07-.03-.13-.07-.18s-.11-.07-.18-.07h-4Z"/>
    <path class="cls-1" d="m15,17.25h-6c-.55,0-1.07-.15-1.48-.42-.49-.33-.77-.81-.77-1.33v-1c0-.52.28-1,.77-1.33.41-.27.93-.42,1.48-.42h6c.55,0,1.07.15,1.48.42.49.33.77.81.77,1.33v1c0,.52-.28,1-.77,1.33-.41.27-.93.42-1.48.42Zm-6.75-1.75s.03.04.1.09c.16.1.4.17.64.17h6c.25,0,.49-.06.64-.17.09-.06.11-.1.11-.1v-.97s-.02-.03-.11-.09c-.16-.1-.4-.17-.64-.17h-6c-.25,0-.49.06-.64.17-.09.06-.11.1-.11.1v.97h0Z"/>
  </g>
</svg>