<?xml version="1.0" encoding="UTF-8"?>
<svg id="Outlines" xmlns="http://www.w3.org/2000/svg" viewBox="0 0 24 24">
  <defs>
    <style>
      .cls-1 {
        fill: #1b1b1b;
        stroke-width: 0px;
      }
    </style>
  </defs>
  <g id="align-horizontal">
    <path class="cls-1" d="m7.5,12.75h-3c-.41,0-.75-.34-.75-.75s.34-.75.75-.75h3c.41,0,.75.34.75.75s-.34.75-.75.75Z"/>
    <path class="cls-1" d="m13.5,12.75h-3c-.41,0-.75-.34-.75-.75s.34-.75.75-.75h3c.41,0,.75.34.75.75s-.34.75-.75.75Z"/>
    <path class="cls-1" d="m19.5,12.75h-3c-.41,0-.75-.34-.75-.75s.34-.75.75-.75h3c.41,0,.75.34.75.75s-.34.75-.75.75Z"/>
    <path class="cls-1" d="m9.5,15.75h-1c-.46,0-.91-.19-1.24-.51-.33-.33-.51-.77-.51-1.24v-4c0-.46.19-.91.51-1.24s.78-.51,1.24-.51h1c.47,0,.91.18,1.24.51.33.33.51.78.51,1.24v4c0,.47-.18.91-.51,1.24-.33.33-.77.51-1.24.51Zm-1-6c-.07,0-.13.03-.18.07s-.07.11-.07.18v4c0,.07.03.13.07.18s.11.07.18.07h1c.07,0,.13-.03.18-.07s.07-.11.07-.18v-4c0-.07-.03-.13-.07-.18s-.11-.07-.18-.07h-1Z"/>
    <path class="cls-1" d="m15.5,17.25h-1c-.52,0-1-.28-1.33-.77-.27-.41-.42-.93-.42-1.48v-6c0-.55.15-1.07.42-1.48.33-.49.81-.77,1.33-.77h1c.52,0,1,.28,1.33.77.27.41.42.93.42,1.48v6c0,.55-.15,1.07-.42,1.48-.33.49-.81.77-1.33.77Zm-1-9s-.04.03-.09.11c-.1.16-.17.4-.17.64v6c0,.25.06.49.17.64.06.09.1.11.1.11h.97s.04-.03.09-.11c.1-.16.17-.4.17-.64v-6c0-.25-.06-.49-.17-.64-.06-.09-.1-.11-.1-.11h-.97Z"/>
  </g>
</svg>