<svg width="20" height="20" viewBox="0 0 20 20" fill="none" xmlns="http://www.w3.org/2000/svg">
<path fill-rule="evenodd" clip-rule="evenodd" d="M5.22005 10.2C5.22005 10.4761 4.99619 10.7 4.72005 10.7H2.80005C2.52391 10.7 2.30005 10.4761 2.30005 10.2C2.30005 9.92385 2.52391 9.7 2.80005 9.7H4.72005C4.99619 9.7 5.22005 9.92385 5.22005 10.2Z" fill="#BABABA"/>
<path fill-rule="evenodd" clip-rule="evenodd" d="M11.94 10.2C11.94 10.4761 11.7162 10.7 11.44 10.7L8.56005 10.7C8.28391 10.7 8.06005 10.4761 8.06005 10.2C8.06005 9.92385 8.28391 9.7 8.56005 9.7L11.44 9.7C11.7162 9.7 11.94 9.92386 11.94 10.2Z" fill="#BABABA"/>
<path fill-rule="evenodd" clip-rule="evenodd" d="M17.7 10.2C17.7 10.4761 17.4762 10.7 17.2 10.7H15.28C15.0039 10.7 14.78 10.4761 14.78 10.2C14.78 9.92386 15.0039 9.7 15.28 9.7H17.2C17.4762 9.7 17.7 9.92386 17.7 10.2Z" fill="#BABABA"/>
<path fill-rule="evenodd" clip-rule="evenodd" d="M8.06005 4.81538C8.06005 4.76996 8.01603 4.7 7.92005 4.7L5.36005 4.7C5.26406 4.7 5.22005 4.76996 5.22005 4.81538L5.22005 15.5846C5.22005 15.63 5.26406 15.7 5.36005 15.7H7.92005C8.01603 15.7 8.06005 15.63 8.06005 15.5846V4.81538ZM7.92005 3.7C8.53099 3.7 9.06005 4.18107 9.06005 4.81538V15.5846C9.06005 16.2189 8.53099 16.7 7.92005 16.7H5.36005C4.74911 16.7 4.22005 16.2189 4.22005 15.5846L4.22005 4.81538C4.22005 4.18107 4.74911 3.7 5.36005 3.7L7.92005 3.7Z" fill="#BABABA"/>
<path fill-rule="evenodd" clip-rule="evenodd" d="M14.78 6.66144C14.78 6.61601 14.736 6.54605 14.64 6.54605H12.08C11.9841 6.54605 11.94 6.61601 11.94 6.66144L11.94 13.7384C11.94 13.7838 11.9841 13.8537 12.08 13.8537H14.64C14.736 13.8537 14.78 13.7838 14.78 13.7384V6.66144ZM14.64 5.54605C15.251 5.54605 15.78 6.02712 15.78 6.66144V13.7384C15.78 14.3727 15.251 14.8537 14.64 14.8537H12.08C11.4691 14.8537 10.94 14.3727 10.94 13.7384V6.66144C10.94 6.02712 11.4691 5.54605 12.08 5.54605L14.64 5.54605Z" fill="#BABABA"/>
</svg>
