<svg width="20" height="20" viewBox="0 0 20 20" fill="none" xmlns="http://www.w3.org/2000/svg">
  <path fill-rule="evenodd" clip-rule="evenodd" d="M3.25 5C3.25 4.72386 3.47386 4.5 3.75 4.5H16.25C16.5261 4.5 16.75 4.72386 16.75 5C16.75 5.27614 16.5261 5.5 16.25 5.5H3.75C3.47386 5.5 3.25 5.27614 3.25 5ZM3.25 10C3.25 9.72386 3.47386 9.5 3.75 9.5H16.25C16.5261 9.5 16.75 9.72386 16.75 10C16.75 10.2761 16.5261 10.5 16.25 10.5H3.75C3.47386 10.5 3.25 10.2761 3.25 10ZM3.25 15C3.25 14.7239 3.47386 14.5 3.75 14.5H16.25C16.5261 14.5 16.75 14.7239 16.75 15C16.75 15.2761 16.5261 15.5 16.25 15.5H3.75C3.47386 15.5 3.25 15.2761 3.25 15Z" fill="#BABABA" />
</svg>
