<?xml version="1.0" encoding="UTF-8"?>
<svg id="Outlines" xmlns="http://www.w3.org/2000/svg" viewBox="0 0 24 24">
  <defs>
    <style>
      .cls-1 {
        fill: #1b1b1b;
        stroke-width: 0px;
      }
    </style>
  </defs>
  <g id="task">
    <path class="cls-1" d="m20,6.75H4c-.41,0-.75-.34-.75-.75s.34-.75.75-.75h16c.41,0,.75.34.75.75s-.34.75-.75.75Z"/>
    <path class="cls-1" d="m20,12.75H4c-.41,0-.75-.34-.75-.75s.34-.75.75-.75h16c.41,0,.75.34.75.75s-.34.75-.75.75Z"/>
    <path class="cls-1" d="m20,18.75H4c-.41,0-.75-.34-.75-.75s.34-.75.75-.75h16c.41,0,.75.34.75.75s-.34.75-.75.75Z"/>
  </g>
</svg>