<?xml version="1.0" encoding="UTF-8"?>
<svg id="Outlines" xmlns="http://www.w3.org/2000/svg" viewBox="0 0 24 24">
  <defs>
    <style>
      .cls-1 {
        fill: #1b1b1b;
        stroke-width: 0px;
      }
    </style>
  </defs>
  <g id="alternative-gateways">
    <path class="cls-1" d="m12,22.08c-.38,0-.77-.15-1.06-.44L2.36,13.06c-.28-.28-.44-.66-.44-1.06s.16-.78.44-1.06L10.94,2.36c.57-.57,1.55-.57,2.12,0l8.58,8.58c.28.28.44.66.44,1.06s-.16.78-.44,1.06l-8.58,8.58c-.29.29-.68.44-1.06.44ZM3.42,12l8.58,8.58,8.58-8.58L12,3.42,3.42,12Zm-.53-.53l.53.53s0,0,0,0l-.53-.53Z"/>
    <path class="cls-1" d="m14.34,15.09c-.19,0-.38-.07-.53-.22l-4.68-4.68c-.29-.29-.29-.77,0-1.06s.77-.29,1.06,0l4.68,4.68c.29.29.29.77,0,1.06-.15.15-.34.22-.53.22Z"/>
    <path class="cls-1" d="m9.66,15.09c-.19,0-.38-.07-.53-.22-.29-.29-.29-.77,0-1.06l4.68-4.68c.29-.29.77-.29,1.06,0,.29.29.29.77,0,1.06l-4.68,4.68c-.15.15-.34.22-.53.22Z"/>
  </g>
</svg>