<svg width="21" height="20" viewBox="0 0 21 20" fill="none" xmlns="http://www.w3.org/2000/svg">
<path fill-rule="evenodd" clip-rule="evenodd" d="M8.0378 7.76083C8.23307 7.56556 8.54965 7.56556 8.74491 7.76083L12.5161 11.5321C12.7114 11.7273 12.7114 12.0439 12.5161 12.2392C12.3209 12.4344 12.0043 12.4344 11.809 12.2392L8.0378 8.46793C7.84254 8.27267 7.84254 7.95609 8.0378 7.76083Z" fill="#BABABA"/>
<path fill-rule="evenodd" clip-rule="evenodd" d="M8.0378 12.2392C7.84254 12.0439 7.84254 11.7273 8.0378 11.5321L11.809 7.76083C12.0043 7.56557 12.3209 7.56557 12.5161 7.76083C12.7114 7.95609 12.7114 8.27268 12.5161 8.46794L8.74491 12.2392C8.54965 12.4344 8.23307 12.4344 8.0378 12.2392Z" fill="#BABABA"/>
</svg>
