<?xml version="1.0" encoding="UTF-8" standalone="no"?>
<svg
   width="20"
   height="20"
   viewBox="0 0 20 20"
   fill="none"
   version="1.1"
   id="svg9536"
   sodipodi:docname="alternative.svg"
   inkscape:version="1.1.2 (0a00cf5339, 2022-02-04)"
   xmlns:inkscape="http://www.inkscape.org/namespaces/inkscape"
   xmlns:sodipodi="http://sodipodi.sourceforge.net/DTD/sodipodi-0.dtd"
   xmlns="http://www.w3.org/2000/svg"
   xmlns:svg="http://www.w3.org/2000/svg">
  <defs
     id="defs9540" />
  <sodipodi:namedview
     id="namedview9538"
     pagecolor="#ffffff"
     bordercolor="#666666"
     borderopacity="1.0"
     inkscape:pageshadow="2"
     inkscape:pageopacity="0.0"
     inkscape:pagecheckerboard="0"
     showgrid="false"
     inkscape:zoom="43.55"
     inkscape:cx="9.9885189"
     inkscape:cy="9.9885189"
     inkscape:window-width="1920"
     inkscape:window-height="1132"
     inkscape:window-x="0"
     inkscape:window-y="0"
     inkscape:window-maximized="1"
     inkscape:current-layer="svg9536" />
  <path
     fill-rule="evenodd"
     clip-rule="evenodd"
     d="m 5.3069493,5.3069336 c 0.4092448,-0.4092448 1.0727638,-0.4092448 1.4820086,0 l 7.9040461,7.9041924 c 0.409329,0.409119 0.409329,1.07268 0,1.482009 -0.409119,0.409119 -1.07268,0.409119 -1.482009,0 L 5.3069493,6.7889631 c -0.4092657,-0.4092448 -0.4092657,-1.0727638 0,-1.4820295 z"
     fill="#bababa"
     id="path9532"
     style="stroke-width:2.0959" />
  <path
     fill-rule="evenodd"
     clip-rule="evenodd"
     d="m 5.3069493,14.693135 c -0.4092657,-0.409329 -0.4092657,-1.07289 0,-1.482009 L 13.210995,5.3069546 c 0.409329,-0.4092448 1.07289,-0.4092448 1.482009,0 0.409329,0.4092447 0.409329,1.0727637 0,1.4820295 L 6.7889579,14.693135 c -0.4092448,0.409119 -1.0727638,0.409119 -1.4820086,0 z"
     fill="#bababa"
     id="path9534"
     style="stroke-width:2.0959" />
</svg>
