<svg width="20" height="20" viewBox="0 0 20 20" fill="none" xmlns="http://www.w3.org/2000/svg">
<path fill-rule="evenodd" clip-rule="evenodd" d="M1.64645 1.64645C1.84171 1.45118 2.15829 1.45118 2.35355 1.64645L10 9.29289L17.6464 1.64646C17.8417 1.4512 18.1583 1.4512 18.3535 1.64646C18.5488 1.84173 18.5488 2.15831 18.3535 2.35357L10.7071 10L18.3535 17.6464C18.5488 17.8417 18.5488 18.1583 18.3535 18.3535C18.1583 18.5488 17.8417 18.5488 17.6464 18.3535L10 10.7071L2.35355 18.3536C2.15829 18.5488 1.84171 18.5488 1.64645 18.3536C1.45118 18.1583 1.45118 17.8417 1.64645 17.6464L9.29289 10L1.64645 2.35355C1.45118 2.15829 1.45118 1.84171 1.64645 1.64645Z" fill="#BABABA"/>
</svg>
