<?xml version="1.0" encoding="UTF-8"?>
<svg id="Outlines" xmlns="http://www.w3.org/2000/svg" viewBox="0 0 24 24">
  <defs>
    <style>
      .cls-1 {
        fill: #1b1b1b;
        stroke-width: 0px;
      }
    </style>
  </defs>
  <g id="auto-align">
    <path class="cls-1" d="m16.67,18.75H7.33c-.55,0-1.09-.22-1.47-.61s-.61-.92-.61-1.47V7.33c0-.56.22-1.08.61-1.47s.92-.61,1.47-.61h9.33c.55,0,1.09.22,1.47.61s.61.92.61,1.47v9.33c0,.56-.22,1.08-.61,1.47s-.92.61-1.47.61ZM7.33,6.75c-.15,0-.3.06-.41.17s-.17.26-.17.41v9.33c0,.16.06.3.17.41s.26.17.41.17h9.33c.15,0,.3-.06.41-.17s.17-.26.17-.41V7.33c0-.16-.06-.3-.17-.41s-.26-.17-.41-.17H7.33Z"/>
    <path class="cls-1" d="m15,12.75h-6c-.41,0-.75-.34-.75-.75s.34-.75.75-.75h6c.41,0,.75.34.75.75s-.34.75-.75.75Z"/>
    <path class="cls-1" d="m12,15.75c-.41,0-.75-.34-.75-.75v-6c0-.41.34-.75.75-.75s.75.34.75.75v6c0,.41-.34.75-.75.75Z"/>
    <path class="cls-1" d="m12,5.75c-.41,0-.75-.34-.75-.75v-2c0-.41.34-.75.75-.75s.75.34.75.75v2c0,.41-.34.75-.75.75Z"/>
    <path class="cls-1" d="m5,12.75h-2c-.41,0-.75-.34-.75-.75s.34-.75.75-.75h2c.41,0,.75.34.75.75s-.34.75-.75.75Z"/>
    <path class="cls-1" d="m12,21.75c-.41,0-.75-.34-.75-.75v-2c0-.41.34-.75.75-.75s.75.34.75.75v2c0,.41-.34.75-.75.75Z"/>
    <path class="cls-1" d="m21,12.75h-2c-.41,0-.75-.34-.75-.75s.34-.75.75-.75h2c.41,0,.75.34.75.75s-.34.75-.75.75Z"/>
  </g>
</svg>