<?xml version="1.0" encoding="UTF-8"?>
<svg id="Outlines" xmlns="http://www.w3.org/2000/svg" viewBox="0 0 24 24">
  <defs>
    <style>
      .cls-1 {
        fill: #1b1b1b;
        stroke-width: 0px;
      }
    </style>
  </defs>
  <g id="bend">
    <path class="cls-1" d="m19,20.75H5c-.47,0-.91-.18-1.24-.51-.33-.33-.51-.77-.51-1.24V5c0-.46.19-.91.51-1.24.33-.33.77-.51,1.24-.51h5c.46,0,.91.19,1.24.51s.51.78.51,1.24v7c0,.07.03.13.07.18s.11.07.18.07h7c.46,0,.91.19,1.24.51s.51.78.51,1.24v5c0,.47-.18.91-.51,1.24-.32.33-.78.51-1.24.51ZM5,4.75c-.07,0-.13.03-.18.07s-.07.11-.07.18v14c0,.07.03.13.07.18s.11.07.18.07h14c.07,0,.13-.03.18-.07s.07-.11.07-.18v-5c0-.07-.03-.13-.07-.18s-.11-.07-.18-.07h-7c-.47,0-.91-.18-1.24-.51-.33-.33-.51-.77-.51-1.24v-7c0-.07-.03-.13-.07-.18s-.11-.07-.18-.07h-5Z"/>
    <path class="cls-1" d="m8,20.75c-.41,0-.75-.34-.75-.75v-2c0-.41.34-.75.75-.75s.75.34.75.75v2c0,.41-.34.75-.75.75Z"/>
    <path class="cls-1" d="m12,20.75c-.41,0-.75-.34-.75-.75v-3c0-.41.34-.75.75-.75s.75.34.75.75v3c0,.41-.34.75-.75.75Z"/>
    <path class="cls-1" d="m16,20.75c-.41,0-.75-.34-.75-.75v-2c0-.41.34-.75.75-.75s.75.34.75.75v2c0,.41-.34.75-.75.75Z"/>
    <path class="cls-1" d="m6,16.75h-2c-.41,0-.75-.34-.75-.75s.34-.75.75-.75h2c.41,0,.75.34.75.75s-.34.75-.75.75Z"/>
    <path class="cls-1" d="m7,12.75h-3c-.41,0-.75-.34-.75-.75s.34-.75.75-.75h3c.41,0,.75.34.75.75s-.34.75-.75.75Z"/>
    <path class="cls-1" d="m6,8.75h-2c-.41,0-.75-.34-.75-.75s.34-.75.75-.75h2c.41,0,.75.34.75.75s-.34.75-.75.75Z"/>
  </g>
</svg>