<?xml version="1.0" encoding="utf-8"?>
<!-- Generator: Adobe Illustrator 22.1.0, SVG Export Plug-In . SVG Version: 6.00 Build 0)  -->
<svg version="1.1" id="Layer_1" xmlns="http://www.w3.org/2000/svg" xmlns:xlink="http://www.w3.org/1999/xlink" x="0px" y="0px"
	 viewBox="0 0 24 24" style="enable-background:new 0 0 24 24;" xml:space="preserve">
<title>ruler-triangle</title>
<g>
	<path d="M2.78,23.47c-1.241,0-2.25-1.009-2.25-2.25V2.031c0-0.401,0.156-0.777,0.439-1.061c0.283-0.283,0.66-0.44,1.06-0.44
		c0.401,0,0.777,0.156,1.061,0.439l19.94,19.94c0.283,0.283,0.439,0.66,0.439,1.061c0,0.401-0.157,0.777-0.44,1.061
		c-0.282,0.282-0.658,0.438-1.058,0.438C21.971,23.47,2.78,23.47,2.78,23.47z M2.03,21.22c0,0.414,0.336,0.75,0.75,0.75h19.19
		l-4.19-4.189l-0.97,0.97c-0.142,0.142-0.33,0.22-0.53,0.22s-0.389-0.078-0.53-0.22c-0.292-0.292-0.292-0.768,0-1.061l0.97-0.97
		L14.03,14.03L13.061,15c-0.142,0.142-0.33,0.22-0.53,0.22S12.142,15.142,12,15c-0.292-0.292-0.292-0.768,0-1.061l0.97-0.97
		L10.28,10.28l-0.97,0.97c-0.142,0.142-0.33,0.22-0.53,0.22s-0.389-0.078-0.53-0.22c-0.142-0.141-0.22-0.33-0.22-0.53
		s0.078-0.389,0.22-0.53l0.97-0.97L6.53,6.53L5.561,7.5c-0.142,0.142-0.33,0.22-0.53,0.22S4.642,7.642,4.5,7.5
		C4.358,7.359,4.28,7.17,4.28,6.97S4.358,6.581,4.5,6.44l0.97-0.97L2.03,2.03L2.03,21.22z"/>
	<path d="M5.78,18.97c-0.414,0-0.75-0.336-0.75-0.75v-6.75c0-0.305,0.182-0.577,0.463-0.693c0.091-0.038,0.188-0.057,0.287-0.057
		c0.2,0,0.389,0.078,0.531,0.22l6.75,6.75c0.215,0.215,0.279,0.536,0.163,0.817s-0.389,0.463-0.693,0.463H5.78z M10.72,17.47
		L6.53,13.28v4.189H10.72z"/>
</g>
</svg>
