<svg width="20" height="20" viewBox="0 0 20 20" fill="none" xmlns="http://www.w3.org/2000/svg">
<path fill-rule="evenodd" clip-rule="evenodd" d="M8 2.5L3 2.5C2.86739 2.5 2.74021 2.55268 2.64645 2.64645C2.55268 2.74021 2.5 2.86739 2.5 3L2.5 5.5L4 5.5C4.27614 5.5 4.5 5.72386 4.5 6C4.5 6.27614 4.27614 6.5 4 6.5L2.5 6.5V9.5H5C5.27614 9.5 5.5 9.72386 5.5 10C5.5 10.2761 5.27614 10.5 5 10.5H2.5L2.5 13.5H4C4.27614 13.5 4.5 13.7239 4.5 14C4.5 14.2761 4.27614 14.5 4 14.5H2.5L2.5 17C2.5 17.1326 2.55268 17.2598 2.64645 17.3536C2.74022 17.4473 2.86739 17.5 3 17.5H5.5V16C5.5 15.7239 5.72386 15.5 6 15.5C6.27614 15.5 6.5 15.7239 6.5 16V17.5H9.5V15C9.5 14.7239 9.72386 14.5 10 14.5C10.2761 14.5 10.5 14.7239 10.5 15V17.5H13.5V16C13.5 15.7239 13.7239 15.5 14 15.5C14.2761 15.5 14.5 15.7239 14.5 16V17.5H17C17.1326 17.5 17.2598 17.4473 17.3536 17.3536C17.4473 17.2598 17.5 17.1326 17.5 17V12C17.5 11.8674 17.4473 11.7402 17.3536 11.6464C17.2598 11.5527 17.1326 11.5 17 11.5H10C9.60217 11.5 9.22064 11.342 8.93934 11.0607C8.65804 10.7794 8.5 10.3978 8.5 10L8.5 3C8.5 2.86739 8.44732 2.74021 8.35355 2.64645C8.25979 2.55268 8.13261 2.5 8 2.5ZM17 18.5C17.3978 18.5 17.7794 18.342 18.0607 18.0607C18.342 17.7794 18.5 17.3978 18.5 17V12C18.5 11.6022 18.342 11.2206 18.0607 10.9393C17.7794 10.658 17.3978 10.5 17 10.5H10C9.86739 10.5 9.74022 10.4473 9.64645 10.3536C9.55268 10.2598 9.5 10.1326 9.5 10V3C9.5 2.60218 9.34196 2.22064 9.06066 1.93934C8.77935 1.65803 8.39782 1.5 8 1.5L3 1.5C2.60218 1.5 2.22065 1.65803 1.93934 1.93934C1.65804 2.22064 1.5 2.60218 1.5 3L1.5 17C1.5 17.3978 1.65804 17.7794 1.93934 18.0607C2.22065 18.342 2.60218 18.5 3 18.5H17Z" fill="#BABABA"/>
</svg>
