<?xml version="1.0" encoding="UTF-8"?>
<svg id="Outlines" xmlns="http://www.w3.org/2000/svg" viewBox="0 0 24 24">
  <defs>
    <style>
      .cls-1 {
        fill: #1b1b1b;
        stroke-width: 0px;
      }
    </style>
  </defs>
  <g id="bug">
    <path class="cls-1" d="m15,9.75c-.41,0-.75-.34-.75-.75v-1c0-1.24-1.01-2.25-2.25-2.25s-2.25,1.01-2.25,2.25v1c0,.41-.34.75-.75.75s-.75-.34-.75-.75v-1c0-2.07,1.68-3.75,3.75-3.75s3.75,1.68,3.75,3.75v1c0,.41-.34.75-.75.75Z"/>
    <path class="cls-1" d="m12,20.75c-3.17,0-5.75-2.58-5.75-5.75v-3c.07-1.25.46-2.41,1.13-3.42.14-.21.37-.33.62-.33h8c.25,0,.49.13.62.33.67,1,1.06,2.17,1.12,3.37v3.04c0,3.17-2.58,5.75-5.75,5.75Zm-3.58-11c-.4.7-.63,1.49-.67,2.29v2.96c0,2.34,1.91,4.25,4.25,4.25s4.25-1.91,4.25-4.25v-3c-.04-.77-.27-1.55-.67-2.25h-7.16Z"/>
    <path class="cls-1" d="m7,13.75H3c-.41,0-.75-.34-.75-.75s.34-.75.75-.75h4c.41,0,.75.34.75.75s-.34.75-.75.75Z"/>
    <path class="cls-1" d="m21,13.75h-4c-.41,0-.75-.34-.75-.75s.34-.75.75-.75h4c.41,0,.75.34.75.75s-.34.75-.75.75Z"/>
    <path class="cls-1" d="m12,20.75c-.41,0-.75-.34-.75-.75v-6c0-.41.34-.75.75-.75s.75.34.75.75v6c0,.41-.34.75-.75.75Z"/>
    <path class="cls-1" d="m4,19.75c-.26,0-.5-.13-.64-.37-.21-.36-.1-.82.26-1.03l3.35-2c.36-.21.82-.1,1.03.26.21.36.1.82-.26,1.03l-3.35,2c-.12.07-.25.11-.38.11Z"/>
    <path class="cls-1" d="m20,19.75c-.13,0-.26-.03-.38-.11l-3.35-2c-.36-.21-.47-.67-.26-1.03.21-.36.67-.47,1.03-.26l3.35,2c.36.21.47.67.26,1.03-.14.24-.39.37-.64.37Z"/>
    <path class="cls-1" d="m7.75,10.15c-.14,0-.28-.04-.4-.12l-3.75-2.4c-.35-.22-.45-.69-.23-1.04.22-.35.69-.45,1.04-.23l3.75,2.4c.35.22.45.69.23,1.04-.14.22-.39.35-.63.35Z"/>
    <path class="cls-1" d="m16.25,10.15c-.25,0-.49-.12-.63-.35-.22-.35-.12-.81.23-1.04l3.75-2.4c.35-.22.81-.12,1.04.23.22.35.12.81-.23,1.04l-3.75,2.4c-.12.08-.27.12-.4.12Z"/>
  </g>
</svg>