<svg width="20" height="20" xmlns="http://www.w3.org/2000/svg" viewBox="0 0 20 20">
  <g fill="none" class="nc-icon-wrapper">
    <path fill-rule="evenodd" clip-rule="evenodd" d="M10 3.5c-.567 0-1.115.236-1.524.665A2.373 2.373 0 0 0 7.833 5.8v.933a.5.5 0 1 1-1 0V5.8c0-.868.328-1.704.92-2.325A3.104 3.104 0 0 1 10 2.5c.848 0 1.656.354 2.248.975.59.62.919 1.457.919 2.325v.933a.5.5 0 0 1-1 0V5.8c0-.618-.234-1.205-.643-1.635A2.104 2.104 0 0 0 10 3.5z" fill="currentColor"></path>
    <path fill-rule="evenodd" clip-rule="evenodd" d="M6.018 6.473a6.29 6.29 0 0 0-.962 3.06v2.8c0 1.363.515 2.674 1.44 3.645A4.84 4.84 0 0 0 10 17.5c1.32 0 2.58-.55 3.505-1.522a5.288 5.288 0 0 0 1.44-3.645v-2.8l-.001-.026a6.29 6.29 0 0 0-.967-3.042.5.5 0 0 0-.421-.232H6.453a.5.5 0 0 0-.435.24zm.71.76a5.304 5.304 0 0 0-.672 2.314v2.786c0 1.113.42 2.176 1.163 2.955A3.84 3.84 0 0 0 10 16.5a3.84 3.84 0 0 0 2.78-1.212 4.288 4.288 0 0 0 1.164-2.955V9.547a5.303 5.303 0 0 0-.671-2.314H6.728z" fill="currentColor"></path>
    <path fill-rule="evenodd" clip-rule="evenodd" d="M1.5 10.467a.5.5 0 0 1 .5-.5h3.556a.5.5 0 1 1 0 1H2a.5.5 0 0 1-.5-.5z" fill="currentColor"></path>
    <path fill-rule="evenodd" clip-rule="evenodd" d="M13.944 10.467a.5.5 0 0 1 .5-.5H18a.5.5 0 1 1 0 1h-3.556a.5.5 0 0 1-.5-.5z" fill="currentColor"></path>
    <path fill-rule="evenodd" clip-rule="evenodd" d="M10 10.9a.5.5 0 0 1 .5.5V17a.5.5 0 0 1-1 0v-5.6a.5.5 0 0 1 .5-.5z" fill="currentColor"></path>
    <path fill-rule="evenodd" clip-rule="evenodd" d="M6.29 13.934a.5.5 0 0 1-.158.69L3.154 16.49a.5.5 0 1 1-.53-.847L5.6 13.776a.5.5 0 0 1 .69.158z" fill="currentColor"></path>
    <path fill-rule="evenodd" clip-rule="evenodd" d="M13.71 13.934a.5.5 0 0 1 .689-.158l2.978 1.867a.5.5 0 1 1-.531.847l-2.978-1.866a.5.5 0 0 1-.158-.69z" fill="currentColor"></path>
    <path fill-rule="evenodd" clip-rule="evenodd" d="M2.474 4.588a.5.5 0 0 1 .694-.136L6.5 6.692a.5.5 0 1 1-.558.83L2.61 5.282a.5.5 0 0 1-.136-.694z" fill="currentColor"></path>
    <path fill-rule="evenodd" clip-rule="evenodd" d="M17.526 4.588a.5.5 0 0 1-.136.694l-3.333 2.24a.5.5 0 0 1-.558-.83l3.333-2.24a.5.5 0 0 1 .694.136z" fill="currentColor"></path>
  </g>
</svg>
