<svg width="20" height="20" viewBox="0 0 20 20" fill="none" xmlns="http://www.w3.org/2000/svg">
<path d="M17.9951 9.935H14.9551V9.485C14.9251 8.825 14.7651 8.185 14.5351 7.565L17.3651 5.665C17.5951 5.505 17.6651 5.185 17.5051 4.955C17.3451 4.715 17.0251 4.655 16.7951 4.815L13.9951 6.695C13.7651 6.485 13.4951 6.335 13.1851 6.255V5.775C13.1851 4.895 12.8551 4.065 12.2651 3.445C11.0651 2.185 8.95511 2.185 7.75511 3.445C7.16511 4.065 6.83511 4.895 6.83511 5.775V6.255C6.52511 6.325 6.25511 6.475 6.02511 6.695L3.20511 4.825C2.97511 4.665 2.65511 4.725 2.49511 4.965C2.33511 5.195 2.39511 5.515 2.63511 5.675L5.46511 7.575C5.23511 8.195 5.07511 8.835 5.04511 9.515V9.935H1.99511C1.71511 9.935 1.48511 10.165 1.48511 10.445C1.48511 10.725 1.71511 10.955 1.99511 10.955H5.04511V12.305C5.04511 12.865 5.15511 13.405 5.31511 13.915L2.62511 15.605C2.38511 15.755 2.31511 16.075 2.46511 16.315C2.56511 16.475 2.72511 16.555 2.90511 16.555C2.99511 16.555 3.09511 16.535 3.17511 16.475L5.72511 14.875C5.93511 15.265 6.18511 15.635 6.49511 15.965C7.43511 16.945 8.68511 17.495 10.0051 17.495C11.3251 17.495 12.5951 16.935 13.5151 15.965C13.8251 15.635 14.0751 15.265 14.2851 14.875L16.8351 16.475C16.9151 16.525 17.0151 16.555 17.1051 16.555C17.2751 16.555 17.4451 16.475 17.5451 16.315C17.6951 16.075 17.6251 15.755 17.3851 15.605L14.6951 13.915C14.8551 13.395 14.9651 12.865 14.9651 12.305V10.955H18.0051C18.2851 10.955 18.5151 10.725 18.5151 10.445C18.5151 10.165 18.2851 9.935 18.0051 9.935H17.9951ZM8.48511 4.155C9.29511 3.305 10.7051 3.305 11.5151 4.155C11.9251 4.585 12.1551 5.175 12.1551 5.785V6.205H7.84511V5.785C7.84511 5.175 8.07511 4.585 8.48511 4.155ZM12.7751 15.265C12.1551 15.915 11.3651 16.305 10.5151 16.425V11.385C10.5151 11.105 10.2851 10.875 10.0051 10.875C9.72511 10.875 9.49511 11.105 9.49511 11.385V16.425C8.64511 16.305 7.85511 15.915 7.23511 15.265C6.49511 14.495 6.07511 13.415 6.07511 12.315V10.455V9.555C6.10511 8.925 6.24511 8.315 6.49511 7.745C6.62511 7.435 6.91511 7.245 7.24511 7.245H12.7751C13.0951 7.245 13.3951 7.445 13.5251 7.745C13.7651 8.315 13.9051 8.925 13.9451 9.525V12.325C13.9451 13.425 13.5251 14.495 12.7851 15.275L12.7751 15.265Z" fill="#BABABA"/>
</svg>
