<svg width="20" height="20" viewBox="0 0 20 20" fill="none" xmlns="http://www.w3.org/2000/svg">
  <path fill-rule="evenodd" clip-rule="evenodd" d="M3.02873 2.5C2.73672 2.5 2.5 2.73672 2.5 3.02873V16.9713C2.5 17.2633 2.73672 17.5 3.02873 17.5H16.9713C17.2633 17.5 17.5 17.2633 17.5 16.9713V3.02873C17.5 2.73672 17.2633 2.5 16.9713 2.5H3.02873ZM1.5 3.02873C1.5 2.18444 2.18444 1.5 3.02873 1.5H16.9713C17.8156 1.5 18.5 2.18444 18.5 3.02873V16.9713C18.5 17.8156 17.8156 18.5 16.9713 18.5H3.02873C2.18444 18.5 1.5 17.8156 1.5 16.9713V3.02873Z" fill="#BABABA" />
  <path fill-rule="evenodd" clip-rule="evenodd" d="M12.1667 9.86109C12.1667 10.1372 11.9428 10.3611 11.6667 10.3611H8.33336C8.05722 10.3611 7.83336 10.1372 7.83336 9.86109C7.83336 9.58495 8.05722 9.36109 8.33336 9.36109H11.6667C11.9428 9.36109 12.1667 9.58495 12.1667 9.86109Z" fill="#BABABA" />
  <path fill-rule="evenodd" clip-rule="evenodd" d="M12.0202 9.50756C12.2155 9.70282 12.2155 10.0194 12.0202 10.2147L10.9091 11.3258C10.7139 11.521 10.3973 11.521 10.202 11.3258C10.0068 11.1305 10.0068 10.8139 10.202 10.6187L11.3131 9.50756C11.5084 9.3123 11.825 9.3123 12.0202 9.50756Z" fill="#BABABA" />
  <path fill-rule="evenodd" clip-rule="evenodd" d="M12.0202 10.2147C11.825 10.4099 11.5084 10.4099 11.3131 10.2147L10.202 9.10355C10.0068 8.90829 10.0068 8.59171 10.202 8.39645C10.3973 8.20118 10.7139 8.20118 10.9091 8.39645L12.0202 9.50756C12.2155 9.70282 12.2155 10.0194 12.0202 10.2147Z" fill="#BABABA" />
  <path d="m 4.5,9.861491 c 0,0.58287 0.4725626,1.055566 1.0554905,1.055566 C 6.1384374,10.917057 6.611,10.444361 6.611,9.861491 6.611,9.2785626 6.1384374,8.806 5.5554905,8.806 4.9725626,8.806 4.5,9.2785626 4.5,9.861491 Z" fill="#bababa" style="stroke-width:1.8999" />
  <path d="m 13.389,9.8615 c 0,0.582876 0.47251,1.055576 1.055595,1.055576 C 15.02749,10.917076 15.5,10.444376 15.5,9.8615 15.5,9.2785669 15.02749,8.806 14.444595,8.806 13.86151,8.806 13.389,9.2785669 13.389,9.8615 Z" fill="#bababa" style="stroke-width:1.89992" />
</svg>
