<svg width="20" height="20" viewBox="0 0 20 20" fill="none" xmlns="http://www.w3.org/2000/svg">
<path fill-rule="evenodd" clip-rule="evenodd" d="M16.97 1.5H3.03C2.18 1.5 1.5 2.18 1.5 3.03V16.97C1.5 17.81 2.18 18.5 3.03 18.5H16.97C17.81 18.5 18.5 17.82 18.5 16.97V3.03C18.5 2.19 17.82 1.5 16.97 1.5ZM17.5 16.97C17.5 17.26 17.26 17.5 16.97 17.5H3.03C2.74 17.5 2.5 17.26 2.5 16.97V3.03C2.5 2.74 2.74 2.5 3.03 2.5H16.97C17.26 2.5 17.5 2.74 17.5 3.03V16.97Z" fill="#BABABA"/>
<path fill-rule="evenodd" clip-rule="evenodd" d="M12.17 9.86C12.17 9.8 12.16 9.73 12.13 9.67C12.1 9.61 12.07 9.55 12.02 9.51L10.91 8.4C10.71 8.2 10.4 8.2 10.2 8.4C10 8.6 10 8.91 10.2 9.11L10.46 9.37H8.33C8.05 9.37 7.83 9.59 7.83 9.87C7.83 10.15 8.05 10.37 8.33 10.37H10.46L10.2 10.63C10 10.83 10 11.14 10.2 11.34C10.4 11.54 10.71 11.54 10.91 11.34L12.02 10.23C12.07 10.18 12.1 10.13 12.13 10.07C12.16 10.01 12.17 9.94 12.17 9.88V9.86Z" fill="#BABABA"/>
<path fill-rule="evenodd" clip-rule="evenodd" d="M5.56 8.81C4.98 8.81 4.5 9.28 4.5 9.87C4.5 10.46 4.97 10.93 5.56 10.93C6.15 10.93 6.62 10.46 6.62 9.87C6.62 9.28 6.15 8.81 5.56 8.81Z" fill="#BABABA"/>
<path fill-rule="evenodd" clip-rule="evenodd" d="M14.44 8.81C13.86 8.81 13.38 9.28 13.38 9.87C13.38 10.46 13.85 10.93 14.44 10.93C15.03 10.93 15.5 10.46 15.5 9.87C15.5 9.28 15.03 8.81 14.44 8.81Z" fill="#BABABA"/>
</svg>
