<svg width="20" height="20" viewBox="0 0 20 20" fill="none" xmlns="http://www.w3.org/2000/svg">
<path fill-rule="evenodd" clip-rule="evenodd" d="M3.02873 2.5C2.73672 2.5 2.5 2.73672 2.5 3.02873V16.9713C2.5 17.2633 2.73672 17.5 3.02873 17.5H16.9713C17.2633 17.5 17.5 17.2633 17.5 16.9713V3.02873C17.5 2.73672 17.2633 2.5 16.9713 2.5H3.02873ZM1.5 3.02873C1.5 2.18444 2.18444 1.5 3.02873 1.5H16.9713C17.8156 1.5 18.5 2.18444 18.5 3.02873V16.9713C18.5 17.8156 17.8156 18.5 16.9713 18.5H3.02873C2.18444 18.5 1.5 17.8156 1.5 16.9713V3.02873Z" fill="#BABABA"/>
<path fill-rule="evenodd" clip-rule="evenodd" d="M12.1667 9.86109C12.1667 10.1372 11.9428 10.3611 11.6667 10.3611H8.33336C8.05722 10.3611 7.83336 10.1372 7.83336 9.86109C7.83336 9.58495 8.05722 9.36109 8.33336 9.36109H11.6667C11.9428 9.36109 12.1667 9.58495 12.1667 9.86109Z" fill="#BABABA"/>
<path fill-rule="evenodd" clip-rule="evenodd" d="M12.0202 9.50756C12.2155 9.70282 12.2155 10.0194 12.0202 10.2147L10.9091 11.3258C10.7139 11.521 10.3973 11.521 10.202 11.3258C10.0068 11.1305 10.0068 10.8139 10.202 10.6187L11.3131 9.50756C11.5084 9.3123 11.825 9.3123 12.0202 9.50756Z" fill="#BABABA"/>
<path fill-rule="evenodd" clip-rule="evenodd" d="M12.0202 10.2147C11.825 10.4099 11.5084 10.4099 11.3131 10.2147L10.202 9.10355C10.0068 8.90829 10.0068 8.59171 10.202 8.39645C10.3973 8.20118 10.7139 8.20118 10.9091 8.39645L12.0202 9.50756C12.2155 9.70282 12.2155 10.0194 12.0202 10.2147Z" fill="#BABABA"/>
<path d="M5.00003 9.86111C5.00003 10.1679 5.24876 10.4167 5.55558 10.4167C5.86241 10.4167 6.11114 10.1679 6.11114 9.86111C6.11114 9.55429 5.86241 9.30556 5.55558 9.30556C5.24876 9.30556 5.00003 9.55429 5.00003 9.86111Z" fill="#BABABA"/>
<path fill-rule="evenodd" clip-rule="evenodd" d="M5.61114 9.86111C5.61114 9.83043 5.58626 9.80556 5.55558 9.80556C5.5249 9.80556 5.50003 9.83043 5.50003 9.86111C5.50003 9.89179 5.5249 9.91667 5.55558 9.91667C5.58626 9.91667 5.61114 9.89179 5.61114 9.86111ZM5.55558 8.80556C6.13855 8.80556 6.61114 9.27814 6.61114 9.86111C6.61114 10.4441 6.13855 10.9167 5.55558 10.9167C4.97261 10.9167 4.50003 10.4441 4.50003 9.86111C4.50003 9.27814 4.97261 8.80556 5.55558 8.80556Z" fill="#BABABA"/>
<path d="M13.8889 9.86111C13.8889 10.1679 14.1376 10.4167 14.4445 10.4167C14.7513 10.4167 15 10.1679 15 9.86111C15 9.55429 14.7513 9.30556 14.4445 9.30556C14.1376 9.30556 13.8889 9.55429 13.8889 9.86111Z" fill="#BABABA"/>
<path fill-rule="evenodd" clip-rule="evenodd" d="M14.5 9.86111C14.5 9.83043 14.4752 9.80556 14.4445 9.80556C14.4138 9.80556 14.3889 9.83043 14.3889 9.86111C14.3889 9.89179 14.4138 9.91667 14.4445 9.91667C14.4752 9.91667 14.5 9.89179 14.5 9.86111ZM14.4445 8.80556C15.0274 8.80556 15.5 9.27814 15.5 9.86111C15.5 10.4441 15.0274 10.9167 14.4445 10.9167C13.8615 10.9167 13.3889 10.4441 13.3889 9.86111C13.3889 9.27814 13.8615 8.80556 14.4445 8.80556Z" fill="#BABABA"/>
</svg>
