<?xml version="1.0" encoding="UTF-8"?>
<svg id="Outlines" xmlns="http://www.w3.org/2000/svg" viewBox="0 0 24 24">
  <defs>
    <style>
      .cls-1 {
        fill: #1b1b1b;
        stroke-width: 0px;
      }
    </style>
  </defs>
  <g id="call-outline">
    <path class="cls-1" d="m19.87,21.32H4.12c-.83,0-1.5-.67-1.5-1.5V4.18c0-.83.67-1.5,1.5-1.5h15.75c.83,0,1.5.67,1.5,1.5v15.64c0,.83-.67,1.5-1.5,1.5ZM4.13,4.18v15.64s15.75,0,15.75,0V4.18H4.13Zm0-.75v.75s0,0,0,0v-.75Z"/>
    <path class="cls-1" d="m6.65,13.55c-.41,0-.81-.17-1.09-.45-.29-.29-.45-.68-.45-1.09s.16-.8.45-1.09c.58-.58,1.61-.57,2.19,0,.29.29.45.68.45,1.09s-.16.8-.45,1.09c-.29.29-.68.45-1.09.45Zm0-2.04c-.13,0-.26.05-.35.14-.09.09-.14.22-.14.35s.05.26.14.35c.19.18.52.18.7,0,.09-.09.15-.22.15-.35s-.05-.26-.14-.35c-.09-.09-.22-.14-.35-.14Z"/>
    <path class="cls-1" d="m13.78,12.53h-4.08c-.29,0-.53-.24-.53-.53s.24-.53.53-.53h4.08c.29,0,.53.24.53.53s-.24.53-.53.53Z"/>
    <path class="cls-1" d="m12.25,14.57c-.13,0-.27-.05-.37-.15-.21-.21-.21-.54,0-.74l1.67-1.67-1.67-1.67c-.21-.21-.21-.54,0-.74s.54-.21.74,0l2.04,2.04c.21.21.21.54,0,.74l-2.04,2.04c-.1.1-.24.15-.37.15Z"/>
    <path class="cls-1" d="m17.36,13.55c-.41,0-.81-.17-1.09-.45-.29-.29-.45-.69-.45-1.09s.16-.8.45-1.09c.58-.58,1.61-.57,2.19,0,.29.29.45.68.45,1.09s-.17.81-.45,1.09c-.29.29-.68.45-1.09.45Zm0-2.04c-.13,0-.26.05-.35.14-.09.09-.14.22-.14.35s.05.26.14.35c.19.18.52.18.7,0,.09-.09.15-.22.15-.35s-.05-.26-.14-.35c-.09-.09-.22-.14-.35-.14Z"/>
  </g>
</svg>