<svg width="20" height="20" viewBox="0 0 20 20" fill="none" xmlns="http://www.w3.org/2000/svg">
<path fill-rule="evenodd" clip-rule="evenodd" d="M13.1301 9.81C13.1001 9.75 13.0701 9.69 13.0201 9.65L11.2401 7.87C11.0401 7.67 10.7301 7.67 10.5301 7.87C10.3301 8.07 10.3301 8.38 10.5301 8.58L11.4501 9.5H7.33014C7.05014 9.5 6.83014 9.72 6.83014 10C6.83014 10.28 7.05014 10.5 7.33014 10.5H11.4601L10.5401 11.42C10.3401 11.62 10.3401 11.93 10.5401 12.13C10.7401 12.33 11.0501 12.33 11.2501 12.13L13.0301 10.35C13.0701 10.3 13.1101 10.25 13.1401 10.19C13.1901 10.07 13.1901 9.93 13.1401 9.81H13.1301Z" fill="#BABABA"/>
<path d="M2.89014 11.25C3.58049 11.25 4.14014 10.6904 4.14014 10C4.14014 9.30965 3.58049 8.75 2.89014 8.75C2.19978 8.75 1.64014 9.30965 1.64014 10C1.64014 10.6904 2.19978 11.25 2.89014 11.25Z" fill="#BABABA"/>
<path d="M17.1101 11.25C17.8005 11.25 18.3601 10.6904 18.3601 10C18.3601 9.30965 17.8005 8.75 17.1101 8.75C16.4198 8.75 15.8601 9.30965 15.8601 10C15.8601 10.6904 16.4198 11.25 17.1101 11.25Z" fill="#BABABA"/>
</svg>
