<?xml version="1.0" encoding="UTF-8"?>
<svg id="Outlines" xmlns="http://www.w3.org/2000/svg" viewBox="0 0 24 24">
  <defs>
    <style>
      .cls-1 {
        fill: #1b1b1b;
        stroke-width: 0px;
      }
    </style>
  </defs>
  <g id="center">
    <circle class="cls-1" cx="12" cy="12" r="1.25"/>
    <path class="cls-1" d="m12,19.75c-1.02,0-2.02-.2-2.97-.59-.94-.39-1.79-.96-2.51-1.68-.72-.72-1.29-1.57-1.68-2.51-.39-.94-.59-1.94-.59-2.97s.2-2.02.59-2.97c.39-.95.96-1.79,1.68-2.51.72-.72,1.57-1.29,2.51-1.68,1.89-.78,4.04-.78,5.93,0,.94.39,1.79.96,2.51,1.68.72.72,1.29,1.57,1.68,2.51.39.95.59,1.94.59,2.97s-.2,2.02-.59,2.97c-.39.94-.96,1.79-1.68,2.51-.72.72-1.57,1.29-2.51,1.68-.95.39-1.94.59-2.97.59Zm0-14c-.82,0-1.63.16-2.39.48-.76.32-1.44.77-2.03,1.35-.58.58-1.04,1.26-1.35,2.03-.32.76-.48,1.57-.48,2.39s.16,1.63.48,2.39c.31.76.77,1.44,1.35,2.03.58.58,1.27,1.04,2.03,1.36,1.52.63,3.26.63,4.78,0,.76-.32,1.44-.77,2.03-1.35.58-.58,1.04-1.27,1.35-2.03.32-.76.48-1.57.48-2.39s-.16-1.63-.48-2.39c-.32-.76-.77-1.45-1.35-2.03-.58-.58-1.27-1.04-2.03-1.35-.76-.32-1.57-.48-2.39-.48Z"/>
    <path class="cls-1" d="m12,5.75c-.41,0-.75-.34-.75-.75v-2c0-.41.34-.75.75-.75s.75.34.75.75v2c0,.41-.34.75-.75.75Z"/>
    <path class="cls-1" d="m5,12.75h-2c-.41,0-.75-.34-.75-.75s.34-.75.75-.75h2c.41,0,.75.34.75.75s-.34.75-.75.75Z"/>
    <path class="cls-1" d="m12,21.75c-.41,0-.75-.34-.75-.75v-2c0-.41.34-.75.75-.75s.75.34.75.75v2c0,.41-.34.75-.75.75Z"/>
    <path class="cls-1" d="m21,12.75h-2c-.41,0-.75-.34-.75-.75s.34-.75.75-.75h2c.41,0,.75.34.75.75s-.34.75-.75.75Z"/>
  </g>
</svg>