<?xml version="1.0" encoding="UTF-8"?>
<svg id="Outlines" xmlns="http://www.w3.org/2000/svg" viewBox="0 0 24 24">
  <defs>
    <style>
      .cls-1 {
        fill: #1b1b1b;
        stroke-width: 0px;
      }
    </style>
  </defs>
  <g id="change-type">
    <path class="cls-1" d="m17,9.07H7c-.41,0-.75-.34-.75-.75s.34-.75.75-.75h10c.41,0,.75.34.75.75s-.34.75-.75.75Z"/>
    <path class="cls-1" d="m17,12.82H7c-.41,0-.75-.34-.75-.75s.34-.75.75-.75h10c.41,0,.75.34.75.75s-.34.75-.75.75Z"/>
    <path class="cls-1" d="m17,16.57H7c-.41,0-.75-.34-.75-.75s.34-.75.75-.75h10c.41,0,.75.34.75.75s-.34.75-.75.75Z"/>
    <path class="cls-1" d="m19.88,21.33H4.12c-.83,0-1.5-.67-1.5-1.5V4.19c0-.83.67-1.5,1.5-1.5h15.75c.83,0,1.5.67,1.5,1.5v15.64c0,.83-.67,1.5-1.5,1.5ZM4.13,4.19v15.64s15.75,0,15.75,0V4.19H4.13Zm0-.75v.75s0,0,0,0v-.75Z"/>
  </g>
</svg>