<?xml version="1.0" encoding="UTF-8"?>
<svg id="Outlines" xmlns="http://www.w3.org/2000/svg" viewBox="0 0 24 24">
  <defs>
    <style>
      .cls-1 {
        fill: #1b1b1b;
        stroke-width: 0px;
      }
    </style>
  </defs>
  <g id="color-drop">
    <path class="cls-1" d="m12,21.75c-1.76,0-3.53-.58-4.97-1.75h0c-2.9-2.34-3.63-6.35-1.74-9.51l4.92-7.29c.17-.25.38-.45.63-.61.99-.62,2.31-.34,2.96.61l4.89,7.26c1.91,3.2,1.18,7.2-1.72,9.55-1.44,1.17-3.21,1.75-4.97,1.75Zm-4.03-2.91c2.33,1.89,5.72,1.89,8.05,0,2.31-1.87,2.9-5.06,1.39-7.58l-4.87-7.23c-.19-.29-.61-.37-.92-.18-.07.05-.14.11-.19.18l-4.89,7.26c-1.48,2.49-.9,5.67,1.42,7.54h0Z"/>
    <path class="cls-1" d="m12,21.75c-.41,0-.75-.34-.75-.75V3c0-.41.34-.75.75-.75s.75.34.75.75v18c0,.41-.34.75-.75.75Z"/>
  </g>
</svg>