<?xml version="1.0" encoding="UTF-8"?>
<svg id="Outlines" xmlns="http://www.w3.org/2000/svg" viewBox="0 0 24 24">
  <defs>
    <style>
      .cls-1 {
        fill: #1b1b1b;
        stroke-width: 0px;
      }
    </style>
  </defs>
  <g id="comment">
    <path class="cls-1" d="m4,21.75c-.1,0-.19-.02-.29-.06-.28-.12-.46-.39-.46-.69V8c0-2.07,1.68-3.75,3.75-3.75h10c2.07,0,3.75,1.68,3.75,3.75v6c0,2.07-1.68,3.75-3.75,3.75h-8.69l-3.78,3.78c-.14.14-.33.22-.53.22ZM7,5.75c-1.24,0-2.25,1.01-2.25,2.25v11.19l2.72-2.72c.14-.14.33-.22.53-.22h9c1.24,0,2.25-1.01,2.25-2.25v-6c0-1.24-1.01-2.25-2.25-2.25H7Z"/>
    <path class="cls-1" d="m12,12.01c-.55,0-1-.45-1-1s.45-1.01,1-1.01,1,.44,1,1h0c0,.56-.45,1.01-1,1.01Z"/>
    <path class="cls-1" d="m8,12.01c-.55,0-1-.45-1-1s.45-1.01,1-1.01,1,.44,1,1h0c0,.56-.45,1.01-1,1.01Z"/>
    <path class="cls-1" d="m16,12.01c-.55,0-1-.45-1-1s.45-1.01,1-1.01,1,.44,1,1h0c0,.56-.45,1.01-1,1.01Z"/>
  </g>
</svg>