<?xml version="1.0" encoding="UTF-8"?>
<svg id="Outlines" xmlns="http://www.w3.org/2000/svg" viewBox="0 0 24 24">
  <defs>
    <style>
      .cls-1 {
        fill: #1b1b1b;
        stroke-width: 0px;
      }
    </style>
  </defs>
  <g id="connector">
    <path class="cls-1" d="m6,20.75c-1.52,0-2.75-1.23-2.75-2.75s1.23-2.75,2.75-2.75,2.75,1.23,2.75,2.75-1.23,2.75-2.75,2.75Zm0-4c-.69,0-1.25.56-1.25,1.25s.56,1.25,1.25,1.25,1.25-.56,1.25-1.25-.56-1.25-1.25-1.25Z"/>
    <path class="cls-1" d="m18,8.75c-1.52,0-2.75-1.23-2.75-2.75s1.23-2.75,2.75-2.75,2.75,1.23,2.75,2.75-1.23,2.75-2.75,2.75Zm0-4c-.69,0-1.25.56-1.25,1.25s.56,1.25,1.25,1.25,1.25-.56,1.25-1.25-.56-1.25-1.25-1.25Z"/>
    <path class="cls-1" d="m7.5,17.25c-.19,0-.38-.07-.53-.22-.29-.29-.29-.77,0-1.06L15.97,6.97c.29-.29.77-.29,1.06,0s.29.77,0,1.06l-9,9c-.15.15-.34.22-.53.22Z"/>
  </g>
</svg>