<svg width="20" height="20" viewBox="0 0 20 20" fill="none" xmlns="http://www.w3.org/2000/svg">
<path fill-rule="evenodd" clip-rule="evenodd" d="M4 14.5C3.17157 14.5 2.5 15.1716 2.5 16C2.5 16.8284 3.17157 17.5 4 17.5C4.82843 17.5 5.5 16.8284 5.5 16C5.5 15.1716 4.82843 14.5 4 14.5ZM1.5 16C1.5 14.6193 2.61929 13.5 4 13.5C5.38071 13.5 6.5 14.6193 6.5 16C6.5 17.3807 5.38071 18.5 4 18.5C2.61929 18.5 1.5 17.3807 1.5 16Z" fill="#BABABA"/>
<path fill-rule="evenodd" clip-rule="evenodd" d="M16 2.5C15.1716 2.5 14.5 3.17157 14.5 4C14.5 4.82843 15.1716 5.5 16 5.5C16.8284 5.5 17.5 4.82843 17.5 4C17.5 3.17157 16.8284 2.5 16 2.5ZM13.5 4C13.5 2.61929 14.6193 1.5 16 1.5C17.3807 1.5 18.5 2.61929 18.5 4C18.5 5.38071 17.3807 6.5 16 6.5C14.6193 6.5 13.5 5.38071 13.5 4Z" fill="#BABABA"/>
<path fill-rule="evenodd" clip-rule="evenodd" d="M14.8536 5.14645C15.0488 5.34171 15.0488 5.65829 14.8536 5.85355L5.85355 14.8536C5.65829 15.0488 5.34171 15.0488 5.14645 14.8536C4.95118 14.6583 4.95118 14.3417 5.14645 14.1464L14.1464 5.14645C14.3417 4.95118 14.6583 4.95118 14.8536 5.14645Z" fill="#BABABA"/>
</svg>
