<?xml version="1.0" encoding="UTF-8"?>
<svg id="Outlines" xmlns="http://www.w3.org/2000/svg" viewBox="0 0 24 24">
  <defs>
    <style>
      .cls-1 {
        fill: #1b1b1b;
        stroke-width: 0px;
      }
    </style>
  </defs>
  <g id="custom-image">
    <path class="cls-1" d="m15.01,8.75c-.41,0-.75-.34-.75-.75s.33-.75.75-.75h0c.41,0,.75.34.75.75s-.34.75-.75.75Z"/>
    <path class="cls-1" d="m18,21.75H6c-2.07,0-3.75-1.68-3.75-3.75V6c0-2.07,1.68-3.75,3.75-3.75h12c2.07,0,3.75,1.68,3.75,3.75v12c0,2.07-1.68,3.75-3.75,3.75ZM6,3.75c-1.24,0-2.25,1.01-2.25,2.25v12c0,1.24,1.01,2.25,2.25,2.25h12c1.24,0,2.25-1.01,2.25-2.25V6c0-1.24-1.01-2.25-2.25-2.25H6Z"/>
    <path class="cls-1" d="m16,16.75c-.19,0-.38-.07-.53-.22l-5-5c-.63-.61-1.31-.61-1.95,0l-4.99,4.99c-.29.29-.77.29-1.06,0s-.29-.77,0-1.06l5-5c1.24-1.19,2.82-1.19,4.05,0l5.01,5.01c.29.29.29.77,0,1.06-.15.15-.34.22-.53.22Z"/>
    <path class="cls-1" d="m21,16.75c-.19,0-.38-.07-.53-.22l-3-3c-.63-.61-1.31-.61-1.95,0l-.99.99c-.29.29-.77.29-1.06,0s-.29-.77,0-1.06l1-1c1.24-1.19,2.82-1.19,4.05,0l3.01,3.01c.29.29.29.77,0,1.06-.15.15-.34.22-.53.22Z"/>
  </g>
</svg>