<svg width="20" height="20" viewBox="0 0 20 20" fill="none" xmlns="http://www.w3.org/2000/svg">
<path fill-rule="evenodd" clip-rule="evenodd" d="M12.25 6C12.25 5.58579 12.5858 5.25 13 5.25H13.0094C13.4236 5.25 13.7594 5.58579 13.7594 6C13.7594 6.41421 13.4236 6.75 13.0094 6.75H13C12.5858 6.75 12.25 6.41421 12.25 6Z" fill="#BABABA"/>
<path fill-rule="evenodd" clip-rule="evenodd" d="M5 2.5C3.61929 2.5 2.5 3.61929 2.5 5V15C2.5 16.3807 3.61929 17.5 5 17.5H15C16.3807 17.5 17.5 16.3807 17.5 15V5C17.5 3.61929 16.3807 2.5 15 2.5H5ZM1.5 5C1.5 3.067 3.067 1.5 5 1.5H15C16.933 1.5 18.5 3.067 18.5 5V15C18.5 16.933 16.933 18.5 15 18.5H5C3.067 18.5 1.5 16.933 1.5 15V5Z" fill="#BABABA"/>
<path fill-rule="evenodd" clip-rule="evenodd" d="M6.35 9.35712L2.35355 13.3536C2.15829 13.5488 1.84171 13.5488 1.64645 13.3536C1.45118 13.1583 1.45118 12.8417 1.64645 12.6465L5.65325 8.63966C6.18246 8.13042 6.81879 7.83014 7.5 7.83014C8.18121 7.83014 8.81747 8.13049 9.34669 8.63973L9.35362 8.6464L14.3536 13.6465C14.5488 13.8417 14.5488 14.1583 14.3536 14.3536C14.1583 14.5488 13.8417 14.5488 13.6464 14.3536L8.65 9.35712C8.26812 8.99093 7.87094 8.83014 7.5 8.83014C7.12906 8.83014 6.73188 8.99093 6.35 9.35712Z" fill="#BABABA"/>
<path fill-rule="evenodd" clip-rule="evenodd" d="M13.35 11.3571L12.3536 12.3536C12.1583 12.5488 11.8417 12.5488 11.6464 12.3536C11.4512 12.1583 11.4512 11.8417 11.6464 11.6465L12.6532 10.6397C13.1825 10.1304 13.8188 9.83014 14.5 9.83014C15.1812 9.83014 15.8175 10.1305 16.3467 10.6397L16.3536 10.6464L18.3536 12.6465C18.5488 12.8417 18.5488 13.1583 18.3536 13.3536C18.1583 13.5488 17.8417 13.5488 17.6464 13.3536L15.65 11.3571C15.2681 10.9909 14.8709 10.8301 14.5 10.8301C14.1291 10.8301 13.7319 10.9909 13.35 11.3571Z" fill="#BABABA"/>
</svg>
