<?xml version="1.0" encoding="UTF-8"?>
<svg id="Outlines" xmlns="http://www.w3.org/2000/svg" viewBox="0 0 24 24">
  <defs>
    <style>
      .cls-1 {
        fill: #1b1b1b;
        stroke-width: 0px;
      }
    </style>
  </defs>
  <g id="dark-mode">
    <path class="cls-1" d="m12,21.75c-1.27,0-2.54-.25-3.74-.75C3.3,18.93.94,13.21,3,8.25c1.52-3.65,5.05-6.01,9-6.01.04,0,.07,0,.11,0h.28c.31,0,.58.19.7.48.11.29.04.61-.19.82-1.32,1.23-2.08,2.9-2.15,4.7-.07,1.8.57,3.52,1.8,4.84,1.89,2.04,4.9,2.71,7.48,1.66.28-.11.6-.05.81.17.21.21.28.54.16.82-1,2.4-2.88,4.28-5.28,5.27-1.2.5-2.46.74-3.72.74Zm-1.32-17.9c-2.79.45-5.18,2.3-6.29,4.98-1.75,4.2.25,9.04,4.45,10.78,2.04.85,4.28.85,6.31,0,1.51-.62,2.78-1.66,3.67-2.98-2.67.43-5.48-.49-7.37-2.52-1.5-1.61-2.28-3.72-2.2-5.92.06-1.58.55-3.07,1.42-4.34Z"/>
  </g>
</svg>