<svg width="20" height="20" viewBox="0 0 20 20" fill="none" xmlns="http://www.w3.org/2000/svg">
<path fill-rule="evenodd" clip-rule="evenodd" d="M3.02873 2.5C2.73672 2.5 2.5 2.73672 2.5 3.02873V16.9713C2.5 17.2633 2.73672 17.5 3.02873 17.5H16.9713C17.2633 17.5 17.5 17.2633 17.5 16.9713V3.02873C17.5 2.73672 17.2633 2.5 16.9713 2.5H3.02873ZM1.5 3.02873C1.5 2.18444 2.18444 1.5 3.02873 1.5H16.9713C17.8156 1.5 18.5 2.18444 18.5 3.02873V16.9713C18.5 17.8156 17.8156 18.5 16.9713 18.5H3.02873C2.18444 18.5 1.5 17.8156 1.5 16.9713V3.02873Z" fill="#BABABA"/>
<path fill-rule="evenodd" clip-rule="evenodd" d="M6.4989 7.34463C6.49886 7.34463 6.49896 7.34406 6.49932 7.34295ZM6.50347 7.33333C6.51319 7.31428 6.54218 7.27141 6.62385 7.20705C6.76364 7.09688 6.9969 6.9758 7.32971 6.86487C7.99011 6.64473 8.93424 6.5 10 6.5C11.0658 6.5 12.0099 6.64473 12.6703 6.86487C13.0032 6.9758 13.2364 7.09688 13.3762 7.20705C13.4579 7.27141 13.4869 7.31428 13.4966 7.33333C13.4869 7.35239 13.4579 7.39526 13.3762 7.45962C13.2364 7.56979 13.0032 7.69086 12.6703 7.8018C12.0099 8.02193 11.0658 8.16667 10 8.16667C8.93424 8.16667 7.99011 8.02193 7.32971 7.8018C6.9969 7.69086 6.76364 7.56979 6.62385 7.45962C6.54218 7.39526 6.51319 7.35239 6.50347 7.33333ZM13.5012 7.34463C13.5011 7.34463 13.5009 7.34407 13.5007 7.34295ZM13.5007 7.32372C13.5009 7.32259 13.5011 7.32204 13.5012 7.32204ZM6.49932 7.32372C6.49896 7.3226 6.49886 7.32204 6.4989 7.32204ZM7.01348 5.91618C7.8008 5.65374 8.85667 5.5 10 5.5C11.1434 5.5 12.1992 5.65374 12.9866 5.91618C13.3776 6.04653 13.7301 6.21276 13.9952 6.42163C14.2546 6.62606 14.5 6.93037 14.5 7.33333C14.5 7.73629 14.2546 8.04061 13.9952 8.24503C13.7301 8.4539 13.3776 8.62014 12.9866 8.75048C12.1992 9.01292 11.1434 9.16667 10 9.16667C8.85667 9.16667 7.8008 9.01292 7.01348 8.75048C6.62244 8.62014 6.26991 8.4539 6.00488 8.24503C5.74548 8.04061 5.50003 7.73629 5.50003 7.33333C5.50003 6.93037 5.74548 6.62606 6.00488 6.42163C6.26991 6.21276 6.62244 6.04653 7.01348 5.91618Z" fill="#BABABA"/>
<path fill-rule="evenodd" clip-rule="evenodd" d="M6.00003 6.83333C6.27617 6.83333 6.50003 7.05719 6.50003 7.33333V9.99138C6.50518 10.0044 6.5285 10.0487 6.61798 10.1207C6.75363 10.2299 6.98551 10.3537 7.32971 10.4685C8.01482 10.6968 8.97575 10.8333 10 10.8333C11.0243 10.8333 11.9852 10.6968 12.6703 10.4685C13.0145 10.3537 13.2464 10.2299 13.3821 10.1207C13.4716 10.0487 13.4949 10.0044 13.5 9.99138V7.33333C13.5 7.05719 13.7239 6.83333 14 6.83333C14.2762 6.83333 14.5 7.05719 14.5 7.33333V10C14.5 10.3905 14.267 10.6922 14.009 10.8998C13.7464 11.1111 13.3925 11.2818 12.9866 11.4172C12.1714 11.6889 11.0975 11.8333 10 11.8333C8.90257 11.8333 7.82867 11.6889 7.01348 11.4172C6.60754 11.2818 6.25364 11.1111 5.99104 10.8998C5.73305 10.6922 5.50003 10.3905 5.50003 10V7.33333C5.50003 7.05719 5.72388 6.83333 6.00003 6.83333ZM13.5013 9.98733C13.5014 9.98733 13.5012 9.98792 13.5009 9.98908ZM6.49873 9.98733C6.49877 9.98733 6.49896 9.98791 6.49918 9.98907Z" fill="#BABABA"/>
<path fill-rule="evenodd" clip-rule="evenodd" d="M6.00003 9.5C6.27617 9.5 6.50003 9.72386 6.50003 10V12.658C6.50518 12.6711 6.5285 12.7154 6.61798 12.7874C6.75363 12.8965 6.98551 13.0204 7.32971 13.1351C8.01482 13.3635 8.97575 13.5 10 13.5C11.0243 13.5 11.9852 13.3635 12.6703 13.1351C13.0145 13.0204 13.2464 12.8965 13.3821 12.7874C13.4716 12.7154 13.4949 12.6711 13.5 12.658V10C13.5 9.72386 13.7239 9.5 14 9.5C14.2762 9.5 14.5 9.72386 14.5 10V12.6667C14.5 13.0572 14.267 13.3588 14.009 13.5664C13.7464 13.7778 13.3925 13.9485 12.9866 14.0838C12.1714 14.3555 11.0975 14.5 10 14.5C8.90257 14.5 7.82867 14.3555 7.01348 14.0838C6.60754 13.9485 6.25364 13.7778 5.99104 13.5664C5.73305 13.3588 5.50003 13.0572 5.50003 12.6667V10C5.50003 9.72386 5.72388 9.5 6.00003 9.5ZM13.5013 12.654C13.5014 12.654 13.5012 12.6546 13.5009 12.6558ZM6.49873 12.654C6.49877 12.654 6.49896 12.6546 6.49918 12.6557Z" fill="#BABABA"/>
</svg>
