<svg width="20" height="20" viewBox="0 0 20 20" fill="none" xmlns="http://www.w3.org/2000/svg">
<path fill-rule="evenodd" clip-rule="evenodd" d="M2.93817 4.02139C2.59033 4.29551 2.5 4.51734 2.5 4.66667C2.5 4.81599 2.59033 5.03782 2.93817 5.31195C3.28037 5.58163 3.80652 5.84636 4.50126 6.07794C5.88551 6.53936 7.82965 6.83333 10 6.83333C12.1704 6.83333 14.1145 6.53936 15.4987 6.07794C16.1935 5.84636 16.7196 5.58163 17.0618 5.31195C17.4097 5.03782 17.5 4.81599 17.5 4.66667C17.5 4.51734 17.4097 4.29551 17.0618 4.02139C16.7196 3.7517 16.1935 3.48697 15.4987 3.25539C14.1145 2.79397 12.1704 2.5 10 2.5C7.82965 2.5 5.88551 2.79397 4.50126 3.25539C3.80652 3.48697 3.28037 3.7517 2.93817 4.02139ZM17.5 6.2309C17.0526 6.54124 16.4751 6.80657 15.815 7.02663C14.3038 7.53035 12.2479 7.83333 10 7.83333C7.75208 7.83333 5.69621 7.53035 4.18503 7.02663C3.52486 6.80657 2.94736 6.54124 2.5 6.2309V9.99999C2.5 10.1399 2.58304 10.3578 2.92244 10.6309C3.25721 10.9004 3.78199 11.1715 4.50126 11.4113C5.93651 11.8897 7.91486 12.1667 10 12.1667C12.0851 12.1667 14.0635 11.8897 15.4987 11.4113C16.218 11.1715 16.7428 10.9004 17.0776 10.6309C17.417 10.3578 17.5 10.1399 17.5 9.99999V6.2309ZM17.5 11.5628C17.0592 11.8694 16.4867 12.136 15.815 12.36C14.2496 12.8817 12.1583 13.1667 10 13.1667C7.84168 13.1667 5.75037 12.8817 4.18503 12.36C3.51327 12.136 2.94081 11.8694 2.5 11.5628V15.3333C2.5 15.4732 2.58304 15.6912 2.92244 15.9643C3.25721 16.2337 3.78199 16.5049 4.50126 16.7446C5.93651 17.223 7.91486 17.5 10 17.5C12.0851 17.5 14.0635 17.223 15.4987 16.7446C16.218 16.5049 16.7428 16.2337 17.0776 15.9643C17.417 15.6912 17.5 15.4732 17.5 15.3333V11.5628ZM18.5 15.3333C18.5 15.9007 18.1616 16.3755 17.7045 16.7434C17.2428 17.1149 16.596 17.433 15.815 17.6933C14.2496 18.2151 12.1583 18.5 10 18.5C7.84168 18.5 5.75037 18.2151 4.18503 17.6933C3.40401 17.433 2.75722 17.1149 2.29549 16.7434C1.83838 16.3755 1.5 15.9007 1.5 15.3333V4.66667C1.5 4.07961 1.85738 3.59992 2.31919 3.23597C2.78664 2.86759 3.43206 2.5577 4.18503 2.30671C5.69621 1.80298 7.75208 1.5 10 1.5C12.2479 1.5 14.3038 1.80298 15.815 2.30671C16.5679 2.5577 17.2134 2.86759 17.6808 3.23597C18.1426 3.59992 18.5 4.07961 18.5 4.66667V15.3333Z" fill="#BABABA"/>
</svg>
