<?xml version="1.0" encoding="UTF-8"?>
<svg id="Outlines" xmlns="http://www.w3.org/2000/svg" viewBox="0 0 24 24">
  <defs>
    <style>
      .cls-1 {
        fill: #1b1b1b;
        stroke-width: 0px;
      }
    </style>
  </defs>
  <g id="database-outline">
    <path class="cls-1" d="m12,10.88c-1.42,0-2.77-.21-3.8-.6-1.7-.64-1.95-1.54-1.95-2.03s.25-1.39,1.95-2.03c2.05-.77,5.54-.77,7.6,0,1.7.64,1.95,1.54,1.95,2.03s-.25,1.39-1.95,2.03c-1.03.39-2.38.6-3.8.6Zm-4.25-2.62c.03.07.24.35.98.62,1.7.64,4.84.64,6.54,0,.76-.28.96-.57.98-.63-.01-.05-.22-.33-.98-.62-1.7-.64-4.85-.64-6.54,0-.73.28-.95.55-.98.62Zm0,0h0Z"/>
    <path class="cls-1" d="m12,14.63c-1.42,0-2.77-.21-3.8-.6-1.7-.64-1.95-1.54-1.95-2.03v-3.75c0-.41.34-.75.75-.75s.75.34.75.75v3.75c.01.05.22.34.98.62,1.7.64,4.84.64,6.54,0,.76-.28.96-.57.98-.63v-3.74c0-.41.33-.75.75-.75s.75.34.75.75v3.75c0,.48-.25,1.39-1.95,2.03-1.03.39-2.38.6-3.8.6Z"/>
    <path class="cls-1" d="m12,18.38c-1.42,0-2.77-.21-3.8-.6-1.7-.64-1.95-1.54-1.95-2.03v-3.75c0-.41.34-.75.75-.75s.75.34.75.75v3.75c.01.05.22.34.98.62,1.7.64,4.84.64,6.54,0,.76-.28.96-.57.98-.63v-3.74c0-.41.33-.75.75-.75s.75.34.75.75v3.75c0,.48-.25,1.39-1.95,2.03-1.03.39-2.38.6-3.8.6Z"/>
    <path class="cls-1" d="m19.5,21H4.5c-.83,0-1.5-.67-1.5-1.5V4.5c0-.83.67-1.5,1.5-1.5h15c.83,0,1.5.67,1.5,1.5v15c0,.83-.67,1.5-1.5,1.5ZM4.5,4.5h0v15h15V4.5H4.5Z"/>
  </g>
</svg>