<svg width="20" height="20" viewBox="0 0 20 20" fill="none" xmlns="http://www.w3.org/2000/svg">
  <path fill-rule="evenodd" clip-rule="evenodd" d="M3.02873 2.5C2.73672 2.5 2.5 2.73672 2.5 3.02873V16.9713C2.5 17.2633 2.73672 17.5 3.02873 17.5H16.9713C17.2633 17.5 17.5 17.2633 17.5 16.9713V3.02873C17.5 2.73672 17.2633 2.5 16.9713 2.5H3.02873ZM1.5 3.02873C1.5 2.18444 2.18444 1.5 3.02873 1.5H16.9713C17.8156 1.5 18.5 2.18444 18.5 3.02873V16.9713C18.5 17.8156 17.8156 18.5 16.9713 18.5H3.02873C2.18444 18.5 1.5 17.8156 1.5 16.9713V3.02873Z" fill="#BABABA" />
  <path fill-rule="evenodd" clip-rule="evenodd" d="M6.00003 6.83333C6.27617 6.83333 6.50003 7.05719 6.50003 7.33333V9.99138C6.50518 10.0044 6.5285 10.0487 6.61798 10.1207C6.75363 10.2299 6.98551 10.3537 7.32971 10.4685C8.01482 10.6968 8.97575 10.8333 10 10.8333C11.0243 10.8333 11.9852 10.6968 12.6703 10.4685C13.0145 10.3537 13.2464 10.2299 13.3821 10.1207C13.4716 10.0487 13.4949 10.0044 13.5 9.99138V7.33333C13.5 7.05719 13.7239 6.83333 14 6.83333C14.2762 6.83333 14.5 7.05719 14.5 7.33333V10C14.5 10.3905 14.267 10.6922 14.009 10.8998C13.7464 11.1111 13.3925 11.2818 12.9866 11.4172C12.1714 11.6889 11.0975 11.8333 10 11.8333C8.90257 11.8333 7.82867 11.6889 7.01348 11.4172C6.60754 11.2818 6.25364 11.1111 5.99104 10.8998C5.73305 10.6922 5.50003 10.3905 5.50003 10V7.33333C5.50003 7.05719 5.72388 6.83333 6.00003 6.83333ZM13.5013 9.98733C13.5014 9.98733 13.5012 9.98792 13.5009 9.98908ZM6.49873 9.98733C6.49877 9.98733 6.49896 9.98791 6.49918 9.98907Z" fill="#BABABA" />
  <path fill-rule="evenodd" clip-rule="evenodd" d="M6.00003 9.5C6.27617 9.5 6.50003 9.72386 6.50003 10V12.658C6.50518 12.6711 6.5285 12.7154 6.61798 12.7874C6.75363 12.8965 6.98551 13.0204 7.32971 13.1351C8.01482 13.3635 8.97575 13.5 10 13.5C11.0243 13.5 11.9852 13.3635 12.6703 13.1351C13.0145 13.0204 13.2464 12.8965 13.3821 12.7874C13.4716 12.7154 13.4949 12.6711 13.5 12.658V10C13.5 9.72386 13.7239 9.5 14 9.5C14.2762 9.5 14.5 9.72386 14.5 10V12.6667C14.5 13.0572 14.267 13.3588 14.009 13.5664C13.7464 13.7778 13.3925 13.9485 12.9866 14.0838C12.1714 14.3555 11.0975 14.5 10 14.5C8.90257 14.5 7.82867 14.3555 7.01348 14.0838C6.60754 13.9485 6.25364 13.7778 5.99104 13.5664C5.73305 13.3588 5.50003 13.0572 5.50003 12.6667V10C5.50003 9.72386 5.72388 9.5 6.00003 9.5ZM13.5013 12.654C13.5014 12.654 13.5012 12.6546 13.5009 12.6558ZM6.49873 12.654C6.49877 12.654 6.49896 12.6546 6.49918 12.6557Z" fill="#BABABA" />
  <path fill-rule="evenodd" clip-rule="evenodd" d="M 9.9999934,6.5 C 8.938383,6.5 8.116654,6.561471 7.33,6.856 6.936567,7.0033047 6.8405274,7.0580482 6.624,7.207 6.577354,7.239089 6.5015761,7.265441 6.499,7.322 6.49618,7.384001 6.574327,7.4227883 6.624,7.46 6.8332801,7.6167786 6.936567,7.6546956 7.33,7.8019996 c 0.786654,0.294525 1.608383,0.365 2.6699934,0.365 1.0616306,0 1.8833526,-0.07048 2.6700066,-0.365 C 13.063407,7.6546956 13.16672,7.6167786 13.376,7.46 13.42567,7.422788 13.503824,7.384001 13.501,7.322 13.4984,7.265441 13.42281,7.238849 13.376,7.207 13.159803,7.0599058 13.063407,7.0123044 12.67,6.865 11.883346,6.5704706 11.061624,6.5 9.9999934,6.5 Z m 0,-1 c 1.1062076,0 2.2258096,0.1574332 3.0931456,0.4821708 0.433536,0.1623292 0.777919,0.3566406 1.017955,0.5782215 0.241306,0.2228099 0.388907,0.4856099 0.388907,0.7731077 0,0.2874976 -0.147601,0.5502976 -0.388907,0.7731076 -0.240036,0.221581 -0.584419,0.415892 -1.017955,0.578222 -0.867336,0.324737 -1.986938,0.48217 -3.0931456,0.48217 -1.1061764,0 -2.2257684,-0.157433 -3.0931054,-0.48217 C 6.47332,8.5224996 6.128932,8.3281886 5.888939,8.1066076 5.647616,7.8837976 5.5,7.6209976 5.5,7.3335 5.5,7.0460022 5.647616,6.7832022 5.888939,6.5603923 6.128932,6.3388114 6.47332,6.1445 6.906888,5.9821708 7.774225,5.6574332 8.893817,5.5 9.9999934,5.5 Z" fill="#bababa" />
</svg>
