<?xml version="1.0" encoding="UTF-8"?>
<svg id="Outlines" xmlns="http://www.w3.org/2000/svg" viewBox="0 0 24 24">
  <defs>
    <style>
      .cls-1 {
        fill: #1b1b1b;
        stroke-width: 0px;
      }
    </style>
  </defs>
  <g id="trash">
    <path class="cls-1" d="m20,7.75H4c-.41,0-.75-.34-.75-.75s.34-.75.75-.75h16c.41,0,.75.34.75.75s-.34.75-.75.75Z"/>
    <path class="cls-1" d="m10,17.75c-.41,0-.75-.34-.75-.75v-6c0-.41.34-.75.75-.75s.75.34.75.75v6c0,.41-.34.75-.75.75Z"/>
    <path class="cls-1" d="m14,17.75c-.41,0-.75-.34-.75-.75v-6c0-.41.34-.75.75-.75s.75.34.75.75v6c0,.41-.34.75-.75.75Z"/>
    <path class="cls-1" d="m16,21.75h-8c-1.52,0-2.75-1.23-2.75-2.75l-1-11.94c-.04-.41.27-.78.68-.81.43-.04.78.27.81.68l1,12c0,.75.56,1.31,1.25,1.31h8c.69,0,1.25-.56,1.25-1.25l1-12.06c.03-.41.41-.72.81-.68.41.03.72.4.68.81l-1,12c0,1.45-1.23,2.69-2.75,2.69Z"/>
    <path class="cls-1" d="m15,7.75c-.41,0-.75-.34-.75-.75v-3c0-.14-.11-.25-.25-.25h-4c-.14,0-.25.11-.25.25v3c0,.41-.34.75-.75.75s-.75-.34-.75-.75v-3c0-.96.79-1.75,1.75-1.75h4c.96,0,1.75.79,1.75,1.75v3c0,.41-.34.75-.75.75Z"/>
  </g>
</svg>