<svg width="20" height="20" viewBox="0 0 20 20" fill="none" xmlns="http://www.w3.org/2000/svg">
<path fill-rule="evenodd" clip-rule="evenodd" d="M3.5 5.55555C3.5 5.27941 3.72386 5.05555 4 5.05555H16C16.2761 5.05555 16.5 5.27941 16.5 5.55555C16.5 5.83169 16.2761 6.05555 16 6.05555H4C3.72386 6.05555 3.5 5.83169 3.5 5.55555Z" fill="#BABABA"/>
<path fill-rule="evenodd" clip-rule="evenodd" d="M8.5 8.6111C8.77614 8.6111 9 8.83496 9 9.1111V14.4444C9 14.7206 8.77614 14.9444 8.5 14.9444C8.22386 14.9444 8 14.7206 8 14.4444V9.1111C8 8.83496 8.22386 8.6111 8.5 8.6111Z" fill="#BABABA"/>
<path fill-rule="evenodd" clip-rule="evenodd" d="M11.5 8.6111C11.7761 8.6111 12 8.83496 12 9.1111V14.4444C12 14.7206 11.7761 14.9444 11.5 14.9444C11.2239 14.9444 11 14.7206 11 14.4444V9.1111C11 8.83496 11.2239 8.6111 11.5 8.6111Z" fill="#BABABA"/>
<path fill-rule="evenodd" clip-rule="evenodd" d="M4.71493 5.0568C4.99039 5.03744 5.2294 5.24504 5.24877 5.5205L5.99877 16.1872C5.99959 16.1988 6 16.2105 6 16.2222C6 16.586 6.12266 16.9212 6.32149 17.1569C6.51816 17.39 6.76485 17.5 7 17.5H13C13.2351 17.5 13.4818 17.39 13.6785 17.1569C13.8773 16.9212 14 16.586 14 16.2222C14 16.2105 14.0004 16.1988 14.0012 16.1872L14.7512 5.5205C14.7706 5.24504 15.0096 5.03744 15.2851 5.0568C15.5605 5.07617 15.7681 5.31518 15.7488 5.59064L14.9999 16.2407C14.9959 16.8136 14.8027 17.3752 14.4428 17.8018C14.0769 18.2355 13.5605 18.5 13 18.5H7C6.4395 18.5 5.92313 18.2355 5.55719 17.8018C5.19728 17.3752 5.00414 16.8136 5.00007 16.2407L4.25123 5.59064C4.23186 5.31518 4.43947 5.07617 4.71493 5.0568Z" fill="#BABABA"/>
<path fill-rule="evenodd" clip-rule="evenodd" d="M8.5 2.5C8.46377 2.5 8.40784 2.51639 8.35182 2.58278C8.29365 2.65173 8.25 2.76088 8.25 2.88889V5.55556C8.25 5.8317 8.02614 6.05556 7.75 6.05556C7.47386 6.05556 7.25 5.8317 7.25 5.55556V2.88889C7.25 2.5454 7.36439 2.20237 7.58752 1.93791C7.81281 1.67091 8.13841 1.5 8.5 1.5H11.5C11.8616 1.5 12.1872 1.67091 12.4125 1.93791C12.6356 2.20237 12.75 2.5454 12.75 2.88889V5.55556C12.75 5.8317 12.5261 6.05556 12.25 6.05556C11.9739 6.05556 11.75 5.8317 11.75 5.55556V2.88889C11.75 2.76088 11.7064 2.65173 11.6482 2.58278C11.5922 2.51639 11.5362 2.5 11.5 2.5H8.5Z" fill="#BABABA"/>
</svg>
