<?xml version="1.0" encoding="UTF-8"?>
<svg id="Outlines" xmlns="http://www.w3.org/2000/svg" viewBox="0 0 24 24">
  <defs>
    <style>
      .cls-1 {
        fill: #1b1b1b;
        stroke-width: 0px;
      }
    </style>
  </defs>
  <g id="dialog-layout">
    <path class="cls-1" d="m18,20.75H6c-.74,0-1.43-.29-1.95-.81-.52-.52-.8-1.21-.8-1.94V6c0-.73.29-1.42.81-1.94s1.21-.81,1.94-.81h12c.73,0,1.42.29,1.94.81s.81,1.21.81,1.94v12c0,.73-.29,1.42-.81,1.94-.52.52-1.21.81-1.94.81ZM6,4.75c-.33,0-.65.13-.88.37s-.37.55-.37.88v12c0,.33.13.65.37.88s.55.37.88.37h12c.33,0,.65-.13.88-.37s.37-.56.37-.88V6c0-.33-.13-.65-.37-.88s-.55-.37-.88-.37H6Z"/>
    <path class="cls-1" d="m12,15.45h-4.5c-.25,0-.45-.2-.45-.45v-4.5c0-.25.2-.45.45-.45h4.5c.25,0,.45.2.45.45v4.5c0,.25-.2.45-.45.45Zm-4.05-.9h3.6v-3.6h-3.6v3.6Z"/>
    <path class="cls-1" d="m12,18.45h-4.5c-.25,0-.45-.2-.45-.45v-1.5c0-.25.2-.45.45-.45h4.5c.25,0,.45.2.45.45v1.5c0,.25-.2.45-.45.45Zm-4.05-.9h3.6v-.6h-3.6v.6Z"/>
    <path class="cls-1" d="m16.5,18.45h-3c-.25,0-.45-.2-.45-.45v-4.5c0-.25.2-.45.45-.45h3c.25,0,.45.2.45.45v4.5c0,.25-.2.45-.45.45Zm-2.55-.9h2.1v-3.6h-2.1v3.6Z"/>
    <path class="cls-1" d="m16.5,12.45h-3c-.25,0-.45-.2-.45-.45v-1.5c0-.25.2-.45.45-.45h3c.25,0,.45.2.45.45v1.5c0,.25-.2.45-.45.45Zm-2.55-.9h2.1v-.6h-2.1v.6Z"/>
    <path class="cls-1" d="m20,8.25H4c-.41,0-.75-.34-.75-.75s.34-.75.75-.75h16c.41,0,.75.34.75.75s-.34.75-.75.75Z"/>
  </g>
</svg>