<?xml version="1.0" encoding="UTF-8" standalone="no"?>
<svg
   width="20"
   height="20"
   viewBox="0 0 20 20"
   fill="none"
   version="1.1"
   id="svg9247"
   sodipodi:docname="e-mail.svg"
   inkscape:version="1.1.2 (0a00cf5339, 2022-02-04)"
   xmlns:inkscape="http://www.inkscape.org/namespaces/inkscape"
   xmlns:sodipodi="http://sodipodi.sourceforge.net/DTD/sodipodi-0.dtd"
   xmlns="http://www.w3.org/2000/svg"
   xmlns:svg="http://www.w3.org/2000/svg">
  <defs
     id="defs9251" />
  <sodipodi:namedview
     id="namedview9249"
     pagecolor="#ffffff"
     bordercolor="#666666"
     borderopacity="1.0"
     inkscape:pageshadow="2"
     inkscape:pageopacity="0.0"
     inkscape:pagecheckerboard="0"
     showgrid="false"
     inkscape:zoom="43.55"
     inkscape:cx="9.9885189"
     inkscape:cy="9.9885189"
     inkscape:window-width="1920"
     inkscape:window-height="1132"
     inkscape:window-x="0"
     inkscape:window-y="0"
     inkscape:window-maximized="1"
     inkscape:current-layer="svg9247" />
  <path
     fill-rule="evenodd"
     clip-rule="evenodd"
     d="m 3.9899668,4.8634363 c -0.5216016,0 -0.9444341,0.4228325 -0.9444341,0.9444341 v 8.5858346 c 0,0.521586 0.4228325,0.944419 0.9444341,0.944419 H 16.010032 c 0.521586,0 0.944419,-0.422833 0.944419,-0.944419 V 5.8078704 c 0,-0.5216016 -0.422833,-0.9444341 -0.944419,-0.9444341 z M 1.5000921,5.8078704 c 0,-1.3751175 1.1147572,-2.4898747 2.4898747,-2.4898747 H 16.010032 c 1.375133,0 2.489859,1.1147572 2.489859,2.4898747 v 8.5858346 c 0,1.375133 -1.114726,2.489859 -2.489859,2.489859 H 3.9899668 c -1.3751175,0 -2.4898747,-1.114726 -2.4898747,-2.489859 z"
     fill="#bababa"
     id="path9243"
     style="stroke-width:1.54544" />
  <path
     fill-rule="evenodd"
     clip-rule="evenodd"
     d="M 1.6298627,5.3792425 C 1.8665933,5.0241621 2.3463444,4.9282057 2.7014403,5.1649363 L 9.9999686,10.030617 17.29862,5.1649363 c 0.354988,-0.2367306 0.834847,-0.1407742 1.071609,0.2143062 0.236607,0.3550959 0.140635,0.834847 -0.214353,1.0715776 L 10.428673,11.60233 c -0.259634,0.172935 -0.5977294,0.172935 -0.8572854,0 L 1.8441844,6.4508201 C 1.4890886,6.2140895 1.3931322,5.7343384 1.6298627,5.3792425 Z"
     fill="#bababa"
     id="path9245"
     style="stroke-width:1.54544" />
</svg>
