<?xml version="1.0" encoding="UTF-8"?>
<svg id="Outlines" xmlns="http://www.w3.org/2000/svg" viewBox="0 0 24 24">
  <defs>
    <style>
      .cls-1 {
        fill: #1b1b1b;
        stroke-width: 0px;
      }
    </style>
  </defs>
  <g id="e-mail-outline">
    <path class="cls-1" d="m19.5,21H4.5c-.83,0-1.5-.67-1.5-1.5V4.5c0-.83.67-1.5,1.5-1.5h15c.83,0,1.5.67,1.5,1.5v15c0,.83-.67,1.5-1.5,1.5ZM4.5,4.5h0v15h15V4.5H4.5Z"/>
    <path class="cls-1" d="m15.5,16.53h-7c-.4,0-.79-.16-1.08-.45s-.45-.68-.45-1.08v-5c0-.41.16-.79.45-1.08.29-.29.67-.45,1.08-.45h7c.4,0,.79.16,1.08.45.29.29.45.67.45,1.08v5c0,.4-.16.79-.45,1.08s-.68.45-1.08.45Zm-7-7c-.13,0-.25.05-.34.14-.09.09-.14.21-.14.34v5c0,.13.05.25.14.34.09.09.21.14.34.14h7c.12,0,.25-.05.34-.14.09-.09.14-.21.14-.34v-5c0-.13-.05-.25-.14-.34-.09-.09-.21-.14-.33-.14h-7Z"/>
    <path class="cls-1" d="m12,13.53c-.1,0-.2-.03-.29-.09l-4.5-3c-.24-.16-.31-.49-.15-.73.16-.24.49-.31.73-.15l4.21,2.81,4.21-2.81c.24-.16.57-.1.73.15.16.24.1.57-.15.73l-4.5,3c-.09.06-.19.09-.29.09Z"/>
  </g>
</svg>