<svg width="20" height="20" viewBox="0 0 20 20" fill="none" xmlns="http://www.w3.org/2000/svg">
<path fill-rule="evenodd" clip-rule="evenodd" d="M2.52467 5.30441L10 10.288L17.4753 5.30441C17.3586 4.71897 16.842 4.27777 16.2222 4.27777H3.77778C3.15804 4.27777 2.64135 4.71897 2.52467 5.30441ZM17.5 6.48981L10.2774 11.3049C10.1094 11.4169 9.8906 11.4169 9.72265 11.3049L2.5 6.48981V14.4444C2.5 15.1501 3.07208 15.7222 3.77778 15.7222H16.2222C16.9279 15.7222 17.5 15.1501 17.5 14.4444V6.48981ZM1.5 5.55555C1.5 4.29757 2.5198 3.27777 3.77778 3.27777H16.2222C17.4802 3.27777 18.5 4.29757 18.5 5.55555V14.4444C18.5 15.7024 17.4802 16.7222 16.2222 16.7222H3.77778C2.5198 16.7222 1.5 15.7024 1.5 14.4444V5.55555Z" fill="#BABABA"/>
</svg>
