<?xml version="1.0" encoding="UTF-8"?>
<svg id="Outlines" xmlns="http://www.w3.org/2000/svg" viewBox="0 0 24 24">
  <defs>
    <style>
      .cls-1 {
        fill: #1b1b1b;
        stroke-width: 0px;
      }
    </style>
  </defs>
  <g id="edit">
    <path class="cls-1" d="m8,20.75h-4c-.41,0-.75-.34-.75-.75v-4c0-.2.08-.39.22-.53L13.97,4.97c1.39-1.39,3.66-1.4,5.06,0,1.4,1.4,1.39,3.67,0,5.06l-10.5,10.5c-.14.14-.33.22-.53.22Zm-3.25-1.5h2.94l10.28-10.28c.81-.81.81-2.13,0-2.94-.81-.81-2.13-.81-2.94,0l-10.28,10.28v2.94Z"/>
    <path class="cls-1" d="m17.5,11.25c-.19,0-.38-.07-.53-.22l-4-4c-.29-.29-.29-.77,0-1.06s.77-.29,1.06,0l4,4c.29.29.29.77,0,1.06-.15.15-.34.22-.53.22Z"/>
  </g>
</svg>