<svg width="20" height="20" viewBox="0 0 20 20" fill="none" xmlns="http://www.w3.org/2000/svg">
<path fill-rule="evenodd" clip-rule="evenodd" d="M17 1.25H3C2.03 1.25 1.25 2.03 1.25 3V17C1.25 17.97 2.03 18.75 3 18.75H17C17.97 18.75 18.75 17.97 18.75 17V3C18.75 2.03 17.97 1.25 17 1.25ZM2.75 3C2.75 2.86 2.86 2.75 3 2.75H6.58V6.58H2.75V3ZM17.25 17C17.25 17.14 17.14 17.25 17 17.25H3C2.86 17.25 2.75 17.14 2.75 17V8.08H17.25V17ZM17.25 6.58H8.08V2.75H17C17.14 2.75 17.25 2.86 17.25 3V6.58Z" fill="#BABABA"/>
</svg>
