<svg width="20" height="20" viewBox="0 0 20 20" fill="none" xmlns="http://www.w3.org/2000/svg">
<path fill-rule="evenodd" clip-rule="evenodd" d="M10 2.5C5.85786 2.5 2.5 5.85786 2.5 10C2.5 14.1421 5.85786 17.5 10 17.5C14.1421 17.5 17.5 14.1421 17.5 10C17.5 5.85786 14.1421 2.5 10 2.5ZM1.5 10C1.5 5.30558 5.30558 1.5 10 1.5C14.6944 1.5 18.5 5.30558 18.5 10C18.5 14.6944 14.6944 18.5 10 18.5C5.30558 18.5 1.5 14.6944 1.5 10Z" fill="#BABABA"/>
<path fill-rule="evenodd" clip-rule="evenodd" d="M6.75 6.75V13.25H13.25V6.75H6.75ZM5.75 6.71875C5.75 6.18372 6.18372 5.75 6.71875 5.75H13.2812C13.8163 5.75 14.25 6.18372 14.25 6.71875V13.2812C14.25 13.8163 13.8163 14.25 13.2812 14.25H6.71875C6.18372 14.25 5.75 13.8163 5.75 13.2812V6.71875Z" fill="#BABABA"/>
<path fill-rule="evenodd" clip-rule="evenodd" d="M5.75 8.75C5.75 8.47386 5.97386 8.25 6.25 8.25H13.75C14.0261 8.25 14.25 8.47386 14.25 8.75C14.25 9.02614 14.0261 9.25 13.75 9.25H6.25C5.97386 9.25 5.75 9.02614 5.75 8.75Z" fill="#BABABA"/>
<path fill-rule="evenodd" clip-rule="evenodd" d="M8.75 5.75C9.02614 5.75 9.25 5.97386 9.25 6.25V8.75C9.25 9.02614 9.02614 9.25 8.75 9.25C8.47386 9.25 8.25 9.02614 8.25 8.75V6.25C8.25 5.97386 8.47386 5.75 8.75 5.75Z" fill="#BABABA"/>
</svg>
