<?xml version="1.0" encoding="UTF-8"?>
<svg id="Outlines" xmlns="http://www.w3.org/2000/svg" viewBox="0 0 24 24">
  <defs>
    <style>
      .cls-1 {
        fill: #1b1b1b;
        stroke-width: 0px;
      }
    </style>
  </defs>
  <g id="end-page-outline">
    <path class="cls-1" d="m12,21.97c-2.66,0-5.17-1.04-7.05-2.92-1.88-1.88-2.92-4.39-2.92-7.05s1.04-5.17,2.92-7.05,4.39-2.92,7.05-2.92,5.17,1.04,7.05,2.92,2.92,4.39,2.92,7.05-1.04,5.17-2.92,7.05c-1.88,1.88-4.39,2.92-7.05,2.92Zm0-18c-2.14,0-4.16.83-5.67,2.35s-2.35,3.53-2.35,5.67.86,4.18,2.35,5.67c1.52,1.52,3.53,2.35,5.67,2.35s4.16-.83,5.67-2.35c1.49-1.49,2.35-3.56,2.35-5.67s-.83-4.16-2.35-5.67-3.53-2.35-5.67-2.35Z"/>
    <path class="cls-1" d="m15.5,17.25h-7c-.47,0-.91-.18-1.24-.51-.33-.33-.51-.77-.51-1.24v-7c0-.46.19-.91.51-1.24.33-.33.77-.51,1.24-.51h7c.46,0,.91.19,1.24.51s.51.78.51,1.24v7c0,.47-.18.91-.51,1.24-.33.33-.78.51-1.24.51Zm-7-9c-.07,0-.13.03-.18.07s-.07.11-.07.18v7c0,.07.03.13.07.18s.11.07.18.07h7c.07,0,.13-.03.18-.07s.07-.11.07-.18v-7c0-.07-.03-.13-.07-.18s-.11-.07-.18-.07h-7Z"/>
    <path class="cls-1" d="m16.5,11.75H7.5c-.41,0-.75-.34-.75-.75s.34-.75.75-.75h9c.41,0,.75.34.75.75s-.34.75-.75.75Z"/>
    <path class="cls-1" d="m10.5,11.25c-.41,0-.75-.34-.75-.75v-3c0-.41.34-.75.75-.75s.75.34.75.75v3c0,.41-.34.75-.75.75Z"/>
  </g>
</svg>