<?xml version="1.0" encoding="UTF-8"?>
<svg id="Outlines" xmlns="http://www.w3.org/2000/svg" viewBox="0 0 24 24">
  <defs>
    <style>
      .cls-1 {
        fill: #1b1b1b;
        stroke-width: 0px;
      }
    </style>
  </defs>
  <g id="process-end">
    <path class="cls-1" d="m12,21.97c-2.66,0-5.17-1.04-7.05-2.92s-2.92-4.39-2.92-7.05,1.04-5.17,2.92-7.05c1.88-1.88,4.39-2.92,7.05-2.92s5.17,1.04,7.05,2.92c1.88,1.88,2.92,4.39,2.92,7.05s-1.04,5.17-2.92,7.05-4.39,2.92-7.05,2.92Zm0-18c-2.14,0-4.16.83-5.67,2.35-1.52,1.52-2.35,3.53-2.35,5.67s.83,4.16,2.35,5.67,3.53,2.35,5.67,2.35,4.16-.83,5.67-2.35,2.35-3.53,2.35-5.67-.83-4.16-2.35-5.67c-1.52-1.52-3.53-2.35-5.67-2.35Z"/>
  </g>
</svg>