<svg width="20" height="20" viewBox="0 0 20 20" fill="none" xmlns="http://www.w3.org/2000/svg">
<path fill-rule="evenodd" clip-rule="evenodd" d="M10 2.5C5.85786 2.5 2.5 5.85786 2.5 10C2.5 14.1421 5.85786 17.5 10 17.5C14.1421 17.5 17.5 14.1421 17.5 10C17.5 5.85786 14.1421 2.5 10 2.5ZM1.5 10C1.5 5.30558 5.30558 1.5 10 1.5C14.6944 1.5 18.5 5.30558 18.5 10C18.5 14.6944 14.6944 18.5 10 18.5C5.30558 18.5 1.5 14.6944 1.5 10Z" fill="#FF796F"/>
<path fill-rule="evenodd" clip-rule="evenodd" d="M7.86871 7.86865C8.06397 7.67338 8.38056 7.67338 8.57582 7.86865L10 9.29287L11.4243 7.86865C11.6195 7.67338 11.9361 7.67338 12.1314 7.86865C12.3266 8.06391 12.3266 8.38049 12.1314 8.57575L10.7072 9.99998L12.1314 11.4242C12.3266 11.6195 12.3266 11.936 12.1314 12.1313C11.9361 12.3266 11.6195 12.3266 11.4243 12.1313L10 10.7071L8.57582 12.1313C8.38056 12.3266 8.06397 12.3266 7.86871 12.1313C7.67345 11.936 7.67345 11.6195 7.86871 11.4242L9.29294 9.99998L7.86871 8.57575C7.67345 8.38049 7.67345 8.06391 7.86871 7.86865Z" fill="#FF796F"/>
</svg>
