<svg width="20" height="20" viewBox="0 0 20 20" fill="none" xmlns="http://www.w3.org/2000/svg">
  <path fill-rule="evenodd" clip-rule="evenodd" d="M10 2.5C5.85786 2.5 2.5 5.85786 2.5 10C2.5 14.1421 5.85786 17.5 10 17.5C14.1421 17.5 17.5 14.1421 17.5 10C17.5 5.85786 14.1421 2.5 10 2.5ZM1.5 10C1.5 5.30558 5.30558 1.5 10 1.5C14.6944 1.5 18.5 5.30558 18.5 10C18.5 14.6944 14.6944 18.5 10 18.5C5.30558 18.5 1.5 14.6944 1.5 10ZM10.537 3.51191C10.7658 3.56274 10.9286 3.76565 10.9286 4V8.16667H13C13.1709 8.16667 13.3301 8.254 13.4218 8.39823C13.5136 8.54245 13.5253 8.72357 13.4529 8.87843L10.0244 16.2118C9.92512 16.4241 9.69173 16.5389 9.46296 16.4881C9.23419 16.4373 9.07143 16.2343 9.07143 16V11.8333H7C6.82905 11.8333 6.66995 11.746 6.57817 11.6018C6.48639 11.4575 6.47466 11.2764 6.54706 11.1216L9.97563 3.78824C10.0749 3.57594 10.3083 3.46107 10.537 3.51191ZM7.78571 10.8333H9.57143C9.84757 10.8333 10.0714 11.0572 10.0714 11.3333V13.75L12.2143 9.16667H10.4286C10.1524 9.16667 9.92857 8.94281 9.92857 8.66667V6.25L7.78571 10.8333Z" fill="#BABABA" />
</svg>
