<svg width="20" height="20" viewBox="0 0 20 20" fill="none" xmlns="http://www.w3.org/2000/svg">
<path fill-rule="evenodd" clip-rule="evenodd" d="M10.7341 1.26787C11.0773 1.34413 11.3214 1.64849 11.3214 2.00001V7.47224H14C14.2564 7.47224 14.4951 7.60324 14.6327 7.81958C14.7704 8.03591 14.788 8.30759 14.6794 8.53988L10.108 18.3177C9.9591 18.6361 9.60903 18.8084 9.26588 18.7322C8.92272 18.6559 8.67857 18.3515 8.67857 18V12.5278H6C5.74358 12.5278 5.50492 12.3968 5.36726 12.1804C5.22959 11.9641 5.21199 11.6924 5.32059 11.4601L9.89202 1.68237C10.0409 1.36393 10.391 1.19162 10.7341 1.26787ZM7.17857 11.0278H9.42857C9.84279 11.0278 10.1786 11.3636 10.1786 11.7778V14.625L12.8214 8.97224H10.5714C10.1572 8.97224 9.82143 8.63645 9.82143 8.22224V5.37501L7.17857 11.0278Z" fill="#BABABA"/>
</svg>
