<svg width="21" height="20" viewBox="0 0 21 20" fill="none" xmlns="http://www.w3.org/2000/svg">
<path fill-rule="evenodd" clip-rule="evenodd" d="M11.1799 1.5119C11.4087 1.56273 11.5714 1.76564 11.5714 1.99999V7.72221H14.5C14.671 7.72221 14.8301 7.80955 14.9218 7.95377C15.0136 8.098 15.0253 8.27911 14.9529 8.43398L10.3815 18.2118C10.2823 18.424 10.0489 18.5389 9.82011 18.4881C9.59134 18.4372 9.42857 18.2343 9.42857 18V12.2778H6.5C6.32905 12.2778 6.16995 12.1904 6.07817 12.0462C5.98639 11.902 5.97466 11.7209 6.04706 11.566L10.6185 1.78822C10.7177 1.57593 10.9511 1.46106 11.1799 1.5119ZM7.28572 11.2778H9.92857C10.2047 11.2778 10.4286 11.5016 10.4286 11.7778V15.75L13.7143 8.72221H11.0714C10.7953 8.72221 10.5714 8.49835 10.5714 8.22221V4.24999L7.28572 11.2778Z" fill="#BABABA"/>
</svg>
