<?xml version="1.0" encoding="UTF-8"?>
<svg id="Outlines" xmlns="http://www.w3.org/2000/svg" viewBox="0 0 24 24">
  <defs>
    <style>
      .cls-1 {
        fill: #1b1b1b;
        stroke-width: 0px;
      }
    </style>
  </defs>
  <g id="error-start">
    <path class="cls-1" d="m12,21.6c-2.56,0-4.98-1-6.79-2.81-1.81-1.81-2.81-4.22-2.81-6.79s1-4.98,2.81-6.79c1.81-1.81,4.22-2.81,6.79-2.81s4.97,1,6.79,2.81c1.81,1.81,2.81,4.22,2.81,6.79s-1,4.98-2.81,6.79c-1.81,1.81-4.22,2.81-6.79,2.81Zm0-18c-2.24,0-4.35.87-5.94,2.46-1.59,1.59-2.46,3.69-2.46,5.94s.87,4.35,2.46,5.94c1.59,1.59,3.7,2.46,5.94,2.46s4.35-.87,5.94-2.46,2.46-3.7,2.46-5.94-.87-4.35-2.46-5.94c-1.59-1.59-3.7-2.46-5.94-2.46Z"/>
    <path class="cls-1" d="m11.36,18.75c-.08,0-.15-.01-.23-.03-.31-.1-.52-.39-.52-.72v-3.92h-3.11c-.28,0-.54-.16-.67-.4-.13-.25-.11-.55.05-.78l5.14-7.33c.19-.27.53-.38.84-.28s.52.39.52.72v3.92h3.11c.28,0,.54.16.67.4.13.25.11.55-.05.78l-5.14,7.33c-.14.2-.37.32-.61.32Zm-2.41-6.17h2.41c.41,0,.75.34.75.75v2.29l2.95-4.21h-2.42c-.41,0-.75-.34-.75-.75v-2.29l-2.95,4.21Z"/>
  </g>
</svg>