<?xml version="1.0" encoding="UTF-8"?>
<svg id="Outlines" xmlns="http://www.w3.org/2000/svg" viewBox="0 0 24 24">
  <defs>
    <style>
      .cls-1 {
        fill: #1b1b1b;
        stroke-width: 0px;
      }
    </style>
  </defs>
  <g id="error-end">
    <path class="cls-1" d="m12.16,22.31c-2.67,0-5.17-1.04-7.05-2.92-1.88-1.88-2.92-4.39-2.92-7.05s1.04-5.17,2.92-7.05c1.88-1.88,4.39-2.92,7.05-2.92s5.17,1.04,7.05,2.92c1.88,1.88,2.92,4.39,2.92,7.05s-1.04,5.17-2.92,7.05c-1.88,1.88-4.39,2.92-7.05,2.92Zm0-18c-2.14,0-4.16.83-5.67,2.35-1.52,1.51-2.35,3.53-2.35,5.67s.83,4.16,2.35,5.67c1.52,1.52,3.53,2.35,5.67,2.35s4.16-.83,5.67-2.35c1.52-1.52,2.35-3.53,2.35-5.67s-.83-4.16-2.35-5.67c-1.52-1.52-3.53-2.35-5.67-2.35Z"/>
    <path class="cls-1" d="m11.51,19.09c-.08,0-.15-.01-.23-.03-.31-.1-.52-.39-.52-.72v-3.92h-3.11c-.28,0-.54-.16-.67-.4-.13-.25-.11-.55.05-.78l5.14-7.33c.19-.27.53-.38.84-.28s.52.39.52.72v3.92h3.11c.28,0,.54.16.67.4.13.25.11.55-.05.78l-5.14,7.33c-.14.2-.37.32-.61.32Zm-2.41-6.17h2.41c.41,0,.75.34.75.75v2.29l2.95-4.21h-2.42c-.41,0-.75-.34-.75-.75v-2.29l-2.95,4.21Z"/>
  </g>
</svg>