<?xml version="1.0" encoding="UTF-8"?>
<svg id="Outlines" xmlns="http://www.w3.org/2000/svg" viewBox="0 0 24 24">
  <defs>
    <style>
      .cls-1 {
        fill: #1b1b1b;
        stroke-width: 0px;
      }
    </style>
  </defs>
  <g id="error-x-mark">
    <path class="cls-1" d="m12,21.75c-1.29,0-2.54-.25-3.73-.74-1.19-.49-2.25-1.2-3.16-2.11-.91-.91-1.62-1.97-2.11-3.16-.49-1.19-.74-2.44-.74-3.73s.25-2.54.74-3.73c.49-1.19,1.2-2.25,2.11-3.16.91-.91,1.97-1.62,3.16-2.11,2.38-.98,5.08-.99,7.46,0,1.19.49,2.25,1.2,3.16,2.11.91.91,1.62,1.97,2.11,3.16.49,1.19.74,2.44.74,3.73s-.25,2.54-.74,3.73c-.49,1.19-1.2,2.25-2.11,3.16-.91.91-1.97,1.62-3.16,2.11-1.19.49-2.44.74-3.73.74Zm0-18c-1.09,0-2.15.21-3.16.63-1.01.42-1.91,1.02-2.68,1.79-.77.77-1.37,1.67-1.79,2.68-.42,1.01-.63,2.07-.63,3.16s.21,2.15.63,3.16c.42,1.01,1.02,1.91,1.79,2.68.77.77,1.67,1.37,2.68,1.79,2.01.83,4.3.83,6.31,0,1.01-.42,1.91-1.02,2.68-1.79.77-.77,1.37-1.67,1.79-2.68.42-1.01.63-2.07.63-3.16s-.21-2.15-.63-3.16c-.42-1.01-1.02-1.91-1.79-2.68-.77-.77-1.67-1.37-2.68-1.79-1.01-.42-2.07-.63-3.16-.63Z"/>
    <path class="cls-1" d="m14,14.75c-.19,0-.38-.07-.53-.22l-1.47-1.47-1.47,1.47c-.29.29-.77.29-1.06,0s-.29-.77,0-1.06l1.47-1.47-1.47-1.47c-.29-.29-.29-.77,0-1.06s.77-.29,1.06,0l1.47,1.47,1.47-1.47c.29-.29.77-.29,1.06,0s.29.77,0,1.06l-1.47,1.47,1.47,1.47c.29.29.29.77,0,1.06-.15.15-.34.22-.53.22Z"/>
  </g>
</svg>