<svg width="20" height="20" viewBox="0 0 20 20" fill="none" xmlns="http://www.w3.org/2000/svg">
<path d="M13.56 5.5H6.44C5.92 5.5 5.5 5.92 5.5 6.44V10.88C5.5 11.4 5.92 11.82 6.44 11.82H8.16V13.49H7.77C7.49 13.49 7.27 13.71 7.27 13.99C7.27 14.27 7.49 14.49 7.77 14.49H12.21C12.49 14.49 12.71 14.27 12.71 13.99C12.71 13.71 12.49 13.49 12.21 13.49H11.82V11.82H13.54C14.06 11.82 14.48 11.4 14.48 10.88V6.44C14.48 5.92 14.06 5.5 13.54 5.5H13.56ZM10.84 13.5H9.17V11.83H10.84V13.5ZM13.51 10.83H6.5V6.5H13.5V10.83H13.51Z" fill="#BABABA"/>
<path d="M10 1.5C5.31 1.5 1.5 5.31 1.5 10C1.5 14.69 5.31 18.5 10 18.5C14.69 18.5 18.5 14.69 18.5 10C18.5 5.31 14.69 1.5 10 1.5ZM10 17.5C5.86 17.5 2.5 14.14 2.5 10C2.5 5.86 5.86 2.5 10 2.5C14.14 2.5 17.5 5.86 17.5 10C17.5 14.14 14.14 17.5 10 17.5Z" fill="#BABABA"/>
</svg>
