<svg width="20" height="20" viewBox="0 0 20 20" fill="none" xmlns="http://www.w3.org/2000/svg">
<path fill-rule="evenodd" clip-rule="evenodd" d="M10 2.5C5.85786 2.5 2.5 5.85786 2.5 10C2.5 14.1421 5.85786 17.5 10 17.5C14.1421 17.5 17.5 14.1421 17.5 10C17.5 5.85786 14.1421 2.5 10 2.5ZM1.5 10C1.5 5.30558 5.30558 1.5 10 1.5C14.6944 1.5 18.5 5.30558 18.5 10C18.5 14.6944 14.6944 18.5 10 18.5C5.30558 18.5 1.5 14.6944 1.5 10ZM6.5 6.5V10.8333H13.5V6.5H6.5ZM11.8333 11.8333H13.5556C14.0772 11.8333 14.5 11.4105 14.5 10.8889V6.44444C14.5 5.92284 14.0772 5.5 13.5556 5.5H6.44444C5.92284 5.5 5.5 5.92284 5.5 6.44444V10.8889C5.5 11.4105 5.92284 11.8333 6.44444 11.8333H8.16667V13.5H7.77783C7.50169 13.5 7.27783 13.7239 7.27783 14C7.27783 14.2761 7.50169 14.5 7.77783 14.5H12.2223C12.4984 14.5 12.7223 14.2761 12.7223 14C12.7223 13.7239 12.4984 13.5 12.2223 13.5H11.8333V11.8333ZM10.8333 11.8333H9.16667V13.5H10.8333V11.8333Z" fill="#BABABA"/>
</svg>
