<svg width="21" height="20" viewBox="0 0 21 20" fill="none" xmlns="http://www.w3.org/2000/svg">
<path fill-rule="evenodd" clip-rule="evenodd" d="M17.61 1.5H3.39C2.62 1.5 2 2.12 2 2.89V11.78C2 12.55 2.62 13.17 3.39 13.17H7.33V17.5H6.05C5.77 17.5 5.55 17.72 5.55 18C5.55 18.28 5.77 18.5 6.05 18.5H14.94C15.22 18.5 15.44 18.28 15.44 18C15.44 17.72 15.22 17.5 14.94 17.5H13.66V13.17H17.6C18.37 13.17 18.99 12.55 18.99 11.78V2.89C18.99 2.12 18.37 1.5 17.6 1.5H17.61ZM12.67 17.5H8.33V13.17H12.66V17.5H12.67ZM18 11.78C18 11.99 17.83 12.17 17.61 12.17H3.39C3.18 12.17 3 12 3 11.78V2.89C3 2.68 3.17 2.5 3.39 2.5H17.61C17.82 2.5 18 2.67 18 2.89V11.78Z" fill="#BABABA"/>
</svg>
