<svg width="20" height="20" viewBox="0 0 20 20" fill="none" xmlns="http://www.w3.org/2000/svg">
<path fill-rule="evenodd" clip-rule="evenodd" d="M10 2.75C5.99594 2.75 2.75 5.99594 2.75 10C2.75 14.0041 5.99594 17.25 10 17.25C14.0041 17.25 17.25 14.0041 17.25 10C17.25 5.99594 14.0041 2.75 10 2.75ZM1.25 10C1.25 5.16751 5.16751 1.25 10 1.25C14.8325 1.25 18.75 5.16751 18.75 10C18.75 14.8325 14.8325 18.75 10 18.75C5.16751 18.75 1.25 14.8325 1.25 10ZM7 6.75C6.86193 6.75 6.75 6.86193 6.75 7L6.75 13C6.75 13.1381 6.86193 13.25 7 13.25L13 13.25C13.1381 13.25 13.25 13.1381 13.25 13V11.3333C13.25 10.9191 13.5858 10.5833 14 10.5833C14.4142 10.5833 14.75 10.9191 14.75 11.3333V13C14.75 13.9665 13.9665 14.75 13 14.75L7 14.75C6.0335 14.75 5.25 13.9665 5.25 13L5.25 7C5.25 6.0335 6.0335 5.25 7 5.25L8.66667 5.25C9.08088 5.25 9.41667 5.58579 9.41667 6C9.41667 6.41421 9.08088 6.75 8.66667 6.75L7 6.75ZM10.5833 6C10.5833 5.58579 10.9191 5.25 11.3333 5.25H14C14.4142 5.25 14.75 5.58579 14.75 6V8.66667C14.75 9.08088 14.4142 9.41667 14 9.41667C13.5858 9.41667 13.25 9.08088 13.25 8.66667V7.81066L9.197 11.8637C8.9041 12.1566 8.42923 12.1566 8.13634 11.8637C7.84344 11.5708 7.84344 11.0959 8.13634 10.803L12.1893 6.75H11.3333C10.9191 6.75 10.5833 6.41421 10.5833 6Z" fill="#BABABA"/>
</svg>
