<svg width="20" height="20" viewBox="0 0 20 20" fill="none" xmlns="http://www.w3.org/2000/svg">
<path fill-rule="evenodd" clip-rule="evenodd" d="M3 2.75C2.86193 2.75 2.75 2.86193 2.75 3L2.75 17C2.75 17.1381 2.86193 17.25 3 17.25L17 17.25C17.1381 17.25 17.25 17.1381 17.25 17V12.6667C17.25 12.2525 17.5858 11.9167 18 11.9167C18.4142 11.9167 18.75 12.2525 18.75 12.6667V17C18.75 17.9665 17.9665 18.75 17 18.75L3 18.75C2.0335 18.75 1.25 17.9665 1.25 17L1.25 3C1.25 2.0335 2.0335 1.25 3 1.25L7.33334 1.25C7.74755 1.25 8.08334 1.58579 8.08334 2C8.08334 2.41421 7.74755 2.75 7.33334 2.75L3 2.75ZM11.9167 2C11.9167 1.58579 12.2525 1.25 12.6667 1.25H17.9999C18.4141 1.25 18.7499 1.58577 18.7499 1.99998L18.7501 7.33331C18.7501 7.74752 18.4143 8.08332 18.0001 8.08333C17.5859 8.08335 17.2501 7.74757 17.2501 7.33336L17.25 3.81061L7.86358 13.197C7.57069 13.4899 7.09582 13.4899 6.80292 13.197C6.51003 12.9041 6.51003 12.4292 6.80292 12.1363L16.1893 2.75H12.6667C12.2525 2.75 11.9167 2.41421 11.9167 2Z" fill="#BABABA"/>
</svg>
