<svg width="20" height="20" viewBox="0 0 20 20" fill="none" xmlns="http://www.w3.org/2000/svg">
<path fill-rule="evenodd" clip-rule="evenodd" d="M10 2.5C5.85786 2.5 2.5 5.85786 2.5 10C2.5 14.1421 5.85786 17.5 10 17.5C14.1421 17.5 17.5 14.1421 17.5 10C17.5 5.85786 14.1421 2.5 10 2.5ZM1.5 10C1.5 5.30558 5.30558 1.5 10 1.5C14.6944 1.5 18.5 5.30558 18.5 10C18.5 14.6944 14.6944 18.5 10 18.5C5.30558 18.5 1.5 14.6944 1.5 10ZM7 6.5C6.72386 6.5 6.5 6.72386 6.5 7L6.5 13C6.5 13.2761 6.72386 13.5 7 13.5L13 13.5C13.2761 13.5 13.5 13.2761 13.5 13V11.3333C13.5 11.0572 13.7239 10.8333 14 10.8333C14.2761 10.8333 14.5 11.0572 14.5 11.3333V13C14.5 13.8284 13.8284 14.5 13 14.5L7 14.5C6.17157 14.5 5.5 13.8284 5.5 13L5.5 7C5.5 6.17157 6.17157 5.5 7 5.5L8.66667 5.5C8.94281 5.5 9.16667 5.72386 9.16667 6C9.16667 6.27614 8.94281 6.5 8.66667 6.5L7 6.5ZM10.8333 6C10.8333 5.72386 11.0572 5.5 11.3333 5.5H14C14.2761 5.5 14.5 5.72386 14.5 6V8.66667C14.5 8.94281 14.2761 9.16667 14 9.16667C13.7239 9.16667 13.5 8.94281 13.5 8.66667V7.20711L9.02022 11.6869C8.82496 11.8821 8.50838 11.8821 8.31311 11.6869C8.11785 11.4916 8.11785 11.175 8.31311 10.9798L12.7929 6.5H11.3333C11.0572 6.5 10.8333 6.27614 10.8333 6Z" fill="#BABABA"/>
</svg>
