<?xml version="1.0" encoding="UTF-8"?>
<svg id="Outlines" xmlns="http://www.w3.org/2000/svg" viewBox="0 0 24 24">
  <defs>
    <style>
      .cls-1 {
        fill: #1b1b1b;
        stroke-width: 0px;
      }
    </style>
  </defs>
  <g id="exit-end-outline">
    <path class="cls-1" d="m12,21.75c-2.6,0-5.05-1.01-6.89-2.86-1.84-1.84-2.86-4.29-2.86-6.89s1.01-5.05,2.86-6.89c1.84-1.84,4.29-2.86,6.89-2.86s5.05,1.01,6.89,2.86c1.84,1.84,2.86,4.29,2.86,6.89s-1.01,5.05-2.86,6.89c-1.84,1.84-4.29,2.86-6.89,2.86Zm0-18c-2.2,0-4.28.86-5.83,2.42-1.56,1.56-2.42,3.63-2.42,5.83s.86,4.28,2.42,5.83,3.63,2.42,5.83,2.42,4.28-.86,5.83-2.42,2.42-3.63,2.42-5.83-.86-4.28-2.42-5.83c-1.56-1.56-3.63-2.42-5.83-2.42Z"/>
    <path class="cls-1" d="m14.25,17.25h-5.62c-.49,0-.98-.2-1.33-.55-.35-.35-.55-.82-.55-1.33v-5.62c0-.5.2-.97.55-1.33.35-.35.82-.55,1.32-.55h3.38c.41,0,.75.34.75.75s-.34.75-.75.75h-3.38c-.1,0-.2.04-.26.11s-.11.17-.11.27v5.62c0,.1.04.19.11.26s.17.11.27.11h5.62c.1,0,.19-.04.27-.11s.11-.17.11-.26v-3.38c0-.41.34-.75.75-.75s.75.34.75.75v3.38c0,.5-.2.97-.55,1.33s-.83.55-1.33.55Z"/>
    <path class="cls-1" d="m11.44,13.31c-.19,0-.38-.07-.53-.22-.29-.29-.29-.77,0-1.06l5.06-5.06c.29-.29.77-.29,1.06,0s.29.77,0,1.06l-5.06,5.06c-.15.15-.34.22-.53.22Z"/>
    <path class="cls-1" d="m16.5,11.06c-.41,0-.75-.34-.75-.75v-2.06h-2.06c-.41,0-.75-.34-.75-.75s.34-.75.75-.75h2.81c.41,0,.75.34.75.75v2.81c0,.41-.34.75-.75.75Z"/>
  </g>
</svg>