<svg width="21" height="20" viewBox="0 0 21 20" fill="none" xmlns="http://www.w3.org/2000/svg">
<path fill-rule="evenodd" clip-rule="evenodd" d="M3.5 2.5C3.22386 2.5 3 2.72386 3 3L3 17C3 17.2761 3.22386 17.5 3.5 17.5L17.5 17.5C17.7761 17.5 18 17.2761 18 17V12.6667C18 12.3905 18.2239 12.1667 18.5 12.1667C18.7761 12.1667 19 12.3905 19 12.6667V17C19 17.8284 18.3284 18.5 17.5 18.5L3.5 18.5C2.67157 18.5 2 17.8284 2 17L2 3C2 2.17157 2.67158 1.5 3.5 1.5L7.83334 1.5C8.10948 1.5 8.33334 1.72386 8.33334 2C8.33334 2.27614 8.10948 2.5 7.83334 2.5L3.5 2.5ZM12.6667 2C12.6667 1.72386 12.8906 1.5 13.1667 1.5H18.4999C18.7761 1.5 18.9999 1.72385 18.9999 1.99999L19.0001 7.33332C19.0001 7.60946 18.7762 7.83332 18.5001 7.83333C18.224 7.83334 18.0001 7.60949 18.0001 7.33335L18 3.20707L8.18681 13.0202C7.99155 13.2155 7.67496 13.2155 7.4797 13.0202C7.28444 12.825 7.28444 12.5084 7.4797 12.3131L17.2928 2.5H13.1667C12.8906 2.5 12.6667 2.27614 12.6667 2Z" fill="#BABABA"/>
</svg>
