<?xml version="1.0" encoding="UTF-8"?>
<svg id="Outlines" xmlns="http://www.w3.org/2000/svg" viewBox="0 0 24 24">
  <defs>
    <style>
      .cls-1 {
        fill: #1b1b1b;
        stroke-width: 0px;
      }
    </style>
  </defs>
  <g id="extension">
    <path class="cls-1" d="m16,21.75h-3c-.96,0-1.75-.79-1.75-1.75v-1c0-.69-.56-1.25-1.25-1.25s-1.25.56-1.25,1.25v1c0,.96-.79,1.75-1.75,1.75h-3c-.96,0-1.75-.79-1.75-1.75v-3c0-.96.79-1.75,1.75-1.75h1c.69,0,1.25-.56,1.25-1.25s-.56-1.25-1.25-1.25h-1c-.96,0-1.75-.79-1.75-1.75v-3c0-.96.79-1.75,1.75-1.75h3c.14,0,.25-.11.25-.25v-1c0-1.52,1.23-2.75,2.75-2.75s2.75,1.23,2.75,2.75v1c0,.14.11.25.25.25h3c.96,0,1.75.79,1.75,1.75v3c0,.14.11.25.25.25h1c1.52,0,2.75,1.23,2.75,2.75s-1.23,2.75-2.75,2.75h-1c-.14,0-.25.11-.25.25v3c0,.96-.79,1.75-1.75,1.75Zm-6-5.5c1.52,0,2.75,1.23,2.75,2.75v1c0,.14.11.25.25.25h3c.14,0,.25-.11.25-.25v-3c0-.96.79-1.75,1.75-1.75h1c.69,0,1.25-.56,1.25-1.25s-.56-1.25-1.25-1.25h-1c-.96,0-1.75-.79-1.75-1.75v-3c0-.14-.11-.25-.25-.25h-3c-.96,0-1.75-.79-1.75-1.75v-1c0-.69-.56-1.25-1.25-1.25s-1.25.56-1.25,1.25v1c0,.96-.79,1.75-1.75,1.75h-3c-.14,0-.25.11-.25.25v3c0,.14.11.25.25.25h1c1.52,0,2.75,1.23,2.75,2.75s-1.23,2.75-2.75,2.75h-1c-.14,0-.25.11-.25.25v3c0,.14.11.25.25.25h3c.14,0,.25-.11.25-.25v-1c0-1.52,1.23-2.75,2.75-2.75Z"/>
  </g>
</svg>