<svg width="21" height="20" viewBox="0 0 21 20" fill="none" xmlns="http://www.w3.org/2000/svg">
<path fill-rule="evenodd" clip-rule="evenodd" d="M18.4999 10.175C18.0699 9.745 17.4899 9.505 16.8899 9.505H15.9999C15.8999 9.505 15.7999 9.465 15.7199 9.395C15.6499 9.325 15.6099 9.22501 15.6099 9.11501V6.445C15.6099 6.075 15.4599 5.725 15.1999 5.465C14.9399 5.205 14.5899 5.055 14.2199 5.055H11.5499C11.4499 5.055 11.3499 5.015 11.2799 4.945C11.2099 4.875 11.1699 4.775 11.1699 4.675V3.785C11.1699 3.185 10.9299 2.605 10.4999 2.175C10.0699 1.745 9.48992 1.505 8.88992 1.505C8.28992 1.505 7.70992 1.745 7.27992 2.175C6.84992 2.605 6.60992 3.185 6.60992 3.785V4.675C6.60992 4.775 6.56992 4.875 6.49992 4.945C6.42992 5.015 6.32992 5.055 6.21992 5.055H3.55992C3.18992 5.055 2.83992 5.205 2.57992 5.465C2.31992 5.725 2.16992 6.075 2.16992 6.445V9.11501C2.16992 9.48501 2.31992 9.83501 2.57992 10.095C2.83992 10.355 3.18992 10.505 3.55992 10.505H4.44992C4.78992 10.505 5.10992 10.635 5.34992 10.875C5.58992 11.115 5.71992 11.435 5.71992 11.775C5.71992 12.115 5.58992 12.435 5.34992 12.675C5.10992 12.915 4.78992 13.045 4.44992 13.045H3.55992C3.18992 13.045 2.83992 13.195 2.57992 13.455C2.31992 13.715 2.16992 14.065 2.16992 14.435V17.105C2.16992 17.475 2.31992 17.825 2.57992 18.085C2.83992 18.345 3.18992 18.495 3.55992 18.495H6.22992C6.59992 18.495 6.94992 18.345 7.20992 18.085C7.46992 17.825 7.61992 17.475 7.61992 17.105V16.215C7.61992 15.875 7.74992 15.555 7.98992 15.315C8.22992 15.075 8.54992 14.945 8.88992 14.945C9.22992 14.945 9.54992 15.075 9.78992 15.315C10.0299 15.555 10.1599 15.875 10.1599 16.215V17.105C10.1599 17.475 10.3099 17.825 10.5699 18.085C10.8299 18.345 11.1799 18.495 11.5499 18.495H14.2199C14.5899 18.495 14.9399 18.345 15.1999 18.085C15.4599 17.825 15.6099 17.475 15.6099 17.105V14.435C15.6099 14.335 15.6499 14.235 15.7199 14.165C15.7899 14.095 15.8899 14.055 15.9999 14.055H16.8899C17.4899 14.055 18.0699 13.815 18.4999 13.385C18.9299 12.955 19.1699 12.375 19.1699 11.775C19.1699 11.175 18.9299 10.595 18.4999 10.165V10.175ZM17.7899 12.685C17.5499 12.925 17.2299 13.055 16.8899 13.055H15.9999C15.6299 13.055 15.2799 13.205 15.0199 13.465C14.7599 13.725 14.6099 14.075 14.6099 14.445V17.115C14.6099 17.215 14.5699 17.315 14.4999 17.395C14.4299 17.465 14.3299 17.505 14.2299 17.505H11.5599C11.4599 17.505 11.3599 17.465 11.2899 17.395C11.2199 17.325 11.1799 17.225 11.1799 17.115V16.225C11.1799 15.625 10.9399 15.045 10.5099 14.615C10.0799 14.185 9.49992 13.945 8.89992 13.945C8.29992 13.945 7.71992 14.185 7.28992 14.615C6.85992 15.045 6.61992 15.625 6.61992 16.225V17.115C6.61992 17.215 6.57992 17.315 6.50992 17.395C6.43992 17.465 6.33992 17.505 6.22992 17.505H3.55992C3.45992 17.505 3.35992 17.465 3.27992 17.395C3.20992 17.325 3.16992 17.225 3.16992 17.115V14.445C3.16992 14.345 3.20992 14.245 3.27992 14.175C3.34992 14.105 3.44992 14.065 3.55992 14.065H4.44992C5.04992 14.065 5.62992 13.825 6.05992 13.395C6.48992 12.965 6.72992 12.385 6.72992 11.785C6.72992 11.185 6.48992 10.605 6.05992 10.175C5.62992 9.745 5.04992 9.505 4.44992 9.505H3.55992C3.45992 9.505 3.35992 9.465 3.27992 9.395C3.19992 9.325 3.16992 9.22501 3.16992 9.11501V6.445C3.16992 6.345 3.20992 6.245 3.27992 6.165C3.34992 6.095 3.44992 6.05501 3.55992 6.05501H6.22992C6.59992 6.05501 6.94992 5.905 7.20992 5.645C7.46992 5.385 7.61992 5.035 7.61992 4.665V3.775C7.61992 3.435 7.74992 3.115 7.98992 2.875C8.22992 2.635 8.54992 2.505 8.88992 2.505C9.22992 2.505 9.54992 2.635 9.78992 2.875C10.0299 3.115 10.1599 3.435 10.1599 3.775V4.665C10.1599 5.035 10.3099 5.385 10.5699 5.645C10.8299 5.905 11.1799 6.05501 11.5499 6.05501H14.2199C14.3199 6.05501 14.4199 6.095 14.4899 6.165C14.5599 6.235 14.5999 6.335 14.5999 6.445V9.11501C14.5999 9.48501 14.7499 9.83501 15.0099 10.095C15.2699 10.355 15.6199 10.505 15.9899 10.505H16.8799C17.2199 10.505 17.5399 10.635 17.7799 10.875C18.0199 11.115 18.1499 11.435 18.1499 11.775C18.1499 12.115 18.0199 12.435 17.7799 12.675L17.7899 12.685Z" fill="#BABABA"/>
</svg>
