<?xml version="1.0" encoding="UTF-8"?>
<svg id="Outlines" xmlns="http://www.w3.org/2000/svg" viewBox="0 0 24 24">
  <defs>
    <style>
      .cls-1 {
        fill: #1b1b1b;
        stroke-width: 0px;
      }
    </style>
  </defs>
  <g id="fit-to-screen">
    <path class="cls-1" d="m13.5,15.25h-3c-.96,0-1.75-.79-1.75-1.75v-3c0-.96.79-1.75,1.75-1.75h3c.96,0,1.75.79,1.75,1.75v3c0,.96-.79,1.75-1.75,1.75Zm-3-5c-.14,0-.25.11-.25.25v3c0,.14.11.25.25.25h3c.14,0,.25-.11.25-.25v-3c0-.14-.11-.25-.25-.25h-3Z"/>
    <path class="cls-1" d="m20,8.75c-.41,0-.75-.34-.75-.75v-3.25h-3.25c-.41,0-.75-.34-.75-.75s.34-.75.75-.75h4c.41,0,.75.34.75.75v4c0,.41-.34.75-.75.75Z"/>
    <path class="cls-1" d="m16.5,8.25c-.19,0-.38-.07-.53-.22-.29-.29-.29-.77,0-1.06l3-3c.29-.29.77-.29,1.06,0s.29.77,0,1.06l-3,3c-.15.15-.34.22-.53.22Z"/>
    <path class="cls-1" d="m8,20.75h-4c-.41,0-.75-.34-.75-.75v-4c0-.41.34-.75.75-.75s.75.34.75.75v3.25h3.25c.41,0,.75.34.75.75s-.34.75-.75.75Z"/>
    <path class="cls-1" d="m4.5,20.25c-.19,0-.38-.07-.53-.22-.29-.29-.29-.77,0-1.06l3-3c.29-.29.77-.29,1.06,0s.29.77,0,1.06l-3,3c-.15.15-.34.22-.53.22Z"/>
    <path class="cls-1" d="m20,20.75h-4c-.41,0-.75-.34-.75-.75s.34-.75.75-.75h3.25v-3.25c0-.41.34-.75.75-.75s.75.34.75.75v4c0,.41-.34.75-.75.75Z"/>
    <path class="cls-1" d="m19.5,20.25c-.19,0-.38-.07-.53-.22l-3-3c-.29-.29-.29-.77,0-1.06s.77-.29,1.06,0l3,3c.29.29.29.77,0,1.06-.15.15-.34.22-.53.22Z"/>
    <path class="cls-1" d="m4,8.75c-.41,0-.75-.34-.75-.75V4c0-.41.34-.75.75-.75h4c.41,0,.75.34.75.75s-.34.75-.75.75h-3.25v3.25c0,.41-.34.75-.75.75Z"/>
    <path class="cls-1" d="m7.5,8.25c-.19,0-.38-.07-.53-.22l-3-3c-.29-.29-.29-.77,0-1.06s.77-.29,1.06,0l3,3c.29.29.29.77,0,1.06-.15.15-.34.22-.53.22Z"/>
  </g>
</svg>