<svg width="20" height="20" viewBox="0 0 20 20" fill="none" xmlns="http://www.w3.org/2000/svg">
  <path fill-rule="evenodd" clip-rule="evenodd" d="m 2.6058137,9.8332903 c -0.092077,0.092074 -0.092077,0.2413657 0,0.3334297 l 7.2274674,7.227507 c 0.092068,0.09206 0.2414059,0.09206 0.3334739,0 L 17.39415,10.16672 c 0.09215,-0.09206 0.09215,-0.2413557 0,-0.3334297 L 10.166755,2.6058148 c -0.09205,-0.092084 -0.2413978,-0.092084 -0.3334739,0 z M 1.8727173,10.899807 c -0.4969564,-0.496915 -0.4969564,-1.3026576 0,-1.7996141 L 9.1001864,1.8727174 c 0.4969552,-0.4969565 1.3026396,-0.4969565 1.7996516,0 l 7.227396,7.2274755 c 0.497021,0.4969565 0.497021,1.3026991 0,1.7996141 l -7.227396,7.227507 c -0.497012,0.496915 -1.3026964,0.496915 -1.7996516,0 z" fill="#BABABA" />
</svg>
