<?xml version="1.0" encoding="UTF-8" standalone="no"?>
<svg
   width="20"
   height="20"
   viewBox="0 0 20 20"
   fill="none"
   version="1.1"
   id="svg59"
   sodipodi:docname="gateways-group.svg"
   inkscape:version="1.1.2 (0a00cf5339, 2022-02-04)"
   xmlns:inkscape="http://www.inkscape.org/namespaces/inkscape"
   xmlns:sodipodi="http://sodipodi.sourceforge.net/DTD/sodipodi-0.dtd"
   xmlns="http://www.w3.org/2000/svg"
   xmlns:svg="http://www.w3.org/2000/svg">
  <defs
     id="defs63" />
  <sodipodi:namedview
     id="namedview61"
     pagecolor="#ffffff"
     bordercolor="#666666"
     borderopacity="1.0"
     inkscape:pageshadow="2"
     inkscape:pageopacity="0.0"
     inkscape:pagecheckerboard="0"
     showgrid="false"
     inkscape:zoom="43.55"
     inkscape:cx="9.9885189"
     inkscape:cy="9.9885189"
     inkscape:window-width="1920"
     inkscape:window-height="1172"
     inkscape:window-x="1920"
     inkscape:window-y="0"
     inkscape:window-maximized="1"
     inkscape:current-layer="svg59" />
  <path
     fill-rule="evenodd"
     clip-rule="evenodd"
     d="m 2.6058137,9.8332903 c -0.092077,0.092074 -0.092077,0.2413657 0,0.3334297 l 7.2274674,7.227507 c 0.092068,0.09206 0.2414059,0.09206 0.3334739,0 L 17.39415,10.16672 c 0.09215,-0.09206 0.09215,-0.2413557 0,-0.3334297 L 10.166755,2.6058148 c -0.09205,-0.092084 -0.2413978,-0.092084 -0.3334739,0 z M 1.8727173,10.899807 c -0.4969564,-0.496915 -0.4969564,-1.3026576 0,-1.7996141 L 9.1001864,1.8727174 c 0.4969552,-0.4969565 1.3026396,-0.4969565 1.7996516,0 l 7.227396,7.2274755 c 0.497021,0.4969565 0.497021,1.3026991 0,1.7996141 l -7.227396,7.227507 c -0.497012,0.496915 -1.3026964,0.496915 -1.7996516,0 z"
     fill="#bababa"
     id="path57"
     style="stroke-width:1.03675" />
</svg>
