<svg width="20" height="20" viewBox="0 0 20 20" fill="none" xmlns="http://www.w3.org/2000/svg">
<path fill-rule="evenodd" clip-rule="evenodd" d="M3.02873 2.5C2.73672 2.5 2.5 2.73672 2.5 3.02873V16.9713C2.5 17.2633 2.73672 17.5 3.02873 17.5H16.9713C17.2633 17.5 17.5 17.2633 17.5 16.9713V3.02873C17.5 2.73672 17.2633 2.5 16.9713 2.5H3.02873ZM1.5 3.02873C1.5 2.18444 2.18444 1.5 3.02873 1.5H16.9713C17.8156 1.5 18.5 2.18444 18.5 3.02873V16.9713C18.5 17.8156 17.8156 18.5 16.9713 18.5H3.02873C2.18444 18.5 1.5 17.8156 1.5 16.9713V3.02873Z" fill="#BABABA"/>
<path fill-rule="evenodd" clip-rule="evenodd" d="M11.7677 11.7677C12.744 10.7914 12.744 9.20846 11.7677 8.23215C10.7914 7.25584 9.20848 7.25584 8.23217 8.23215C7.25586 9.20846 7.25586 10.7914 8.23217 11.7677C9.20848 12.744 10.7914 12.744 11.7677 11.7677ZM12.4748 7.52504C13.8416 8.89188 13.8416 11.108 12.4748 12.4748C11.108 13.8416 8.8919 13.8416 7.52506 12.4748C6.15823 11.108 6.15823 8.89188 7.52506 7.52504C8.8919 6.15821 11.108 6.15821 12.4748 7.52504Z" fill="#BABABA"/>
<path fill-rule="evenodd" clip-rule="evenodd" d="M13.8891 6.11092C14.0844 6.30618 14.0844 6.62276 13.8891 6.81802L12.4749 8.23223C12.2796 8.42749 11.963 8.42741 11.7677 8.23215C11.5724 8.03689 11.5725 7.72038 11.7678 7.52512L13.182 6.11091C13.3773 5.91565 13.6939 5.91565 13.8891 6.11092Z" fill="#BABABA"/>
<path fill-rule="evenodd" clip-rule="evenodd" d="M6.11094 6.11092C6.3062 5.91565 6.62278 5.91565 6.81804 6.11091L8.23226 7.52512C8.42752 7.72038 8.42743 8.03688 8.23217 8.23215C8.03691 8.42741 7.72042 8.4275 7.52516 8.23224L6.11094 6.81803C5.91568 6.62276 5.91568 6.30618 6.11094 6.11092Z" fill="#BABABA"/>
<path fill-rule="evenodd" clip-rule="evenodd" d="M8.23217 11.7677C8.42743 11.9629 8.42752 12.2796 8.23226 12.4749L6.81804 13.8891C6.62277 14.0843 6.30619 14.0843 6.11093 13.8891C5.91567 13.6938 5.91567 13.3772 6.11093 13.182L7.52515 11.7678C7.72042 11.5725 8.03691 11.5724 8.23217 11.7677Z" fill="#BABABA"/>
<path fill-rule="evenodd" clip-rule="evenodd" d="M11.7677 11.7677C11.963 11.5724 12.2796 11.5724 12.4748 11.7677L13.889 13.1819C14.0843 13.3772 14.0843 13.6937 13.889 13.889C13.6938 14.0843 13.3772 14.0843 13.1819 13.889L11.7677 12.4748C11.5724 12.2795 11.5724 11.9629 11.7677 11.7677Z" fill="#BABABA"/>
</svg>
