<svg width="20" height="20" viewBox="0 0 20 20" fill="none" xmlns="http://www.w3.org/2000/svg">
<path fill-rule="evenodd" clip-rule="evenodd" d="M3.98952 3.98962C4.18478 3.79435 4.50137 3.79435 4.69663 3.98962L6.62212 5.9151C8.57698 4.29477 11.4226 4.29478 13.3775 5.91512L15.3032 3.98959C15.4985 3.79434 15.8151 3.79436 16.0103 3.98964C16.2056 4.18491 16.2056 4.5015 16.0103 4.69675L14.0846 6.62223C15.7049 8.57708 15.7048 11.4227 14.0845 13.3775L16.0102 15.3032C16.2054 15.4984 16.2054 15.815 16.0102 16.0103C15.8149 16.2055 15.4983 16.2055 15.3031 16.0103L13.3774 14.0846C11.4226 15.7049 8.57699 15.7049 6.62214 14.0846L4.69659 16.0104C4.50134 16.2056 4.18475 16.2057 3.98948 16.0104C3.79421 15.8152 3.79419 15.4986 3.98945 15.3033L5.91503 13.3775C4.2947 11.4227 4.29469 8.57706 5.91501 6.62221L3.98952 4.69672C3.79426 4.50146 3.79426 4.18488 3.98952 3.98962ZM13.0403 6.9593C11.3611 5.28005 8.63847 5.28005 6.95922 6.9593C5.27996 8.63855 5.27996 11.3612 6.95922 13.0404C8.63847 14.7197 11.3611 14.7197 13.0403 13.0404C14.7196 11.3612 14.7196 8.63855 13.0403 6.9593Z" fill="#BABABA"/>
</svg>
