<svg width="20" height="20" viewBox="0 0 20 20" fill="none" xmlns="http://www.w3.org/2000/svg">
<path fill-rule="evenodd" clip-rule="evenodd" d="M3.77778 3.5C3.43889 3.5 3.11388 3.63462 2.87425 3.87425C2.63462 4.11388 2.5 4.43889 2.5 4.77778V14.5556C2.5 14.8944 2.63462 15.2195 2.87425 15.4591C3.11388 15.6987 3.43889 15.8333 3.77778 15.8333H9.33333C9.60948 15.8333 9.83333 16.0572 9.83333 16.3333C9.83333 16.6095 9.60948 16.8333 9.33333 16.8333H3.77778C3.17367 16.8333 2.59431 16.5934 2.16715 16.1662L2.5207 15.8126L2.16715 16.1662C1.73998 15.739 1.5 15.1597 1.5 14.5556V4.77778C1.5 4.17367 1.73998 3.59431 2.16715 3.16715C2.59431 2.73998 3.17367 2.5 3.77778 2.5H7.33333C7.46594 2.5 7.59312 2.55268 7.68689 2.64645L10.2071 5.16667H16.2222C16.8263 5.16667 17.4057 5.40665 17.8329 5.83381C18.26 6.26098 18.5 6.84034 18.5 7.44444V11C18.5 11.2761 18.2761 11.5 18 11.5C17.7239 11.5 17.5 11.2761 17.5 11V7.44444C17.5 7.10556 17.3654 6.78055 17.1257 6.54092L17.4793 6.18737L17.1257 6.54092C16.8861 6.30129 16.5611 6.16667 16.2222 6.16667H10C9.86739 6.16667 9.74021 6.11399 9.64645 6.02022L7.12623 3.5H3.77778ZM14.3536 10.6464C14.5488 10.8417 14.5488 11.1583 14.3536 11.3536L12.5404 13.1667H18C18.2761 13.1667 18.5 13.3905 18.5 13.6667C18.5 13.9428 18.2761 14.1667 18 14.1667H12.5404L14.3536 15.9798C14.5488 16.175 14.5488 16.4916 14.3536 16.6869C14.1583 16.8821 13.8417 16.8821 13.6464 16.6869L10.9798 14.0202C10.886 13.9265 10.8333 13.7993 10.8333 13.6667C10.8333 13.5341 10.886 13.4069 10.9798 13.3131L13.6464 10.6464C13.8417 10.4512 14.1583 10.4512 14.3536 10.6464Z" fill="#BABABA"/>
</svg>
