<?xml version="1.0" encoding="UTF-8"?>
<svg id="Outlines" xmlns="http://www.w3.org/2000/svg" viewBox="0 0 24 24">
  <defs>
    <style>
      .cls-1 {
        fill: #1b1b1b;
        stroke-width: 0px;
      }
    </style>
  </defs>
  <g id="go-to-source">
    <path class="cls-1" d="m12,19.75h-7c-.74,0-1.43-.29-1.95-.81-.52-.52-.8-1.21-.8-1.94V6c0-.74.29-1.43.8-1.94.52-.52,1.21-.81,1.95-.81h4c.2,0,.39.08.53.22l2.78,2.78h6.69c.73,0,1.42.29,1.94.81.52.52.81,1.21.81,1.94v3.5c0,.41-.34.75-.75.75s-.75-.34-.75-.75v-3.5c0-.33-.13-.65-.37-.88-.24-.24-.55-.37-.88-.37h-7c-.2,0-.39-.08-.53-.22l-2.78-2.78h-3.69c-.33,0-.65.13-.88.37-.24.24-.37.55-.37.88v11c0,.33.13.65.37.88.24.24.55.37.88.37h7c.41,0,.75.34.75.75s-.34.75-.75.75Z"/>
    <path class="cls-1" d="m21,18.75h-6c-.41,0-.75-.34-.75-.75s.34-.75.75-.75h6c.41,0,.75.34.75.75s-.34.75-.75.75Z"/>
    <path class="cls-1" d="m18,21.75c-.19,0-.38-.07-.53-.22l-3-3c-.29-.29-.29-.77,0-1.06l3-3c.29-.29.77-.29,1.06,0s.29.77,0,1.06l-2.47,2.47,2.47,2.47c.29.29.29.77,0,1.06-.15.15-.34.22-.53.22Z"/>
  </g>
</svg>