<svg width="20" height="20" viewBox="0 0 20 20" fill="none" xmlns="http://www.w3.org/2000/svg">
  <path fill-rule="evenodd" clip-rule="evenodd" d="M 3,4.5 C 3.82842,4.5 4.5,3.82842 4.5,3 4.5,2.17158 3.82842,1.5 3,1.5 2.17158,1.5 1.5,2.17158 1.5,3 1.5,3.82842 2.17158,4.5 3,4.5 Z" fill="#BABABA" />
  <path fill-rule="evenodd" clip-rule="evenodd" d="M 3,11.5 C 3.82842,11.5 4.5,10.82845 4.5,10 4.5,9.17158 3.82842,8.5 3,8.5 2.17158,8.5 1.5,9.17158 1.5,10 c 0,0.82845 0.67158,1.5 1.5,1.5 z" fill="#BABABA" />
  <path fill-rule="evenodd" clip-rule="evenodd" d="m 3,18.5 c 0.82842,0 1.5,-0.67155 1.5,-1.5 0,-0.82845 -0.67158,-1.5 -1.5,-1.5 -0.82842,0 -1.5,0.67155 -1.5,1.5 0,0.82845 0.67158,1.5 1.5,1.5 z" fill="#BABABA" />
  <path fill-rule="evenodd" clip-rule="evenodd" d="M 10,4.5 C 10.82845,4.5 11.5,3.82842 11.5,3 11.5,2.17158 10.82845,1.5 10,1.5 9.17158,1.5 8.5,2.17158 8.5,3 8.5,3.82842 9.17158,4.5 10,4.5 Z" fill="#BABABA" />
  <path fill-rule="evenodd" clip-rule="evenodd" d="M 9.9999992,11.5 C 10.82845,11.5 11.5,10.82842 11.5,10 11.5,9.17158 10.82845,8.5 9.9999992,8.5 9.17155,8.5 8.5,9.17158 8.5,10 c 0,0.82842 0.67155,1.5 1.4999992,1.5 z" fill="#BABABA" />
  <path fill-rule="evenodd" clip-rule="evenodd" d="m 10,18.5 c 0.82845,0 1.5,-0.67155 1.5,-1.5 0,-0.82845 -0.67155,-1.5 -1.5,-1.5 -0.82842,0 -1.5,0.67155 -1.5,1.5 0,0.82845 0.67158,1.5 1.5,1.5 z" fill="#BABABA" />
  <path fill-rule="evenodd" clip-rule="evenodd" d="m 17,4.5 c 0.82845,0 1.5,-0.67158 1.5,-1.5 0,-0.82842 -0.67155,-1.5 -1.5,-1.5 -0.82845,0 -1.5,0.67158 -1.5,1.5 0,0.82842 0.67155,1.5 1.5,1.5 z" fill="#BABABA" />
  <path fill-rule="evenodd" clip-rule="evenodd" d="m 17,11.5 c 0.82845,0 1.5,-0.67155 1.5,-1.5 0,-0.82842 -0.67155,-1.5 -1.5,-1.5 -0.82845,0 -1.5,0.67158 -1.5,1.5 0,0.82845 0.67155,1.5 1.5,1.5 z" fill="#BABABA" />
  <path fill-rule="evenodd" clip-rule="evenodd" d="m 17,18.5 c 0.82845,0 1.5,-0.67155 1.5,-1.5 0,-0.82845 -0.67155,-1.5 -1.5,-1.5 -0.82845,0 -1.5,0.67155 -1.5,1.5 0,0.82845 0.67155,1.5 1.5,1.5 z" fill="#BABABA" />
</svg>
