<svg width="20" height="20" viewBox="0 0 20 20" fill="none" xmlns="http://www.w3.org/2000/svg">
<path d="M3 4C3.55228 4 4 3.55228 4 3C4 2.44772 3.55228 2 3 2C2.44772 2 2 2.44772 2 3C2 3.55228 2.44772 4 3 4Z" fill="#BABABA"/>
<path fill-rule="evenodd" clip-rule="evenodd" d="M3 2.5C2.72386 2.5 2.5 2.72386 2.5 3C2.5 3.27614 2.72386 3.5 3 3.5C3.27614 3.5 3.5 3.27614 3.5 3C3.5 2.72386 3.27614 2.5 3 2.5ZM1.5 3C1.5 2.17157 2.17157 1.5 3 1.5C3.82843 1.5 4.5 2.17157 4.5 3C4.5 3.82843 3.82843 4.5 3 4.5C2.17157 4.5 1.5 3.82843 1.5 3Z" fill="#BABABA"/>
<path d="M10 4C10.5523 4 11 3.55228 11 3C11 2.44772 10.5523 2 10 2C9.44772 2 9 2.44772 9 3C9 3.55228 9.44772 4 10 4Z" fill="#BABABA"/>
<path fill-rule="evenodd" clip-rule="evenodd" d="M10 2.5C9.72386 2.5 9.5 2.72386 9.5 3C9.5 3.27614 9.72386 3.5 10 3.5C10.2761 3.5 10.5 3.27614 10.5 3C10.5 2.72386 10.2761 2.5 10 2.5ZM8.5 3C8.5 2.17157 9.17157 1.5 10 1.5C10.8284 1.5 11.5 2.17157 11.5 3C11.5 3.82843 10.8284 4.5 10 4.5C9.17157 4.5 8.5 3.82843 8.5 3Z" fill="#BABABA"/>
<path d="M17 4C17.5523 4 18 3.55228 18 3C18 2.44772 17.5523 2 17 2C16.4477 2 16 2.44772 16 3C16 3.55228 16.4477 4 17 4Z" fill="#BABABA"/>
<path fill-rule="evenodd" clip-rule="evenodd" d="M17 2.5C16.7239 2.5 16.5 2.72386 16.5 3C16.5 3.27614 16.7239 3.5 17 3.5C17.2761 3.5 17.5 3.27614 17.5 3C17.5 2.72386 17.2761 2.5 17 2.5ZM15.5 3C15.5 2.17157 16.1716 1.5 17 1.5C17.8284 1.5 18.5 2.17157 18.5 3C18.5 3.82843 17.8284 4.5 17 4.5C16.1716 4.5 15.5 3.82843 15.5 3Z" fill="#BABABA"/>
<path d="M3 11C3.55228 11 4 10.5523 4 10C4 9.44772 3.55228 9 3 9C2.44772 9 2 9.44772 2 10C2 10.5523 2.44772 11 3 11Z" fill="#BABABA"/>
<path fill-rule="evenodd" clip-rule="evenodd" d="M3 9.5C2.72386 9.5 2.5 9.72386 2.5 10C2.5 10.2761 2.72386 10.5 3 10.5C3.27614 10.5 3.5 10.2761 3.5 10C3.5 9.72386 3.27614 9.5 3 9.5ZM1.5 10C1.5 9.17157 2.17157 8.5 3 8.5C3.82843 8.5 4.5 9.17157 4.5 10C4.5 10.8284 3.82843 11.5 3 11.5C2.17157 11.5 1.5 10.8284 1.5 10Z" fill="#BABABA"/>
<path d="M10 11C10.5523 11 11 10.5523 11 10C11 9.44772 10.5523 9 10 9C9.44772 9 9 9.44772 9 10C9 10.5523 9.44772 11 10 11Z" fill="#BABABA"/>
<path fill-rule="evenodd" clip-rule="evenodd" d="M10 9.5C9.72386 9.5 9.5 9.72386 9.5 10C9.5 10.2761 9.72386 10.5 10 10.5C10.2761 10.5 10.5 10.2761 10.5 10C10.5 9.72386 10.2761 9.5 10 9.5ZM8.5 10C8.5 9.17157 9.17157 8.5 10 8.5C10.8284 8.5 11.5 9.17157 11.5 10C11.5 10.8284 10.8284 11.5 10 11.5C9.17157 11.5 8.5 10.8284 8.5 10Z" fill="#BABABA"/>
<path d="M17 11C17.5523 11 18 10.5523 18 10C18 9.44772 17.5523 9 17 9C16.4477 9 16 9.44772 16 10C16 10.5523 16.4477 11 17 11Z" fill="#BABABA"/>
<path fill-rule="evenodd" clip-rule="evenodd" d="M17 9.5C16.7239 9.5 16.5 9.72386 16.5 10C16.5 10.2761 16.7239 10.5 17 10.5C17.2761 10.5 17.5 10.2761 17.5 10C17.5 9.72386 17.2761 9.5 17 9.5ZM15.5 10C15.5 9.17157 16.1716 8.5 17 8.5C17.8284 8.5 18.5 9.17157 18.5 10C18.5 10.8284 17.8284 11.5 17 11.5C16.1716 11.5 15.5 10.8284 15.5 10Z" fill="#BABABA"/>
<path d="M3 18C3.55228 18 4 17.5523 4 17C4 16.4477 3.55228 16 3 16C2.44772 16 2 16.4477 2 17C2 17.5523 2.44772 18 3 18Z" fill="#BABABA"/>
<path fill-rule="evenodd" clip-rule="evenodd" d="M3 16.5C2.72386 16.5 2.5 16.7239 2.5 17C2.5 17.2761 2.72386 17.5 3 17.5C3.27614 17.5 3.5 17.2761 3.5 17C3.5 16.7239 3.27614 16.5 3 16.5ZM1.5 17C1.5 16.1716 2.17157 15.5 3 15.5C3.82843 15.5 4.5 16.1716 4.5 17C4.5 17.8284 3.82843 18.5 3 18.5C2.17157 18.5 1.5 17.8284 1.5 17Z" fill="#BABABA"/>
<path d="M10 18C10.5523 18 11 17.5523 11 17C11 16.4477 10.5523 16 10 16C9.44772 16 9 16.4477 9 17C9 17.5523 9.44772 18 10 18Z" fill="#BABABA"/>
<path fill-rule="evenodd" clip-rule="evenodd" d="M10 16.5C9.72386 16.5 9.5 16.7239 9.5 17C9.5 17.2761 9.72386 17.5 10 17.5C10.2761 17.5 10.5 17.2761 10.5 17C10.5 16.7239 10.2761 16.5 10 16.5ZM8.5 17C8.5 16.1716 9.17157 15.5 10 15.5C10.8284 15.5 11.5 16.1716 11.5 17C11.5 17.8284 10.8284 18.5 10 18.5C9.17157 18.5 8.5 17.8284 8.5 17Z" fill="#BABABA"/>
<path d="M17 18C17.5523 18 18 17.5523 18 17C18 16.4477 17.5523 16 17 16C16.4477 16 16 16.4477 16 17C16 17.5523 16.4477 18 17 18Z" fill="#BABABA"/>
<path fill-rule="evenodd" clip-rule="evenodd" d="M17 16.5C16.7239 16.5 16.5 16.7239 16.5 17C16.5 17.2761 16.7239 17.5 17 17.5C17.2761 17.5 17.5 17.2761 17.5 17C17.5 16.7239 17.2761 16.5 17 16.5ZM15.5 17C15.5 16.1716 16.1716 15.5 17 15.5C17.8284 15.5 18.5 16.1716 18.5 17C18.5 17.8284 17.8284 18.5 17 18.5C16.1716 18.5 15.5 17.8284 15.5 17Z" fill="#BABABA"/>
</svg>
