<svg width="20" height="20" viewBox="0 0 20 20" fill="none" xmlns="http://www.w3.org/2000/svg">
<path d="M3 4.5C3.82843 4.5 4.5 3.82843 4.5 3C4.5 2.17157 3.82843 1.5 3 1.5C2.17157 1.5 1.5 2.17157 1.5 3C1.5 3.82843 2.17157 4.5 3 4.5Z" fill="#BABABA"/>
<path d="M10 4.5C10.8284 4.5 11.5 3.82843 11.5 3C11.5 2.17157 10.8284 1.5 10 1.5C9.17157 1.5 8.5 2.17157 8.5 3C8.5 3.82843 9.17157 4.5 10 4.5Z" fill="#BABABA"/>
<path d="M17 4.5C17.8284 4.5 18.5 3.82843 18.5 3C18.5 2.17157 17.8284 1.5 17 1.5C16.1716 1.5 15.5 2.17157 15.5 3C15.5 3.82843 16.1716 4.5 17 4.5Z" fill="#BABABA"/>
<path d="M3 11.5C3.82843 11.5 4.5 10.8284 4.5 10C4.5 9.17157 3.82843 8.5 3 8.5C2.17157 8.5 1.5 9.17157 1.5 10C1.5 10.8284 2.17157 11.5 3 11.5Z" fill="#BABABA"/>
<path d="M10 11.5C10.8284 11.5 11.5 10.8284 11.5 10C11.5 9.17157 10.8284 8.5 10 8.5C9.17157 8.5 8.5 9.17157 8.5 10C8.5 10.8284 9.17157 11.5 10 11.5Z" fill="#BABABA"/>
<path d="M17 11.5C17.8284 11.5 18.5 10.8284 18.5 10C18.5 9.17157 17.8284 8.5 17 8.5C16.1716 8.5 15.5 9.17157 15.5 10C15.5 10.8284 16.1716 11.5 17 11.5Z" fill="#BABABA"/>
<path d="M3 18.5C3.82843 18.5 4.5 17.8284 4.5 17C4.5 16.1716 3.82843 15.5 3 15.5C2.17157 15.5 1.5 16.1716 1.5 17C1.5 17.8284 2.17157 18.5 3 18.5Z" fill="#BABABA"/>
<path d="M10 18.5C10.8284 18.5 11.5 17.8284 11.5 17C11.5 16.1716 10.8284 15.5 10 15.5C9.17157 15.5 8.5 16.1716 8.5 17C8.5 17.8284 9.17157 18.5 10 18.5Z" fill="#BABABA"/>
<path d="M17 18.5C17.8284 18.5 18.5 17.8284 18.5 17C18.5 16.1716 17.8284 15.5 17 15.5C16.1716 15.5 15.5 16.1716 15.5 17C15.5 17.8284 16.1716 18.5 17 18.5Z" fill="#BABABA"/>
</svg>
