<?xml version="1.0" encoding="UTF-8"?>
<svg id="Outlines" xmlns="http://www.w3.org/2000/svg" viewBox="0 0 24 24">
  <defs>
    <style>
      .cls-1 {
        fill: #1b1b1b;
        stroke-width: 0px;
      }
    </style>
  </defs>
  <g id="helplines">
    <path class="cls-1" d="m20,7.75H4c-.41,0-.75-.34-.75-.75s.34-.75.75-.75h16c.41,0,.75.34.75.75s-.34.75-.75.75Z"/>
    <path class="cls-1" d="m20,17.75H4c-.41,0-.75-.34-.75-.75s.34-.75.75-.75h16c.41,0,.75.34.75.75s-.34.75-.75.75Z"/>
    <path class="cls-1" d="m7,20.75c-.41,0-.75-.34-.75-.75V4c0-.41.34-.75.75-.75s.75.34.75.75v16c0,.41-.34.75-.75.75Z"/>
    <path class="cls-1" d="m17,20.75c-.41,0-.75-.34-.75-.75V4c0-.41.34-.75.75-.75s.75.34.75.75v16c0,.41-.34.75-.75.75Z"/>
  </g>
</svg>