<svg width="20" height="20" viewBox="0 0 20 20" fill="none" xmlns="http://www.w3.org/2000/svg">
<path fill-rule="evenodd" clip-rule="evenodd" d="M1.5 5C1.5 4.72386 1.72386 4.5 2 4.5H18C18.2761 4.5 18.5 4.72386 18.5 5C18.5 5.27614 18.2761 5.5 18 5.5H2C1.72386 5.5 1.5 5.27614 1.5 5Z" fill="#BABABA"/>
<path fill-rule="evenodd" clip-rule="evenodd" d="M1.5 15C1.5 14.7239 1.72386 14.5 2 14.5H18C18.2761 14.5 18.5 14.7239 18.5 15C18.5 15.2761 18.2761 15.5 18 15.5H2C1.72386 15.5 1.5 15.2761 1.5 15Z" fill="#BABABA"/>
<path fill-rule="evenodd" clip-rule="evenodd" d="M5 1.5C5.27614 1.5 5.5 1.72386 5.5 2V18C5.5 18.2761 5.27614 18.5 5 18.5C4.72386 18.5 4.5 18.2761 4.5 18V2C4.5 1.72386 4.72386 1.5 5 1.5Z" fill="#BABABA"/>
<path fill-rule="evenodd" clip-rule="evenodd" d="M15 1.5C15.2761 1.5 15.5 1.72386 15.5 2V18C15.5 18.2761 15.2761 18.5 15 18.5C14.7239 18.5 14.5 18.2761 14.5 18V2C14.5 1.72386 14.7239 1.5 15 1.5Z" fill="#BABABA"/>
</svg>
