<?xml version="1.0" encoding="UTF-8"?>
<svg id="Outlines" xmlns="http://www.w3.org/2000/svg" viewBox="0 0 24 24">
  <defs>
    <style>
      .cls-1 {
        fill: #1b1b1b;
        stroke-width: 0px;
      }
    </style>
  </defs>
  <g id="info-circle">
    <path class="cls-1" d="m12,21.75c-5.38,0-9.75-4.37-9.75-9.75S6.62,2.25,12,2.25s9.75,4.37,9.75,9.75-4.37,9.75-9.75,9.75Zm0-18C7.45,3.75,3.75,7.45,3.75,12s3.7,8.25,8.25,8.25,8.25-3.7,8.25-8.25S16.55,3.75,12,3.75Z"/>
    <path class="cls-1" d="m12.01,9.75c-.41,0-.75-.34-.75-.75s.33-.75.75-.75h0c.41,0,.75.34.75.75s-.34.75-.75.75Z"/>
    <path class="cls-1" d="m13,16.75h-1c-.41,0-.75-.34-.75-.75v-3.25h-.25c-.41,0-.75-.34-.75-.75s.34-.75.75-.75h1c.41,0,.75.34.75.75v3.25h.25c.41,0,.75.34.75.75s-.34.75-.75.75Z"/>
  </g>
</svg>