<?xml version="1.0" encoding="UTF-8"?>
<svg id="Outlines" xmlns="http://www.w3.org/2000/svg" viewBox="0 0 24 24">
  <defs>
    <style>
      .cls-1 {
        fill: #1b1b1b;
        stroke-width: 0px;
      }
    </style>
  </defs>
  <g id="init-start-outline">
    <path class="cls-1" d="m12,21.6c-2.56,0-4.97-1-6.79-2.81-1.81-1.81-2.81-4.22-2.81-6.79s1-4.98,2.81-6.79c1.81-1.81,4.22-2.81,6.79-2.81s4.97,1,6.79,2.81c1.81,1.81,2.81,4.22,2.81,6.79s-1,4.97-2.81,6.79c-1.81,1.81-4.22,2.81-6.79,2.81Zm0-18c-2.24,0-4.35.87-5.94,2.46-1.59,1.59-2.46,3.7-2.46,5.94s.87,4.35,2.46,5.94c1.59,1.59,3.7,2.46,5.94,2.46s4.35-.87,5.94-2.46c1.59-1.59,2.46-3.7,2.46-5.94s-.87-4.35-2.46-5.94c-1.59-1.59-3.7-2.46-5.94-2.46Z"/>
    <path class="cls-1" d="m16.87,12.43H7.5c-.41,0-.75-.34-.75-.75s.34-.75.75-.75h9.38c.41,0,.75.34.75.75s-.34.75-.75.75Z"/>
    <path class="cls-1" d="m14.2,15.11c-.19,0-.38-.07-.53-.22-.29-.29-.29-.77,0-1.06l2.68-2.68c.29-.29.77-.29,1.06,0s.29.77,0,1.06l-2.68,2.68c-.15.15-.34.22-.53.22Z"/>
    <path class="cls-1" d="m16.87,12.43c-.19,0-.38-.07-.53-.22l-2.68-2.68c-.29-.29-.29-.77,0-1.06s.77-.29,1.06,0l2.68,2.68c.29.29.29.77,0,1.06-.15.15-.34.22-.53.22Z"/>
  </g>
</svg>