<svg width="20" height="20" viewBox="0 0 20 20" fill="none" xmlns="http://www.w3.org/2000/svg">
<path fill-rule="evenodd" clip-rule="evenodd" d="M10 2.5C5.85786 2.5 2.5 5.85786 2.5 10C2.5 14.1421 5.85786 17.5 10 17.5C14.1421 17.5 17.5 14.1421 17.5 10C17.5 5.85786 14.1421 2.5 10 2.5ZM1.5 10C1.5 5.30558 5.30558 1.5 10 1.5C14.6944 1.5 18.5 5.30558 18.5 10C18.5 14.6944 14.6944 18.5 10 18.5C5.30558 18.5 1.5 14.6944 1.5 10ZM10.9798 6.97978C11.175 6.78452 11.4916 6.78452 11.6869 6.97978L14.3536 9.64645C14.5488 9.84171 14.5488 10.1583 14.3536 10.3536L11.6869 13.0202C11.4916 13.2155 11.175 13.2155 10.9798 13.0202C10.7845 12.825 10.7845 12.5084 10.9798 12.3131L12.7929 10.5H6C5.72386 10.5 5.5 10.2761 5.5 10C5.5 9.72386 5.72386 9.5 6 9.5L12.7929 9.5L10.9798 7.68689C10.7845 7.49162 10.7845 7.17504 10.9798 6.97978Z" fill="#BABABA"/>
</svg>
