<svg width="20" height="20" viewBox="0 0 20 20" fill="none" xmlns="http://www.w3.org/2000/svg">
<path fill-rule="evenodd" clip-rule="evenodd" d="M12.3132 4.31313C12.5085 4.11787 12.825 4.11787 13.0203 4.31313L18.3536 9.64647C18.4474 9.74024 18.5001 9.86741 18.5001 10C18.5001 10.1326 18.4474 10.2598 18.3536 10.3536L13.0203 15.6869C12.825 15.8822 12.5085 15.8822 12.3132 15.6869C12.1179 15.4916 12.1179 15.1751 12.3132 14.9798L16.793 10.5L2 10.5C1.72386 10.5 1.5 10.2761 1.5 9.99998C1.5 9.72384 1.72386 9.49998 2 9.49998L16.793 9.50002L12.3132 5.02024C12.1179 4.82498 12.1179 4.5084 12.3132 4.31313Z" fill="#BABABA"/>
</svg>
