<?xml version="1.0" encoding="UTF-8"?>
<svg id="Outlines" xmlns="http://www.w3.org/2000/svg" viewBox="0 0 24 24">
  <defs>
    <style>
      .cls-1 {
        fill: #1b1b1b;
        stroke-width: 0px;
      }
    </style>
  </defs>
  <g id="jump-out">
    <path class="cls-1" d="m12,18.75h-6c-.41,0-.75-.34-.75-.75s.34-.75.75-.75h6c1.24,0,2.25-1.01,2.25-2.25V6.81l-2.72,2.72c-.29.29-.77.29-1.06,0s-.29-.77,0-1.06l4-4h0c.13-.13.3-.2.47-.22h0s.04,0,.06,0c.03,0,.07,0,.1,0,.14.02.28.08.39.18h0s.03.03.04.04l4,4c.29.29.29.77,0,1.06s-.77.29-1.06,0l-2.72-2.72v8.19c0,2.07-1.68,3.75-3.75,3.75Z"/>
  </g>
</svg>