<svg width="20" height="20" viewBox="0 0 20 20" fill="none" xmlns="http://www.w3.org/2000/svg">
<path fill-rule="evenodd" clip-rule="evenodd" d="M6.08689 3.64645C6.28215 3.84171 6.28215 4.15829 6.08689 4.35355L2.70711 7.73333L6.08689 11.1131C6.28215 11.3084 6.28215 11.625 6.08689 11.8202C5.89162 12.0155 5.57504 12.0155 5.37978 11.8202L1.64645 8.08689C1.45118 7.89162 1.45118 7.57504 1.64645 7.37978L5.37978 3.64645C5.57504 3.45118 5.89162 3.45118 6.08689 3.64645Z" fill="#BABABA"/>
<path fill-rule="evenodd" clip-rule="evenodd" d="M1.5 7.73333C1.5 7.45719 1.72386 7.23333 2 7.23333H16.9333C17.7986 7.23333 18.5 7.93475 18.5 8.8V15.2C18.5 15.4761 18.2761 15.7 18 15.7C17.7239 15.7 17.5 15.4761 17.5 15.2V8.8C17.5 8.48704 17.2463 8.23333 16.9333 8.23333H2C1.72386 8.23333 1.5 8.00948 1.5 7.73333Z" fill="#BABABA"/>
</svg>
