<?xml version="1.0" encoding="UTF-8"?>
<svg id="Outlines" xmlns="http://www.w3.org/2000/svg" viewBox="0 0 24 24">
  <defs>
    <style>
      .cls-1 {
        fill: #1b1b1b;
        stroke-width: 0px;
      }
    </style>
  </defs>
  <g id="sub-start">
    <path class="cls-1" d="m15,19.75s-.04,0-.06,0h0c-.17-.01-.34-.09-.47-.22h0s-4-4-4-4c-.29-.29-.29-.77,0-1.06s.77-.29,1.06,0l2.72,2.72v-8.19c0-1.24-1.01-2.25-2.25-2.25h-6c-.41,0-.75-.34-.75-.75s.34-.75.75-.75h6c2.07,0,3.75,1.68,3.75,3.75v8.19l2.72-2.72c.29-.29.77-.29,1.06,0s.29.77,0,1.06l-4,4s-.03.03-.04.04h0s0,0,0,0c-.11.1-.25.16-.39.18h0s-.07,0-.1,0Z"/>
  </g>
</svg>