<svg width="20" height="20" viewBox="0 0 20 20" fill="none" xmlns="http://www.w3.org/2000/svg">
<path fill-rule="evenodd" clip-rule="evenodd" d="M11.513 1.24645C11.7083 1.05119 12.0249 1.05119 12.2201 1.24645L15.9535 4.97979C16.1487 5.17505 16.1487 5.49163 15.9535 5.68689C15.7582 5.88216 15.4416 5.88216 15.2463 5.68689L12.3666 2.80711L12.3666 16.5333C12.3666 17.3986 11.6651 18.1 10.7999 18.1H4.3999C4.12376 18.1 3.8999 17.8761 3.8999 17.6C3.8999 17.3239 4.12376 17.1 4.3999 17.1H10.7999C11.1129 17.1 11.3666 16.8463 11.3666 16.5333L11.3666 2.80711L8.48679 5.68689C8.29153 5.88215 7.97494 5.88215 7.77968 5.68689C7.58442 5.49163 7.58442 5.17505 7.77968 4.97979L11.513 1.24645Z" fill="#BABABA"/>
</svg>
