<?xml version="1.0" encoding="UTF-8"?>
<svg id="Outlines" xmlns="http://www.w3.org/2000/svg" viewBox="0 0 24 24">
  <defs>
    <style>
      .cls-1 {
        fill: #1b1b1b;
        stroke-width: 0px;
      }
    </style>
  </defs>
  <g id="label">
    <path class="cls-1" d="m7.5,9.25c-.96,0-1.75-.79-1.75-1.75s.79-1.75,1.75-1.75,1.75.79,1.75,1.75-.79,1.75-1.75,1.75Zm0-2c-.14,0-.25.11-.25.25,0,.28.5.28.5,0,0-.14-.11-.25-.25-.25Z"/>
    <path class="cls-1" d="m13,21.75c-.81,0-1.62-.31-2.23-.92l-7.71-7.71c-.52-.52-.81-1.21-.81-1.94v-5.17c0-2.07,1.68-3.75,3.75-3.75h5.17c.73,0,1.42.29,1.94.81l7.71,7.71c1.23,1.23,1.23,3.24,0,4.47l-5.59,5.59c-.62.62-1.42.92-2.23.92ZM6,3.75c-1.24,0-2.25,1.01-2.25,2.25v5.17c0,.33.13.65.37.88l7.71,7.71c.65.65,1.7.65,2.35,0l5.59-5.59c.65-.65.65-1.7,0-2.35l-7.71-7.71c-.23-.23-.55-.37-.88-.37h-5.17Z"/>
  </g>
</svg>