<?xml version="1.0" encoding="UTF-8"?>
<svg id="Outlines" xmlns="http://www.w3.org/2000/svg" viewBox="0 0 24 24">
  <defs>
    <style>
      .cls-1 {
        fill: #1b1b1b;
        stroke-width: 0px;
      }
    </style>
  </defs>
  <g id="lane-swimlanes">
    <path class="cls-1" d="m18,20.75H6c-1.52,0-2.75-1.23-2.75-2.75V6c0-1.52,1.23-2.75,2.75-2.75h12c1.52,0,2.75,1.23,2.75,2.75v12c0,1.52-1.23,2.75-2.75,2.75ZM6,4.75c-.69,0-1.25.56-1.25,1.25v12c0,.69.56,1.25,1.25,1.25h12c.69,0,1.25-.56,1.25-1.25V6c0-.69-.56-1.25-1.25-1.25H6Z"/>
    <path class="cls-1" d="m20,12.75H4c-.41,0-.75-.34-.75-.75s.34-.75.75-.75h16c.41,0,.75.34.75.75s-.34.75-.75.75Z"/>
  </g>
</svg>