<svg width="20" height="20" viewBox="0 0 20 20" fill="none" xmlns="http://www.w3.org/2000/svg">
<path fill-rule="evenodd" clip-rule="evenodd" d="M3.02873 2.5C2.73672 2.5 2.5 2.73672 2.5 3.02873V16.9713C2.5 17.2633 2.73672 17.5 3.02873 17.5H16.9713C17.2633 17.5 17.5 17.2633 17.5 16.9713V3.02873C17.5 2.73672 17.2633 2.5 16.9713 2.5H3.02873ZM1.5 3.02873C1.5 2.18444 2.18444 1.5 3.02873 1.5H16.9713C17.8156 1.5 18.5 2.18444 18.5 3.02873V16.9713C18.5 17.8156 17.8156 18.5 16.9713 18.5H3.02873C2.18444 18.5 1.5 17.8156 1.5 16.9713V3.02873Z" fill="#BABABA"/>
<path fill-rule="evenodd" clip-rule="evenodd" d="M6.07655 5.78106C6.27279 5.70846 6.49348 5.76574 6.62965 5.9246L10 9.8567L13.3704 5.9246C13.5066 5.76574 13.7273 5.70846 13.9235 5.78106C14.1197 5.85365 14.25 6.04076 14.25 6.25V13.75C14.25 14.0261 14.0262 14.25 13.75 14.25C13.4739 14.25 13.25 14.0261 13.25 13.75V7.60163L10.3797 10.9504C10.2847 11.0612 10.146 11.125 10 11.125C9.85406 11.125 9.71539 11.0612 9.6204 10.9504L6.75003 7.60163V13.75C6.75003 14.0261 6.52617 14.25 6.25003 14.25C5.97388 14.25 5.75003 14.0261 5.75003 13.75V6.25C5.75003 6.04076 5.88031 5.85365 6.07655 5.78106Z" fill="#BABABA"/>
</svg>
