<?xml version="1.0" encoding="UTF-8"?>
<svg id="Outlines" xmlns="http://www.w3.org/2000/svg" viewBox="0 0 24 24">
  <defs>
    <style>
      .cls-1 {
        fill: #1b1b1b;
        stroke-width: 0px;
      }
    </style>
  </defs>
  <g id="sub-manual-outline">
    <path class="cls-1" d="M6.28,20.72c-.71,0-1.72-.07-2.36-.71s-.67-1.52-.67-2.31c0-.41.34-.75.75-.75s.75.34.75.75c0,.33,0,1.02.23,1.25.1.1.41.27,1.3.27.41,0,.75.34.75.75s-.34.75-.75.75Z"/>
    <path class="cls-1" d="M4,13.89c-.41,0-.75-.34-.75-.75v-2.28c0-.41.34-.75.75-.75s.75.34.75.75v2.28c0,.41-.34.75-.75.75Z"/>
    <path class="cls-1" d="M4,7.06c-.41,0-.75-.34-.75-.75,0-.59,0-1.69.67-2.36.67-.67,1.77-.67,2.36-.67.41,0,.75.34.75.75s-.34.75-.75.75c-.32,0-1.07,0-1.3.23-.23.23-.23,1-.23,1.3,0,.41-.34.75-.75.75Z"/>
    <path class="cls-1" d="M13.11,4.78h-2.28c-.41,0-.75-.34-.75-.75s.34-.75.75-.75h2.28c.41,0,.75.34.75.75s-.34.75-.75.75Z"/>
    <path class="cls-1" d="M19.94,7.06c-.41,0-.75-.34-.75-.75,0-.89-.17-1.2-.27-1.3-.23-.23-.92-.23-1.25-.23-.41,0-.75-.34-.75-.75s.34-.75.75-.75c.8,0,1.7.05,2.31.67s.71,1.65.71,2.36c0,.41-.34.75-.75.75Z"/>
    <path class="cls-1" d="M17.72,20.66c-.41,0-.75-.34-.75-.75s.34-.75.75-.75.98,0,1.2-.22c.2-.2.33-.72.33-1.31,0-.41.34-.75.75-.75s.75.34.75.75c0,.6-.1,1.7-.77,2.37s-1.62.66-2.26.66Z"/>
    <path class="cls-1" d="M19.94,13.89c-.41,0-.75-.34-.75-.75v-2.28c0-.41.34-.75.75-.75s.75.34.75.75v2.28c0,.41-.34.75-.75.75Z"/>
    <path class="cls-1" d="M13.11,20.72h-2.28c-.41,0-.75-.34-.75-.75s.34-.75.75-.75h2.28c.41,0,.75.34.75.75s-.34.75-.75.75Z"/>
    <path class="cls-1" d="M15.2,12h-3.25c-.29,0-.53-.24-.53-.53s.24-.53.53-.53h3.25c.06,0,.12-.02.16-.06.04-.04.07-.1.07-.16s-.02-.12-.07-.16c-.04-.04-.1-.07-.16-.07h-3.75c-.29,0-.53-.24-.53-.53s.24-.53.53-.53h3.75c.34,0,.66.13.9.37.24.24.37.57.37.9s-.13.66-.37.9c-.24.24-.56.37-.9.37Z"/>
    <path class="cls-1" d="M16.2,13.5h-4.25c-.29,0-.53-.24-.53-.53s.24-.53.53-.53h4.25s.16-.07.16-.07l.06-.16-.07-.16-.16-.07h-1c-.29,0-.53-.24-.53-.53s.24-.53.53-.53h1c.17,0,.33.03.49.1.16.07.29.16.41.28s.21.26.28.41c.06.15.1.32.1.49s-.03.34-.1.49c-.06.16-.16.3-.28.41-.11.11-.25.21-.41.27-.15.06-.32.1-.49.1Z"/>
    <path class="cls-1" d="M15.2,15h-3.25c-.29,0-.53-.24-.53-.53s.24-.53.53-.53h3.25c.06,0,.12-.02.16-.06.04-.04.07-.1.07-.16s-.02-.12-.07-.16c-.04-.04-.1-.07-.16-.07-.29,0-.53-.24-.53-.53s.24-.53.53-.53c.34,0,.66.13.9.37.24.24.37.57.37.9s-.13.66-.37.9c-.24.24-.56.37-.9.37Z"/>
    <path class="cls-1" d="M14.2,16.5h-4.25c-.93,0-1.84-.38-2.49-1.03-.67-.67-1.03-1.55-1.03-2.49v-1s0-.04,0-.07c.03-.52.17-1.04.42-1.5.28-.51.68-.95,1.17-1.27,0,0,.15-.1.15-.1.26-.17,1.23-.72,2.89-1.66.29-.16.63-.21.95-.12.32.08.6.29.77.58.17.27.24.6.2.92-.04.32-.19.63-.42.86l-.74.73c-.21.21-.54.2-.74,0-.21-.21-.21-.54,0-.74l.74-.73c.06-.06.11-.15.12-.24s0-.18-.06-.26c-.03-.05-.08-.09-.13-.1-.06-.01-.12,0-.17.02-2.05,1.15-2.67,1.52-2.84,1.63l-.43-.34.29.44c-.34.22-.62.53-.82.89-.19.36-.3.77-.3,1.17v.9c0,.66.26,1.28.72,1.75.46.46,1.1.72,1.75.72h4.25c.06,0,.12-.02.16-.07.04-.04.07-.1.07-.16s-.02-.12-.07-.16c-.04-.04-.1-.07-.16-.07-.29,0-.53-.24-.53-.53s.24-.53.53-.53c.34,0,.66.13.9.37.24.24.37.57.37.9s-.13.66-.37.9c-.24.24-.56.37-.9.37Z"/>
  </g>
</svg>