<svg width="20" height="20" viewBox="0 0 20 20" fill="none" xmlns="http://www.w3.org/2000/svg">
<path fill-rule="evenodd" clip-rule="evenodd" d="M3.02873 2.5C2.73672 2.5 2.5 2.73672 2.5 3.02873V16.9713C2.5 17.2633 2.73672 17.5 3.02873 17.5H16.9713C17.2633 17.5 17.5 17.2633 17.5 16.9713V3.02873C17.5 2.73672 17.2633 2.5 16.9713 2.5H3.02873ZM1.5 3.02873C1.5 2.18444 2.18444 1.5 3.02873 1.5H16.9713C17.8156 1.5 18.5 2.18444 18.5 3.02873V16.9713C18.5 17.8156 17.8156 18.5 16.9713 18.5H3.02873C2.18444 18.5 1.5 17.8156 1.5 16.9713V3.02873Z" fill="#BABABA"/>
<path d="M15.5 10.37C15.5 10.21 15.47 10.05 15.4 9.89001C15.34 9.74001 15.25 9.60001 15.13 9.49001C15.09 9.45001 15.04 9.43001 14.99 9.4C14.83 9.27 14.64 9.19 14.43 9.16C14.45 9.06 14.49 8.97 14.49 8.87C14.49 8.54 14.36 8.22 14.12 7.99C13.88 7.75 13.57 7.62 13.24 7.62H10.66C10.83 7.41 10.95 7.17 10.98 6.9C11.02 6.59 10.95 6.26 10.79 5.99C10.62 5.71 10.35 5.51 10.04 5.42C9.72 5.34 9.39 5.38 9.11 5.54C7.43 6.49 6.48 7.04 6.23 7.2L6.08 7.3C5.6 7.62 5.2 8.05 4.92 8.56C4.67 9.02 4.53 9.53 4.5 10.06C4.5 10.08 4.5 10.1 4.5 10.12V11.12C4.5 12.04 4.87 12.94 5.53 13.59C6.19 14.24 7.08 14.62 8 14.62H12.25C12.58 14.62 12.9 14.49 13.13 14.25C13.36 14.01 13.5 13.7 13.5 13.37C13.5 13.27 13.47 13.18 13.44 13.08C13.7 13.04 13.94 12.94 14.13 12.75C14.36 12.52 14.5 12.2 14.5 11.87C14.5 11.77 14.47 11.68 14.44 11.58C14.67 11.54 14.89 11.45 15.07 11.29C15.09 11.27 15.12 11.27 15.13 11.25C15.25 11.13 15.34 11 15.4 10.84C15.46 10.69 15.49 10.54 15.49 10.38C15.49 10.38 15.49 10.38 15.49 10.37H15.5ZM13.43 12.05C13.43 12.05 13.32 12.12 13.25 12.12H10C9.72 12.12 9.5 12.34 9.5 12.62C9.5 12.9 9.72 13.12 10 13.12H12.25C12.32 13.12 12.38 13.15 12.43 13.19C12.48 13.23 12.5 13.3 12.5 13.37C12.5 13.44 12.47 13.5 12.43 13.55C12.39 13.6 12.32 13.62 12.25 13.62H8C7.34 13.62 6.7 13.35 6.23 12.89C5.76 12.43 5.5 11.78 5.5 11.12V10.22C5.5 9.81001 5.6 9.4 5.8 9.03C6 8.67 6.28 8.35 6.63 8.13L6.78 8.03C6.94 7.93001 7.56 7.56 9.62 6.4C9.68 6.37 9.74 6.36 9.81 6.38C9.87 6.4 9.93 6.44 9.96 6.49C10.01 6.57 10.03 6.67 10.02 6.77C10.01 6.87 9.96 6.96 9.9 7.02L9.17 7.75C9.17 7.75 9.09 7.85 9.06 7.91C9.01 8.03 9.01 8.17001 9.06 8.29C9.11 8.41 9.21 8.51 9.33 8.56C9.39 8.59 9.46 8.6 9.52 8.6H13.27C13.34 8.6 13.4 8.63 13.45 8.67C13.5 8.72 13.52 8.78 13.52 8.85C13.52 8.92 13.49 8.98001 13.45 9.03C13.4 9.08 13.34 9.1 13.27 9.1H10.02C9.74 9.1 9.52 9.32 9.52 9.6C9.52 9.88 9.74 10.1 10.02 10.1H10.52H14.27C14.34 10.1 14.4 10.13 14.45 10.17C14.49 10.21 14.51 10.27 14.51 10.32C14.51 10.33 14.51 10.36 14.51 10.37C14.51 10.42 14.49 10.48 14.45 10.51C14.4 10.56 14.34 10.58 14.27 10.58H13.27H11.02H10.02C9.74 10.58 9.52 10.8 9.52 11.08C9.52 11.36 9.74 11.58 10.02 11.58H13.27C13.34 11.58 13.4 11.61 13.44 11.65C13.49 11.7 13.51 11.76 13.51 11.83C13.51 11.9 13.48 11.96 13.44 12.01L13.43 12.05Z" fill="#BABABA"/>
</svg>
