<svg width="20" height="20" viewBox="0 0 20 20" fill="none" xmlns="http://www.w3.org/2000/svg">
<path d="M18.37 9.94187C18.28 9.73187 18.16 9.55187 18 9.39187C17.84 9.23187 17.66 9.11187 17.45 9.02187C17.24 8.93187 17.02 8.89187 16.8 8.89187H16.75C16.85 8.67187 16.91 8.44187 16.91 8.19187C16.91 7.74187 16.73 7.31187 16.41 6.99187C16.09 6.67187 15.66 6.49187 15.21 6.49187H10.42L10.74 6.17187C11.05 5.86187 11.25 5.44187 11.31 5.00187C11.36 4.56187 11.27 4.11187 11.04 3.73187C10.81 3.35187 10.45 3.07187 10.02 2.96187C9.58 2.85187 9.13 2.91187 8.74 3.13187C6.03 4.65187 4.52 5.52187 4.13 5.77187L3.89 5.93187C3.16 6.41187 2.55 7.07187 2.14 7.84187C1.76 8.54187 1.54 9.32187 1.5 10.1219C1.5 10.1419 1.5 10.1719 1.5 10.1919V11.7919C1.5 13.2119 2.05 14.5419 3.05 15.5419C4.05 16.5419 5.38 17.0919 6.8 17.0919H13.6C14.05 17.0919 14.49 16.9119 14.8 16.5919C15.11 16.2719 15.3 15.8419 15.3 15.3919C15.3 15.1519 15.24 14.9119 15.14 14.6919H15.2C15.65 14.6919 16.08 14.5119 16.4 14.1919C16.72 13.8719 16.9 13.4419 16.9 12.9919C16.9 12.7419 16.84 12.5119 16.75 12.2919H16.8C17.02 12.2919 17.24 12.2519 17.45 12.1619C17.66 12.0719 17.84 11.9519 18 11.7919C18.16 11.6319 18.28 11.4519 18.37 11.2419C18.45 11.0319 18.5 10.8119 18.5 10.5919C18.5 10.3719 18.46 10.1519 18.37 9.94187ZM17.45 10.8619C17.41 10.9419 17.36 11.0219 17.3 11.0919C17.24 11.1619 17.16 11.2119 17.07 11.2419C16.99 11.2819 16.9 11.2919 16.8 11.2919H15.21C15.21 11.2919 15.21 11.2919 15.2 11.2919H10C9.72 11.2919 9.5 11.5119 9.5 11.7919C9.5 12.0719 9.72 12.2919 10 12.2919H15.21C15.39 12.2919 15.57 12.3619 15.7 12.4919C15.83 12.6219 15.91 12.8019 15.91 12.9919C15.91 13.1819 15.84 13.3619 15.71 13.4919C15.58 13.6219 15.4 13.7019 15.21 13.7019H10.01C9.73 13.7019 9.51 13.9219 9.51 14.2019C9.51 14.4819 9.73 14.7019 10.01 14.7019H13.61C13.79 14.7019 13.97 14.7819 14.11 14.9119C14.24 15.0419 14.31 15.2219 14.31 15.4019C14.31 15.5819 14.24 15.7619 14.1 15.9019C13.97 16.0319 13.79 16.1119 13.6 16.1119H6.8C5.65 16.1119 4.57 15.6619 3.76 14.8519C2.95 14.0419 2.5 12.9619 2.5 11.8119V10.3819C2.5 9.67187 2.68 8.96187 3.01 8.34187C3.35 7.72187 3.84 7.18187 4.43 6.79187L4.67 6.63187C5.04 6.39187 6.57 5.51187 9.22 4.02187C9.38 3.93187 9.57 3.91187 9.74 3.95187C9.92 4.00187 10.07 4.11187 10.16 4.27187C10.27 4.46187 10.32 4.68187 10.29 4.90187C10.26 5.12187 10.16 5.33187 10.01 5.48187L8.83 6.66187C8.83 6.66187 8.75 6.76187 8.72 6.82187C8.67 6.94187 8.67 7.08187 8.72 7.20187C8.77 7.32187 8.87 7.42187 8.99 7.47187C9.05 7.50187 9.12 7.51187 9.18 7.51187H15.18C15.37 7.51187 15.54 7.58187 15.68 7.71187C15.81 7.84187 15.89 8.02187 15.89 8.21187C15.89 8.40187 15.81 8.57187 15.68 8.70187C15.55 8.83187 15.37 8.91187 15.18 8.91187H9.98C9.7 8.91187 9.48 9.13187 9.48 9.41187C9.48 9.69187 9.7 9.91187 9.98 9.91187H16.78C16.87 9.91187 16.96 9.93187 17.05 9.96187C17.14 10.0019 17.21 10.0519 17.28 10.1119C17.35 10.1819 17.4 10.2519 17.43 10.3419C17.47 10.4319 17.48 10.5219 17.48 10.6119C17.48 10.7019 17.46 10.7919 17.43 10.8819L17.45 10.8619Z" fill="#BABABA"/>
</svg>
