<svg width="20" height="20" viewBox="0 0 20 20" fill="none" xmlns="http://www.w3.org/2000/svg">
<path fill-rule="evenodd" clip-rule="evenodd" d="M1.82653 1.53108C2.02277 1.45849 2.24346 1.51576 2.37963 1.67463L10 10.5651L17.6204 1.67463C17.7565 1.51576 17.9772 1.45849 18.1735 1.53108C18.3697 1.60368 18.5 1.79079 18.5 2.00002V18C18.5 18.2762 18.2761 18.5 18 18.5C17.7239 18.5 17.5 18.2762 17.5 18V3.35165L10.3796 11.6588C10.2846 11.7696 10.146 11.8334 10 11.8334C9.85404 11.8334 9.71536 11.7696 9.62037 11.6588L2.5 3.35165V18C2.5 18.2762 2.27614 18.5 2 18.5C1.72386 18.5 1.5 18.2762 1.5 18V2.00002C1.5 1.79079 1.63029 1.60368 1.82653 1.53108Z" fill="#BABABA"/>
</svg>
