<?xml version="1.0" encoding="UTF-8"?>
<svg id="Outlines" xmlns="http://www.w3.org/2000/svg" viewBox="0 0 24 24">
  <defs>
    <style>
      .cls-1 {
        fill: #1b1b1b;
        stroke-width: 0px;
      }
    </style>
  </defs>
  <g id="market">
    <path class="cls-1" d="m21,21.75H3c-.41,0-.75-.34-.75-.75s.34-.75.75-.75h18c.41,0,.75.34.75.75s-.34.75-.75.75Z"/>
    <path class="cls-1" d="m18,11.75c-1.23,0-2.32-.59-3-1.5-.68.91-1.77,1.5-3,1.5s-2.32-.59-3-1.5c-.68.91-1.77,1.5-3,1.5-2.07,0-3.75-1.68-3.75-3.75v-1.01c0-.12.03-.23.09-.33l1.99-3.99c.13-.25.39-.41.67-.41h14c.28,0,.54.16.67.41l1.99,3.99c.03.06.05.11.07.18.01.06.02.12.02.19v.98c0,2.07-1.68,3.75-3.75,3.75Zm-2.25-3.75c0,1.24,1.01,2.25,2.25,2.25s2.25-1.01,2.25-2.25v-.25h-4.5v.25Zm-6,0c0,1.24,1.01,2.25,2.25,2.25s2.25-1.01,2.25-2.25v-.25h-4.5v.25Zm-6-.25v.25c0,1.24,1.01,2.25,2.25,2.25s2.25-1.01,2.25-2.25v-.25H3.75Zm.46-1.5h15.57l-1.25-2.5H5.46l-1.25,2.5Z"/>
    <path class="cls-1" d="m5,21.75c-.41,0-.75-.34-.75-.75v-10.15c0-.41.34-.75.75-.75s.75.34.75.75v10.15c0,.41-.34.75-.75.75Z"/>
    <path class="cls-1" d="m19,21.75c-.41,0-.75-.34-.75-.75v-10.15c0-.41.34-.75.75-.75s.75.34.75.75v10.15c0,.41-.34.75-.75.75Z"/>
    <path class="cls-1" d="m15,21.75c-.41,0-.75-.34-.75-.75v-4c0-.69-.56-1.25-1.25-1.25h-2c-.69,0-1.25.56-1.25,1.25v4c0,.41-.34.75-.75.75s-.75-.34-.75-.75v-4c0-1.52,1.23-2.75,2.75-2.75h2c1.52,0,2.75,1.23,2.75,2.75v4c0,.41-.34.75-.75.75Z"/>
  </g>
</svg>