<?xml version="1.0" encoding="UTF-8"?>
<svg id="Outlines" xmlns="http://www.w3.org/2000/svg" viewBox="0 0 24 24">
  <defs>
    <style>
      .cls-1 {
        fill: #1b1b1b;
        stroke-width: 0px;
      }
    </style>
  </defs>
  <g id="method-start-outline">
    <path class="cls-1" d="m12,21.6c-2.56,0-4.97-1-6.79-2.81-1.81-1.81-2.81-4.22-2.81-6.79s1-4.98,2.81-6.79c1.81-1.81,4.22-2.81,6.79-2.81s4.97,1,6.79,2.81c1.81,1.81,2.81,4.22,2.81,6.79s-1,4.97-2.81,6.79c-1.81,1.81-4.22,2.81-6.79,2.81Zm0-18c-2.24,0-4.35.87-5.94,2.46-1.59,1.59-2.46,3.7-2.46,5.94s.87,4.35,2.46,5.94c1.59,1.59,3.7,2.46,5.94,2.46s4.35-.87,5.94-2.46c1.59-1.59,2.46-3.7,2.46-5.94s-.87-4.35-2.46-5.94c-1.59-1.59-3.7-2.46-5.94-2.46Z"/>
    <path class="cls-1" d="m15.14,17.1h-4.77c-.5,0-.98-.17-1.35-.47-.39-.32-.62-.78-.62-1.26v-1.12c0-.33.27-.6.6-.6s.6.27.6.6v1.12c0,.12.06.24.18.33.15.12.36.19.58.19h4.77c.22,0,.43-.07.58-.19.12-.1.18-.21.18-.33v-6.75c0-.12-.06-.24-.18-.33-.15-.12-.36-.19-.58-.19h-4.77c-.22,0-.43.07-.58.19-.12.1-.18.21-.18.33v1.12c0,.33-.27.6-.6.6s-.6-.27-.6-.6v-1.12c0-.48.22-.94.62-1.26.37-.3.84-.47,1.35-.47h4.77c.5,0,.98.17,1.35.47.39.32.62.78.62,1.26v6.75c0,.48-.22.93-.62,1.26-.37.3-.84.47-1.35.47Z"/>
    <path class="cls-1" d="m12.23,14.4c-.14,0-.28-.05-.4-.15-.25-.22-.27-.6-.06-.85l.7-.8h-4.98c-.33,0-.6-.27-.6-.6s.27-.6.6-.6h6.3c.24,0,.45.14.55.35.1.21.06.47-.1.64l-1.58,1.8c-.12.13-.28.2-.45.2Z"/>
    <path class="cls-1" d="m13.8,12.6c-.17,0-.33-.07-.45-.2l-1.58-1.8c-.22-.25-.19-.63.06-.85.25-.22.63-.19.85.06l1.58,1.8c.22.25.19.63-.06.85-.11.1-.25.15-.4.15Z"/>
  </g>
</svg>