<svg width="20" height="20" viewBox="0 0 20 20" fill="none" xmlns="http://www.w3.org/2000/svg">
<path fill-rule="evenodd" clip-rule="evenodd" d="M1.50004 3C1.50004 2.17157 2.17161 1.5 3.00004 1.5H17C17.8285 1.5 18.5 2.17157 18.5 3V17C18.5 17.8284 17.8285 18.5 17 18.5H3.00004C2.17161 18.5 1.50004 17.8284 1.50004 17V14C1.50004 13.7239 1.7239 13.5 2.00004 13.5C2.27618 13.5 2.50004 13.7239 2.50004 14V17C2.50004 17.2761 2.7239 17.5 3.00004 17.5H17C17.2762 17.5 17.5 17.2761 17.5 17V3C17.5 2.72386 17.2762 2.5 17 2.5H3.00004C2.7239 2.5 2.50004 2.72386 2.50004 3V6C2.50004 6.27614 2.27618 6.5 2.00004 6.5C1.7239 6.5 1.50004 6.27614 1.50004 6V3ZM8.75769 6.09112C8.95296 5.89586 9.26954 5.89586 9.4648 6.09112L13.0204 9.64668C13.2156 9.84194 13.2156 10.1585 13.0204 10.3538L9.4648 13.9093C9.26954 14.1046 8.95296 14.1046 8.75769 13.9093C8.56243 13.7141 8.56243 13.3975 8.75769 13.2022L11.4597 10.5002L2 10.5002C1.72386 10.5002 1.5 10.2764 1.5 10.0002C1.5 9.72407 1.72386 9.50021 2 9.50021L11.4597 9.50023L8.75769 6.79823C8.56243 6.60297 8.56243 6.28638 8.75769 6.09112Z" fill="#BABABA"/>
</svg>
