<svg width="20" height="20" viewBox="0 0 20 20" fill="none" xmlns="http://www.w3.org/2000/svg">
<path d="M7.34003 7.83H8.23003C8.51003 7.83 8.73003 7.61 8.73003 7.33C8.73003 7.05 8.51003 6.83 8.23003 6.83H7.34003C7.06003 6.83 6.84003 7.05 6.84003 7.33C6.84003 7.61 7.06003 7.83 7.34003 7.83Z" fill="#BABABA"/>
<path d="M12.67 13.94H7.34003C7.06003 13.94 6.84003 14.16 6.84003 14.44C6.84003 14.72 7.06003 14.94 7.34003 14.94H12.67C12.95 14.94 13.17 14.72 13.17 14.44C13.17 14.16 12.95 13.94 12.67 13.94Z" fill="#BABABA"/>
<path d="M16.58 6.09L12.13 1.65C12.04 1.56 11.91 1.5 11.78 1.5H5.56003C4.95003 1.5 4.37003 1.74 3.95003 2.17C3.52003 2.6 3.28003 3.18 3.28003 3.78V16.22C3.28003 16.82 3.52003 17.4 3.95003 17.83C4.38003 18.26 4.96003 18.5 5.56003 18.5H14.45C15.05 18.5 15.63 18.26 16.06 17.83C16.49 17.4 16.73 16.82 16.73 16.22V6.44C16.73 6.31 16.68 6.18 16.58 6.09ZM12.28 3.21L15.02 5.95H12.67C12.57 5.95 12.47 5.91 12.4 5.84C12.33 5.77 12.29 5.67 12.29 5.56V3.21H12.28ZM15.72 16.23C15.72 16.57 15.59 16.89 15.35 17.13C15.11 17.37 14.79 17.5 14.45 17.5H5.56003C5.22003 17.5 4.90003 17.37 4.66003 17.13C4.42003 16.89 4.29003 16.57 4.29003 16.23V3.78C4.29003 3.44 4.42003 3.12 4.66003 2.88C4.90003 2.64 5.22003 2.51 5.56003 2.51H11.28V5.57C11.28 5.94 11.43 6.29 11.69 6.55C11.95 6.81 12.3 6.96 12.67 6.96H15.73V16.22L15.72 16.23Z" fill="#BABABA"/>
<path d="M7.34003 10.39C7.06003 10.39 6.84003 10.61 6.84003 10.89C6.84003 11.17 7.06003 11.39 7.34003 11.39H12.67C12.95 11.39 13.17 11.17 13.17 10.89C13.17 10.61 12.95 10.39 12.67 10.39H7.34003Z" fill="#BABABA"/>
</svg>
