<svg width="20" height="20" viewBox="0 0 20 20" fill="none" xmlns="http://www.w3.org/2000/svg">
<path fill-rule="evenodd" clip-rule="evenodd" d="M2.73079 2.73846C2.73079 2.05448 3.28527 1.5 3.96926 1.5H17.2616C17.9455 1.5 18.5 2.05448 18.5 2.73846V16.0308C18.5 16.7148 17.9455 17.2692 17.2616 17.2692H9.87695C9.60081 17.2692 9.37695 17.0454 9.37695 16.7692C9.37695 16.4931 9.60081 16.2692 9.87695 16.2692H17.2616C17.3933 16.2692 17.5 16.1625 17.5 16.0308V2.73846C17.5 2.60676 17.3933 2.5 17.2616 2.5H3.96926C3.83756 2.5 3.73079 2.60676 3.73079 2.73846V10.1231C3.73079 10.3992 3.50694 10.6231 3.23079 10.6231C2.95465 10.6231 2.73079 10.3992 2.73079 10.1231V2.73846Z" fill="#BABABA"/>
<path fill-rule="evenodd" clip-rule="evenodd" d="M15.892 4.10798C16.0873 4.30325 16.0873 4.61983 15.892 4.81509L9.73816 10.9689C9.54289 11.1642 9.22631 11.1642 9.03105 10.9689C8.83579 10.7737 8.83579 10.4571 9.03105 10.2618L15.1849 4.10798C15.3802 3.91272 15.6967 3.91272 15.892 4.10798Z" fill="#BABABA"/>
<path fill-rule="evenodd" clip-rule="evenodd" d="M9.3846 6.42308C9.66075 6.42308 9.8846 6.64693 9.8846 6.92308V10.1154H13.0769C13.3531 10.1154 13.5769 10.3392 13.5769 10.6154C13.5769 10.8915 13.3531 11.1154 13.0769 11.1154H9.3846C9.10846 11.1154 8.8846 10.8915 8.8846 10.6154V6.92308C8.8846 6.64693 9.10846 6.42308 9.3846 6.42308Z" fill="#BABABA"/>
<path fill-rule="evenodd" clip-rule="evenodd" d="M1.5 13.0769C1.5 12.8008 1.72386 12.5769 2 12.5769H6.92308C7.19922 12.5769 7.42308 12.8008 7.42308 13.0769V18C7.42308 18.2761 7.19922 18.5 6.92308 18.5H2C1.72386 18.5 1.5 18.2761 1.5 18V13.0769ZM2.5 13.5769V17.5H6.42308V13.5769H2.5Z" fill="#BABABA"/>
</svg>
