<?xml version="1.0" encoding="UTF-8"?>
<svg id="Outlines" xmlns="http://www.w3.org/2000/svg" viewBox="0 0 24 24">
  <defs>
    <style>
      .cls-1 {
        fill: #1b1b1b;
        stroke-width: 0px;
      }
    </style>
  </defs>
  <g id="window-minimize">
    <path class="cls-1" d="m7,21.75h-3c-.96,0-1.75-.79-1.75-1.75v-3c0-.96.79-1.75,1.75-1.75h3c.96,0,1.75.79,1.75,1.75v3c0,.96-.79,1.75-1.75,1.75Zm-3-5c-.14,0-.25.11-.25.25v3c0,.14.11.25.25.25h3c.14,0,.25-.11.25-.25v-3c0-.14-.11-.25-.25-.25h-3Z"/>
    <path class="cls-1" d="m18,20.75h-6c-.41,0-.75-.34-.75-.75s.34-.75.75-.75h6c.69,0,1.25-.56,1.25-1.25V6c0-.69-.56-1.25-1.25-1.25H6c-.69,0-1.25.56-1.25,1.25v6c0,.41-.34.75-.75.75s-.75-.34-.75-.75v-6c0-1.52,1.23-2.75,2.75-2.75h12c1.52,0,2.75,1.23,2.75,2.75v12c0,1.52-1.23,2.75-2.75,2.75Z"/>
    <path class="cls-1" d="m15,13.75h-4c-.41,0-.75-.34-.75-.75v-4c0-.41.34-.75.75-.75s.75.34.75.75v3.25h3.25c.41,0,.75.34.75.75s-.34.75-.75.75Z"/>
    <path class="cls-1" d="m11,13.75c-.19,0-.38-.07-.53-.22-.29-.29-.29-.77,0-1.06l5-5c.29-.29.77-.29,1.06,0s.29.77,0,1.06l-5,5c-.15.15-.34.22-.53.22Z"/>
  </g>
</svg>