<?xml version="1.0" encoding="UTF-8"?>
<svg id="Outlines" xmlns="http://www.w3.org/2000/svg" viewBox="0 0 24 24">
  <defs>
    <style>
      .cls-1 {
        fill: #1b1b1b;
        stroke-width: 0px;
      }
    </style>
  </defs>
  <g id="pen-edit">
    <path class="cls-1" d="m15,20.75H6c-1.52,0-2.75-1.23-2.75-2.75v-9c0-1.52,1.23-2.75,2.75-2.75h1c.41,0,.75.34.75.75s-.34.75-.75.75h-1c-.69,0-1.25.56-1.25,1.25v9c0,.69.56,1.25,1.25,1.25h9c.69,0,1.25-.56,1.25-1.25v-1c0-.41.34-.75.75-.75s.75.34.75.75v1c0,1.52-1.23,2.75-2.75,2.75Z"/>
    <path class="cls-1" d="m12,15.75h-3c-.41,0-.75-.34-.75-.75v-3c0-.2.08-.39.22-.53L16.89,3.08c1.11-1.11,2.92-1.11,4.03,0,1.11,1.11,1.11,2.92,0,4.03l-8.38,8.41c-.14.14-.33.22-.53.22Zm-2.25-1.5h1.94l8.17-8.19s0,0,0,0c.25-.26.4-.59.4-.96s-.14-.7-.4-.95c-.53-.53-1.38-.53-1.91,0l-8.19,8.17v1.94Z"/>
    <path class="cls-1" d="m19,8.75c-.19,0-.38-.07-.53-.22l-3-3c-.29-.29-.29-.77,0-1.06s.77-.29,1.06,0l3,3c.29.29.29.77,0,1.06-.15.15-.34.22-.53.22Z"/>
  </g>
</svg>