<svg width="20" height="20" viewBox="0 0 20 20" fill="none" xmlns="http://www.w3.org/2000/svg">
  <path d="M 3.3282688,18.003 C 2.3697385,18.003 1.589,17.222262 1.589,16.263731 V 2.7430418 C 1.589,2.4570287 1.6601168,2.1725617 1.7953932,1.9205609 2.0149276,1.5116395 2.3805606,1.2124853 2.8258134,1.0779818 2.9904642,1.0285093 3.159753,1.003 3.3298148,1.003 c 0.2836941,0 0.5673882,0.07189 0.8201619,0.2071662 L 16.767792,7.9701244 c 0.30302,0.1623318 0.548836,0.4081484 0.711168,0.7111677 0.219534,0.4096944 0.265915,0.8796835 0.132184,1.3249359 -0.134503,0.44448 -0.433657,0.810886 -0.843352,1.030421 L 4.1499767,17.796607 C 3.897976,17.93111 3.6135089,18.003 3.3282688,18.003 c 0,0 0,0 0,0 z m 7.73e-4,-15.8397144 c -0.05643,0 -0.1128592,0.0085 -0.1685158,0.025509 -0.1484176,0.044061 -0.2697799,0.1437796 -0.3432157,0.2806021 -0.044834,0.083485 -0.068798,0.1785649 -0.068798,0.2736449 V 16.262958 c 0,0.320026 0.2605038,0.579756 0.5797562,0.579756 0.09508,0 0.1901601,-0.02396 0.273645,-0.0688 L 16.220502,10.013959 C 16.357325,9.9412957 16.45627,9.8191604 16.501104,9.6707428 16.545939,9.5223252 16.530479,9.3654045 16.457043,9.228582 16.402932,9.1273179 16.320993,9.045379 16.220502,8.9912685 L 3.6026868,2.2328563 c -0.085804,-0.04638 -0.1777919,-0.069571 -0.273645,-0.069571 z"/>
</svg>
