<?xml version="1.0" encoding="UTF-8"?>
<svg id="Outlines" xmlns="http://www.w3.org/2000/svg" viewBox="0 0 24 24">
  <defs>
    <style>
      .cls-1 {
        fill: #1b1b1b;
        stroke-width: 0px;
      }
    </style>
  </defs>
  <g id="program-outline">
    <path class="cls-1" d="m19.5,21H4.5c-.83,0-1.5-.67-1.5-1.5V4.5c0-.83.67-1.5,1.5-1.5h15c.83,0,1.5.67,1.5,1.5v15c0,.83-.67,1.5-1.5,1.5ZM4.5,4.5h0v15h15V4.5H4.5Z"/>
    <path class="cls-1" d="m9,14c-.19,0-.38-.07-.53-.22l-1.5-1.5c-.29-.29-.29-.77,0-1.06l1.5-1.5c.29-.29.77-.29,1.06,0s.29.77,0,1.06l-.97.97.97.97c.29.29.29.77,0,1.06-.15.15-.34.22-.53.22Z"/>
    <path class="cls-1" d="m11.25,15.25c-.08,0-.17-.01-.26-.04-.39-.14-.59-.57-.45-.96l2-5.5c.14-.39.57-.59.96-.45.39.14.59.57.45.96l-2,5.5c-.11.3-.4.49-.71.49Z"/>
    <path class="cls-1" d="m15.5,14c-.19,0-.38-.07-.53-.22-.29-.29-.29-.77,0-1.06l.97-.97-.97-.97c-.29-.29-.29-.77,0-1.06s.77-.29,1.06,0l1.5,1.5c.29.29.29.77,0,1.06l-1.5,1.5c-.15.15-.34.22-.53.22Z"/>
  </g>
</svg>