<svg width="20" height="20" viewBox="0 0 20 20" fill="none" xmlns="http://www.w3.org/2000/svg">
<path fill-rule="evenodd" clip-rule="evenodd" d="M11.1712 3.2767C11.4432 3.32408 11.6254 3.58304 11.578 3.85508L9.40725 16.3165C9.35986 16.5886 9.1009 16.7707 8.82886 16.7233C8.55681 16.6759 8.37469 16.417 8.42208 16.1449L10.5928 3.68347C10.6402 3.41143 10.8991 3.22931 11.1712 3.2767ZM5.88773 5.62629C6.09413 5.80975 6.11272 6.12579 5.92926 6.33218L2.66898 9.99999L5.92926 13.6678C6.11272 13.8742 6.09413 14.1902 5.88773 14.3737C5.68134 14.5572 5.36531 14.5386 5.18185 14.3322L1.6263 10.3322C1.4579 10.1427 1.4579 9.85725 1.6263 9.66781L5.18185 5.66781C5.36531 5.46142 5.68134 5.44283 5.88773 5.62629ZM14.1122 5.62629C14.3186 5.44283 14.6347 5.46142 14.8181 5.66781L18.3737 9.66781C18.5421 9.85725 18.5421 10.1427 18.3737 10.3322L14.8181 14.3322C14.6347 14.5386 14.3186 14.5572 14.1122 14.3737C13.9058 14.1902 13.8873 13.8742 14.0707 13.6678L17.331 9.99999L14.0707 6.33218C13.8873 6.12579 13.9058 5.80975 14.1122 5.62629Z" fill="#BABABA"/>
</svg>
