<svg width="20" height="20" viewBox="0 0 20 20" fill="none" xmlns="http://www.w3.org/2000/svg">
<path fill-rule="evenodd" clip-rule="evenodd" d="M3.46443 3C3.20793 3 3 3.20793 3 3.46443V16.5356C3 16.7921 3.20793 17 3.46443 17H16.5356C16.7921 17 17 16.7921 17 16.5356V3.46443C17 3.20793 16.7921 3 16.5356 3H3.46443ZM2 3.46443C2 2.65565 2.65565 2 3.46443 2H16.5356C17.3443 2 18 2.65565 18 3.46443V16.5356C18 17.3443 17.3443 18 16.5356 18H3.46443C2.65565 18 2 17.3443 2 16.5356V3.46443Z" fill="#BABABA"/>
<path fill-rule="evenodd" clip-rule="evenodd" d="M7.55443 7.12629C7.76082 7.30975 7.77941 7.62578 7.59595 7.83217L5.669 9.99999L7.59595 12.1678C7.77941 12.3742 7.76082 12.6902 7.55443 12.8737C7.34804 13.0572 7.032 13.0386 6.84854 12.8322L4.62632 10.3322C4.45793 10.1427 4.45793 9.85725 4.62632 9.66781L6.84854 7.16781C7.032 6.96142 7.34804 6.94283 7.55443 7.12629Z" fill="#BABABA"/>
<path fill-rule="evenodd" clip-rule="evenodd" d="M12.4456 7.12629C12.652 6.94283 12.9681 6.96142 13.1515 7.16781L15.3737 9.66781C15.5421 9.85725 15.5421 10.1427 15.3737 10.3322L13.1515 12.8322C12.9681 13.0386 12.652 13.0572 12.4456 12.8737C12.2392 12.6902 12.2206 12.3742 12.4041 12.1678L14.3311 9.99999L12.4041 7.83217C12.2206 7.62578 12.2392 7.30975 12.4456 7.12629Z" fill="#BABABA"/>
<path fill-rule="evenodd" clip-rule="evenodd" d="M10.7642 5.6132C11.0362 5.66059 11.2183 5.91955 11.171 6.19159L9.81426 13.98C9.76687 14.252 9.50791 14.4342 9.23587 14.3868C8.96382 14.3394 8.7817 14.0804 8.82909 13.8084L10.1858 6.01998C10.2332 5.74793 10.4921 5.56581 10.7642 5.6132Z" fill="#BABABA"/>
</svg>
