<?xml version="1.0" encoding="UTF-8"?>
<svg id="Outlines" xmlns="http://www.w3.org/2000/svg" viewBox="0 0 24 24">
  <defs>
    <style>
      .cls-1 {
        fill: #1b1b1b;
        stroke-width: 0px;
      }
    </style>
  </defs>
  <g id="sub-receive-outline">
    <path class="cls-1" d="M6.28,20.72c-.71,0-1.72-.07-2.36-.71s-.67-1.52-.67-2.31c0-.41.34-.75.75-.75s.75.34.75.75c0,.33,0,1.02.23,1.25.1.1.41.27,1.3.27.41,0,.75.34.75.75s-.34.75-.75.75Z"/>
    <path class="cls-1" d="M4,13.89c-.41,0-.75-.34-.75-.75v-2.28c0-.41.34-.75.75-.75s.75.34.75.75v2.28c0,.41-.34.75-.75.75Z"/>
    <path class="cls-1" d="M4,7.06c-.41,0-.75-.34-.75-.75,0-.59,0-1.69.67-2.36.67-.67,1.77-.67,2.36-.67.41,0,.75.34.75.75s-.34.75-.75.75c-.32,0-1.07,0-1.3.23-.23.23-.23,1-.23,1.3,0,.41-.34.75-.75.75Z"/>
    <path class="cls-1" d="M13.11,4.78h-2.28c-.41,0-.75-.34-.75-.75s.34-.75.75-.75h2.28c.41,0,.75.34.75.75s-.34.75-.75.75Z"/>
    <path class="cls-1" d="M19.94,7.06c-.41,0-.75-.34-.75-.75,0-.89-.17-1.2-.27-1.3-.23-.23-.92-.23-1.25-.23-.41,0-.75-.34-.75-.75s.34-.75.75-.75c.8,0,1.7.05,2.31.67s.71,1.65.71,2.36c0,.41-.34.75-.75.75Z"/>
    <path class="cls-1" d="M17.72,20.66c-.41,0-.75-.34-.75-.75s.34-.75.75-.75.98,0,1.2-.22c.2-.2.33-.72.33-1.31,0-.41.34-.75.75-.75s.75.34.75.75c0,.6-.1,1.7-.77,2.37s-1.62.66-2.26.66Z"/>
    <path class="cls-1" d="M19.94,13.89c-.41,0-.75-.34-.75-.75v-2.28c0-.41.34-.75.75-.75s.75.34.75.75v2.28c0,.41-.34.75-.75.75Z"/>
    <path class="cls-1" d="M13.11,20.72h-2.28c-.41,0-.75-.34-.75-.75s.34-.75.75-.75h2.28c.41,0,.75.34.75.75s-.34.75-.75.75Z"/>
    <path class="cls-1" d="M11.95,15.5h-3.5c-.4,0-.79-.16-1.08-.45s-.45-.68-.45-1.08v-5c0-.4.16-.79.45-1.08s.68-.45,1.08-.45h7c.41,0,.79.16,1.08.45s.45.68.45,1.08v3.75c0,.29-.24.53-.53.53s-.53-.24-.53-.53v-3.75c0-.12-.05-.25-.14-.34-.09-.09-.21-.14-.34-.14h-7c-.12,0-.25.05-.34.14-.09.09-.14.21-.14.34v5c0,.13.05.25.14.34.09.09.21.14.34.14h3.5c.29,0,.53.24.53.53s-.24.53-.53.53Z"/>
    <path class="cls-1" d="M11.95,12.5c-.1,0-.2-.03-.29-.09l-4.5-3c-.24-.16-.31-.49-.15-.73.16-.24.49-.31.73-.15l4.21,2.81,4.21-2.81c.24-.16.57-.1.73.15.16.24.1.57-.15.73l-4.5,3c-.09.06-.19.09-.29.09Z"/>
    <path class="cls-1" d="M16.45,15.5h-3c-.29,0-.53-.24-.53-.53s.24-.53.53-.53h3c.29,0,.53.24.53.53s-.24.53-.53.53Z"/>
    <path class="cls-1" d="M14.95,17c-.13,0-.27-.05-.37-.15l-1.5-1.5c-.21-.21-.21-.54,0-.74l1.5-1.5c.21-.21.54-.21.74,0s.21.54,0,.74l-1.13,1.13,1.13,1.13c.21.21.21.54,0,.74-.1.1-.24.15-.37.15Z"/>
  </g>
</svg>