<?xml version="1.0" encoding="UTF-8"?>
<svg id="Outlines" xmlns="http://www.w3.org/2000/svg" viewBox="0 0 24 24">
  <defs>
    <style>
      .cls-1 {
        fill: #1b1b1b;
        stroke-width: 0px;
      }
    </style>
  </defs>
  <g id="reconnect">
    <path class="cls-1" d="m17,12.46c-.41,0-.75-.34-.75-.75V3c0-.41.34-.75.75-.75s.75.34.75.75v8.71c0,.41-.34.75-.75.75Z"/>
    <path class="cls-1" d="m21,7.75c-.19,0-.38-.07-.53-.22l-3.47-3.47-3.47,3.47c-.29.29-.77.29-1.06,0s-.29-.77,0-1.06l4-4c.29-.29.77-.29,1.06,0l4,4c.29.29.29.77,0,1.06-.15.15-.34.22-.53.22Z"/>
    <path class="cls-1" d="m7,14.75c-.19,0-.38-.07-.53-.22l-4-4c-.29-.29-.29-.77,0-1.06l4-4c.29-.29.77-.29,1.06,0s.29.77,0,1.06l-3.47,3.47,3.47,3.47c.29.29.29.77,0,1.06-.15.15-.34.22-.53.22Z"/>
    <path class="cls-1" d="m17,21.75c-.41,0-.75-.34-.75-.75,0-5.65-4.6-10.25-10.25-10.25h-3c-.41,0-.75-.34-.75-.75s.34-.75.75-.75h3c6.48,0,11.75,5.27,11.75,11.75,0,.41-.34.75-.75.75Z"/>
  </g>
</svg>