<svg width="20" height="20" viewBox="0 0 20 20" fill="none" xmlns="http://www.w3.org/2000/svg">
<path fill-rule="evenodd" clip-rule="evenodd" d="M11.6 1.5C11.7327 1.5 11.8598 1.55268 11.9536 1.64645L15.1536 4.84645C15.3489 5.04171 15.3489 5.35829 15.1536 5.55355C14.9583 5.74882 14.6418 5.74882 14.4465 5.55355L12.1 3.20711V17C12.1 17.2761 12.3239 17.5 12.6 17.5L18 17.5C18.2762 17.5 18.5 17.7239 18.5 18C18.5 18.2761 18.2762 18.5 18 18.5L12.6 18.5C11.7716 18.5 11.1 17.8284 11.1 17V12.1H4.20711L6.55355 14.4464C6.74882 14.6417 6.74881 14.9583 6.55355 15.1535C6.35829 15.3488 6.04171 15.3488 5.84645 15.1535L2.64645 11.9535C2.45118 11.7583 2.45118 11.4417 2.64645 11.2464L5.84645 8.04644C6.04171 7.85118 6.35829 7.85118 6.55355 8.04644C6.74882 8.2417 6.74882 8.55829 6.55355 8.75355L4.2071 11.1H11.1V3.20711L8.7536 5.55355C8.55834 5.74882 8.24176 5.74882 8.0465 5.55355C7.85123 5.35829 7.85123 5.04171 8.0465 4.84645L11.2465 1.64645C11.3403 1.55268 11.4674 1.5 11.6 1.5Z" fill="#BABABA"/>
</svg>
