<?xml version="1.0" encoding="UTF-8"?>
<svg id="Outlines" xmlns="http://www.w3.org/2000/svg" viewBox="0 0 24 24">
  <defs>
    <style>
      .cls-1 {
        fill: #1b1b1b;
        stroke-width: 0px;
      }
    </style>
  </defs>
  <g id="redo">
    <path class="cls-1" d="m12,21.75c-2.38,0-4.67-.87-6.46-2.44-1.79-1.58-2.94-3.77-3.22-6.15-.29-2.38.31-4.77,1.68-6.73,1.37-1.96,3.4-3.35,5.73-3.91,2.33-.55,4.77-.24,6.88.89,2.11,1.13,3.72,3,4.54,5.25.14.39-.06.82-.45.96-.39.14-.82-.06-.96-.45-.7-1.9-2.06-3.48-3.85-4.44-1.78-.96-3.85-1.23-5.82-.76-1.97.47-3.69,1.65-4.85,3.31-1.16,1.66-1.66,3.69-1.42,5.7.24,2.01,1.21,3.86,2.73,5.2,1.51,1.33,3.45,2.07,5.46,2.07.01,0,.03,0,.04,0,.41,0,.75.33.75.75,0,.41-.33.75-.75.75h-.04Z"/>
    <path class="cls-1" d="m21,9.75h-5c-.41,0-.75-.34-.75-.75s.34-.75.75-.75h4.25v-4.25c0-.41.34-.75.75-.75s.75.34.75.75v5c0,.41-.34.75-.75.75Z"/>
  </g>
</svg>