<?xml version="1.0" encoding="UTF-8"?>
<svg id="Outlines" xmlns="http://www.w3.org/2000/svg" viewBox="0 0 24 24">
  <defs>
    <style>
      .cls-1 {
        fill: #1b1b1b;
        stroke-width: 0px;
      }
    </style>
  </defs>
  <g id="rest-client-outline">
    <path class="cls-1" d="m19.5,21H4.5c-.83,0-1.5-.67-1.5-1.5V4.5c0-.83.67-1.5,1.5-1.5h15c.83,0,1.5.67,1.5,1.5v15c0,.83-.67,1.5-1.5,1.5ZM4.5,4.5h0v15h15V4.5H4.5Z"/>
    <path class="cls-1" d="m8.09,17.75c-.36,0-.7-.14-.95-.39s-.39-.59-.39-.95.14-.7.39-.95c.51-.51,1.39-.51,1.9,0,.25.25.39.6.39.95s-.14.7-.39.95c-.25.25-.59.39-.95.39Z"/>
    <path class="cls-1" d="m17,17.75c-.41,0-.75-.34-.75-.75,0-2.34-.91-4.53-2.56-6.19-1.65-1.65-3.85-2.56-6.19-2.56-.41,0-.75-.34-.75-.75s.34-.75.75-.75c2.74,0,5.31,1.07,7.25,3,1.94,1.94,3,4.51,3,7.25,0,.41-.34.75-.75.75Z"/>
    <path class="cls-1" d="m12.84,17.75c-.41,0-.75-.34-.75-.75,0-1.21-.49-2.39-1.35-3.25s-2.04-1.35-3.25-1.35c-.41,0-.75-.34-.75-.75s.34-.75.75-.75c1.63,0,3.16.63,4.31,1.79s1.79,2.68,1.79,4.31c0,.41-.34.75-.75.75Z"/>
  </g>
</svg>