<svg width="20" height="20" viewBox="0 0 20 20" fill="none" xmlns="http://www.w3.org/2000/svg">
<path fill-rule="evenodd" clip-rule="evenodd" d="M4.34348 14.9871C4.64515 14.7032 5.11981 14.7177 5.40365 15.0193L5.41334 15.0296C5.69718 15.3313 5.68273 15.806 5.38106 16.0898C5.07939 16.3737 4.60473 16.3592 4.32089 16.0575L4.3112 16.0472C4.02736 15.7456 4.04181 15.2709 4.34348 14.9871Z" fill="#BABABA"/>
<path fill-rule="evenodd" clip-rule="evenodd" d="M8.61204 12.0005C7.67503 11.0046 6.38087 10.4217 5.01413 10.3799C4.73812 10.3714 4.52121 10.1408 4.52966 9.86482C4.53811 9.5888 4.76871 9.3719 5.04472 9.38034C6.67649 9.43028 8.22163 10.1263 9.34034 11.3152C10.459 12.5042 11.0597 14.0888 11.0103 15.7206C11.0019 15.9966 10.7714 16.2136 10.4954 16.2053C10.2194 16.1969 10.0024 15.9664 10.0107 15.6903C10.0522 14.3236 9.54904 12.9964 8.61204 12.0005Z" fill="#BABABA"/>
<path fill-rule="evenodd" clip-rule="evenodd" d="M12.7334 8.12283C11.7602 7.08858 10.5929 6.25613 9.29809 5.67303C8.00324 5.08992 6.60622 4.76757 5.18679 4.72438C4.91077 4.71598 4.69383 4.48542 4.70222 4.20941C4.71062 3.93339 4.94118 3.71645 5.2172 3.72485C6.76789 3.77203 8.29411 4.12418 9.7087 4.76122C11.1233 5.39825 12.3986 6.30767 13.4617 7.43757C14.5248 8.56746 15.3549 9.8957 15.9047 11.3464C16.4545 12.7972 16.7131 14.342 16.6659 15.8927C16.6575 16.1687 16.4269 16.3856 16.1509 16.3772C15.8749 16.3688 15.6579 16.1382 15.6663 15.8622C15.7096 14.4428 15.4729 13.0287 14.9696 11.7008C14.4664 10.3729 13.7065 9.15708 12.7334 8.12283Z" fill="#BABABA"/>
</svg>
