<svg width="20" height="20" viewBox="0 0 20 20" fill="none" xmlns="http://www.w3.org/2000/svg">
<path fill-rule="evenodd" clip-rule="evenodd" d="M3.02873 2.5C2.73672 2.5 2.5 2.73672 2.5 3.02873V16.9713C2.5 17.2633 2.73672 17.5 3.02873 17.5H16.9713C17.2633 17.5 17.5 17.2633 17.5 16.9713V3.02873C17.5 2.73672 17.2633 2.5 16.9713 2.5H3.02873ZM1.5 3.02873C1.5 2.18444 2.18444 1.5 3.02873 1.5H16.9713C17.8156 1.5 18.5 2.18444 18.5 3.02873V16.9713C18.5 17.8156 17.8156 18.5 16.9713 18.5H3.02873C2.18444 18.5 1.5 17.8156 1.5 16.9713V3.02873Z" fill="#BABABA"/>
<path fill-rule="evenodd" clip-rule="evenodd" d="M10 15.5C9.72388 15.5 9.50003 15.2761 9.50003 15V12.1875C9.50003 12.0243 9.57963 11.8714 9.71329 11.7779L12.625 9.73967V5C12.625 4.72386 12.8489 4.5 13.125 4.5C13.4012 4.5 13.625 4.72386 13.625 5V10C13.625 10.1632 13.5454 10.3161 13.4118 10.4096L10.5 12.4478V15C10.5 15.2761 10.2762 15.5 10 15.5Z" fill="#BABABA"/>
<path fill-rule="evenodd" clip-rule="evenodd" d="M6.58857 10.4098C6.45475 10.3163 6.37503 10.1633 6.37503 10V5C6.37503 4.72385 6.59888 4.5 6.87503 4.5C7.15117 4.5 7.37503 4.72385 7.37503 5V9.73946L10.2865 11.7746C10.5128 11.9328 10.568 12.2445 10.4098 12.4708C10.2516 12.6972 9.9399 12.7524 9.71357 12.5942L6.58857 10.4098Z" fill="#BABABA"/>
<path fill-rule="evenodd" clip-rule="evenodd" d="M4.64647 7.22855C4.45121 7.03329 4.45121 6.71671 4.64647 6.52145L6.52147 4.64645C6.71673 4.45118 7.03332 4.45118 7.22858 4.64645L9.10358 6.52145C9.29884 6.71671 9.29884 7.03329 9.10358 7.22855C8.90832 7.42382 8.59173 7.42382 8.39647 7.22855L6.87503 5.70711L5.35358 7.22855C5.15832 7.42382 4.84173 7.42382 4.64647 7.22855Z" fill="#BABABA"/>
<path fill-rule="evenodd" clip-rule="evenodd" d="M10.8965 7.22855C10.7012 7.03329 10.7012 6.71671 10.8965 6.52145L12.7715 4.64645C12.9667 4.45118 13.2833 4.45118 13.4786 4.64645L15.3536 6.52145C15.5488 6.71671 15.5488 7.03329 15.3536 7.22855C15.1583 7.42382 14.8417 7.42382 14.6465 7.22855L13.125 5.70711L11.6036 7.22855C11.4083 7.42382 11.0917 7.42382 10.8965 7.22855Z" fill="#BABABA"/>
</svg>
