<svg width="20" height="20" viewBox="0 0 20 20" fill="none" xmlns="http://www.w3.org/2000/svg">
<path fill-rule="evenodd" clip-rule="evenodd" d="M14.6464 1.64645C14.8417 1.45118 15.1583 1.45118 15.3536 1.64645L18.3536 4.64645C18.5488 4.84171 18.5488 5.15829 18.3536 5.35355C18.1583 5.54882 17.8417 5.54882 17.6464 5.35355L15.5 3.20711L15.5 10C15.5 10.1632 15.4204 10.3161 15.2867 10.4096L10.5 13.7603L10.5 18C10.5 18.2761 10.2761 18.5 10 18.5C9.72386 18.5 9.5 18.2761 9.5 18L9.5 13.7556L4.71354 10.4098C4.57972 10.3163 4.5 10.1633 4.5 10L4.5 3.20712L2.35355 5.35355C2.15829 5.54882 1.84171 5.54882 1.64645 5.35355C1.45118 5.15829 1.45118 4.84171 1.64645 4.64645L4.64645 1.64647C4.84171 1.4512 5.15829 1.4512 5.35355 1.64647L8.35355 4.64645C8.54881 4.84171 8.54882 5.15829 8.35355 5.35355C8.15829 5.54882 7.84171 5.54882 7.64645 5.35355L5.5 3.20712L5.5 9.73948L10.0034 12.8873L14.5 9.73967L14.5 3.20711L12.3536 5.35355C12.1583 5.54882 11.8417 5.54882 11.6464 5.35355C11.4512 5.15829 11.4512 4.84171 11.6464 4.64645L14.6464 1.64645ZM10.5 13.502V13.5H10L10.2845 13.9064" fill="#BABABA"/>
</svg>
