<svg width="20" height="20" viewBox="0 0 20 20" fill="none" xmlns="http://www.w3.org/2000/svg">
<path fill-rule="evenodd" clip-rule="evenodd" d="M16.8549 1.505H3.14488C2.24488 1.505 1.50488 2.245 1.50488 3.145V16.855C1.50488 17.765 2.24488 18.495 3.14488 18.495H6.52488C6.52488 18.495 6.55488 18.495 6.57488 18.495C6.59488 18.495 6.60488 18.495 6.62488 18.495H16.8549C17.7649 18.495 18.4949 17.755 18.4949 16.855V3.145C18.4949 2.235 17.7549 1.505 16.8549 1.505V1.505ZM6.07488 17.505H3.14488C2.79488 17.505 2.50488 17.215 2.50488 16.865V12.795H6.07488V17.505V17.505ZM6.07488 11.795H2.50488V7.07501H6.07488V11.785V11.795ZM17.5049 16.865C17.5049 17.225 17.2149 17.505 16.8649 17.505H7.07488V12.795H17.5049V16.865ZM17.5049 11.795H7.07488V7.07501H17.5049V11.785V11.795ZM17.5049 6.085H2.50488V3.145C2.50488 2.795 2.79488 2.505 3.14488 2.505H16.8549C17.2049 2.505 17.4949 2.795 17.4949 3.145V6.07501L17.5049 6.085Z" fill="#BABABA"/>
</svg>
