<?xml version="1.0" encoding="UTF-8"?>
<svg id="Outlines" xmlns="http://www.w3.org/2000/svg" viewBox="0 0 24 24">
  <defs>
    <style>
      .cls-1 {
        fill: #1b1b1b;
        stroke-width: 0px;
      }
    </style>
  </defs>
  <g id="rule-outline">
    <path class="cls-1" d="m19.5,21H4.5c-.83,0-1.5-.67-1.5-1.5V4.5c0-.83.67-1.5,1.5-1.5h15c.83,0,1.5.67,1.5,1.5v15c0,.83-.67,1.5-1.5,1.5ZM4.5,4.5v15s15,0,15,0V4.5H4.5Zm0-.75v.75s0,0,0,0v-.75Z"/>
    <path class="cls-1" d="m15.5,17.25h-7c-.47,0-.91-.18-1.24-.51-.33-.33-.51-.77-.51-1.24v-7c0-.46.19-.91.51-1.24.33-.33.77-.51,1.24-.51h7c.46,0,.91.19,1.24.51s.51.78.51,1.24v7c0,.47-.18.91-.51,1.24-.33.33-.78.51-1.24.51Zm-7-9c-.07,0-.13.03-.18.07s-.07.11-.07.18v7c0,.07.03.13.07.18s.11.07.18.07h7c.07,0,.13-.03.18-.07s.07-.11.07-.18v-7c0-.07-.03-.13-.07-.18s-.11-.07-.18-.07h-7Z"/>
    <path class="cls-1" d="m16.5,11.25H7.5c-.41,0-.75-.34-.75-.75s.34-.75.75-.75h9c.41,0,.75.34.75.75s-.34.75-.75.75Z"/>
    <path class="cls-1" d="m16.5,14.25H7.5c-.41,0-.75-.34-.75-.75s.34-.75.75-.75h9c.41,0,.75.34.75.75s-.34.75-.75.75Z"/>
    <path class="cls-1" d="m10.5,17.25c-.41,0-.75-.34-.75-.75V7.5c0-.41.34-.75.75-.75s.75.34.75.75v9c0,.41-.34.75-.75.75Z"/>
  </g>
</svg>