<?xml version="1.0" encoding="UTF-8"?>
<svg id="Outlines" xmlns="http://www.w3.org/2000/svg" viewBox="0 0 24 24">
  <defs>
    <style>
      .cls-1 {
        fill: #1b1b1b;
        stroke-width: 0px;
      }
    </style>
  </defs>
  <g id="script-file-outline">
    <path class="cls-1" d="m19.5,21H4.5c-.83,0-1.5-.67-1.5-1.5V4.5c0-.83.67-1.5,1.5-1.5h15c.83,0,1.5.67,1.5,1.5v15c0,.83-.67,1.5-1.5,1.5ZM4.5,4.5h0v15h15V4.5H4.5Z"/>
    <path class="cls-1" d="m16.5,9.74h-2.57c-.31,0-.6-.12-.83-.34-.22-.22-.34-.52-.34-.83v-2.57c0-.29.24-.52.53-.52s.53.23.53.52v2.57l.12.12h2.57c.29,0,.53.23.53.52s-.24.52-.53.52Z"/>
    <path class="cls-1" d="m15.21,18.1h-6.43c-.48,0-.94-.19-1.28-.53-.34-.34-.53-.8-.53-1.28V7.29c0-.48.19-.94.53-1.28.34-.34.8-.53,1.28-.53h4.5c.14,0,.27.06.37.15l3.21,3.21c.1.1.15.23.15.37v7.07c0,.48-.19.94-.53,1.28-.34.34-.8.53-1.28.53Zm-6.43-11.57c-.2,0-.39.08-.54.22s-.22.33-.22.54v9c0,.2.08.39.22.54s.33.22.54.22h6.43c.2,0,.39-.08.54-.22.14-.14.22-.33.22-.54v-6.85l-2.91-2.91h-4.28Z"/>
    <path class="cls-1" d="m10.71,15.53c-.19,0-.38-.11-.47-.29l-.64-1.29c-.07-.15-.07-.32,0-.47l.64-1.29c.13-.26.45-.36.7-.23s.37.45.24.7l-.53,1.05.53,1.05c.13.26.02.57-.24.7-.08.04-.16.06-.23.06Z"/>
    <path class="cls-1" d="m13.29,15.53c-.08,0-.16-.02-.24-.06-.26-.13-.36-.44-.23-.7l.53-1.05-.53-1.05c-.13-.26-.02-.57.23-.7.26-.13.57-.03.71.23l.64,1.29c.07.15.07.32,0,.47l-.64,1.29c-.09.18-.28.29-.47.29Z"/>
  </g>
</svg>