<svg width="20" height="20" viewBox="0 0 20 20" fill="none" xmlns="http://www.w3.org/2000/svg">
<path d="M8.45003 10.44C8.20003 10.32 7.90003 10.42 7.78003 10.66L6.89003 12.44C6.82003 12.58 6.82003 12.75 6.89003 12.89L7.78003 14.67C7.90003 14.92 8.20003 15.02 8.45003 14.89C8.70003 14.76 8.80003 14.47 8.67003 14.22L7.89003 12.67L8.67003 11.12C8.79003 10.87 8.69003 10.57 8.45003 10.45V10.44Z" fill="#BABABA"/>
<path d="M11.56 10.44C11.31 10.56 11.21 10.86 11.34 11.11L12.12 12.66L11.34 14.21C11.22 14.46 11.32 14.76 11.56 14.88C11.8 15 12.11 14.9 12.23 14.66L13.12 12.88C13.19 12.74 13.19 12.57 13.12 12.43L12.23 10.65C12.11 10.4 11.81 10.3 11.56 10.43V10.44Z" fill="#BABABA"/>
<path d="M16.58 6.09L12.13 1.65C12.04 1.56 11.91 1.5 11.78 1.5H5.56003C4.95003 1.5 4.37003 1.74 3.95003 2.17C3.52003 2.6 3.28003 3.18 3.28003 3.78V16.22C3.28003 16.82 3.52003 17.4 3.95003 17.83C4.38003 18.26 4.96003 18.5 5.56003 18.5H14.45C15.05 18.5 15.63 18.26 16.06 17.83C16.49 17.4 16.73 16.82 16.73 16.22V6.44C16.73 6.31 16.68 6.18 16.58 6.09ZM12.28 3.21L15.02 5.95H12.67C12.57 5.95 12.47 5.91 12.4 5.84C12.33 5.77 12.29 5.67 12.29 5.56V3.21H12.28ZM15.72 16.23C15.72 16.57 15.59 16.89 15.35 17.13C15.11 17.37 14.79 17.5 14.45 17.5H5.56003C5.22003 17.5 4.90003 17.37 4.66003 17.13C4.42003 16.89 4.29003 16.57 4.29003 16.23V3.78C4.29003 3.44 4.42003 3.12 4.66003 2.88C4.90003 2.64 5.22003 2.51 5.56003 2.51H11.28V5.57C11.28 5.94 11.43 6.29 11.69 6.55C11.95 6.81 12.3 6.96 12.67 6.96H15.73V16.22L15.72 16.23Z" fill="#BABABA"/>
</svg>
