<svg width="20" height="20" viewBox="0 0 20 20" fill="none" xmlns="http://www.w3.org/2000/svg">
<path fill-rule="evenodd" clip-rule="evenodd" d="M8.22222 2.5C5.06193 2.5 2.5 5.06193 2.5 8.22222C2.5 11.3825 5.06193 13.9444 8.22222 13.9444C11.3825 13.9444 13.9444 11.3825 13.9444 8.22222C13.9444 5.06193 11.3825 2.5 8.22222 2.5ZM1.5 8.22222C1.5 4.50964 4.50964 1.5 8.22222 1.5C11.9348 1.5 14.9444 4.50964 14.9444 8.22222C14.9444 9.89854 14.3309 11.4316 13.316 12.6089L18.3536 17.6464C18.5488 17.8417 18.5488 18.1583 18.3536 18.3536C18.1583 18.5488 17.8417 18.5488 17.6464 18.3536L12.6089 13.316C11.4316 14.3309 9.89854 14.9444 8.22222 14.9444C4.50964 14.9444 1.5 11.9348 1.5 8.22222Z" fill="#BABABA"/>
</svg>
