<svg width="20" height="20" viewBox="0 0 20 20" fill="none" xmlns="http://www.w3.org/2000/svg">
<path d="M15.69 11.865C15.49 11.665 15.18 11.665 14.98 11.865C14.78 12.065 14.78 12.375 14.98 12.575L16.79 14.385H12.66C12.38 14.385 12.16 14.605 12.16 14.885C12.16 15.165 12.38 15.385 12.66 15.385H16.79L14.98 17.195C14.78 17.395 14.78 17.705 14.98 17.905C15.18 18.105 15.49 18.105 15.69 17.905L18.36 15.235C18.56 15.035 18.56 14.725 18.36 14.525L15.69 11.855V11.865Z" fill="#BABABA"/>
<path d="M17.83 2.61501C17.4 2.18501 16.82 1.94501 16.22 1.94501H3.78C3.17 1.94501 2.59 2.18501 2.17 2.61501C1.75 3.04501 1.5 3.62501 1.5 4.22501V13.115C1.5 13.715 1.74 14.295 2.17 14.725C2.6 15.155 3.18 15.395 3.78 15.395H10C10.28 15.395 10.5 15.175 10.5 14.895C10.5 14.615 10.28 14.395 10 14.395H3.78C3.44 14.395 3.12 14.265 2.88 14.025C2.64 13.785 2.51 13.465 2.51 13.125V5.15501L9.73 9.97501C9.9 10.085 10.12 10.085 10.28 9.97501L17.5 5.15501V10.885C17.5 11.165 17.72 11.385 18 11.385C18.28 11.385 18.5 11.165 18.5 10.885V4.22501C18.5 3.62501 18.26 3.04501 17.83 2.61501ZM10 8.95501L2.52 3.97501C2.57 3.72501 2.69 3.50501 2.87 3.32501C3.11 3.08501 3.43 2.95501 3.77 2.95501H16.22C16.56 2.95501 16.88 3.08501 17.12 3.32501C17.3 3.50501 17.42 3.73501 17.47 3.97501L9.99 8.95501H10Z" fill="#BABABA"/>
</svg>
