<?xml version="1.0" encoding="UTF-8"?>
<svg id="Outlines" xmlns="http://www.w3.org/2000/svg" viewBox="0 0 24 24">
  <defs>
    <style>
      .cls-1 {
        fill: #1b1b1b;
        stroke-width: 0px;
      }
    </style>
  </defs>
  <g id="sub-web-service">
    <path class="cls-1" d="M6.28,20.72c-.71,0-1.72-.07-2.36-.71s-.67-1.52-.67-2.31c0-.41.34-.75.75-.75s.75.34.75.75c0,.33,0,1.02.23,1.25.1.1.41.27,1.3.27.41,0,.75.34.75.75s-.34.75-.75.75Z"/>
    <path class="cls-1" d="M4,13.89c-.41,0-.75-.34-.75-.75v-2.28c0-.41.34-.75.75-.75s.75.34.75.75v2.28c0,.41-.34.75-.75.75Z"/>
    <path class="cls-1" d="M4,7.06c-.41,0-.75-.34-.75-.75,0-.59,0-1.69.67-2.36.67-.67,1.77-.67,2.36-.67.41,0,.75.34.75.75s-.34.75-.75.75c-.32,0-1.07,0-1.3.23-.23.23-.23,1-.23,1.3,0,.41-.34.75-.75.75Z"/>
    <path class="cls-1" d="M13.11,4.78h-2.28c-.41,0-.75-.34-.75-.75s.34-.75.75-.75h2.28c.41,0,.75.34.75.75s-.34.75-.75.75Z"/>
    <path class="cls-1" d="M19.94,7.06c-.41,0-.75-.34-.75-.75,0-.89-.17-1.2-.27-1.3-.23-.23-.92-.23-1.25-.23-.41,0-.75-.34-.75-.75s.34-.75.75-.75c.8,0,1.7.05,2.31.67s.71,1.65.71,2.36c0,.41-.34.75-.75.75Z"/>
    <path class="cls-1" d="M17.72,20.66c-.41,0-.75-.34-.75-.75s.34-.75.75-.75.98,0,1.2-.22c.2-.2.33-.72.33-1.31,0-.41.34-.75.75-.75s.75.34.75.75c0,.6-.1,1.7-.77,2.37s-1.62.66-2.26.66Z"/>
    <path class="cls-1" d="M19.94,13.89c-.41,0-.75-.34-.75-.75v-2.28c0-.41.34-.75.75-.75s.75.34.75.75v2.28c0,.41-.34.75-.75.75Z"/>
    <path class="cls-1" d="M13.11,20.72h-2.28c-.41,0-.75-.34-.75-.75s.34-.75.75-.75h2.28c.41,0,.75.34.75.75s-.34.75-.75.75Z"/>
    <path class="cls-1" d="M11.95,5.98c-3.31,0-6,2.69-6,6s2.69,6,6,6,6-2.69,6-6-2.69-6-6-6ZM16.83,11.98c0,.91-.25,1.76-.69,2.48,0-.57-.01-.84-.43-1.08-.18-.11-.31-.16-.43-.22-.24-.11-.4-.18-.61-.5l-.07-.11c-.23-.35-.39-.59-1.01-.49-1.23.19-1.32.41-1.37.77v.06c-.09.53-.11.71.12.94.83.88,1.34,1.51,1.48,1.88.05.11.14.38.16.69-.61.28-1.3.44-2.02.44-2.68,0-4.87-2.19-4.87-4.88,0-1.28.49-2.44,1.3-3.31.1.28.11.56.11.82,0,.22,0,.42.07.57.1.2.5.29.87.37.13.03.26.05.38.09.33.09.59.39.8.63.09.1.21.25.28.28.03-.02.14-.14.19-.33.04-.14.03-.27-.03-.34-.37-.44-.35-1.28-.23-1.58.18-.49.74-.45,1.15-.43.15,0,.3.02.4,0,.41-.05.54-.68.62-.8.11-.16.38-.37.65-.56,1.86.69,3.19,2.48,3.19,4.57v.02Z"/>
  </g>
</svg>