<svg width="20" height="20" viewBox="0 0 20 20" fill="none" xmlns="http://www.w3.org/2000/svg">
<path fill-rule="evenodd" clip-rule="evenodd" d="M3.02873 2.5C2.73672 2.5 2.5 2.73672 2.5 3.02873V16.9713C2.5 17.2633 2.73672 17.5 3.02873 17.5H16.9713C17.2633 17.5 17.5 17.2633 17.5 16.9713V3.02873C17.5 2.73672 17.2633 2.5 16.9713 2.5H3.02873ZM1.5 3.02873C1.5 2.18444 2.18444 1.5 3.02873 1.5H16.9713C17.8156 1.5 18.5 2.18444 18.5 3.02873V16.9713C18.5 17.8156 17.8156 18.5 16.9713 18.5H3.02873C2.18444 18.5 1.5 17.8156 1.5 16.9713V3.02873Z" fill="#BABABA"/>
<path d="M14.4 8.56501C14.33 8.54501 14.26 8.51501 14.21 8.46501C14.15 8.41501 14.11 8.35501 14.08 8.29501C14.05 8.22501 14.04 8.15501 14.05 8.08501C14.05 8.01501 14.08 7.94501 14.12 7.88501C14.48 7.29501 14.39 6.58501 13.91 6.09501C13.42 5.60501 12.71 5.52501 12.12 5.88501C12.06 5.92501 11.99 5.94501 11.92 5.95501C11.85 5.95501 11.78 5.95501 11.71 5.92501C11.64 5.89501 11.58 5.85501 11.54 5.80501C11.49 5.74501 11.46 5.68501 11.44 5.61501C11.28 4.94501 10.71 4.50501 10.02 4.50501C9.33005 4.50501 8.77005 4.95501 8.60005 5.61501C8.56005 5.75501 8.47005 5.87501 8.33005 5.93501C8.19005 5.99501 8.04005 5.97501 7.92005 5.90501C7.33005 5.54501 6.62005 5.63501 6.13005 6.11501C5.65005 6.59501 5.56005 7.31501 5.92005 7.90501C5.96005 7.96501 5.98005 8.03501 5.98005 8.10501C5.98005 8.17501 5.98005 8.24501 5.95005 8.31501C5.92005 8.38501 5.88005 8.44501 5.82005 8.48501C5.76005 8.52501 5.70005 8.56501 5.63005 8.58501C4.96005 8.74501 4.52005 9.315 4.52005 10.005C4.52005 10.695 4.97005 11.255 5.63005 11.425C5.70005 11.445 5.77005 11.475 5.82005 11.525C5.87005 11.565 5.92005 11.625 5.94005 11.695C5.97005 11.765 5.98005 11.835 5.97005 11.905C5.97005 11.975 5.94005 12.045 5.90005 12.105C5.54005 12.685 5.63005 13.405 6.11005 13.895C6.60005 14.375 7.32005 14.465 7.90005 14.105C7.96005 14.065 8.03005 14.045 8.10005 14.035C8.17005 14.035 8.24005 14.035 8.31005 14.065C8.38005 14.095 8.44005 14.135 8.48005 14.195C8.53005 14.245 8.56005 14.315 8.58005 14.385C8.74005 15.055 9.31004 15.495 10 15.495C10.69 15.495 11.25 15.045 11.42 14.385C11.44 14.315 11.47 14.245 11.52 14.195C11.57 14.145 11.63 14.095 11.69 14.075C11.76 14.045 11.83 14.035 11.9 14.045C11.97 14.045 12.04 14.075 12.1 14.115C12.68 14.475 13.41 14.385 13.89 13.905C14.38 13.425 14.46 12.705 14.1 12.115C14.06 12.055 14.04 11.985 14.03 11.905C14.03 11.835 14.03 11.765 14.06 11.695C14.09 11.625 14.13 11.565 14.18 11.525C14.23 11.475 14.3 11.445 14.37 11.425C15.04 11.265 15.48 10.695 15.48 10.005C15.48 9.315 15.03 8.75501 14.37 8.58501L14.4 8.56501ZM14.16 10.425C13.94 10.475 13.73 10.585 13.56 10.735C13.39 10.885 13.25 11.075 13.16 11.285C13.07 11.495 13.04 11.725 13.05 11.955C13.07 12.185 13.14 12.405 13.26 12.605C13.43 12.885 13.26 13.105 13.19 13.165C13.13 13.225 12.91 13.405 12.63 13.235C12.44 13.115 12.21 13.045 11.99 13.025C11.75 13.005 11.53 13.045 11.32 13.135C11.11 13.225 10.92 13.365 10.77 13.535C10.62 13.705 10.52 13.915 10.46 14.135C10.38 14.455 10.1 14.485 10.02 14.485C9.94005 14.485 9.65005 14.455 9.58005 14.135C9.53005 13.915 9.42005 13.705 9.27005 13.525C9.12005 13.355 8.93005 13.215 8.72005 13.125C8.54005 13.055 8.35005 13.015 8.16005 13.015C8.12005 13.015 8.09005 13.015 8.05005 13.015C7.82005 13.035 7.60005 13.105 7.40005 13.225C7.11005 13.395 6.90005 13.225 6.84005 13.155C6.78005 13.095 6.60005 12.875 6.77005 12.595C6.89005 12.395 6.96005 12.175 6.98005 11.945C7.00005 11.715 6.96005 11.485 6.87005 11.275C6.78005 11.065 6.64005 10.875 6.47005 10.725C6.30005 10.575 6.09005 10.465 5.87005 10.415C5.55005 10.335 5.52005 10.055 5.52005 9.97501C5.52005 9.89501 5.55005 9.60501 5.87005 9.53501C6.09005 9.48501 6.30005 9.37501 6.47005 9.22501C6.64005 9.07501 6.78005 8.88501 6.87005 8.67501C6.96005 8.46501 6.99005 8.23501 6.98005 8.00501C6.96005 7.77501 6.89005 7.55501 6.77005 7.35501C6.60005 7.06501 6.77005 6.85501 6.84005 6.79501C6.90005 6.73501 7.12005 6.55501 7.40005 6.72501C7.80005 6.96501 8.28005 7.00501 8.72005 6.82501C9.15005 6.64501 9.47005 6.27501 9.58005 5.82501C9.66005 5.50501 9.94005 5.47501 10.02 5.47501C10.1 5.47501 10.39 5.50501 10.46 5.82501C10.51 6.04501 10.62 6.25501 10.77 6.42501C10.92 6.59501 11.11 6.73501 11.32 6.82501C11.53 6.91501 11.76 6.94501 11.99 6.93501C12.22 6.91501 12.44 6.84501 12.64 6.72501C12.93 6.55501 13.14 6.72501 13.2 6.79501C13.26 6.85501 13.44 7.07501 13.27 7.35501C13.15 7.54501 13.08 7.77501 13.06 8.00501C13.04 8.23501 13.08 8.46501 13.17 8.67501C13.26 8.88501 13.39 9.07501 13.57 9.22501C13.74 9.37501 13.95 9.47501 14.17 9.53501C14.49 9.61501 14.52 9.89501 14.52 9.97501C14.52 10.055 14.49 10.345 14.17 10.415L14.16 10.425Z" fill="#BABABA"/>
<path d="M10.0101 7.815C8.82011 7.815 7.84011 8.785 7.84011 9.985C7.84011 11.185 8.81011 12.155 10.0101 12.155C11.2101 12.155 12.1801 11.185 12.1801 9.985C12.1801 8.785 11.2101 7.815 10.0101 7.815ZM10.0101 11.145C9.37011 11.145 8.84011 10.625 8.84011 9.975C8.84011 9.325 9.36011 8.805 10.0101 8.805C10.6601 8.805 11.1801 9.325 11.1801 9.975C11.1801 10.625 10.6601 11.145 10.0101 11.145Z" fill="#BABABA"/>
</svg>
