<svg width="20" height="20" viewBox="0 0 20 20" fill="none" xmlns="http://www.w3.org/2000/svg">
<path fill-rule="evenodd" clip-rule="evenodd" d="M6.04641 2.70297L8.58039 5.23695C8.67416 5.33072 8.72683 5.45789 8.72683 5.5905V8.22683C8.72683 8.50298 8.50298 8.72683 8.22683 8.72683H5.5905C5.45789 8.72683 5.33072 8.67416 5.23695 8.58039L2.70297 6.04641C2.49063 6.75107 2.44317 7.49867 2.56874 8.23051C2.73564 9.20326 3.2 10.1003 3.89789 10.7982C4.59577 11.4961 5.49286 11.9605 6.4656 12.1274C7.43835 12.2943 8.43892 12.1555 9.32952 11.7301C9.52072 11.6388 9.74872 11.6779 9.89855 11.8278L15.1712 17.1004C15.4271 17.3563 15.774 17.5 16.1358 17.5C16.4976 17.5 16.8446 17.3563 17.1004 17.1004C17.3563 16.8446 17.5 16.4976 17.5 16.1358C17.5 15.774 17.3563 15.4271 17.1004 15.1712L11.8278 9.89855C11.6779 9.74872 11.6388 9.52072 11.7301 9.32952C12.1555 8.43892 12.2943 7.43835 12.1274 6.4656C11.9605 5.49286 11.4961 4.59577 10.7982 3.89789C10.1003 3.2 9.20326 2.73564 8.23051 2.56874C7.49867 2.44317 6.75107 2.49063 6.04641 2.70297ZM4.93563 2.0636C6.01284 1.54913 7.22305 1.38127 8.39961 1.58314C9.57618 1.78501 10.6612 2.34667 11.5053 3.19078C12.3494 4.03489 12.9111 5.11994 13.113 6.2965C13.2946 7.35528 13.1769 8.44131 12.7766 9.43314L17.8076 14.4641C18.2509 14.9075 18.5 15.5088 18.5 16.1358C18.5 16.7628 18.2509 17.3642 17.8076 17.8076C17.3642 18.2509 16.7628 18.5 16.1358 18.5C15.5088 18.5 14.9075 18.2509 14.4641 17.8076L9.43314 12.7766C8.44131 13.1769 7.35528 13.2946 6.2965 13.113C5.11994 12.9111 4.03489 12.3494 3.19078 11.5053C2.34667 10.6612 1.78501 9.57618 1.58314 8.39961C1.38127 7.22305 1.54913 6.01284 2.0636 4.93563C2.13355 4.78916 2.27025 4.68576 2.43023 4.65831C2.59021 4.63087 2.75356 4.68278 2.86833 4.79756L5.79761 7.72683H7.72683V5.79761L4.79756 2.86833C4.68278 2.75356 4.63087 2.59021 4.65831 2.43023C4.68576 2.27025 4.78916 2.13355 4.93563 2.0636Z" fill="#BABABA"/>
</svg>
