<svg width="20" height="20" viewBox="0 0 20 20" fill="none" xmlns="http://www.w3.org/2000/svg">
<path fill-rule="evenodd" clip-rule="evenodd" d="M11.975 3.05291C11.4727 0.982614 8.5279 0.982526 8.02544 3.05265C7.86008 3.73266 7.08472 4.05496 6.48482 3.69022C4.66486 2.58252 2.5832 4.66517 3.69139 6.48425C3.77602 6.62304 3.82677 6.78001 3.83933 6.94207C3.8519 7.10414 3.82602 7.26688 3.7638 7.41705C3.70158 7.56723 3.60479 7.70059 3.48129 7.80628C3.35779 7.91198 3.21108 7.98702 3.0531 8.02529C0.982807 8.52754 0.982579 11.4724 3.05269 11.9749C3.21053 12.0132 3.35709 12.0883 3.48045 12.194C3.60381 12.2997 3.70049 12.433 3.76263 12.5831C3.82478 12.7332 3.85063 12.8958 3.8381 13.0577C3.82556 13.2197 3.77499 13.3764 3.69049 13.5151C2.58244 15.3352 4.66514 17.4171 6.48431 16.3089C6.6231 16.2243 6.78006 16.1735 6.94213 16.161C7.10419 16.1484 7.26693 16.1743 7.41711 16.2365C7.56728 16.2987 7.70064 16.3955 7.80634 16.519C7.91203 16.6425 7.98707 16.7892 8.02535 16.9472C8.52759 19.0175 11.4724 19.0177 11.9749 16.9476C12.0133 16.7898 12.0884 16.6432 12.1941 16.5199C12.2997 16.3965 12.433 16.2998 12.5831 16.2377C12.7332 16.1755 12.8958 16.1497 13.0578 16.1622C13.2197 16.1747 13.3765 16.2253 13.5152 16.3098C15.3352 17.4179 17.4172 15.3352 16.309 13.516C16.2243 13.3772 16.1736 13.2202 16.161 13.0582C16.1485 12.8961 16.1743 12.7334 16.2365 12.5832C16.2988 12.433 16.3956 12.2997 16.5191 12.194C16.6426 12.0883 16.7893 12.0132 16.9473 11.9749C19.0175 11.4727 19.0175 8.52779 16.9474 8.02533C16.7897 7.98692 16.6432 7.91186 16.5199 7.80624C16.3965 7.70055 16.2999 7.56725 16.2377 7.41717C16.1756 7.26709 16.1497 7.10446 16.1623 6.94251C16.1748 6.78055 16.2254 6.62375 16.3099 6.48502C17.418 4.665 15.3351 2.5832 13.5159 3.69144C13.3771 3.77606 13.2203 3.82671 13.0582 3.83928C12.8962 3.85184 12.7334 3.82597 12.5832 3.76375C12.4331 3.70153 12.2997 3.60473 12.194 3.48124C12.0883 3.35774 12.0132 3.21089 11.975 3.05291ZM8.99719 3.28867C9.25225 2.23732 10.748 2.23727 11.0031 3.28853C11.0785 3.59947 11.2262 3.88837 11.4343 4.13145C11.6423 4.37457 11.9049 4.56512 12.2005 4.6876C12.4961 4.81008 12.8165 4.86102 13.1355 4.83629C13.4545 4.81156 13.7631 4.71187 14.0363 4.54535C14.9603 3.98248 16.0188 5.04014 15.4558 5.965C15.2895 6.23808 15.1899 6.54655 15.1652 6.86533C15.1406 7.18415 15.1915 7.5043 15.3138 7.79975C15.4361 8.09519 15.6265 8.35761 15.8693 8.56565C16.1121 8.7737 16.4006 8.92151 16.7114 8.99707C17.7627 9.25213 17.763 10.7479 16.7118 11.0031C16.4008 11.0784 16.1119 11.2262 15.8688 11.4342C15.6257 11.6423 15.4352 11.9048 15.3127 12.2004C15.1902 12.4961 15.1393 12.8164 15.164 13.1355C15.1887 13.4545 15.2885 13.7632 15.455 14.0364C16.0177 14.9603 14.9601 16.0187 14.0353 15.4557C13.7622 15.2894 13.4538 15.1899 13.135 15.1652C12.9888 15.1539 12.8423 15.1584 12.698 15.1785C12.5277 15.2022 12.3605 15.2475 12.2006 15.3137C12.0404 15.3801 11.89 15.4663 11.7526 15.5701C11.6366 15.6578 11.5299 15.758 11.4346 15.8692C11.2266 16.1121 11.0788 16.4006 11.0032 16.7113C10.7482 17.7627 9.25235 17.7628 8.99719 16.7116C8.92183 16.4006 8.77412 16.1119 8.56609 15.8688C8.35802 15.6257 8.09549 15.4351 7.79986 15.3126C7.50423 15.1902 7.18387 15.1392 6.86483 15.164C6.54579 15.1887 6.2371 15.2884 5.96389 15.455C5.03998 16.0176 3.98155 14.9601 4.54459 14.0352C4.7109 13.7622 4.81044 13.4537 4.83511 13.1349C4.85979 12.8161 4.80889 12.4959 4.68656 12.2005C4.56422 11.9051 4.3739 11.6426 4.13105 11.4346C3.88821 11.2265 3.59944 11.0787 3.28872 11.0031C2.23737 10.7481 2.23746 9.2523 3.28872 8.99714C3.59966 8.92178 3.88842 8.77407 4.13151 8.56603C4.37462 8.35797 4.56517 8.09544 4.68765 7.79981C4.81013 7.50418 4.86108 7.18381 4.83634 6.86477C4.81161 6.5458 4.71193 6.23717 4.5454 5.96399C3.98253 5.04005 5.04044 3.98162 5.96531 4.54469C7.14319 5.26084 8.67189 4.62643 8.99719 3.28867ZM6.83352 10C6.83352 8.25114 8.25128 6.83337 10.0002 6.83337C11.7491 6.83337 13.1669 8.25114 13.1669 10C13.1669 11.7489 11.7491 13.1667 10.0002 13.1667C8.25128 13.1667 6.83352 11.7489 6.83352 10ZM10.0002 7.83337C8.80357 7.83337 7.83352 8.80342 7.83352 10C7.83352 11.1967 8.80357 12.1667 10.0002 12.1667C11.1968 12.1667 12.1669 11.1967 12.1669 10C12.1669 8.80342 11.1968 7.83337 10.0002 7.83337Z" fill="#BABABA"/>
</svg>
