<svg width="20" height="20" viewBox="0 0 20 20" fill="none" xmlns="http://www.w3.org/2000/svg">
<path fill-rule="evenodd" clip-rule="evenodd" d="M3.02873 2.5C2.73672 2.5 2.5 2.73672 2.5 3.02873V16.9713C2.5 17.2633 2.73672 17.5 3.02873 17.5H16.9713C17.2633 17.5 17.5 17.2633 17.5 16.9713V3.02873C17.5 2.73672 17.2633 2.5 16.9713 2.5H3.02873ZM1.5 3.02873C1.5 2.18444 2.18444 1.5 3.02873 1.5H16.9713C17.8156 1.5 18.5 2.18444 18.5 3.02873V16.9713C18.5 17.8156 17.8156 18.5 16.9713 18.5H3.02873C2.18444 18.5 1.5 17.8156 1.5 16.9713V3.02873Z" fill="#BABABA"/>
<path fill-rule="evenodd" clip-rule="evenodd" d="M7.89836 5.54352L9.24535 6.89051C9.33912 6.98428 9.3918 7.11146 9.3918 7.24406V8.89177C9.3918 9.16791 9.16794 9.39177 8.8918 9.39177H7.24409C7.11148 9.39177 6.9843 9.33909 6.89054 9.24533L5.54354 7.89833C5.48697 8.21523 5.48522 8.54138 5.54029 8.86236C5.63804 9.43211 5.91003 9.95755 6.31879 10.3663C6.72755 10.7751 7.25298 11.0471 7.82273 11.1448C8.39249 11.2426 8.97853 11.1613 9.50017 10.9121C9.69137 10.8208 9.91937 10.86 10.0692 11.0098L13.3646 14.3052C13.4894 14.4299 13.6585 14.5 13.8349 14.5C14.0113 14.5 14.1805 14.4299 14.3052 14.3052C14.43 14.1805 14.5 14.0113 14.5 13.8349C14.5 13.6585 14.43 13.4893 14.3052 13.3646L11.0098 10.0692C10.86 9.91935 10.8209 9.69135 10.9122 9.50014C11.1613 8.9785 11.2426 8.39246 11.1448 7.82271C11.0471 7.25296 10.7751 6.72752 10.3663 6.31876C9.95757 5.91 9.43214 5.63802 8.86239 5.54026C8.54141 5.48519 8.21525 5.48694 7.89836 5.54352ZM6.75399 4.87055C7.46223 4.5323 8.25792 4.42194 9.03149 4.55466C9.80506 4.68739 10.5185 5.05667 11.0734 5.61165C11.6284 6.16664 11.9977 6.88004 12.1304 7.65361C12.2428 8.30846 12.1809 8.97918 11.9541 9.59927L15.0123 12.6575C15.3246 12.9698 15.5 13.3933 15.5 13.8349C15.5 14.2765 15.3246 14.7 15.0123 15.0123C14.7001 15.3246 14.2765 15.5 13.8349 15.5C13.3933 15.5 12.9698 15.3246 12.6575 15.0123L9.5993 11.9541C8.9792 12.1809 8.30849 12.2428 7.65363 12.1304C6.88006 11.9977 6.16667 11.6284 5.61168 11.0734C5.05669 10.5184 4.68741 9.80503 4.55469 9.03147C4.42196 8.2579 4.53233 7.46221 4.87058 6.75396C4.94053 6.60749 5.07723 6.5041 5.23721 6.47665C5.39719 6.4492 5.56054 6.50112 5.67532 6.61589L7.4512 8.39177H8.3918V7.45117L6.61592 5.67529C6.50114 5.56052 6.44922 5.39717 6.47667 5.23719C6.50412 5.07721 6.60752 4.94051 6.75399 4.87055Z" fill="#BABABA"/>
</svg>
