<?xml version="1.0" encoding="UTF-8"?>
<svg id="Outlines" xmlns="http://www.w3.org/2000/svg" viewBox="0 0 24 24">
  <defs>
    <style>
      .cls-1 {
        fill: #1b1b1b;
        stroke-width: 0px;
      }
    </style>
  </defs>
  <g id="settings">
    <path class="cls-1" d="m12,21.75c-1.16,0-2.13-.76-2.4-1.89-.06-.25-.22-.47-.44-.6-.22-.14-.48-.18-.74-.12-.1.02-.19.06-.28.12-.99.61-2.21.46-3.04-.36-.82-.82-.97-2.04-.36-3.04.14-.22.18-.48.11-.74s-.22-.47-.44-.6c-.09-.05-.18-.09-.28-.12-1.13-.27-1.89-1.24-1.89-2.4s.76-2.13,1.89-2.4c.25-.06.47-.22.6-.44.14-.22.18-.48.12-.74-.02-.1-.06-.19-.12-.28-.61-.99-.46-2.21.36-3.04s2.04-.97,3.04-.37c.27.17.59.19.88.07s.5-.36.57-.67c.27-1.13,1.24-1.89,2.4-1.89s2.13.76,2.4,1.89c.13.52.66.83,1.18.72.1-.02.19-.06.28-.11,1-.61,2.22-.46,3.04.36s.97,2.04.36,3.04c-.14.22-.18.48-.12.74s.22.47.44.6c.09.05.18.09.28.12,1.13.27,1.89,1.24,1.89,2.4s-.76,2.13-1.89,2.4c-.52.13-.84.66-.72,1.18.02.1.06.19.12.28.61.99.46,2.21-.36,3.04-.82.82-2.04.97-3.04.36-.46-.28-1.06-.13-1.34.33-.05.09-.09.18-.12.28-.27,1.13-1.24,1.89-2.4,1.89Zm-3.35-4.14c.45,0,.89.12,1.28.36.56.34.96.89,1.12,1.53.13.55.58.74.95.74s.81-.2.95-.74c.06-.25.16-.49.29-.7.71-1.17,2.24-1.53,3.4-.83.48.29.93.12,1.2-.14.26-.26.44-.71.14-1.2-.13-.22-.23-.46-.29-.7-.32-1.33.5-2.67,1.82-2.99.55-.13.74-.58.74-.95s-.2-.81-.74-.95c-.25-.06-.49-.16-.7-.29-.56-.34-.96-.89-1.12-1.53-.16-.64-.05-1.31.29-1.87.29-.48.12-.93-.14-1.2-.26-.26-.71-.44-1.2-.14-.21.13-.45.23-.71.29-1.32.32-2.66-.5-2.99-1.82-.13-.55-.58-.74-.95-.74s-.81.2-.95.74h0c-.19.78-.72,1.4-1.46,1.7-.74.31-1.55.24-2.23-.17-.48-.29-.94-.12-1.2.14s-.44.71-.14,1.19c.13.22.23.46.29.71.16.64.05,1.31-.29,1.87-.34.56-.89.96-1.53,1.12-.55.13-.74.58-.74.95s.2.81.74.95c.24.06.48.16.7.29.57.35.96.89,1.12,1.53s.05,1.31-.29,1.87c-.29.48-.12.93.14,1.2.26.26.71.44,1.2.14.22-.13.46-.23.71-.29.2-.05.39-.07.59-.07Zm1.67-13.3h0,0Z"/>
    <path class="cls-1" d="m12,15.75c-2.07,0-3.75-1.68-3.75-3.75s1.68-3.75,3.75-3.75,3.75,1.68,3.75,3.75-1.68,3.75-3.75,3.75Zm0-6c-1.24,0-2.25,1.01-2.25,2.25s1.01,2.25,2.25,2.25,2.25-1.01,2.25-2.25-1.01-2.25-2.25-2.25Z"/>
  </g>
</svg>