<?xml version="1.0" encoding="UTF-8"?>
<svg id="Outlines" xmlns="http://www.w3.org/2000/svg" viewBox="0 0 24 24">
  <defs>
    <style>
      .cls-1 {
        fill: #1b1b1b;
        stroke-width: 0px;
      }
    </style>
  </defs>
  <g id="start-signal-outline">
    <path class="cls-1" d="m12,21.6c-2.56,0-4.97-1-6.79-2.81-1.81-1.81-2.81-4.22-2.81-6.79s1-4.98,2.81-6.79c1.81-1.81,4.22-2.81,6.79-2.81s4.98,1,6.79,2.81c1.81,1.81,2.81,4.22,2.81,6.79s-1,4.97-2.81,6.79c-1.81,1.81-4.22,2.81-6.79,2.81Zm0-18c-2.24,0-4.35.87-5.94,2.46-1.59,1.59-2.46,3.7-2.46,5.94s.87,4.35,2.46,5.94c1.59,1.59,3.7,2.46,5.94,2.46s4.35-.87,5.94-2.46c1.59-1.59,2.46-3.7,2.46-5.94s-.87-4.35-2.46-5.94c-1.56-1.56-3.73-2.46-5.94-2.46Z"/>
    <path class="cls-1" d="m9,15.01c-.27,0-.52-.14-.65-.38-.14-.23-.13-.52,0-.76l3.11-5.25c.14-.23.38-.37.65-.37h0c.27,0,.51.14.65.38l2.99,5.19c.13.23.13.51,0,.75s-.38.38-.64.38l-6.11.07h0Zm3.1-4.52l-1.78,3,3.49-.04-1.71-2.97Z"/>
  </g>
</svg>