<svg width="20" height="20" viewBox="0 0 20 20" fill="none" xmlns="http://www.w3.org/2000/svg">
<path fill-rule="evenodd" clip-rule="evenodd" d="M10.0001 1.5C10.2762 1.5 10.5001 1.72386 10.5001 2V9.49999H18C18.2761 9.49999 18.5 9.72385 18.5 9.99999C18.5 10.2761 18.2761 10.5 18 10.5H10.5001V18C10.5001 18.2761 10.2762 18.5 10.0001 18.5C9.72395 18.5 9.5001 18.2761 9.5001 18V10.5H2C1.72386 10.5 1.5 10.2761 1.5 9.99999C1.5 9.72385 1.72386 9.49999 2 9.49999H9.5001V2C9.5001 1.72386 9.72395 1.5 10.0001 1.5Z" fill="#BABABA"/>
</svg>
