<svg width="20" height="20" viewBox="0 0 20 20" fill="none" xmlns="http://www.w3.org/2000/svg">
<path fill-rule="evenodd" clip-rule="evenodd" d="M10 2.5C5.85786 2.5 2.5 5.85786 2.5 10C2.5 14.1421 5.85786 17.5 10 17.5C14.1421 17.5 17.5 14.1421 17.5 10C17.5 5.85786 14.1421 2.5 10 2.5ZM1.5 10C1.5 5.30558 5.30558 1.5 10 1.5C14.6944 1.5 18.5 5.30558 18.5 10C18.5 14.6944 14.6944 18.5 10 18.5C5.30558 18.5 1.5 14.6944 1.5 10Z" fill="#BABABA"/>
<path fill-rule="evenodd" clip-rule="evenodd" d="M13 10C13 9.83282 12.9164 9.67671 12.7774 9.58397L9.02735 7.08397C8.87392 6.98169 8.67665 6.97215 8.51407 7.05916C8.35149 7.14617 8.25 7.3156 8.25 7.5V12.5C8.25 12.6844 8.35149 12.8538 8.51407 12.9408C8.67665 13.0278 8.87392 13.0183 9.02735 12.916L12.7774 10.416C12.9164 10.3233 13 10.1672 13 10ZM9.25 11.5657V8.43426L11.5986 10L9.25 11.5657Z" fill="#BABABA"/>
</svg>
