<svg width="21" height="20" viewBox="0 0 21 20" fill="none" xmlns="http://www.w3.org/2000/svg">
<path fill-rule="evenodd" clip-rule="evenodd" d="M10.3762 2.5C6.23409 2.5 2.87622 5.85786 2.87622 10C2.87622 14.1421 6.23409 17.5 10.3762 17.5C14.5184 17.5 17.8762 14.1421 17.8762 10C17.8762 5.85786 14.5184 2.5 10.3762 2.5ZM1.87622 10C1.87622 5.30558 5.6818 1.5 10.3762 1.5C15.0706 1.5 18.8762 5.30558 18.8762 10C18.8762 14.6944 15.0706 18.5 10.3762 18.5C5.6818 18.5 1.87622 14.6944 1.87622 10ZM11.1589 5.50739C11.4309 5.55478 11.613 5.81373 11.5656 6.08578L10.1721 14.0858C10.1247 14.3578 9.86574 14.5399 9.59369 14.4926C9.32164 14.4452 9.13952 14.1862 9.18691 13.9142L10.5805 5.91417C10.6279 5.64212 10.8868 5.46 11.1589 5.50739ZM7.85519 7.05837C8.06158 7.24183 8.08017 7.55786 7.89672 7.76425L5.9094 9.99999L7.89672 12.2357C8.08017 12.4421 8.06158 12.7582 7.85519 12.9416C7.6488 13.1251 7.33277 13.1065 7.14931 12.9001L4.86671 10.3322C4.69832 10.1427 4.69832 9.85725 4.86671 9.66781L7.14931 7.09989C7.33277 6.8935 7.6488 6.87491 7.85519 7.05837ZM12.8973 7.05837C13.1037 6.87491 13.4197 6.8935 13.6032 7.09989L15.8858 9.66781C16.0542 9.85725 16.0542 10.1427 15.8858 10.3322L13.6032 12.9001C13.4197 13.1065 13.1037 13.1251 12.8973 12.9416C12.6909 12.7582 12.6723 12.4421 12.8558 12.2357L14.8431 9.99999L12.8558 7.76425C12.6723 7.55786 12.6909 7.24183 12.8973 7.05837Z" fill="#BABABA"/>
</svg>
