<?xml version="1.0" encoding="UTF-8"?>
<svg id="Outlines" xmlns="http://www.w3.org/2000/svg" viewBox="0 0 24 24">
  <defs>
    <style>
      .cls-1 {
        fill: #1b1b1b;
        stroke-width: 0px;
      }
    </style>
  </defs>
  <g id="start-program-outline">
    <path class="cls-1" d="m8.5,14.25c-.19,0-.38-.07-.53-.22l-1.5-1.5c-.29-.29-.29-.77,0-1.06l1.5-1.5c.29-.29.77-.29,1.06,0s.29.77,0,1.06l-.97.97.97.97c.29.29.29.77,0,1.06-.15.15-.34.22-.53.22Z"/>
    <path class="cls-1" d="m15.5,14.25c-.19,0-.38-.07-.53-.22-.29-.29-.29-.77,0-1.06l.97-.97-.97-.97c-.29-.29-.29-.77,0-1.06s.77-.29,1.06,0l1.5,1.5c.29.29.29.77,0,1.06l-1.5,1.5c-.15.15-.34.22-.53.22Z"/>
    <path class="cls-1" d="m12,21.75c-5.38,0-9.75-4.37-9.75-9.75S6.62,2.25,12,2.25s9.75,4.37,9.75,9.75-4.37,9.75-9.75,9.75Zm0-18C7.45,3.75,3.75,7.45,3.75,12s3.7,8.25,8.25,8.25,8.25-3.7,8.25-8.25S16.55,3.75,12,3.75Z"/>
    <path class="cls-1" d="m11,15.75c-.08,0-.17-.01-.26-.04-.39-.14-.59-.57-.45-.96l2-5.5c.14-.39.57-.59.96-.45.39.14.59.57.45.96l-2,5.5c-.11.3-.4.49-.71.49Z"/>
  </g>
</svg>