<?xml version="1.0" encoding="UTF-8"?>
<svg id="Outlines" xmlns="http://www.w3.org/2000/svg" viewBox="0 0 24 24">
  <defs>
    <style>
      .cls-1 {
        fill: #1b1b1b;
        stroke-width: 0px;
      }
    </style>
  </defs>
  <g id="straighten">
    <path class="cls-1" d="m17,16.75c-.19,0-.38-.07-.53-.22-.29-.29-.29-.77,0-1.06l3.47-3.47-3.47-3.47c-.29-.29-.29-.77,0-1.06s.77-.29,1.06,0l4,4c.14.14.22.33.22.53s-.08.39-.22.53l-4,4c-.15.15-.34.22-.53.22Z"/>
    <path class="cls-1" d="m7,16.75c-.19,0-.38-.07-.53-.22l-4-4c-.14-.14-.22-.33-.22-.53s.08-.39.22-.53l4-4c.29-.29.77-.29,1.06,0s.29.77,0,1.06l-3.47,3.47,3.47,3.47c.29.29.29.77,0,1.06-.15.15-.34.22-.53.22Z"/>
    <path class="cls-1" d="m21,12.75H3c-.41,0-.75-.34-.75-.75s.34-.75.75-.75h18c.41,0,.75.34.75.75s-.34.75-.75.75Z"/>
  </g>
</svg>