<svg width="20" height="20" viewBox="0 0 20 20" fill="none" xmlns="http://www.w3.org/2000/svg">
<path fill-rule="evenodd" clip-rule="evenodd" d="M4.85355 7.14645C5.04882 7.34171 5.04882 7.65829 4.85355 7.85355L3.20711 9.5L17.2929 9.5L15.6464 7.85355C15.4512 7.65829 15.4512 7.34171 15.6464 7.14645C15.8417 6.95118 16.1583 6.95118 16.3536 7.14645L18.8536 9.64645C18.9473 9.74021 19 9.86739 19 10C19 10.1326 18.9473 10.2598 18.8536 10.3536L16.3536 12.8536C16.1583 13.0488 15.8417 13.0488 15.6464 12.8536C15.4512 12.6583 15.4512 12.3417 15.6464 12.1464L17.2929 10.5L3.20711 10.5L4.85355 12.1464C5.04882 12.3417 5.04882 12.6583 4.85355 12.8536C4.65829 13.0488 4.34171 13.0488 4.14645 12.8536L1.64645 10.3536C1.45118 10.1583 1.45118 9.84171 1.64645 9.64645L4.14645 7.14645C4.34171 6.95118 4.65829 6.95118 4.85355 7.14645Z" fill="#BABABA"/>
</svg>
