<?xml version="1.0" encoding="UTF-8"?>
<svg id="Outlines" xmlns="http://www.w3.org/2000/svg" viewBox="0 0 24 24">
  <defs>
    <style>
      .cls-1 {
        fill: #1b1b1b;
        stroke-width: 0px;
      }
    </style>
  </defs>
  <g id="sub-rule-outline">
    <path class="cls-1" d="M6.28,20.72c-.71,0-1.72-.07-2.36-.71s-.67-1.52-.67-2.31c0-.41.34-.75.75-.75s.75.34.75.75c0,.33,0,1.02.23,1.25.1.1.41.27,1.3.27.41,0,.75.34.75.75s-.34.75-.75.75Z"/>
    <path class="cls-1" d="M4,13.89c-.41,0-.75-.34-.75-.75v-2.28c0-.41.34-.75.75-.75s.75.34.75.75v2.28c0,.41-.34.75-.75.75Z"/>
    <path class="cls-1" d="M4,7.06c-.41,0-.75-.34-.75-.75,0-.59,0-1.69.67-2.36.67-.67,1.77-.67,2.36-.67.41,0,.75.34.75.75s-.34.75-.75.75c-.32,0-1.07,0-1.3.23-.23.23-.23,1-.23,1.3,0,.41-.34.75-.75.75Z"/>
    <path class="cls-1" d="M13.11,4.78h-2.28c-.41,0-.75-.34-.75-.75s.34-.75.75-.75h2.28c.41,0,.75.34.75.75s-.34.75-.75.75Z"/>
    <path class="cls-1" d="M19.94,7.06c-.41,0-.75-.34-.75-.75,0-.89-.17-1.2-.27-1.3-.23-.23-.92-.23-1.25-.23-.41,0-.75-.34-.75-.75s.34-.75.75-.75c.8,0,1.7.05,2.31.67s.71,1.65.71,2.36c0,.41-.34.75-.75.75Z"/>
    <path class="cls-1" d="M17.72,20.66c-.41,0-.75-.34-.75-.75s.34-.75.75-.75.98,0,1.2-.22c.2-.2.33-.72.33-1.31,0-.41.34-.75.75-.75s.75.34.75.75c0,.6-.1,1.7-.77,2.37s-1.62.66-2.26.66Z"/>
    <path class="cls-1" d="M19.94,13.89c-.41,0-.75-.34-.75-.75v-2.28c0-.41.34-.75.75-.75s.75.34.75.75v2.28c0,.41-.34.75-.75.75Z"/>
    <path class="cls-1" d="M13.11,20.72h-2.28c-.41,0-.75-.34-.75-.75s.34-.75.75-.75h2.28c.41,0,.75.34.75.75s-.34.75-.75.75Z"/>
    <path class="cls-1" d="M15.45,17.23h-7c-.46,0-.91-.19-1.24-.51s-.51-.78-.51-1.24v-7c0-.46.19-.91.51-1.24s.78-.51,1.24-.51h7c.47,0,.91.18,1.24.51.33.33.51.78.51,1.24v7c0,.46-.19.91-.51,1.24s-.77.51-1.24.51ZM8.45,8.23c-.07,0-.13.03-.18.07s-.07.11-.07.18v7c0,.07.03.13.07.18s.11.07.18.07h7c.07,0,.13-.03.18-.07s.07-.11.07-.18v-7c0-.07-.03-.13-.07-.18s-.11-.07-.18-.07h-7Z"/>
    <path class="cls-1" d="M16.45,11.23H7.45c-.41,0-.75-.34-.75-.75s.34-.75.75-.75h9c.41,0,.75.34.75.75s-.34.75-.75.75Z"/>
    <path class="cls-1" d="M16.45,14.23H7.45c-.41,0-.75-.34-.75-.75s.34-.75.75-.75h9c.41,0,.75.34.75.75s-.34.75-.75.75Z"/>
    <path class="cls-1" d="M10.45,17.23c-.41,0-.75-.34-.75-.75V7.48c0-.41.34-.75.75-.75s.75.34.75.75v9c0,.41-.34.75-.75.75Z"/>
  </g>
</svg>