<svg width="20" height="20" viewBox="0 0 20 20" fill="none" xmlns="http://www.w3.org/2000/svg">
<path fill-rule="evenodd" clip-rule="evenodd" d="M16 1.5H8C6.62 1.5 5.5 2.62 5.5 4V5.5H4C3.34 5.5 2.7 5.76 2.23 6.23C1.76 6.7 1.5 7.33 1.5 8V16C1.5 16.66 1.76 17.3 2.23 17.77C2.7 18.24 3.33 18.5 4 18.5H12C12.66 18.5 13.3 18.24 13.77 17.77C14.24 17.3 14.5 16.67 14.5 16V14.5H16C17.38 14.5 18.5 13.38 18.5 12V4C18.5 2.62 17.38 1.5 16 1.5ZM13.5 16C13.5 16.4 13.34 16.78 13.06 17.06C12.78 17.34 12.4 17.5 12 17.5H4C3.6 17.5 3.22 17.34 2.94 17.06C2.66 16.78 2.5 16.4 2.5 16V8C2.5 7.6 2.66 7.22 2.94 6.94C3.22 6.66 3.6 6.5 4 6.5H5.5V12C5.5 13.38 6.62 14.5 8 14.5H13.5V16ZM17.5 12C17.5 12.83 16.83 13.5 16 13.5H8C7.17 13.5 6.5 12.83 6.5 12V4C6.5 3.17 7.17 2.5 8 2.5H16C16.83 2.5 17.5 3.17 17.5 4V12Z" fill="#BABABA"/>
</svg>
