<svg width="20" height="20" viewBox="0 0 20 20" fill="none" xmlns="http://www.w3.org/2000/svg">
<path fill-rule="evenodd" clip-rule="evenodd" d="M10 2.5C5.85786 2.5 2.5 5.85786 2.5 10C2.5 14.1421 5.85786 17.5 10 17.5C14.1421 17.5 17.5 14.1421 17.5 10C17.5 5.85786 14.1421 2.5 10 2.5ZM1.5 10C1.5 5.30558 5.30558 1.5 10 1.5C14.6944 1.5 18.5 5.30558 18.5 10C18.5 14.6944 14.6944 18.5 10 18.5C5.30558 18.5 1.5 14.6944 1.5 10ZM6.5 6C6.5 5.72386 6.72386 5.5 7 5.5H9C9.82843 5.5 10.5 6.17157 10.5 7V13.2929L12.6464 11.1464C12.8417 10.9512 13.1583 10.9512 13.3536 11.1464C13.5488 11.3417 13.5488 11.6583 13.3536 11.8536L10.3536 14.8536C10.2598 14.9473 10.1326 15 10 15C9.86739 15 9.74021 14.9473 9.64645 14.8536L6.64645 11.8536C6.45118 11.6583 6.45118 11.3417 6.64645 11.1464C6.84171 10.9512 7.15829 10.9512 7.35355 11.1464L9.5 13.2929V7C9.5 6.72386 9.27614 6.5 9 6.5H7C6.72386 6.5 6.5 6.27614 6.5 6Z" fill="#BABABA"/>
</svg>
