<svg width="21" height="20" viewBox="0 0 21 20" fill="none" xmlns="http://www.w3.org/2000/svg">
<path fill-rule="evenodd" clip-rule="evenodd" d="M10.5001 1.5C10.6327 1.5 10.7599 1.55268 10.8536 1.64645L16.5007 7.29351C16.696 7.48877 16.696 7.80535 16.5007 8.00061C16.3054 8.19588 15.9889 8.19588 15.7936 8.00061L11.0001 3.20711L11.0001 17C11.0001 17.2761 11.2239 17.5 11.5001 17.5H16.1471C16.4233 17.5 16.6471 17.7239 16.6471 18C16.6471 18.2761 16.4233 18.5 16.1471 18.5H11.5001C10.6717 18.5 10.0001 17.8284 10.0001 17L10.0001 3.20711L5.20658 8.00061C5.01132 8.19587 4.69474 8.19587 4.49947 8.00061C4.30421 7.80535 4.30421 7.48877 4.49947 7.29351L10.1465 1.64645C10.2403 1.55268 10.3675 1.5 10.5001 1.5Z" fill="#BABABA"/>
</svg>
