<?xml version="1.0" encoding="UTF-8"?>
<svg id="Outlines" xmlns="http://www.w3.org/2000/svg" viewBox="0 0 24 24">
  <defs>
    <style>
      .cls-1 {
        fill: #1b1b1b;
        stroke-width: 0px;
      }
    </style>
  </defs>
  <g id="sub-end-outline">
    <path class="cls-1" d="m12,21.97c-2.67,0-5.17-1.04-7.05-2.92-1.88-1.88-2.92-4.39-2.92-7.05s1.04-5.17,2.92-7.05c1.88-1.88,4.39-2.92,7.05-2.92s5.17,1.04,7.05,2.92,2.92,4.39,2.92,7.05-1.04,5.17-2.92,7.05c-1.88,1.88-4.39,2.92-7.05,2.92Zm0-18c-2.14,0-4.16.83-5.67,2.35-1.52,1.52-2.35,3.53-2.35,5.67s.83,4.16,2.35,5.67c1.52,1.52,3.53,2.35,5.67,2.35s4.16-.83,5.67-2.35c1.52-1.52,2.35-3.53,2.35-5.67s-.83-4.16-2.35-5.67-3.53-2.35-5.67-2.35Z"/>
    <path class="cls-1" d="m15,15.75h-3.46c-.65,0-1.29-.26-1.75-.73s-.73-1.09-.73-1.75v-3.96l-1.03,1.03c-.29.29-.77.29-1.06,0s-.29-.77,0-1.06l2.31-2.31s0,0,0,0c.06-.06.13-.11.21-.15h0s0,0,0,0c0,0,0,0,0,0t0,0s0,0,0,0c0,0,0,0,0,0h0s.02,0,.03-.01c.18-.07.4-.07.57,0h0c.07.03.14.07.2.12h0s0,0,0,0h0s0,0,0,0h0s0,0,0,0h0s0,0,0,0,0,0,0,0h0s0,0,0,0h0s0,0,0,0c0,0,0,0,0,0,0,0,0,0,0,0h0s0,0,0,0h0s0,0,0,0h0s0,0,0,0c0,0,0,0,0,0h0s0,0,0,0t0,0s0,0,0,0h0s0,0,0,0t0,0s0,0,0,0c0,0,0,0,0,0h0s0,0,0,0h0s0,0,0,0h0s0,0,0,0h0s0,0,0,0h0s0,0,0,0c0,0,0,0,0,0h0s2.31,2.31,2.31,2.31c.29.29.29.77,0,1.06s-.77.29-1.06,0l-1.03-1.03v3.96c0,.26.1.51.29.69s.44.29.69.29h3.46c.41,0,.75.34.75.75s-.34.75-.75.75Z"/>
  </g>
</svg>