<?xml version="1.0" encoding="UTF-8"?>
<svg id="Outlines" xmlns="http://www.w3.org/2000/svg" viewBox="0 0 24 24">
  <defs>
    <style>
      .cls-1 {
        fill: #1b1b1b;
        stroke-width: 0px;
      }
    </style>
  </defs>
  <g id="sub-script-outline">
    <path class="cls-1" d="M6.28,20.72c-.71,0-1.72-.07-2.36-.71s-.67-1.52-.67-2.31c0-.41.34-.75.75-.75s.75.34.75.75c0,.33,0,1.02.23,1.25.1.1.41.27,1.3.27.41,0,.75.34.75.75s-.34.75-.75.75Z"/>
    <path class="cls-1" d="M4,13.89c-.41,0-.75-.34-.75-.75v-2.28c0-.41.34-.75.75-.75s.75.34.75.75v2.28c0,.41-.34.75-.75.75Z"/>
    <path class="cls-1" d="M4,7.06c-.41,0-.75-.34-.75-.75,0-.59,0-1.69.67-2.36.67-.67,1.77-.67,2.36-.67.41,0,.75.34.75.75s-.34.75-.75.75c-.32,0-1.07,0-1.3.23-.23.23-.23,1-.23,1.3,0,.41-.34.75-.75.75Z"/>
    <path class="cls-1" d="M13.11,4.78h-2.28c-.41,0-.75-.34-.75-.75s.34-.75.75-.75h2.28c.41,0,.75.34.75.75s-.34.75-.75.75Z"/>
    <path class="cls-1" d="M19.94,7.06c-.41,0-.75-.34-.75-.75,0-.89-.17-1.2-.27-1.3-.23-.23-.92-.23-1.25-.23-.41,0-.75-.34-.75-.75s.34-.75.75-.75c.8,0,1.7.05,2.31.67s.71,1.65.71,2.36c0,.41-.34.75-.75.75Z"/>
    <path class="cls-1" d="M17.72,20.66c-.41,0-.75-.34-.75-.75s.34-.75.75-.75.98,0,1.2-.22c.2-.2.33-.72.33-1.31,0-.41.34-.75.75-.75s.75.34.75.75c0,.6-.1,1.7-.77,2.37s-1.62.66-2.26.66Z"/>
    <path class="cls-1" d="M19.94,13.89c-.41,0-.75-.34-.75-.75v-2.28c0-.41.34-.75.75-.75s.75.34.75.75v2.28c0,.41-.34.75-.75.75Z"/>
    <path class="cls-1" d="M13.11,20.72h-2.28c-.41,0-.75-.34-.75-.75s.34-.75.75-.75h2.28c.41,0,.75.34.75.75s-.34.75-.75.75Z"/>
    <path class="cls-1" d="M15.88,10.28h-2.24c-.27,0-.53-.11-.72-.3-.19-.2-.3-.45-.3-.72v-2.24c0-.25.21-.46.46-.46s.46.21.46.46v2.24l.1.1h2.24c.25,0,.46.21.46.46s-.21.46-.46.46Z"/>
    <path class="cls-1" d="M14.76,17.56h-5.59c-.42,0-.82-.17-1.12-.46-.3-.3-.46-.69-.46-1.11v-7.83c0-.42.17-.82.46-1.11.3-.3.69-.46,1.12-.46h3.92c.12,0,.24.05.32.13l2.8,2.8c.09.09.13.2.13.32v6.16c0,.42-.16.82-.46,1.11-.29.29-.7.46-1.12.46ZM9.17,7.49c-.17,0-.35.07-.47.19s-.19.29-.19.47v7.83c0,.18.07.34.19.47.12.12.29.19.47.19h5.59c.17,0,.35-.07.47-.19.12-.12.19-.29.19-.47v-5.97l-2.53-2.53h-3.73Z"/>
    <path class="cls-1" d="M10.85,15.32c-.17,0-.33-.09-.41-.25l-.56-1.12c-.06-.13-.06-.28,0-.41l.56-1.12c.11-.23.39-.31.61-.21.23.11.32.39.21.61l-.46.92.46.92c.11.23.02.5-.21.61-.07.03-.13.05-.2.05Z"/>
    <path class="cls-1" d="M13.09,15.32c-.07,0-.14-.02-.2-.05-.23-.11-.32-.39-.21-.61l.46-.92-.46-.92c-.11-.23-.02-.5.21-.61.22-.11.5-.02.61.21l.56,1.12c.06.13.06.28,0,.41l-.56,1.12c-.08.16-.24.25-.41.25Z"/>
  </g>
</svg>