<svg width="20" height="20" viewBox="0 0 20 20" fill="none" xmlns="http://www.w3.org/2000/svg">
<path fill-rule="evenodd" clip-rule="evenodd" d="M3.85303 2C3.85303 1.72386 4.07688 1.5 4.35303 1.5H9.00009C9.82851 1.5 10.5001 2.17157 10.5001 3V16.7929L15.2936 11.9994C15.4889 11.8041 15.8054 11.8041 16.0007 11.9994C16.196 12.1947 16.196 12.5112 16.0007 12.7065L10.3536 18.3536C10.2599 18.4473 10.1327 18.5 10.0001 18.5C9.86748 18.5 9.7403 18.4473 9.64653 18.3536L3.99947 12.7065C3.80421 12.5112 3.80421 12.1946 3.99947 11.9994C4.19474 11.8041 4.51132 11.8041 4.70658 11.9994L9.50009 16.7929V3C9.50009 2.72386 9.27623 2.5 9.00009 2.5H4.35303C4.07688 2.5 3.85303 2.27614 3.85303 2Z" fill="#BABABA"/>
</svg>
