<?xml version="1.0" encoding="UTF-8"?>
<svg id="Outlines" xmlns="http://www.w3.org/2000/svg" viewBox="0 0 24 24">
  <defs>
    <style>
      .cls-1 {
        fill: #1b1b1b;
        stroke-width: 0px;
      }
    </style>
  </defs>
  <g id="sub-start-outline">
    <path class="cls-1" d="m12,21.6c-2.56,0-4.97-1-6.79-2.81-1.81-1.81-2.81-4.22-2.81-6.79s1-4.98,2.81-6.79c1.81-1.81,4.22-2.81,6.79-2.81s4.97,1,6.79,2.81c1.81,1.81,2.81,4.22,2.81,6.79s-1,4.97-2.81,6.79c-1.81,1.81-4.22,2.81-6.79,2.81Zm0-18c-2.24,0-4.35.87-5.94,2.46-1.59,1.59-2.46,3.7-2.46,5.94s.87,4.35,2.46,5.94c1.59,1.59,3.7,2.46,5.94,2.46s4.35-.87,5.94-2.46c1.59-1.59,2.46-3.7,2.46-5.94s-.87-4.35-2.46-5.94c-1.59-1.59-3.7-2.46-5.94-2.46Z"/>
    <path class="cls-1" d="m12.69,17.25c-.1,0-.2-.02-.29-.06h0s0,0,0,0c-.09-.04-.17-.09-.24-.16l-2.31-2.31c-.29-.29-.29-.77,0-1.06s.77-.29,1.06,0l1.03,1.03v-3.96c0-.26-.1-.51-.29-.69-.18-.19-.43-.29-.69-.29h-3.46c-.41,0-.75-.34-.75-.75s.34-.75.75-.75h3.46c.66,0,1.29.26,1.75.73.46.46.73,1.1.73,1.75v3.96l1.03-1.03c.29-.29.77-.29,1.06,0s.29.77,0,1.06l-2.31,2.31s0,0,0,0c0,0,0,0,0,0h0s0,0,0,0h0c-.07.07-.15.12-.23.15-.09.04-.19.06-.29.06Z"/>
  </g>
</svg>