<?xml version="1.0" encoding="UTF-8"?>
<svg id="Outlines" xmlns="http://www.w3.org/2000/svg" viewBox="0 0 24 24">
  <defs>
    <style>
      .cls-1 {
        fill: #1b1b1b;
        stroke-width: 0px;
      }
    </style>
  </defs>
  <g id="sub-activities">
    <path class="cls-1" d="m12,16.69c-.41,0-.75-.34-.75-.75v-7.88c0-.41.34-.75.75-.75s.75.34.75.75v7.88c0,.41-.34.75-.75.75Z"/>
    <path class="cls-1" d="m15.94,12.75h-7.88c-.41,0-.75-.34-.75-.75s.34-.75.75-.75h7.88c.41,0,.75.34.75.75s-.34.75-.75.75Z"/>
    <path class="cls-1" d="m19.5,21H4.5c-.83,0-1.5-.67-1.5-1.5V4.5c0-.83.67-1.5,1.5-1.5h15c.83,0,1.5.67,1.5,1.5v15c0,.83-.67,1.5-1.5,1.5ZM4.5,4.5h0v15h15V4.5H4.5Z"/>
  </g>
</svg>