<svg width="20" height="20" viewBox="0 0 20 20" fill="none" xmlns="http://www.w3.org/2000/svg">
<path fill-rule="evenodd" clip-rule="evenodd" d="M3.02873 2.5C2.73672 2.5 2.5 2.73672 2.5 3.02873V16.9713C2.5 17.2633 2.73672 17.5 3.02873 17.5H16.9713C17.2633 17.5 17.5 17.2633 17.5 16.9713V3.02873C17.5 2.73672 17.2633 2.5 16.9713 2.5H3.02873ZM1.5 3.02873C1.5 2.18444 2.18444 1.5 3.02873 1.5H16.9713C17.8156 1.5 18.5 2.18444 18.5 3.02873V16.9713C18.5 17.8156 17.8156 18.5 16.9713 18.5H3.02873C2.18444 18.5 1.5 17.8156 1.5 16.9713V3.02873Z" fill="#BABABA"/>
<path fill-rule="evenodd" clip-rule="evenodd" d="M9.06253 6.75C8.8209 6.75 8.62503 6.94588 8.62503 7.1875V10.9375C8.62503 11.1791 8.8209 11.375 9.06253 11.375H12.8125C13.0542 11.375 13.25 11.1791 13.25 10.9375V7.1875C13.25 6.94588 13.0542 6.75 12.8125 6.75H9.06253ZM7.62503 7.1875C7.62503 6.39359 8.26862 5.75 9.06253 5.75H12.8125C13.6064 5.75 14.25 6.39359 14.25 7.1875V10.9375C14.25 11.7314 13.6064 12.375 12.8125 12.375H9.06253C8.26862 12.375 7.62503 11.7314 7.62503 10.9375V7.1875Z" fill="#BABABA"/>
<path fill-rule="evenodd" clip-rule="evenodd" d="M7.18753 8.625C7.07149 8.625 6.96021 8.67109 6.87817 8.75314C6.79612 8.83519 6.75003 8.94647 6.75003 9.0625V12.8125C6.75003 12.9285 6.79612 13.0398 6.87817 13.1219C6.96021 13.2039 7.07149 13.25 7.18753 13.25H10.9375C11.0536 13.25 11.1648 13.2039 11.2469 13.1219C11.3289 13.0398 11.375 12.9285 11.375 12.8125V11.875C11.375 11.5989 11.5989 11.375 11.875 11.375C12.1512 11.375 12.375 11.5989 12.375 11.875V12.8125C12.375 13.1937 12.2236 13.5594 11.954 13.829C11.6844 14.0985 11.3188 14.25 10.9375 14.25H7.18753C6.80628 14.25 6.44064 14.0985 6.17106 13.829C5.90148 13.5594 5.75003 13.1937 5.75003 12.8125V9.0625C5.75003 8.68125 5.90148 8.31562 6.17106 8.04603C6.44064 7.77645 6.80628 7.625 7.18753 7.625H8.12503C8.40117 7.625 8.62503 7.84886 8.62503 8.125C8.62503 8.40114 8.40117 8.625 8.12503 8.625H7.18753Z" fill="#BABABA"/>
</svg>
