<svg width="20" height="20" viewBox="0 0 20 20" fill="none" xmlns="http://www.w3.org/2000/svg">
<path fill-rule="evenodd" clip-rule="evenodd" d="M10 2.5C5.85786 2.5 2.5 5.85786 2.5 10C2.5 14.1421 5.85786 17.5 10 17.5C14.1421 17.5 17.5 14.1421 17.5 10C17.5 5.85786 14.1421 2.5 10 2.5ZM1.5 10C1.5 5.30558 5.30558 1.5 10 1.5C14.6944 1.5 18.5 5.30558 18.5 10C18.5 14.6944 14.6944 18.5 10 18.5C5.30558 18.5 1.5 14.6944 1.5 10ZM9.99976 6.9857C10.2759 6.9857 10.4998 7.20956 10.4998 7.4857V9.5H12.5143C12.7904 9.5 13.0143 9.72386 13.0143 10C13.0143 10.2761 12.7904 10.5 12.5143 10.5H10.4998V12.5144C10.4998 12.7905 10.2759 13.0144 9.99976 13.0144C9.72361 13.0144 9.49976 12.7905 9.49976 12.5144V10.5H7.4856C7.20945 10.5 6.9856 10.2761 6.9856 10C6.9856 9.72386 7.20945 9.5 7.4856 9.5H9.49976V7.4857C9.49976 7.20956 9.72361 6.9857 9.99976 6.9857Z" fill="#BABABA"/>
</svg>
