<?xml version="1.0" encoding="UTF-8"?>
<svg id="Outlines" xmlns="http://www.w3.org/2000/svg" viewBox="0 0 24 24">
  <defs>
    <style>
      .cls-1 {
        fill: #1b1b1b;
        stroke-width: 0px;
      }
    </style>
  </defs>
  <g id="join-tasks-gateways">
    <path class="cls-1" d="m12,22.08c-.38,0-.77-.15-1.06-.44L2.36,13.06c-.28-.28-.44-.66-.44-1.06s.16-.78.44-1.06L10.94,2.36c.58-.58,1.54-.58,2.12,0l8.58,8.58c.58.58.58,1.54,0,2.12l-8.58,8.58c-.29.29-.68.44-1.06.44ZM3.42,12l8.58,8.58,8.58-8.58L12,3.42,3.42,12Zm-.53-.53l.53.53s0,0,0,0l-.53-.53Z"/>
    <path class="cls-1" d="m12,14.5c-.41,0-.75-.34-.75-.75v-3.5c0-.41.34-.75.75-.75s.75.34.75.75v3.5c0,.41-.34.75-.75.75Z"/>
    <path class="cls-1" d="m13.75,12.75h-3.5c-.41,0-.75-.34-.75-.75s.34-.75.75-.75h3.5c.41,0,.75.34.75.75s-.34.75-.75.75Z"/>
    <path class="cls-1" d="m12.07,17.42c-1.37,0-2.74-.52-3.79-1.57s-1.57-2.36-1.57-3.79.56-2.77,1.57-3.79h0c1.01-1.01,2.36-1.57,3.79-1.57s2.77.56,3.79,1.57c2.09,2.09,2.09,5.48,0,7.57-1.04,1.04-2.42,1.57-3.79,1.57Zm0-9.21c-1.03,0-2,.4-2.73,1.13h0c-.73.73-1.13,1.7-1.13,2.73s.4,2,1.13,2.73c1.5,1.5,3.95,1.5,5.45,0,1.5-1.5,1.5-3.95,0-5.45-.73-.73-1.7-1.13-2.73-1.13Z"/>
  </g>
</svg>