<svg width="20" height="20" viewBox="0 0 20 20" fill="none" xmlns="http://www.w3.org/2000/svg">
<path fill-rule="evenodd" clip-rule="evenodd" d="M1.5 4C1.5 3.72386 1.72386 3.5 2 3.5H18C18.2761 3.5 18.5 3.72386 18.5 4C18.5 4.27614 18.2761 4.5 18 4.5H2C1.72386 4.5 1.5 4.27614 1.5 4Z" fill="#BABABA"/>
<path fill-rule="evenodd" clip-rule="evenodd" d="M1.5 10C1.5 9.72386 1.72386 9.5 2 9.5H18C18.2761 9.5 18.5 9.72386 18.5 10C18.5 10.2761 18.2761 10.5 18 10.5H2C1.72386 10.5 1.5 10.2761 1.5 10Z" fill="#BABABA"/>
<path fill-rule="evenodd" clip-rule="evenodd" d="M1.5 16C1.5 15.7239 1.72386 15.5 2 15.5H18C18.2761 15.5 18.5 15.7239 18.5 16C18.5 16.2761 18.2761 16.5 18 16.5H2C1.72386 16.5 1.5 16.2761 1.5 16Z" fill="#BABABA"/>
</svg>
