<?xml version="1.0" encoding="UTF-8"?>
<svg id="Outlines" xmlns="http://www.w3.org/2000/svg" viewBox="0 0 24 24">
  <defs>
    <style>
      .cls-1 {
        fill: #1b1b1b;
        stroke-width: 0px;
      }
    </style>
  </defs>
  <g id="trigger-outline">
    <path class="cls-1" d="m19.5,21H4.5c-.83,0-1.5-.67-1.5-1.5V4.5c0-.83.67-1.5,1.5-1.5h15c.83,0,1.5.67,1.5,1.5v15c0,.83-.67,1.5-1.5,1.5ZM4.5,4.5h0v15h15V4.5H4.5Z"/>
    <path class="cls-1" d="m18,12.75h-6.67c-.41,0-.75-.34-.75-.75s.34-.75.75-.75h6.67c.41,0,.75.34.75.75s-.34.75-.75.75Z"/>
    <path class="cls-1" d="m16,14.75c-.19,0-.38-.07-.53-.22-.29-.29-.29-.77,0-1.06l1.47-1.47-1.47-1.47c-.29-.29-.29-.77,0-1.06s.77-.29,1.06,0l2,2c.29.29.29.77,0,1.06l-2,2c-.15.15-.34.22-.53.22Z"/>
    <path class="cls-1" d="m7.33,14.08c-.55,0-1.09-.22-1.47-.61s-.61-.92-.61-1.47.22-1.08.61-1.47c.78-.78,2.16-.78,2.95,0,.39.39.61.92.61,1.47s-.22,1.08-.61,1.47-.92.61-1.47.61Zm0-2.67c-.15,0-.3.06-.41.17s-.17.26-.17.41.06.3.17.41c.22.22.61.22.83,0,.11-.11.17-.26.17-.41s-.06-.3-.17-.41-.26-.17-.41-.17Z"/>
  </g>
</svg>