<svg width="20" height="20" viewBox="0 0 20 20" fill="none" xmlns="http://www.w3.org/2000/svg">
<path fill-rule="evenodd" clip-rule="evenodd" d="M3.02873 2.5C2.73672 2.5 2.5 2.73672 2.5 3.02873V16.9713C2.5 17.2633 2.73672 17.5 3.02873 17.5H16.9713C17.2633 17.5 17.5 17.2633 17.5 16.9713V3.02873C17.5 2.73672 17.2633 2.5 16.9713 2.5H3.02873ZM1.5 3.02873C1.5 2.18444 2.18444 1.5 3.02873 1.5H16.9713C17.8156 1.5 18.5 2.18444 18.5 3.02873V16.9713C18.5 17.8156 17.8156 18.5 16.9713 18.5H3.02873C2.18444 18.5 1.5 17.8156 1.5 16.9713V3.02873Z" fill="#BABABA"/>
<path fill-rule="evenodd" clip-rule="evenodd" d="M15.5 10C15.5 10.2761 15.2761 10.5 15 10.5H8.74995C8.47381 10.5 8.24995 10.2761 8.24995 10C8.24995 9.72385 8.47381 9.5 8.74995 9.5H15C15.2761 9.5 15.5 9.72385 15.5 10Z" fill="#BABABA"/>
<path fill-rule="evenodd" clip-rule="evenodd" d="M15.3535 9.64644C15.5488 9.8417 15.5488 10.1583 15.3535 10.3535L12.8535 12.8535C12.6582 13.0488 12.3417 13.0488 12.1464 12.8535C11.9511 12.6583 11.9511 12.3417 12.1464 12.1464L14.6464 9.64644C14.8417 9.45118 15.1582 9.45118 15.3535 9.64644Z" fill="#BABABA"/>
<path fill-rule="evenodd" clip-rule="evenodd" d="M15.3535 10.3535C15.1582 10.5488 14.8417 10.5488 14.6464 10.3536L12.1464 7.85356C11.9511 7.6583 11.9511 7.34172 12.1464 7.14645C12.3417 6.95119 12.6582 6.95119 12.8535 7.14645L15.3535 9.64644C15.5488 9.8417 15.5488 10.1583 15.3535 10.3535Z" fill="#BABABA"/>
<path d="M4.99995 10C4.99995 10.3452 5.27977 10.625 5.62495 10.625C5.97013 10.625 6.24995 10.3452 6.24995 10C6.24995 9.65483 5.97013 9.37501 5.62495 9.37501C5.27977 9.37501 4.99995 9.65483 4.99995 10Z" fill="#BABABA"/>
<path fill-rule="evenodd" clip-rule="evenodd" d="M5.74995 10C5.74995 9.93097 5.69399 9.87501 5.62495 9.87501C5.55592 9.87501 5.49995 9.93097 5.49995 10C5.49995 10.069 5.55592 10.125 5.62495 10.125C5.69399 10.125 5.74995 10.069 5.74995 10ZM5.62495 8.87501C6.24627 8.87501 6.74995 9.37869 6.74995 10C6.74995 10.6213 6.24627 11.125 5.62495 11.125C5.00363 11.125 4.49995 10.6213 4.49995 10C4.49995 9.37869 5.00363 8.87501 5.62495 8.87501Z" fill="#BABABA"/>
</svg>
