<svg width="20" height="20" viewBox="0 0 20 20" fill="none" xmlns="http://www.w3.org/2000/svg">
<path fill-rule="evenodd" clip-rule="evenodd" d="M18.46 9.81C18.43 9.75 18.4 9.69 18.35 9.65L14.22 5.52C14.02 5.32 13.71 5.32 13.51 5.52C13.31 5.72 13.31 6.03 13.51 6.23L16.79 9.50999H7.68C7.4 9.50999 7.18 9.72999 7.18 10.01C7.18 10.29 7.4 10.51 7.68 10.51H16.79L13.51 13.79C13.31 13.99 13.31 14.3 13.51 14.5C13.71 14.7 14.02 14.7 14.22 14.5L18.35 10.37C18.35 10.37 18.43 10.27 18.46 10.21C18.51 10.09 18.51 9.95 18.46 9.83V9.81Z" fill="#BABABA"/>
<path fill-rule="evenodd" clip-rule="evenodd" d="M2.77 8.72C2.07 8.72 1.5 9.29 1.5 9.99C1.5 10.69 2.07 11.26 2.77 11.26C3.47 11.26 4.04 10.69 4.04 9.99C4.04 9.29 3.47 8.72 2.77 8.72Z" fill="#BABABA"/>
</svg>
