<svg width="20" height="20" viewBox="0 0 20 20" fill="none" xmlns="http://www.w3.org/2000/svg">
<path fill-rule="evenodd" clip-rule="evenodd" d="M14.564 15.2741C13.2681 16.405 11.6012 17.0192 9.88144 16.9995C9.60531 16.9964 9.37891 17.2177 9.37576 17.4938C9.3726 17.7699 9.59389 17.9963 9.87001 17.9995C11.8355 18.0219 13.7405 17.32 15.2215 16.0276C16.7025 14.7351 17.6558 12.9427 17.8996 10.9923C18.1434 9.04184 17.6606 7.0699 16.5433 5.4527C15.426 3.8355 13.7525 2.68624 11.8419 2.22418C9.93138 1.76213 7.9176 2.01962 6.18479 2.94754C4.84246 3.66636 3.74153 4.74851 3 6.05801L3 3.26005C3 2.9839 2.77614 2.76005 2.5 2.76005C2.22386 2.76005 2 2.9839 2 3.26005L2 7.42671C2 7.70285 2.22386 7.92671 2.5 7.92671L2.90499 7.92671C2.91276 7.92689 2.92052 7.92689 2.92825 7.92671L6.66666 7.92671C6.9428 7.92671 7.16666 7.70285 7.16666 7.42671C7.16666 7.15057 6.9428 6.92671 6.66666 6.92671L3.67211 6.92671C4.3145 5.61203 5.35617 4.52563 6.65686 3.8291C8.17307 3.01717 9.93513 2.79186 11.6069 3.19616C13.2786 3.60046 14.743 4.60606 15.7206 6.02111C16.6982 7.43617 17.1207 9.16161 16.9073 10.8682C16.694 12.5749 15.8598 14.1433 14.564 15.2741Z" fill="#BABABA"/>
</svg>
