<?xml version="1.0" encoding="UTF-8"?>
<svg id="Outlines" xmlns="http://www.w3.org/2000/svg" viewBox="0 0 24 24">
  <defs>
    <style>
      .cls-1 {
        fill: #1b1b1b;
        stroke-width: 0px;
      }
    </style>
  </defs>
  <g id="undo">
    <path class="cls-1" d="m12,21.75h-.04c-.41,0-.75-.34-.75-.75,0-.41.34-.75.75-.75,0,0,.02,0,.04,0,2.01,0,3.95-.73,5.46-2.07,1.52-1.34,2.49-3.19,2.73-5.2.24-2.01-.26-4.04-1.42-5.7-1.16-1.66-2.88-2.84-4.85-3.31s-4.04-.2-5.82.76c-1.79.96-3.15,2.54-3.85,4.44-.14.39-.57.59-.96.45-.39-.14-.59-.57-.45-.96.82-2.25,2.43-4.11,4.54-5.25,2.11-1.13,4.56-1.45,6.88-.89,2.33.56,4.37,1.95,5.73,3.91,1.37,1.96,1.96,4.36,1.68,6.73-.29,2.38-1.43,4.56-3.22,6.15-1.79,1.58-4.08,2.44-6.46,2.44Z"/>
    <path class="cls-1" d="m8,9.75H3c-.41,0-.75-.34-.75-.75v-5c0-.41.34-.75.75-.75s.75.34.75.75v4.25h4.25c.41,0,.75.34.75.75s-.34.75-.75.75Z"/>
  </g>
</svg>