<svg width="20" height="20" viewBox="0 0 20 20" fill="none" xmlns="http://www.w3.org/2000/svg">
<path fill-rule="evenodd" clip-rule="evenodd" d="M13.5 2C13.5 1.72386 13.7239 1.5 14 1.5H18C18.2761 1.5 18.5 1.72386 18.5 2V6C18.5 6.27614 18.2761 6.5 18 6.5C17.7239 6.5 17.5 6.27614 17.5 6V2.5H14C13.7239 2.5 13.5 2.27614 13.5 2Z" fill="#BABABA"/>
<path fill-rule="evenodd" clip-rule="evenodd" d="M18.3536 1.64645C18.5488 1.84171 18.5488 2.15829 18.3536 2.35355L2.85355 17.8536C2.65829 18.0488 2.34171 18.0488 2.14645 17.8536C1.95118 17.6583 1.95118 17.3417 2.14645 17.1464L17.6464 1.64645C17.8417 1.45118 18.1583 1.45118 18.3536 1.64645Z" fill="#BABABA"/>
<path fill-rule="evenodd" clip-rule="evenodd" d="M2 13.5C2.27614 13.5 2.5 13.7239 2.5 14V17.5H6C6.27614 17.5 6.5 17.7239 6.5 18C6.5 18.2761 6.27614 18.5 6 18.5H2C1.72386 18.5 1.5 18.2761 1.5 18V14C1.5 13.7239 1.72386 13.5 2 13.5Z" fill="#BABABA"/>
<path fill-rule="evenodd" clip-rule="evenodd" d="M18 13.5C18.2761 13.5 18.5 13.7239 18.5 14V18C18.5 18.2761 18.2761 18.5 18 18.5H14C13.7239 18.5 13.5 18.2761 13.5 18C13.5 17.7239 13.7239 17.5 14 17.5H17.5V14C17.5 13.7239 17.7239 13.5 18 13.5Z" fill="#BABABA"/>
<path fill-rule="evenodd" clip-rule="evenodd" d="M1.64645 1.64645C1.84171 1.45118 2.15829 1.45118 2.35355 1.64645L18.3536 17.6464C18.5488 17.8417 18.5488 18.1583 18.3536 18.3536C18.1583 18.5488 17.8417 18.5488 17.6464 18.3536L1.64645 2.35355C1.45118 2.15829 1.45118 1.84171 1.64645 1.64645Z" fill="#BABABA"/>
<path fill-rule="evenodd" clip-rule="evenodd" d="M1.5 2C1.5 1.72386 1.72386 1.5 2 1.5H6C6.27614 1.5 6.5 1.72386 6.5 2C6.5 2.27614 6.27614 2.5 6 2.5H2.5V6C2.5 6.27614 2.27614 6.5 2 6.5C1.72386 6.5 1.5 6.27614 1.5 6V2Z" fill="#BABABA"/>
</svg>
