<svg width="20" height="20" viewBox="0 0 20 20" fill="none" xmlns="http://www.w3.org/2000/svg">
<path fill-rule="evenodd" clip-rule="evenodd" d="M3.02873 2.5C2.73672 2.5 2.5 2.73672 2.5 3.02873V16.9713C2.5 17.2633 2.73672 17.5 3.02873 17.5H16.9713C17.2633 17.5 17.5 17.2633 17.5 16.9713V3.02873C17.5 2.73672 17.2633 2.5 16.9713 2.5H3.02873ZM1.5 3.02873C1.5 2.18444 2.18444 1.5 3.02873 1.5H16.9713C17.8156 1.5 18.5 2.18444 18.5 3.02873V16.9713C18.5 17.8156 17.8156 18.5 16.9713 18.5H3.02873C2.18444 18.5 1.5 17.8156 1.5 16.9713V3.02873Z" fill="#BABABA"/>
<path fill-rule="evenodd" clip-rule="evenodd" d="M10 6.75C9.35569 6.75 8.83336 7.27233 8.83336 7.91665C8.83336 8.56097 9.35569 9.0833 10 9.0833C10.6443 9.0833 11.1667 8.56097 11.1667 7.91665C11.1667 7.27233 10.6443 6.75 10 6.75ZM7.83336 7.91665C7.83336 6.72004 8.8034 5.75 10 5.75C11.1966 5.75 12.1667 6.72004 12.1667 7.91665C12.1667 9.11326 11.1966 10.0833 10 10.0833C8.8034 10.0833 7.83336 9.11326 7.83336 7.91665Z" fill="#BABABA"/>
<path fill-rule="evenodd" clip-rule="evenodd" d="M9.16665 12.3749C8.85724 12.3749 8.56049 12.4978 8.3417 12.7166C8.12292 12.9354 8 13.2322 8 13.5416V14.3749C8 14.651 7.77614 14.8749 7.5 14.8749C7.22386 14.8749 7 14.651 7 14.3749V13.5416C7 12.967 7.22827 12.4159 7.6346 12.0095C8.04092 11.6032 8.59202 11.3749 9.16665 11.3749H10.8333C11.4079 11.3749 11.959 11.6032 12.3654 12.0095C12.7717 12.4159 13 12.967 13 13.5416V14.3749C13 14.651 12.7761 14.8749 12.5 14.8749C12.2238 14.8749 12 14.651 12 14.3749V13.5416C12 13.2322 11.877 12.9354 11.6582 12.7166C11.4395 12.4978 11.1427 12.3749 10.8333 12.3749H9.16665Z" fill="#BABABA"/>
</svg>
