<?xml version="1.0" encoding="UTF-8"?>
<svg id="Outlines" xmlns="http://www.w3.org/2000/svg" viewBox="0 0 24 24">
  <defs>
    <style>
      .cls-1 {
        fill: #1b1b1b;
        stroke-width: 0px;
      }
    </style>
  </defs>
  <g id="user-task-outline">
    <path class="cls-1" d="m19.5,21.21H4.5c-.83,0-1.5-.67-1.5-1.5V4.71c0-.83.67-1.5,1.5-1.5h15c.83,0,1.5.67,1.5,1.5v15c0,.83-.67,1.5-1.5,1.5ZM4.5,4.71v15s15,0,15,0V4.71H4.5Zm0-.75v.75s0,0,0,0v-.75Z"/>
    <path class="cls-1" d="m15.76,12.97c-.57,0-1.11-.22-1.51-.63-.4-.4-.63-.94-.63-1.51s.22-1.11.63-1.51c.8-.79,2.23-.8,3.03,0,.4.41.63.94.63,1.51s-.22,1.11-.62,1.51c-.4.4-.94.63-1.51.63Zm0-3.25c-.29,0-.58.12-.79.33-.21.21-.33.49-.33.79s.12.58.33.79c.42.42,1.16.42,1.58,0,.21-.21.33-.49.33-.79s-.12-.58-.33-.79c-.21-.21-.49-.33-.79-.33Z"/>
    <path class="cls-1" d="m18.2,16.88c-.28,0-.51-.23-.51-.51v-.81c0-.3-.12-.58-.33-.79s-.49-.33-.79-.33h-1.63c-.3,0-.58.12-.79.33s-.33.49-.33.79v.81c0,.28-.23.51-.51.51s-.51-.23-.51-.51v-.81c0-.57.22-1.11.63-1.51.41-.41.94-.63,1.51-.63h1.63c.56,0,1.12.23,1.51.63.4.41.63.94.63,1.51v.81c0,.28-.23.51-.51.51Z"/>
    <path class="cls-1" d="m11.86,11.19h-5.86c-.28,0-.51-.23-.51-.51s.23-.51.51-.51h5.86c.28,0,.51.23.51.51s-.23.51-.51.51Z"/>
    <path class="cls-1" d="m11.86,13.38h-5.86c-.28,0-.51-.23-.51-.51s.23-.51.51-.51h5.86c.28,0,.51.23.51.51s-.23.51-.51.51Z"/>
    <path class="cls-1" d="m11.86,15.58h-5.86c-.28,0-.51-.23-.51-.51s.23-.51.51-.51h5.86c.28,0,.51.23.51.51s-.23.51-.51.51Z"/>
  </g>
</svg>