<svg width="20" height="20" viewBox="0 0 20 20" fill="none" xmlns="http://www.w3.org/2000/svg">
<path d="M10 11.23C10.94 11.23 11.7 10.47 11.7 9.53C11.7 8.59 10.94 7.83 10 7.83C9.06 7.83 8.3 8.59 8.3 9.53C8.3 10.47 9.06 11.23 10 11.23ZM10 8.83C10.39 8.83 10.7 9.14 10.7 9.53C10.7 9.92 10.39 10.23 10 10.23C9.61 10.23 9.3 9.92 9.3 9.53C9.3 9.14 9.61 8.83 10 8.83Z" fill="#BABABA"/>
<path d="M16.86 1.5H3.14C2.2 1.5 1.5 2.31 1.5 3.23V5.66C1.5 5.66 1.5 5.68 1.5 5.69C1.5 5.7 1.5 5.71 1.5 5.72V16.77C1.5 17.69 2.2 18.5 3.14 18.5H16.86C17.8 18.5 18.5 17.69 18.5 16.77V3.23C18.5 2.31 17.8 1.5 16.86 1.5ZM17.5 16.77C17.5 17.21 17.18 17.5 16.86 17.5H3.14C2.82 17.5 2.5 17.21 2.5 16.77V6.19H17.5V16.77ZM17.5 5.19H2.5V3.23C2.5 2.79 2.82 2.5 3.14 2.5H16.86C17.18 2.5 17.5 2.79 17.5 3.23V5.19Z" fill="#BABABA"/>
<path d="M7.9 15.66C8.18 15.66 8.4 15.44 8.4 15.16V14.46C8.4 14.22 8.49 13.99 8.66 13.82C8.83 13.65 9.06 13.56 9.3 13.56H10.7C10.94 13.56 11.17 13.65 11.34 13.82C11.51 13.99 11.6 14.22 11.6 14.46V15.16C11.6 15.44 11.82 15.66 12.1 15.66C12.38 15.66 12.6 15.44 12.6 15.16V14.46C12.6 13.96 12.4 13.47 12.04 13.12C11.68 12.76 11.2 12.56 10.7 12.56H9.3C8.8 12.56 8.31 12.76 7.96 13.12C7.6 13.48 7.4 13.96 7.4 14.46V15.16C7.4 15.44 7.62 15.66 7.9 15.66Z" fill="#BABABA"/>
</svg>
