<svg width="20" height="20" viewBox="0 0 20 20" fill="none" xmlns="http://www.w3.org/2000/svg">
<path fill-rule="evenodd" clip-rule="evenodd" d="M10.0001 3.21796C8.46359 3.21796 7.21802 4.46353 7.21802 6.00001C7.21802 7.5365 8.46359 8.78207 10.0001 8.78207C11.5366 8.78207 12.7821 7.5365 12.7821 6.00001C12.7821 4.46353 11.5366 3.21796 10.0001 3.21796ZM6.21802 6.00001C6.21802 3.91124 7.9113 2.21796 10.0001 2.21796C12.0888 2.21796 13.7821 3.91124 13.7821 6.00001C13.7821 8.08878 12.0888 9.78207 10.0001 9.78207C7.9113 9.78207 6.21802 8.08878 6.21802 6.00001ZM8.35896 12.859C7.62111 12.859 6.91349 13.1521 6.39175 13.6739C5.87001 14.1956 5.5769 14.9032 5.5769 15.6411V17.2821C5.5769 17.5582 5.35305 17.7821 5.0769 17.7821C4.80076 17.7821 4.5769 17.5582 4.5769 17.2821V15.6411C4.5769 14.638 4.97537 13.676 5.68464 12.9667C6.39392 12.2575 7.3559 11.859 8.35896 11.859H11.641C12.6441 11.859 13.6061 12.2575 14.3153 12.9667C15.0246 13.676 15.4231 14.638 15.4231 15.6411V17.2821C15.4231 17.5582 15.1992 17.7821 14.9231 17.7821C14.6469 17.7821 14.4231 17.5582 14.4231 17.2821V15.6411C14.4231 14.9032 14.13 14.1956 13.6082 13.6739C13.0865 13.1521 12.3789 12.859 11.641 12.859H8.35896Z" fill="#BABABA"/>
</svg>
