<svg width="20" height="20" viewBox="0 0 20 20" fill="none" xmlns="http://www.w3.org/2000/svg">
<path fill-rule="evenodd" clip-rule="evenodd" d="M3.02873 2.5C2.73672 2.5 2.5 2.73672 2.5 3.02873V16.9713C2.5 17.2633 2.73672 17.5 3.02873 17.5H16.9713C17.2633 17.5 17.5 17.2633 17.5 16.9713V3.02873C17.5 2.73672 17.2633 2.5 16.9713 2.5H3.02873ZM1.5 3.02873C1.5 2.18444 2.18444 1.5 3.02873 1.5H16.9713C17.8156 1.5 18.5 2.18444 18.5 3.02873V16.9713C18.5 17.8156 17.8156 18.5 16.9713 18.5H3.02873C2.18444 18.5 1.5 17.8156 1.5 16.9713V3.02873Z" fill="#BABABA"/>
<path fill-rule="evenodd" clip-rule="evenodd" d="M6.87503 5.5C6.51035 5.5 6.16062 5.64487 5.90275 5.90273C5.64489 6.16059 5.50003 6.51033 5.50003 6.875V13.7929L7.14647 12.1464C7.24024 12.0527 7.36742 12 7.50003 12H13.125C13.4897 12 13.8394 11.8551 14.0973 11.5973C14.3552 11.3394 14.5 10.9897 14.5 10.625V6.875C14.5 6.51033 14.3552 6.16059 14.0973 5.90273C13.8394 5.64487 13.4897 5.5 13.125 5.5H6.87503ZM5.19565 5.19562C5.64105 4.75022 6.24514 4.5 6.87503 4.5H13.125C13.7549 4.5 14.359 4.75022 14.8044 5.19562C15.2498 5.64102 15.5 6.24511 15.5 6.875V10.625C15.5 11.2549 15.2498 11.859 14.8044 12.3044C14.359 12.7498 13.7549 13 13.125 13H7.70713L5.35358 15.3536C5.21058 15.4966 4.99552 15.5393 4.80868 15.4619C4.62185 15.3846 4.50003 15.2022 4.50003 15V6.875C4.50003 6.24511 4.75025 5.64102 5.19565 5.19562Z" fill="#BABABA"/>
<path fill-rule="evenodd" clip-rule="evenodd" d="M10 8C10.4142 8 10.75 8.33579 10.75 8.75V8.75625C10.75 9.17046 10.4142 9.50625 10 9.50625C9.58581 9.50625 9.25003 9.17046 9.25003 8.75625V8.75C9.25003 8.33579 9.58581 8 10 8Z" fill="#BABABA"/>
<path fill-rule="evenodd" clip-rule="evenodd" d="M7.50003 8C7.91424 8 8.25003 8.33579 8.25003 8.75V8.75625C8.25003 9.17046 7.91424 9.50625 7.50003 9.50625C7.08581 9.50625 6.75003 9.17046 6.75003 8.75625V8.75C6.75003 8.33579 7.08581 8 7.50003 8Z" fill="#BABABA"/>
<path fill-rule="evenodd" clip-rule="evenodd" d="M12.5 8C12.9142 8 13.25 8.33579 13.25 8.75V8.75625C13.25 9.17046 12.9142 9.50625 12.5 9.50625C12.0858 9.50625 11.75 9.17046 11.75 8.75625V8.75C11.75 8.33579 12.0858 8 12.5 8Z" fill="#BABABA"/>
</svg>
