<svg width="20" height="20" viewBox="0 0 20 20" fill="none" xmlns="http://www.w3.org/2000/svg">
<path fill-rule="evenodd" clip-rule="evenodd" d="M3.02873 2.5C2.73672 2.5 2.5 2.73672 2.5 3.02873V16.9713C2.5 17.2633 2.73672 17.5 3.02873 17.5H16.9713C17.2633 17.5 17.5 17.2633 17.5 16.9713V3.02873C17.5 2.73672 17.2633 2.5 16.9713 2.5H3.02873ZM1.5 3.02873C1.5 2.18444 2.18444 1.5 3.02873 1.5H16.9713C17.8156 1.5 18.5 2.18444 18.5 3.02873V16.9713C18.5 17.8156 17.8156 18.5 16.9713 18.5H3.02873C2.18444 18.5 1.5 17.8156 1.5 16.9713V3.02873ZM4.50003 7.43936C4.50003 7.16322 4.72388 6.93936 5.00003 6.93936H10.191C10.4672 6.93936 10.691 7.16322 10.691 7.43936C10.691 7.7155 10.4672 7.93936 10.191 7.93936H5.00003C4.72388 7.93936 4.50003 7.7155 4.50003 7.43936ZM13.4242 7.93936C13.2033 7.93936 13.0242 8.11845 13.0242 8.33936C13.0242 8.56028 13.2033 8.73936 13.4242 8.73936C13.6451 8.73936 13.8242 8.56028 13.8242 8.33936C13.8242 8.11845 13.6451 7.93936 13.4242 7.93936ZM12.0242 8.33936C12.0242 7.56616 12.651 6.93936 13.4242 6.93936C14.1974 6.93936 14.8242 7.56616 14.8242 8.33936C14.8242 9.11256 14.1974 9.73936 13.4242 9.73936C12.651 9.73936 12.0242 9.11256 12.0242 8.33936ZM4.50003 9.99996C4.50003 9.72381 4.72388 9.49996 5.00003 9.49996H10.191C10.4672 9.49996 10.691 9.72381 10.691 9.99996C10.691 10.2761 10.4672 10.5 10.191 10.5H5.00003C4.72388 10.5 4.50003 10.2761 4.50003 9.99996ZM12.899 11.4848C12.753 11.4848 12.613 11.5428 12.5097 11.646C12.4065 11.7492 12.3485 11.8893 12.3485 12.0353V12.5605C12.3485 12.8366 12.1246 13.0605 11.8485 13.0605C11.5723 13.0605 11.3485 12.8366 11.3485 12.5605V12.0353C11.3485 11.624 11.5118 11.2297 11.8026 10.9389C12.0934 10.6481 12.4878 10.4848 12.899 10.4848H13.9495C14.3607 10.4848 14.7551 10.6481 15.0459 10.9389C15.3366 11.2297 15.5 11.624 15.5 12.0353V12.5605C15.5 12.8366 15.2761 13.0605 15 13.0605C14.7238 13.0605 14.5 12.8366 14.5 12.5605V12.0353C14.5 11.8893 14.442 11.7492 14.3388 11.646C14.2355 11.5428 14.0955 11.4848 13.9495 11.4848H12.899ZM4.50003 12.5606C4.50003 12.2845 4.72388 12.0606 5.00003 12.0606H8.77137C9.04751 12.0606 9.27137 12.2845 9.27137 12.5606C9.27137 12.8368 9.04751 13.0606 8.77137 13.0606H5.00003C4.72388 13.0606 4.50003 12.8368 4.50003 12.5606Z" fill="#BABABA"/>
</svg>
