<svg width="20" height="20" viewBox="0 0 20 20" fill="none" xmlns="http://www.w3.org/2000/svg">
<path fill-rule="evenodd" clip-rule="evenodd" d="M5 2.5C4.33696 2.5 3.70107 2.76339 3.23223 3.23223C2.76339 3.70107 2.5 4.33696 2.5 5V16.7929L5.64645 13.6464C5.74021 13.5527 5.86739 13.5 6 13.5H15C15.663 13.5 16.2989 13.2366 16.7678 12.7678C17.2366 12.2989 17.5 11.663 17.5 11V5C17.5 4.33696 17.2366 3.70107 16.7678 3.23223C16.2989 2.76339 15.663 2.5 15 2.5H5ZM2.52513 2.52513C3.1815 1.86875 4.07174 1.5 5 1.5H15C15.9283 1.5 16.8185 1.86875 17.4749 2.52513C18.1313 3.1815 18.5 4.07174 18.5 5V11C18.5 11.9283 18.1313 12.8185 17.4749 13.4749C16.8185 14.1313 15.9283 14.5 15 14.5H6.20711L2.35355 18.3536C2.21055 18.4966 1.9955 18.5393 1.80866 18.4619C1.62182 18.3846 1.5 18.2022 1.5 18V5C1.5 4.07174 1.86875 3.1815 2.52513 2.52513Z" fill="#BABABA"/>
<path fill-rule="evenodd" clip-rule="evenodd" d="M10 7.25C10.4142 7.25 10.75 7.58579 10.75 8V8.01C10.75 8.42421 10.4142 8.76 10 8.76C9.58579 8.76 9.25 8.42421 9.25 8.01V8C9.25 7.58579 9.58579 7.25 10 7.25Z" fill="#BABABA"/>
<path fill-rule="evenodd" clip-rule="evenodd" d="M6 7.25C6.41421 7.25 6.75 7.58579 6.75 8V8.01C6.75 8.42421 6.41421 8.76 6 8.76C5.58579 8.76 5.25 8.42421 5.25 8.01V8C5.25 7.58579 5.58579 7.25 6 7.25Z" fill="#BABABA"/>
<path fill-rule="evenodd" clip-rule="evenodd" d="M14 7.25C14.4142 7.25 14.75 7.58579 14.75 8V8.01C14.75 8.42421 14.4142 8.76 14 8.76C13.5858 8.76 13.25 8.42421 13.25 8.01V8C13.25 7.58579 13.5858 7.25 14 7.25Z" fill="#BABABA"/>
</svg>
