<?xml version="1.0" encoding="UTF-8"?>
<svg id="Outlines" xmlns="http://www.w3.org/2000/svg" viewBox="0 0 24 24">
  <defs>
    <style>
      .cls-1 {
        fill: #1b1b1b;
        stroke-width: 0px;
      }
    </style>
  </defs>
  <g id="user-dialog-outline">
    <path class="cls-1" d="m15.75,17.53h-7.5c-.47,0-.92-.19-1.25-.52-.33-.33-.52-.79-.52-1.25v-7.5c0-.47.19-.92.52-1.25.33-.33.78-.52,1.25-.52h7.5c.48,0,.92.19,1.26.52.33.33.52.78.52,1.25v7.5c0,.47-.19.92-.52,1.25-.33.33-.79.52-1.25.52Zm-7.5-10c-.19,0-.38.08-.51.21s-.21.32-.21.51v7.5c0,.19.08.38.21.51s.32.21.51.21h7.5c.19,0,.38-.08.51-.21s.21-.32.21-.51v-7.5c0-.19-.08-.38-.21-.51s-.32-.21-.51-.21h-7.5Z"/>
    <path class="cls-1" d="m12,13c-.43,0-.84-.17-1.15-.48-.3-.3-.48-.72-.48-1.15s.17-.84.48-1.15c.61-.61,1.69-.61,2.3,0,.31.31.48.71.48,1.15s-.17.85-.48,1.15c-.3.3-.72.48-1.15.48Zm0-2.5c-.23,0-.45.09-.62.26-.17.17-.26.39-.26.62s.09.46.26.62c.33.33.91.33,1.24,0,.16-.16.26-.39.26-.62s-.09-.45-.26-.62c-.16-.17-.38-.26-.62-.26Z"/>
    <path class="cls-1" d="m13.88,16.13c-.21,0-.38-.17-.38-.38v-.62c0-.23-.09-.45-.26-.62-.16-.17-.38-.26-.62-.26h-1.25c-.23,0-.45.09-.62.26-.17.17-.26.39-.26.62v.62c0,.21-.17.38-.38.38s-.38-.17-.38-.38v-.62c0-.43.17-.84.48-1.15.31-.31.71-.48,1.15-.48h1.25c.44,0,.84.17,1.15.48.31.31.48.71.48,1.15v.62c0,.21-.17.38-.38.38Z"/>
    <path class="cls-1" d="m17,9.64H7c-.25,0-.45-.2-.45-.45s.2-.45.45-.45h10c.25,0,.45.2.45.45s-.2.45-.45.45Z"/>
    <path class="cls-1" d="m19.5,21H4.5c-.83,0-1.5-.67-1.5-1.5V4.5c0-.83.67-1.5,1.5-1.5h15c.83,0,1.5.67,1.5,1.5v15c0,.83-.67,1.5-1.5,1.5ZM4.5,4.5h0v15h15V4.5H4.5Z"/>
  </g>
</svg>