<svg width="20" height="20" viewBox="0 0 20 20" fill="none" xmlns="http://www.w3.org/2000/svg">
<path fill-rule="evenodd" clip-rule="evenodd" d="M1.5 5.90298C1.5 5.62684 1.72386 5.40298 2 5.40298H10.3056C10.5817 5.40298 10.8056 5.62684 10.8056 5.90298C10.8056 6.17913 10.5817 6.40298 10.3056 6.40298H2C1.72386 6.40298 1.5 6.17913 1.5 5.90298ZM15.4787 6.40298C14.9595 6.40298 14.5387 6.82384 14.5387 7.34298C14.5387 7.86213 14.9595 8.28298 15.4787 8.28298C15.9978 8.28298 16.4187 7.86213 16.4187 7.34298C16.4187 6.82384 15.9978 6.40298 15.4787 6.40298ZM13.5387 7.34298C13.5387 6.27155 14.4072 5.40298 15.4787 5.40298C16.5501 5.40298 17.4187 6.27155 17.4187 7.34298C17.4187 8.41442 16.5501 9.28298 15.4787 9.28298C14.4072 9.28298 13.5387 8.41442 13.5387 7.34298ZM1.5 9.99993C1.5 9.72379 1.72386 9.49993 2 9.49993H10.3056C10.5817 9.49993 10.8056 9.72379 10.8056 9.99993C10.8056 10.2761 10.5817 10.4999 10.3056 10.4999H2C1.72386 10.4999 1.5 10.2761 1.5 9.99993ZM14.6383 12.0756C14.3252 12.0756 14.0248 12.2 13.8034 12.4215C13.5819 12.6429 13.4575 12.9432 13.4575 13.2564V14.0968C13.4575 14.373 13.2337 14.5968 12.9575 14.5968C12.6814 14.5968 12.4575 14.373 12.4575 14.0968V13.2564C12.4575 12.678 12.6873 12.1233 13.0963 11.7144C13.5052 11.3054 14.0599 11.0756 14.6383 11.0756H16.3191C16.8975 11.0756 17.4522 11.3054 17.8612 11.7144C18.2702 12.1233 18.4999 12.678 18.4999 13.2564V14.0968C18.4999 14.373 18.2761 14.5968 17.9999 14.5968C17.7238 14.5968 17.4999 14.373 17.4999 14.0968V13.2564C17.4999 12.9432 17.3755 12.6429 17.1541 12.4215C16.9326 12.2 16.6323 12.0756 16.3191 12.0756H14.6383ZM1.5 14.097C1.5 13.8209 1.72386 13.597 2 13.597H8.03415C8.31029 13.597 8.53415 13.8209 8.53415 14.097C8.53415 14.3731 8.31029 14.597 8.03415 14.597H2C1.72386 14.597 1.5 14.3731 1.5 14.097Z" fill="#BABABA"/>
</svg>
