<svg width="20" height="20" viewBox="0 0 20 20" fill="none" xmlns="http://www.w3.org/2000/svg">
<path fill-rule="evenodd" clip-rule="evenodd" d="M5 2.5C4.33696 2.5 3.70107 2.76339 3.23223 3.23223C2.76339 3.70107 2.5 4.33696 2.5 5V16.7929L5.64645 13.6464C5.74021 13.5527 5.86739 13.5 6 13.5H15C15.663 13.5 16.2989 13.2366 16.7678 12.7678C17.2366 12.2989 17.5 11.663 17.5 11V5C17.5 4.33696 17.2366 3.70107 16.7678 3.23223C16.2989 2.76339 15.663 2.5 15 2.5H5ZM2.52513 2.52513C3.1815 1.86875 4.07174 1.5 5 1.5H15C15.9283 1.5 16.8185 1.86875 17.4749 2.52513C18.1313 3.1815 18.5 4.07174 18.5 5V11C18.5 11.9283 18.1313 12.8185 17.4749 13.4749C16.8185 14.1313 15.9283 14.5 15 14.5H6.20711L2.35355 18.3536C2.21055 18.4966 1.9955 18.5393 1.80866 18.4619C1.62182 18.3846 1.5 18.2022 1.5 18V5C1.5 4.07174 1.86875 3.1815 2.52513 2.52513Z" fill="#BABABA"/>
<path fill-rule="evenodd" clip-rule="evenodd" d="M10 7C10.5523 7 11 7.44772 11 8V8.01C11 8.56229 10.5523 9.01 10 9.01C9.44772 9.01 9 8.56229 9 8.01V8C9 7.44772 9.44772 7 10 7Z" fill="#BABABA"/>
<path fill-rule="evenodd" clip-rule="evenodd" d="M6 7C6.55228 7 7 7.44772 7 8V8.01C7 8.56229 6.55228 9.01 6 9.01C5.44772 9.01 5 8.56229 5 8.01V8C5 7.44772 5.44772 7 6 7Z" fill="#BABABA"/>
<path fill-rule="evenodd" clip-rule="evenodd" d="M14 7C14.5523 7 15 7.44772 15 8V8.01C15 8.56229 14.5523 9.01 14 9.01C13.4477 9.01 13 8.56229 13 8.01V8C13 7.44772 13.4477 7 14 7Z" fill="#BABABA"/>
</svg>
