<?xml version="1.0" encoding="UTF-8"?>
<svg id="Outlines" xmlns="http://www.w3.org/2000/svg" viewBox="0 0 24 24">
  <defs>
    <style>
      .cls-1 {
        fill: #1b1b1b;
        stroke-width: 0px;
      }
    </style>
  </defs>
  <g id="clock-outline">
    <path class="cls-1" d="m12,21.75c-1.29,0-2.54-.25-3.73-.74-1.19-.49-2.25-1.2-3.16-2.11s-1.62-1.97-2.11-3.16c-.49-1.19-.74-2.44-.74-3.73s.25-2.54.74-3.73c.49-1.19,1.2-2.25,2.11-3.16.91-.91,1.97-1.62,3.16-2.11,2.38-.98,5.09-.98,7.46,0,1.19.49,2.25,1.2,3.16,2.11s1.62,1.97,2.11,3.16c.49,1.19.74,2.44.74,3.73s-.25,2.54-.74,3.73c-.49,1.19-1.21,2.26-2.11,3.16-.91.91-1.97,1.62-3.16,2.11-1.19.49-2.45.74-3.73.74Zm0-18c-1.09,0-2.15.21-3.16.63-1.01.42-1.91,1.02-2.68,1.79-.77.77-1.37,1.67-1.79,2.68-.42,1-.63,2.07-.63,3.16s.21,2.15.63,3.16c.42,1.01,1.02,1.91,1.79,2.68s1.67,1.37,2.68,1.79c2.01.83,4.3.83,6.31,0,1.01-.42,1.91-1.02,2.68-1.79.77-.77,1.37-1.67,1.79-2.68.42-1,.63-2.07.63-3.16s-.21-2.15-.63-3.16c-.42-1.01-1.02-1.91-1.79-2.68s-1.67-1.37-2.68-1.79c-1-.42-2.07-.63-3.16-.63Z"/>
    <path class="cls-1" d="m12,18.75c-.89,0-1.76-.17-2.58-.51-.82-.34-1.56-.83-2.19-1.46-.63-.63-1.12-1.36-1.46-2.19-.34-.82-.51-1.69-.51-2.58s.17-1.76.51-2.58c.34-.82.83-1.56,1.46-2.19s1.37-1.12,2.19-1.46c1.65-.68,3.52-.68,5.17,0,.82.34,1.56.83,2.19,1.46.63.63,1.12,1.37,1.46,2.19.34.82.51,1.69.51,2.58s-.17,1.76-.51,2.58c-.34.82-.83,1.56-1.46,2.19s-1.37,1.12-2.19,1.46c-.82.34-1.69.51-2.58.51Zm0-12c-.69,0-1.37.13-2.01.4-.64.26-1.21.65-1.7,1.14s-.87,1.06-1.14,1.7c-.26.64-.4,1.32-.4,2.01s.13,1.37.4,2.01c.27.64.65,1.21,1.14,1.7.49.49,1.06.87,1.7,1.14,1.28.53,2.74.53,4.02,0,.64-.27,1.21-.65,1.7-1.14s.87-1.06,1.14-1.7c.27-.64.4-1.32.4-2.01s-.13-1.37-.4-2.01c-.26-.64-.65-1.21-1.14-1.7s-1.06-.87-1.7-1.14-1.32-.4-2.01-.4Z"/>
    <path class="cls-1" d="m14.14,14.75c-.14,0-.29-.04-.42-.13l-2.14-1.43c-.34-.23-.44-.7-.21-1.04.23-.34.69-.44,1.04-.21l2.14,1.43c.34.23.44.7.21,1.04-.14.22-.38.33-.62.33Z"/>
    <path class="cls-1" d="m12,13.32c-.41,0-.75-.34-.75-.75v-3.57c0-.41.34-.75.75-.75s.75.34.75.75v3.57c0,.41-.34.75-.75.75Z"/>
  </g>
</svg>