<svg width="20" height="20" viewBox="0 0 20 20" fill="none" xmlns="http://www.w3.org/2000/svg">
<path fill-rule="evenodd" clip-rule="evenodd" d="M10 2.5C5.85786 2.5 2.5 5.85786 2.5 10C2.5 14.1421 5.85786 17.5 10 17.5C14.1421 17.5 17.5 14.1421 17.5 10C17.5 5.85786 14.1421 2.5 10 2.5ZM1.5 10C1.5 5.30558 5.30558 1.5 10 1.5C14.6944 1.5 18.5 5.30558 18.5 10C18.5 14.6944 14.6944 18.5 10 18.5C5.30558 18.5 1.5 14.6944 1.5 10ZM10 6.64282C10.2761 6.64282 10.5 6.86668 10.5 7.14282V9.79286L12.3536 11.6465C12.5488 11.8417 12.5488 12.1583 12.3535 12.3536C12.1583 12.5488 11.8417 12.5488 11.6464 12.3535L9.64644 10.3535C9.55268 10.2597 9.5 10.1326 9.5 9.99996V7.14282C9.5 6.86668 9.72386 6.64282 10 6.64282Z" fill="#BABABA"/>
</svg>
