<?xml version="1.0" encoding="UTF-8"?>
<svg id="Outlines" xmlns="http://www.w3.org/2000/svg" viewBox="0 0 24 24">
  <defs>
    <style>
      .cls-1 {
        fill: #1b1b1b;
        stroke-width: 0px;
      }
    </style>
  </defs>
  <g id="caution">
    <path class="cls-1" d="m12,14.17c-.41,0-.75-.34-.75-.75v-4c0-.41.34-.75.75-.75s.75.34.75.75v4c0,.41-.34.75-.75.75Z"/>
    <path class="cls-1" d="m3.89,21.17c-.46,0-.91-.13-1.31-.36-1.27-.73-1.71-2.37-.97-3.64L9.72,3.63s0,0,0,0c.22-.37.53-.68.9-.9.61-.37,1.33-.48,2.02-.31.69.17,1.27.6,1.64,1.21l8.11,13.54c.23.4.36.85.36,1.31.02,1.47-1.17,2.68-2.63,2.69H3.89ZM11.01,4.4h0L2.9,17.93c-.15.26-.19.57-.11.87.08.3.27.55.54.71.17.1.37.15.57.16h16.21c.63,0,1.15-.54,1.14-1.18,0-.2-.06-.4-.16-.57L12.99,4.4c-.16-.26-.41-.45-.72-.52-.3-.08-.61-.03-.88.14-.16.1-.29.23-.39.39Z"/>
    <path class="cls-1" d="m12.01,17.17c-.41,0-.75-.34-.75-.75s.33-.75.75-.75h0c.41,0,.75.34.75.75s-.34.75-.75.75Z"/>
  </g>
</svg>