<?xml version="1.0" encoding="UTF-8"?>
<svg id="Outlines" xmlns="http://www.w3.org/2000/svg" viewBox="0 0 24 24">
  <defs>
    <style>
      .cls-1 {
        fill: #1b1b1b;
        stroke-width: 0px;
      }
    </style>
  </defs>
  <g id="web-service">
    <path class="cls-1" d="m19.5,21H4.5c-.83,0-1.5-.67-1.5-1.5V4.5c0-.83.67-1.5,1.5-1.5h15c.83,0,1.5.67,1.5,1.5v15c0,.83-.67,1.5-1.5,1.5ZM4.5,4.5h0v15h15V4.5H4.5Z"/>
    <path class="cls-1" d="m12,6c-3.31,0-6,2.69-6,6s2.69,6,6,6,6-2.69,6-6-2.69-6-6-6Zm4.88,6c0,.91-.25,1.76-.69,2.48,0-.57-.01-.84-.43-1.08-.18-.11-.31-.16-.43-.22-.24-.11-.4-.18-.61-.5l-.07-.11c-.23-.35-.39-.59-1.01-.49-1.23.19-1.32.41-1.37.77v.06c-.09.53-.11.71.12.94.83.88,1.34,1.51,1.48,1.88.05.11.14.38.16.69-.61.28-1.3.44-2.02.44-2.68,0-4.87-2.19-4.87-4.88,0-1.28.49-2.44,1.3-3.31.1.28.11.56.11.82,0,.22,0,.42.07.57.1.2.5.29.87.37.13.03.26.05.38.09.33.09.59.39.8.63.09.1.21.25.28.28.03-.02.14-.14.19-.33.04-.14.03-.27-.03-.34-.37-.44-.35-1.28-.23-1.58.18-.49.74-.45,1.15-.43.15,0,.3.02.4,0,.41-.05.54-.68.62-.8.11-.16.38-.37.65-.56,1.86.69,3.19,2.48,3.19,4.57v.02Z"/>
  </g>
</svg>