<svg width="20" height="20" viewBox="0 0 20 20" fill="none" xmlns="http://www.w3.org/2000/svg">
<path fill-rule="evenodd" clip-rule="evenodd" d="M10.58 1.51999C10.51 1.49999 10.43 1.48999 10.35 1.50999C10.23 1.50999 10.11 1.50999 9.99 1.50999C9.87 1.50999 9.75 1.50999 9.63 1.50999C9.55 1.49999 9.48 1.50999 9.4 1.51999C4.99 1.81999 1.5 5.49999 1.5 9.99999C1.5 14.5 4.99 18.18 9.42 18.48C9.49 18.5 9.57 18.51 9.65 18.49C9.77 18.49 9.89 18.49 10.01 18.49C10.13 18.49 10.25 18.49 10.37 18.49C10.45 18.5 10.52 18.49 10.6 18.48C15.02 18.18 18.52 14.5 18.52 9.99999C18.52 5.49999 15.01 1.81999 10.58 1.51999ZM16.8 6.82999H12.91C12.61 5.36999 12.09 3.94999 11.38 2.61999C13.79 3.06999 15.79 4.66999 16.8 6.82999ZM12.24 9.99999C12.24 10.73 12.19 11.45 12.08 12.17H7.93C7.82 11.46 7.77 10.73 7.77 9.99999C7.77 9.26999 7.82 8.54999 7.93 7.82999H12.08C12.19 8.53999 12.24 9.26999 12.24 9.99999ZM9.83 2.49999C9.88 2.49999 9.94 2.49999 10 2.49999C10.06 2.49999 10.11 2.49999 10.17 2.49999C10.98 3.84999 11.56 5.30999 11.89 6.82999H8.11C8.45 5.30999 9.03 3.84999 9.83 2.49999ZM8.61 2.62999C7.9 3.94999 7.39 5.36999 7.08 6.83999H3.2C4.21 4.67999 6.21 3.07999 8.61 2.62999ZM2.5 9.99999C2.5 9.24999 2.61 8.51999 2.82 7.82999H6.92C6.82 8.54999 6.77 9.26999 6.77 9.99999C6.77 10.73 6.82 11.45 6.92 12.17H2.82C2.61 11.48 2.5 10.76 2.5 9.99999ZM3.2 13.17H7.09C7.39 14.63 7.91 16.05 8.62 17.38C6.21 16.93 4.21 15.33 3.2 13.17ZM10.17 17.5C10.12 17.5 10.06 17.5 10 17.5C9.94 17.5 9.89 17.5 9.83 17.5C9.02 16.15 8.44 14.69 8.11 13.17H11.89C11.55 14.69 10.97 16.15 10.17 17.5ZM11.39 17.37C12.1 16.05 12.61 14.63 12.92 13.16H16.81C15.8 15.32 13.8 16.92 11.39 17.37ZM13.09 12.16C13.19 11.44 13.24 10.72 13.24 9.98999C13.24 9.25999 13.19 8.53999 13.09 7.81999H17.19C17.4 8.50999 17.51 9.22999 17.51 9.98999C17.51 10.75 17.4 11.47 17.19 12.16H13.09Z" fill="#BABABA"/>
</svg>
