<?xml version="1.0" encoding="UTF-8"?>
<svg id="Outlines" xmlns="http://www.w3.org/2000/svg" viewBox="0 0 24 24">
  <defs>
    <style>
      .cls-1 {
        fill: #1b1b1b;
        stroke-width: 0px;
      }
    </style>
  </defs>
  <g id="wrap-to-subprocess">
    <path class="cls-1" d="m9,9.75h-4c-.41,0-.75-.34-.75-.75s.34-.75.75-.75h3.25v-3.25c0-.41.34-.75.75-.75s.75.34.75.75v4c0,.41-.34.75-.75.75Z"/>
    <path class="cls-1" d="m9,9.75c-.19,0-.38-.07-.53-.22L2.47,3.53c-.29-.29-.29-.77,0-1.06s.77-.29,1.06,0l6,6c.29.29.29.77,0,1.06-.15.15-.34.22-.53.22Z"/>
    <path class="cls-1" d="m9,19.75c-.41,0-.75-.34-.75-.75v-3.25h-3.25c-.41,0-.75-.34-.75-.75s.34-.75.75-.75h4c.41,0,.75.34.75.75v4c0,.41-.34.75-.75.75Z"/>
    <path class="cls-1" d="m3,21.75c-.19,0-.38-.07-.53-.22-.29-.29-.29-.77,0-1.06l6-6c.29-.29.77-.29,1.06,0s.29.77,0,1.06l-6,6c-.15.15-.34.22-.53.22Z"/>
    <path class="cls-1" d="m19,9.75h-4c-.41,0-.75-.34-.75-.75v-4c0-.41.34-.75.75-.75s.75.34.75.75v3.25h3.25c.41,0,.75.34.75.75s-.34.75-.75.75Z"/>
    <path class="cls-1" d="m15,9.75c-.19,0-.38-.07-.53-.22-.29-.29-.29-.77,0-1.06l6-6c.29-.29.77-.29,1.06,0s.29.77,0,1.06l-6,6c-.15.15-.34.22-.53.22Z"/>
    <path class="cls-1" d="m15,19.75c-.41,0-.75-.34-.75-.75v-4c0-.41.34-.75.75-.75h4c.41,0,.75.34.75.75s-.34.75-.75.75h-3.25v3.25c0,.41-.34.75-.75.75Z"/>
    <path class="cls-1" d="m21,21.75c-.19,0-.38-.07-.53-.22l-6-6c-.29-.29-.29-.77,0-1.06s.77-.29,1.06,0l6,6c.29.29.29.77,0,1.06-.15.15-.34.22-.53.22Z"/>
  </g>
</svg>