<svg width="20" height="20" viewBox="0 0 20 20" fill="none" xmlns="http://www.w3.org/2000/svg">
<path d="M10 1.5C5.31 1.5 1.5 5.31 1.5 10C1.5 14.69 5.31 18.5 10 18.5C14.69 18.5 18.5 14.69 18.5 10C18.5 5.31 14.69 1.5 10 1.5ZM10 17.5C5.86 17.5 2.5 14.14 2.5 10C2.5 5.86 5.86 2.5 10 2.5C14.14 2.5 17.5 5.86 17.5 10C17.5 14.14 14.14 17.5 10 17.5Z" fill="#BABABA"/>
<path d="M10.46 3.52C10.4 3.5 10.33 3.5 10.26 3.51C10.17 3.51 10.09 3.51 10 3.51C9.91 3.51 9.83 3.51 9.74 3.51C9.67 3.51 9.61 3.51 9.54 3.52C6.16 3.76 3.5 6.57 3.5 10C3.5 13.43 6.17 16.25 9.54 16.48C9.6 16.5 9.67 16.5 9.74 16.49C9.83 16.49 9.91 16.49 10 16.49C10.09 16.49 10.17 16.49 10.26 16.49C10.33 16.49 10.39 16.49 10.46 16.48C13.84 16.24 16.5 13.43 16.5 10C16.5 6.57 13.83 3.75 10.46 3.52ZM14.9 7.5H12.28C12.07 6.51 11.73 5.55 11.27 4.65C12.85 5.03 14.17 6.09 14.9 7.5ZM11.55 10C11.55 10.5 11.51 11 11.45 11.5H8.55C8.48 11 8.45 10.5 8.45 10C8.45 9.5 8.49 9 8.55 8.5H11.45C11.52 9 11.55 9.5 11.55 10ZM9.95 4.5C9.95 4.5 9.98 4.5 10 4.5C10.02 4.5 10.03 4.5 10.05 4.5C10.6 5.44 11.01 6.45 11.26 7.5H8.74C8.99 6.45 9.4 5.44 9.95 4.5ZM8.73 4.65C8.27 5.56 7.93 6.51 7.72 7.5H5.1C5.82 6.08 7.14 5.02 8.73 4.65ZM4.5 10C4.5 9.48 4.57 8.98 4.71 8.5H7.55C7.49 9 7.45 9.5 7.45 10C7.45 10.5 7.48 11 7.55 11.5H4.71C4.58 11.02 4.5 10.52 4.5 10ZM5.1 12.5H7.72C7.93 13.49 8.27 14.45 8.73 15.35C7.15 14.97 5.83 13.91 5.1 12.5ZM10.05 15.5C10.05 15.5 10.02 15.5 10 15.5C9.98 15.5 9.97 15.5 9.95 15.5C9.4 14.56 8.99 13.55 8.74 12.5H11.26C11.01 13.55 10.6 14.56 10.05 15.5ZM11.27 15.35C11.73 14.44 12.07 13.49 12.28 12.5H14.9C14.18 13.92 12.86 14.98 11.27 15.35ZM12.45 11.5C12.51 11 12.55 10.5 12.55 10C12.55 9.5 12.52 9 12.45 8.5H15.29C15.42 8.98 15.5 9.48 15.5 10C15.5 10.52 15.43 11.02 15.29 11.5H12.45Z" fill="#BABABA"/>
</svg>
