<svg width="20" height="20" viewBox="0 0 20 20" fill="none" xmlns="http://www.w3.org/2000/svg">
<path fill-rule="evenodd" clip-rule="evenodd" d="M10.58 1.52C10.51 1.5 10.43 1.49 10.35 1.51C10.23 1.51 10.11 1.51 9.99 1.51C9.87 1.51 9.75 1.51 9.63 1.51C9.55 1.5 9.48 1.51 9.4 1.52C4.99 1.82 1.5 5.5 1.5 10C1.5 14.5 4.99 18.18 9.42 18.48C9.49 18.5 9.57 18.51 9.65 18.49C9.77 18.49 9.89 18.49 10.01 18.49C10.13 18.49 10.25 18.49 10.37 18.49C10.45 18.5 10.52 18.49 10.6 18.48C15.02 18.18 18.52 14.5 18.52 10C18.52 5.5 15.01 1.82 10.58 1.52ZM16.8 6.83H12.91C12.61 5.37 12.09 3.95 11.38 2.62C13.79 3.07 15.79 4.67 16.8 6.83ZM12.24 10C12.24 10.73 12.19 11.45 12.08 12.17H7.93C7.82 11.46 7.77 10.73 7.77 10C7.77 9.27 7.82 8.55 7.93 7.83H12.08C12.19 8.54 12.24 9.27 12.24 10ZM9.83 2.5C9.88 2.5 9.94 2.5 10 2.5C10.06 2.5 10.11 2.5 10.17 2.5C10.98 3.85 11.56 5.31 11.89 6.83H8.11C8.45 5.31 9.03 3.85 9.83 2.5ZM8.61 2.63C7.9 3.95 7.39 5.37 7.08 6.84H3.2C4.21 4.68 6.21 3.08 8.61 2.63ZM2.5 10C2.5 9.25 2.61 8.52 2.82 7.83H6.92C6.82 8.55 6.77 9.27 6.77 10C6.77 10.73 6.82 11.45 6.92 12.17H2.82C2.61 11.48 2.5 10.76 2.5 10ZM3.2 13.17H7.09C7.39 14.63 7.91 16.05 8.62 17.38C6.21 16.93 4.21 15.33 3.2 13.17ZM10.17 17.5C10.12 17.5 10.06 17.5 10 17.5C9.94 17.5 9.89 17.5 9.83 17.5C9.02 16.15 8.44 14.69 8.11 13.17H11.89C11.55 14.69 10.97 16.15 10.17 17.5ZM11.39 17.37C12.1 16.05 12.61 14.63 12.92 13.16H16.81C15.8 15.32 13.8 16.92 11.39 17.37ZM13.09 12.16C13.19 11.44 13.24 10.72 13.24 9.99C13.24 9.26 13.19 8.54 13.09 7.82H17.19C17.4 8.51 17.51 9.23 17.51 9.99C17.51 10.75 17.4 11.47 17.19 12.16H13.09Z" fill="#BABABA"/>
</svg>
