<svg width="20" height="20" viewBox="0 0 20 20" fill="none" xmlns="http://www.w3.org/2000/svg">
<path fill-rule="evenodd" clip-rule="evenodd" d="M10 2.5C5.85786 2.5 2.5 5.85786 2.5 10C2.5 14.1421 5.85786 17.5 10 17.5C14.1421 17.5 17.5 14.1421 17.5 10C17.5 5.85786 14.1421 2.5 10 2.5ZM1.5 10C1.5 5.30558 5.30558 1.5 10 1.5C14.6944 1.5 18.5 5.30558 18.5 10C18.5 14.6944 14.6944 18.5 10 18.5C5.30558 18.5 1.5 14.6944 1.5 10ZM10.4585 3.51592C10.3945 3.49938 10.3273 3.49547 10.2609 3.50514C10.1744 3.50172 10.0874 3.5 10 3.5C9.9126 3.5 9.82561 3.50172 9.73905 3.50514C9.67271 3.49547 9.60549 3.49938 9.54147 3.51592C6.16558 3.75119 3.5 6.5643 3.5 10C3.5 13.4357 6.16558 16.2488 9.54147 16.4841C9.60549 16.5006 9.67271 16.5045 9.73905 16.4949C9.82561 16.4983 9.9126 16.5 10 16.5C10.0874 16.5 10.1744 16.4983 10.2609 16.4949C10.3273 16.5045 10.3945 16.5006 10.4585 16.4841C13.8344 16.2488 16.5 13.4357 16.5 10C16.5 6.56429 13.8344 3.75117 10.4585 3.51592ZM9.94798 4.50024C9.9653 4.50008 9.98264 4.5 10 4.5C10.0174 4.5 10.0347 4.50008 10.052 4.50024C10.6044 5.43774 11.0103 6.44937 11.2595 7.50001H8.74052C8.98971 6.44937 9.39555 5.43774 9.94798 4.50024ZM8.72763 4.64791C7.14298 5.02322 5.82352 6.08408 5.0997 7.50001H7.71521C7.9288 6.51186 8.26858 5.55312 8.72763 4.64791ZM7.54357 8.50001H4.70703C4.57217 8.97684 4.5 9.47999 4.5 10C4.5 10.52 4.57217 11.0232 4.70703 11.5H7.54357C7.48021 11.0042 7.44812 10.5033 7.44812 10C7.44812 9.49674 7.48021 8.99578 7.54357 8.50001ZM7.71522 12.5H5.09971C5.82353 13.9159 7.14299 14.9768 8.72763 15.3521C8.26858 14.4469 7.92881 13.4882 7.71522 12.5ZM9.94798 15.4998C9.39555 14.5623 8.98971 13.5506 8.74053 12.5H11.2594C11.0103 13.5506 10.6044 14.5623 10.052 15.4998C10.0347 15.4999 10.0174 15.5 10 15.5C9.98264 15.5 9.9653 15.4999 9.94798 15.4998ZM11.2723 15.3521C12.857 14.9768 14.1765 13.9159 14.9003 12.5H12.2848C12.0712 13.4882 11.7314 14.4469 11.2723 15.3521ZM12.4564 11.5H15.293C15.4278 11.0232 15.5 10.52 15.5 10C15.5 9.47999 15.4278 8.97684 15.293 8.50001H12.4564C12.5198 8.99578 12.5519 9.49674 12.5519 10C12.5519 10.5033 12.5198 11.0042 12.4564 11.5ZM11.4475 8.50001H8.55246C8.48323 8.99519 8.44812 9.49634 8.44812 10C8.44812 10.5037 8.48323 11.0048 8.55246 11.5H11.4475C11.5167 11.0048 11.5519 10.5037 11.5519 10C11.5519 9.49634 11.5167 8.99519 11.4475 8.50001ZM12.2848 7.50001C12.0712 6.51186 11.7314 5.55311 11.2723 4.64791C12.857 5.02321 14.1765 6.08407 14.9003 7.50001H12.2848Z" fill="#BABABA"/>
</svg>
