<svg width="21" height="20" viewBox="0 0 21 20" fill="none" xmlns="http://www.w3.org/2000/svg">
<path d="M10.5 1.25C5.68 1.25 1.75 5.18 1.75 10C1.75 14.82 5.68 18.75 10.5 18.75C15.32 18.75 19.25 14.83 19.25 10C19.25 5.17 15.33 1.25 10.5 1.25ZM10.5 17.25C10.5 17.25 10.5 17.25 10.49 17.25C9.79 16.05 9.27 14.76 8.94 13.42H12.07C11.74 14.76 11.22 16.05 10.52 17.25C10.52 17.25 10.52 17.25 10.51 17.25H10.5ZM8.65 11.92C8.56 11.29 8.52 10.65 8.52 10C8.52 9.35 8.57 8.72 8.65 8.08H12.36C12.45 8.71 12.49 9.35 12.49 10C12.49 10.65 12.44 11.28 12.36 11.92H8.65ZM3.25 10C3.25 9.34 3.35 8.7 3.52 8.08H7.14C7.06 8.71 7.02 9.35 7.02 10C7.02 10.65 7.07 11.28 7.14 11.92H3.52C3.35 11.31 3.25 10.67 3.25 10ZM10.5 2.75C10.5 2.75 10.5 2.75 10.51 2.75C11.21 3.95 11.73 5.24 12.06 6.58H8.93C9.26 5.24 9.78 3.95 10.48 2.75C10.48 2.75 10.48 2.75 10.49 2.75H10.5ZM13.86 8.08H17.48C17.65 8.69 17.75 9.33 17.75 10C17.75 10.67 17.65 11.31 17.48 11.92H13.86C13.94 11.29 13.98 10.65 13.98 10C13.98 9.35 13.93 8.72 13.86 8.08ZM13.61 6.58C13.34 5.34 12.91 4.14 12.35 2.99C14.31 3.51 15.96 4.82 16.9 6.58H13.61ZM8.65 3C8.09 4.14 7.66 5.35 7.39 6.59H4.11C5.05 4.84 6.69 3.52 8.66 3H8.65ZM4.11 13.42H7.39C7.66 14.66 8.09 15.86 8.65 17.01C6.69 16.49 5.05 15.18 4.11 13.42ZM12.35 17.01C12.91 15.87 13.34 14.66 13.61 13.42H16.89C15.95 15.17 14.31 16.49 12.35 17.01Z" fill="#BABABA"/>
</svg>
