<?xml version="1.0" encoding="UTF-8"?>
<svg id="Outlines" xmlns="http://www.w3.org/2000/svg" viewBox="0 0 24 24">
  <defs>
    <style>
      .cls-1 {
        fill: #1b1b1b;
        stroke-width: 0px;
      }
    </style>
  </defs>
  <g id="ws-start-outline">
    <path class="cls-1" d="m12,6c-3.31,0-6,2.69-6,6s2.69,6,6,6,6-2.69,6-6-2.69-6-6-6Zm4.88,6c0,.91-.25,1.76-.69,2.48,0-.57-.01-.84-.43-1.08-.18-.11-.31-.16-.43-.22-.24-.11-.4-.18-.61-.5l-.07-.11c-.23-.35-.39-.59-1.01-.49-1.23.19-1.32.41-1.37.77v.06c-.09.53-.11.71.12.94.83.88,1.34,1.51,1.48,1.88.05.11.14.38.16.69-.61.28-1.3.44-2.02.44-2.68,0-4.87-2.19-4.87-4.88,0-1.28.49-2.44,1.3-3.31.1.28.11.56.11.82,0,.22,0,.42.07.57.1.2.5.29.87.37.13.03.26.05.38.09.33.09.59.39.8.63.09.1.21.25.28.28.03-.02.14-.14.19-.33.04-.14.03-.27-.03-.34-.37-.44-.35-1.28-.23-1.58.18-.49.74-.45,1.15-.43.15,0,.3.02.4,0,.41-.05.54-.68.62-.8.11-.16.38-.37.65-.56,1.86.69,3.19,2.48,3.19,4.57v.02Z"/>
    <path class="cls-1" d="m12,21.6c-1.27,0-2.5-.25-3.67-.73-1.17-.49-2.22-1.19-3.11-2.08-.89-.89-1.59-1.94-2.08-3.11-.48-1.17-.73-2.41-.73-3.67s.25-2.5.73-3.67c.49-1.17,1.19-2.22,2.08-3.11.9-.9,1.94-1.6,3.11-2.08,2.34-.97,5.01-.97,7.35,0,1.17.49,2.22,1.19,3.11,2.08.9.9,1.6,1.94,2.08,3.11.48,1.17.73,2.41.73,3.67s-.25,2.5-.73,3.67c-.48,1.17-1.18,2.22-2.08,3.11-.9.9-1.94,1.6-3.11,2.08-1.17.49-2.41.73-3.67.73Zm0-18c-1.11,0-2.19.22-3.21.64-1.02.42-1.94,1.04-2.73,1.82-.78.78-1.4,1.7-1.82,2.73-.42,1.02-.64,2.1-.64,3.21s.22,2.19.64,3.21c.42,1.03,1.04,1.94,1.82,2.72.79.79,1.7,1.4,2.73,1.82,2.05.85,4.38.85,6.43,0,1.02-.42,1.94-1.04,2.73-1.82.78-.78,1.4-1.7,1.82-2.73.42-1.03.64-2.11.64-3.21s-.22-2.19-.64-3.21c-.42-1.02-1.04-1.94-1.82-2.73-.78-.78-1.7-1.4-2.72-1.82s-2.11-.64-3.21-.64Z"/>
  </g>
</svg>